<?xml version="1.0" encoding="utf-8"?>
<!-- Generator: Adobe Illustrator 23.0.2, SVG Export Plug-In . SVG Version: 6.00 Build 0)  -->
<svg version="1.1" id="Capa_1" xmlns="http://www.w3.org/2000/svg" xmlns:xlink="http://www.w3.org/1999/xlink" x="0px" y="0px"
	 viewBox="0 0 25 24.998" style="enable-background:new 0 0 25 24.998;" xml:space="preserve">
<style type="text/css">
	.st0{fill:#F5F5F5;}
	.st1{fill:#EAB244;}
	.st2{fill:none;stroke:#EAB244;stroke-miterlimit:10;}
	.st3{fill:#EDEDED;}
	.st4{fill:#343434;}
	.st5{fill:#FFFFFF;}
	.st6{fill:#FAFAFA;}
	.st7{fill:none;stroke:#00ABFF;stroke-width:4.817;stroke-miterlimit:10;}
	.st8{fill:none;stroke:#EAB244;stroke-width:0.8936;stroke-miterlimit:10;}
	.st9{fill:#313131;}
	.st10{fill:url(#);}
	.st11{fill:#00B1FB;}
	.st12{fill:none;stroke:#F5F5F5;}
	.st13{fill:#3E3E3E;}
	.st14{fill:#F9F9F9;}
	.st15{fill:#FF0046;}
	.st16{fill:none;stroke:#343434;stroke-width:0.6725;stroke-linecap:round;stroke-linejoin:round;stroke-miterlimit:10;}
	.st17{fill:none;stroke:#343434;stroke-width:0.6456;stroke-linecap:round;stroke-miterlimit:10;}
	.st18{fill:none;stroke:#343434;stroke-width:0.6456;stroke-linecap:round;stroke-linejoin:round;stroke-miterlimit:10;}
	.st19{fill:none;stroke:#FFFFFF;stroke-width:0.6675;stroke-linecap:round;stroke-miterlimit:10;}
	.st20{fill:none;stroke:#FFFFFF;stroke-width:0.6675;stroke-linecap:round;stroke-linejoin:round;stroke-miterlimit:10;}
	.st21{fill:none;stroke:#FFFFFF;stroke-width:0.6953;stroke-linecap:round;stroke-linejoin:round;stroke-miterlimit:10;}
	.st22{fill:none;stroke:#FFFFFF;stroke-width:1.0653;stroke-linecap:round;stroke-linejoin:round;stroke-miterlimit:10;}
	.st23{fill:none;stroke:#FFFFFF;stroke-width:1.0227;stroke-linecap:round;stroke-miterlimit:10;}
	.st24{fill:none;stroke:#FFFFFF;stroke-width:1.0227;stroke-linecap:round;stroke-linejoin:round;stroke-miterlimit:10;}
	.st25{fill:none;stroke:#FFFFFF;stroke-linecap:round;stroke-miterlimit:10;}
	.st26{fill:none;stroke:#FFFFFF;stroke-width:0.6563;stroke-linecap:round;stroke-miterlimit:10;}
	.st27{fill:none;stroke:#FFFFFF;stroke-width:0.6712;stroke-linecap:round;stroke-miterlimit:10;}
	.st28{fill:none;stroke:#343434;stroke-width:0.6563;stroke-linecap:round;stroke-miterlimit:10;}
	.st29{fill:none;stroke:#343434;stroke-width:0.6712;stroke-linecap:round;stroke-miterlimit:10;}
	.st30{fill:none;stroke:#343434;stroke-width:0.9375;stroke-linecap:round;stroke-linejoin:round;stroke-miterlimit:10;}
	.st31{fill:none;stroke:#343434;stroke-width:0.9;stroke-linecap:round;stroke-miterlimit:10;}
	.st32{fill:none;stroke:#FFFFFF;stroke-width:0.9375;stroke-linecap:round;stroke-linejoin:round;stroke-miterlimit:10;}
	.st33{fill:none;stroke:#FFFFFF;stroke-width:0.9;stroke-linecap:round;stroke-miterlimit:10;}
	.st34{fill:none;stroke:#FFFFFF;stroke-width:0.9;stroke-linecap:round;stroke-linejoin:round;stroke-miterlimit:10;}
	.st35{fill:none;stroke:#343434;stroke-width:0.9;stroke-linecap:round;stroke-linejoin:round;stroke-miterlimit:10;}
	.st36{fill:none;stroke:#FFFFFF;stroke-width:1.05;stroke-linecap:round;stroke-miterlimit:10;}
	.st37{fill:none;stroke:#343434;stroke-width:1.05;stroke-linecap:round;stroke-miterlimit:10;}
</style>
<g>
	<path class="st4" d="M12.5,22.704c-5.627,0-10.206-4.578-10.206-10.205c0-5.628,4.578-10.206,10.206-10.206
		s10.206,4.578,10.206,10.206C22.706,18.126,18.127,22.704,12.5,22.704z M12.5,3.194c-5.131,0-9.305,4.175-9.305,9.306
		s4.174,9.305,9.305,9.305s9.305-4.174,9.305-9.305S17.631,3.194,12.5,3.194z"/>
	<path class="st4" d="M7.495,16.167c-0.062,0-0.125-0.013-0.185-0.04c-0.193-0.087-0.299-0.296-0.256-0.503
		c0.725-3.458,2.792-5.58,5.99-6.16V7.717c0-0.179,0.106-0.341,0.271-0.413c0.164-0.068,0.355-0.038,0.486,0.084l4,3.73
		c0.091,0.085,0.143,0.204,0.143,0.329c0,0.124-0.052,0.243-0.143,0.329l-4,3.74c-0.131,0.122-0.323,0.153-0.486,0.084
		c-0.165-0.071-0.271-0.233-0.271-0.413v-1.732c-2.375,0.084-3.943,0.854-5.188,2.53C7.769,16.103,7.633,16.167,7.495,16.167z
		 M13.495,12.547c0.249,0,0.45,0.202,0.45,0.45v1.153l2.891-2.703l-2.891-2.695v1.096c0,0.225-0.166,0.415-0.388,0.445
		c-2.443,0.34-4.142,1.596-5.071,3.744C9.78,13.017,11.389,12.547,13.495,12.547z"/>
</g>
</svg>
