<?xml version="1.0" encoding="utf-8"?>
<!-- Generator: Adobe Illustrator 23.0.2, SVG Export Plug-In . SVG Version: 6.00 Build 0)  -->
<svg version="1.1" id="Capa_1" xmlns="http://www.w3.org/2000/svg" xmlns:xlink="http://www.w3.org/1999/xlink" x="0px" y="0px"
	 viewBox="0 0 25 24.998" style="enable-background:new 0 0 25 24.998;" xml:space="preserve">
<style type="text/css">
	.st0{fill:#F5F5F5;}
	.st1{fill:#EAB244;}
	.st2{fill:none;stroke:#EAB244;stroke-miterlimit:10;}
	.st3{fill:#EDEDED;}
	.st4{fill:#343434;}
	.st5{fill:#FFFFFF;}
	.st6{fill:#FAFAFA;}
	.st7{fill:none;stroke:#00ABFF;stroke-width:4.817;stroke-miterlimit:10;}
	.st8{fill:none;stroke:#EAB244;stroke-width:0.8936;stroke-miterlimit:10;}
	.st9{fill:#313131;}
	.st10{fill:url(#);}
	.st11{fill:#00B1FB;}
	.st12{fill:none;stroke:#F5F5F5;}
	.st13{fill:#3E3E3E;}
	.st14{fill:#F9F9F9;}
	.st15{fill:#FF0046;}
	.st16{fill:none;stroke:#343434;stroke-width:0.6725;stroke-linecap:round;stroke-linejoin:round;stroke-miterlimit:10;}
	.st17{fill:none;stroke:#343434;stroke-width:0.6456;stroke-linecap:round;stroke-miterlimit:10;}
	.st18{fill:none;stroke:#343434;stroke-width:0.6456;stroke-linecap:round;stroke-linejoin:round;stroke-miterlimit:10;}
	.st19{fill:none;stroke:#FFFFFF;stroke-width:0.6675;stroke-linecap:round;stroke-miterlimit:10;}
	.st20{fill:none;stroke:#FFFFFF;stroke-width:0.6675;stroke-linecap:round;stroke-linejoin:round;stroke-miterlimit:10;}
	.st21{fill:none;stroke:#FFFFFF;stroke-width:0.6953;stroke-linecap:round;stroke-linejoin:round;stroke-miterlimit:10;}
	.st22{fill:none;stroke:#FFFFFF;stroke-width:1.0653;stroke-linecap:round;stroke-linejoin:round;stroke-miterlimit:10;}
	.st23{fill:none;stroke:#FFFFFF;stroke-width:1.0227;stroke-linecap:round;stroke-miterlimit:10;}
	.st24{fill:none;stroke:#FFFFFF;stroke-width:1.0227;stroke-linecap:round;stroke-linejoin:round;stroke-miterlimit:10;}
	.st25{fill:none;stroke:#FFFFFF;stroke-linecap:round;stroke-miterlimit:10;}
	.st26{fill:none;stroke:#FFFFFF;stroke-width:0.6563;stroke-linecap:round;stroke-miterlimit:10;}
	.st27{fill:none;stroke:#FFFFFF;stroke-width:0.6712;stroke-linecap:round;stroke-miterlimit:10;}
	.st28{fill:none;stroke:#343434;stroke-width:0.6563;stroke-linecap:round;stroke-miterlimit:10;}
	.st29{fill:none;stroke:#343434;stroke-width:0.6712;stroke-linecap:round;stroke-miterlimit:10;}
	.st30{fill:none;stroke:#343434;stroke-width:0.9375;stroke-linecap:round;stroke-linejoin:round;stroke-miterlimit:10;}
	.st31{fill:none;stroke:#343434;stroke-width:0.9;stroke-linecap:round;stroke-miterlimit:10;}
	.st32{fill:none;stroke:#FFFFFF;stroke-width:0.9375;stroke-linecap:round;stroke-linejoin:round;stroke-miterlimit:10;}
	.st33{fill:none;stroke:#FFFFFF;stroke-width:0.9;stroke-linecap:round;stroke-miterlimit:10;}
	.st34{fill:none;stroke:#FFFFFF;stroke-width:0.9;stroke-linecap:round;stroke-linejoin:round;stroke-miterlimit:10;}
	.st35{fill:none;stroke:#343434;stroke-width:0.9;stroke-linecap:round;stroke-linejoin:round;stroke-miterlimit:10;}
	.st36{fill:none;stroke:#FFFFFF;stroke-width:1.05;stroke-linecap:round;stroke-miterlimit:10;}
	.st37{fill:none;stroke:#343434;stroke-width:1.05;stroke-linecap:round;stroke-miterlimit:10;}
</style>
<g>
	<g id="menu_AirTime_2_" transform="translate(0 -1)">
		<path id="Pfad_936_2_" class="st4" d="M3.662,4.659C8.544-0.222,16.458-0.221,21.339,4.66s4.881,12.796-0.001,17.678
			S8.542,27.219,3.661,22.337C1.317,19.993,0,16.813,0,13.498C-0.009,10.181,1.309,6.998,3.662,4.659z"/>
	</g>
	<path class="st5" d="M22.438,14.448c-0.111,0.111-0.283,0.111-0.393,0l-1.545-1.551c-0.172-0.172-0.05-0.471,0.199-0.471h0.991
		c0,0,0,0,0,0h1.108c0,0,0,0,0,0h0.991c0.249,0,0.371,0.299,0.194,0.471L22.438,14.448z"/>
	<path class="st5" d="M12.5,22.754c-5.654,0-10.255-4.601-10.255-10.255S6.846,2.244,12.5,2.244s10.255,4.601,10.255,10.255
		c0,0.248-0.202,0.45-0.45,0.45s-0.45-0.202-0.45-0.45c0-5.158-4.196-9.354-9.354-9.354S3.145,7.34,3.145,12.499
		s4.196,9.354,9.354,9.354c2.82,0,5.463-1.254,7.249-3.44c0.157-0.194,0.442-0.222,0.633-0.064c0.193,0.157,0.222,0.44,0.064,0.633
		C18.488,21.379,15.592,22.754,12.5,22.754z"/>
	<path class="st6" d="M13.879,11.518l-2.419,2.62l-0.405-0.61c-0.115-0.174-0.349-0.221-0.523-0.106
		c-0.174,0.115-0.221,0.35-0.106,0.523l0.671,1.01c0.064,0.096,0.169,0.158,0.284,0.167c0.01,0.001,0.02,0.001,0.03,0.001
		c0.105,0,0.206-0.044,0.277-0.121l2.745-2.973c0.141-0.153,0.132-0.392-0.021-0.533C14.259,11.355,14.02,11.365,13.879,11.518z
		 M15.937,9.742h-0.59c-0.264-1.649-1.455-2.856-2.907-2.856S9.796,8.092,9.532,9.742H8.959c-0.639,0-1.159,0.52-1.159,1.159v4.9
		c0,0.639,0.52,1.159,1.159,1.159h6.978c0.639,0,1.16-0.52,1.16-1.159v-4.9C17.097,10.262,16.577,9.742,15.937,9.742z M12.44,7.716
		c0.983,0,1.831,0.862,2.071,2.026h-4.142C10.608,8.578,11.457,7.716,12.44,7.716z M16.294,15.801c0,0.197-0.16,0.356-0.357,0.356
		H8.959c-0.197,0-0.357-0.159-0.357-0.356v-4.9c0-0.197,0.16-0.357,0.357-0.357h6.978c0.197,0,0.357,0.16,0.357,0.357V15.801z"/>
</g>
</svg>
