<?xml version="1.0" encoding="utf-8"?>
<!-- Generator: Adobe Illustrator 23.0.2, SVG Export Plug-In . SVG Version: 6.00 Build 0)  -->
<svg version="1.1" id="Capa_1" xmlns="http://www.w3.org/2000/svg" xmlns:xlink="http://www.w3.org/1999/xlink" x="0px" y="0px"
	 viewBox="0 0 25 24.998" style="enable-background:new 0 0 25 24.998;" xml:space="preserve">
<style type="text/css">
	.st0{fill:#F5F5F5;}
	.st1{fill:#EAB244;}
	.st2{fill:none;stroke:#EAB244;stroke-miterlimit:10;}
	.st3{fill:#EDEDED;}
	.st4{fill:#343434;}
	.st5{fill:#FFFFFF;}
	.st6{fill:#FAFAFA;}
	.st7{fill:none;stroke:#00ABFF;stroke-width:4.817;stroke-miterlimit:10;}
	.st8{fill:none;stroke:#EAB244;stroke-width:0.8936;stroke-miterlimit:10;}
	.st9{fill:#313131;}
	.st10{fill:url(#);}
	.st11{fill:#00B1FB;}
	.st12{fill:none;stroke:#F5F5F5;}
	.st13{fill:#3E3E3E;}
	.st14{fill:#F9F9F9;}
	.st15{fill:#FF0046;}
	.st16{fill:none;stroke:#343434;stroke-width:0.6725;stroke-linecap:round;stroke-linejoin:round;stroke-miterlimit:10;}
	.st17{fill:none;stroke:#343434;stroke-width:0.6456;stroke-linecap:round;stroke-miterlimit:10;}
	.st18{fill:none;stroke:#343434;stroke-width:0.6456;stroke-linecap:round;stroke-linejoin:round;stroke-miterlimit:10;}
	.st19{fill:none;stroke:#FFFFFF;stroke-width:0.6675;stroke-linecap:round;stroke-miterlimit:10;}
	.st20{fill:none;stroke:#FFFFFF;stroke-width:0.6675;stroke-linecap:round;stroke-linejoin:round;stroke-miterlimit:10;}
	.st21{fill:none;stroke:#FFFFFF;stroke-width:0.6953;stroke-linecap:round;stroke-linejoin:round;stroke-miterlimit:10;}
	.st22{fill:none;stroke:#FFFFFF;stroke-width:1.0653;stroke-linecap:round;stroke-linejoin:round;stroke-miterlimit:10;}
	.st23{fill:none;stroke:#FFFFFF;stroke-width:1.0227;stroke-linecap:round;stroke-miterlimit:10;}
	.st24{fill:none;stroke:#FFFFFF;stroke-width:1.0227;stroke-linecap:round;stroke-linejoin:round;stroke-miterlimit:10;}
	.st25{fill:none;stroke:#FFFFFF;stroke-linecap:round;stroke-miterlimit:10;}
	.st26{fill:none;stroke:#FFFFFF;stroke-width:0.6563;stroke-linecap:round;stroke-miterlimit:10;}
	.st27{fill:none;stroke:#FFFFFF;stroke-width:0.6712;stroke-linecap:round;stroke-miterlimit:10;}
	.st28{fill:none;stroke:#343434;stroke-width:0.6563;stroke-linecap:round;stroke-miterlimit:10;}
	.st29{fill:none;stroke:#343434;stroke-width:0.6712;stroke-linecap:round;stroke-miterlimit:10;}
	.st30{fill:none;stroke:#343434;stroke-width:0.9375;stroke-linecap:round;stroke-linejoin:round;stroke-miterlimit:10;}
	.st31{fill:none;stroke:#343434;stroke-width:0.9;stroke-linecap:round;stroke-miterlimit:10;}
	.st32{fill:none;stroke:#FFFFFF;stroke-width:0.9375;stroke-linecap:round;stroke-linejoin:round;stroke-miterlimit:10;}
	.st33{fill:none;stroke:#FFFFFF;stroke-width:0.9;stroke-linecap:round;stroke-miterlimit:10;}
	.st34{fill:none;stroke:#FFFFFF;stroke-width:0.9;stroke-linecap:round;stroke-linejoin:round;stroke-miterlimit:10;}
	.st35{fill:none;stroke:#343434;stroke-width:0.9;stroke-linecap:round;stroke-linejoin:round;stroke-miterlimit:10;}
	.st36{fill:none;stroke:#FFFFFF;stroke-width:1.05;stroke-linecap:round;stroke-miterlimit:10;}
	.st37{fill:none;stroke:#343434;stroke-width:1.05;stroke-linecap:round;stroke-miterlimit:10;}
</style>
<g>
	<path class="st4" d="M17.968,17.122c-0.111,0-0.222-0.039-0.311-0.118l-4.802-4.258c-0.1-0.089-0.158-0.217-0.158-0.351V7.653
		c0-0.259,0.21-0.469,0.469-0.469s0.469,0.21,0.469,0.469v4.531l4.645,4.118c0.194,0.172,0.211,0.468,0.04,0.661
		C18.226,17.068,18.097,17.122,17.968,17.122z"/>
	<path class="st4" d="M3.218,14.448c0.111,0.111,0.283,0.111,0.393,0l1.545-1.551c0.172-0.172,0.05-0.471-0.199-0.471H3.966
		c0,0,0,0,0,0H2.858c0,0,0,0,0,0H1.866c-0.249,0-0.371,0.299-0.194,0.471L3.218,14.448z"/>
	<path class="st4" d="M13.156,22.754c-3.092,0-5.988-1.375-7.946-3.772c-0.157-0.192-0.128-0.476,0.064-0.633
		c0.193-0.157,0.477-0.129,0.633,0.064c1.786,2.187,4.428,3.44,7.249,3.44c5.159,0,9.355-4.196,9.355-9.354
		s-4.196-9.354-9.355-9.354s-9.355,4.196-9.355,9.354c0,0.248-0.202,0.45-0.45,0.45s-0.45-0.202-0.45-0.45
		c0-5.654,4.601-10.255,10.255-10.255s10.255,4.601,10.255,10.255S18.811,22.754,13.156,22.754z"/>
</g>
</svg>
