<?xml version="1.0"?>
<svg xmlns="http://www.w3.org/2000/svg" xmlns:xlink="http://www.w3.org/1999/xlink" version="1.1" id="Capa_1" x="0px" y="0px" viewBox="0 0 31.059 31.059" style="enable-background:new 0 0 31.059 31.059;" xml:space="preserve" width="512px" height="512px" class=""><g><g>
	<g>
		<path d="M30.171,16.416H0.888C0.398,16.416,0,16.02,0,15.529c0-0.49,0.398-0.888,0.888-0.888h29.283    c0.49,0,0.888,0.398,0.888,0.888C31.059,16.02,30.661,16.416,30.171,16.416z" data-original="#010002" class="active-path" data-old_color="#2252ff" fill="#2252ff"/>
	</g>
	<g>
		<path d="M16.017,31.059c-0.222,0-0.445-0.083-0.617-0.25L0.271,16.166C0.098,15.999,0,15.77,0,15.529    c0-0.24,0.098-0.471,0.271-0.638L15.4,0.25c0.352-0.341,0.914-0.332,1.255,0.02c0.34,0.353,0.331,0.915-0.021,1.255L2.163,15.529    l14.471,14.004c0.352,0.341,0.361,0.902,0.021,1.255C16.48,30.968,16.249,31.059,16.017,31.059z" data-original="#010002" class="active-path" data-old_color="#2252ff" fill="#2252ff"/>
	</g>
</g></g><!--- SVG - jlozano developer Copyright (c) | jlozano.net/license --></svg>
