<?xml version="1.0"?>
<!-- Copyright (c) 2019 Jaime Cuesta Lozano (jlozano developer). see copyright file - Version 1.0 -->
<svg xmlns="http://www.w3.org/2000/svg" xmlns:xlink="http://www.w3.org/1999/xlink" version="1.1" id="Capa_1" x="0px" y="0px" viewBox="0 0 511.999 511.999" style="enable-background:new 0 0 511.999 511.999;" xml:space="preserve" width="512px" height="512px"><g><g>
	<g>
		<path d="M441.323,138.076c-18.297-19.969-43.759-30.966-71.694-30.966h-1.481l0.135-1.544c2.452-28.049-6.32-54.544-24.703-74.604    C325.283,10.996,299.823,0,271.889,0L93.369,0.001c-7.777,0-14.265,5.944-14.943,13.692L45.628,388.581    c-0.366,4.189,1.043,8.341,3.884,11.441c2.842,3.1,6.854,4.866,11.06,4.866h90.74l-7.944,90.804    c-0.366,4.189,1.043,8.341,3.884,11.441c2.842,3.101,6.854,4.866,11.06,4.866h107.112c7.777,0,14.265-5.944,14.943-13.692    l12.858-146.974h57.662c56.797,0,107.045-46.185,112.012-102.952l3.124-35.705C468.477,184.63,459.705,158.136,441.323,138.076z     M153.938,374.888H76.94l30.174-344.887L271.889,30c19.422,0,37.027,7.54,49.573,21.23c12.632,13.785,18.647,32.153,16.936,51.722    l-0.364,4.158l-146.924,0.001c-7.777,0-14.265,5.944-14.943,13.692L153.938,374.888z M335.406,137.11l-0.135,1.546    c-3.644,41.667-40.485,75.566-82.125,75.566h-55.039l6.747-77.111L335.406,137.11z M436.136,210.061l-3.124,35.705    c-3.645,41.668-40.486,75.567-82.125,75.567H279.48c-7.777,0-14.265,5.944-14.943,13.692L251.678,482H174.68l7.941-90.768    c0.001-0.012,0.004-0.023,0.005-0.036l12.858-146.974h57.662c56.798,0,107.046-46.185,112.011-102.952l0.364-4.16h4.107    c19.423,0,37.029,7.541,49.576,21.233C431.835,172.128,437.849,190.495,436.136,210.061z" data-original="#000000" class="active-path" data-old_color="#000000" fill="#2252FF"/>
	</g>
</g></g> </svg>
