<?xml version="1.0" encoding="utf-8"?>
<!-- Generator: Adobe Illustrator 23.0.2, SVG Export Plug-In . SVG Version: 6.00 Build 0)  -->
<svg version="1.1" id="Capa_1" xmlns="http://www.w3.org/2000/svg" xmlns:xlink="http://www.w3.org/1999/xlink" x="0px" y="0px"
	 viewBox="0 0 25 24.998" style="enable-background:new 0 0 25 24.998;" xml:space="preserve">
<style type="text/css">
	.st0{fill:#F5F5F5;}
	.st1{fill:#EAB244;}
	.st2{fill:none;stroke:#EAB244;stroke-miterlimit:10;}
	.st3{fill:#EDEDED;}
	.st4{fill:#343434;}
	.st5{fill:#FFFFFF;}
	.st6{fill:#FAFAFA;}
	.st7{fill:none;stroke:#00ABFF;stroke-width:4.817;stroke-miterlimit:10;}
	.st8{fill:none;stroke:#EAB244;stroke-width:0.8936;stroke-miterlimit:10;}
	.st9{fill:#313131;}
	.st10{fill:url(#);}
	.st11{fill:#00B1FB;}
	.st12{fill:none;stroke:#F5F5F5;}
	.st13{fill:#3E3E3E;}
	.st14{fill:#F9F9F9;}
	.st15{fill:#FF0046;}
	.st16{fill:none;stroke:#343434;stroke-width:0.6725;stroke-linecap:round;stroke-linejoin:round;stroke-miterlimit:10;}
	.st17{fill:none;stroke:#343434;stroke-width:0.6456;stroke-linecap:round;stroke-miterlimit:10;}
	.st18{fill:none;stroke:#343434;stroke-width:0.6456;stroke-linecap:round;stroke-linejoin:round;stroke-miterlimit:10;}
	.st19{fill:none;stroke:#FFFFFF;stroke-width:0.6675;stroke-linecap:round;stroke-miterlimit:10;}
	.st20{fill:none;stroke:#FFFFFF;stroke-width:0.6675;stroke-linecap:round;stroke-linejoin:round;stroke-miterlimit:10;}
	.st21{fill:none;stroke:#FFFFFF;stroke-width:0.6953;stroke-linecap:round;stroke-linejoin:round;stroke-miterlimit:10;}
	.st22{fill:none;stroke:#FFFFFF;stroke-width:1.0653;stroke-linecap:round;stroke-linejoin:round;stroke-miterlimit:10;}
	.st23{fill:none;stroke:#FFFFFF;stroke-width:1.0227;stroke-linecap:round;stroke-miterlimit:10;}
	.st24{fill:none;stroke:#FFFFFF;stroke-width:1.0227;stroke-linecap:round;stroke-linejoin:round;stroke-miterlimit:10;}
	.st25{fill:none;stroke:#FFFFFF;stroke-linecap:round;stroke-miterlimit:10;}
	.st26{fill:none;stroke:#FFFFFF;stroke-width:0.6563;stroke-linecap:round;stroke-miterlimit:10;}
	.st27{fill:none;stroke:#FFFFFF;stroke-width:0.6712;stroke-linecap:round;stroke-miterlimit:10;}
	.st28{fill:none;stroke:#343434;stroke-width:0.6563;stroke-linecap:round;stroke-miterlimit:10;}
	.st29{fill:none;stroke:#343434;stroke-width:0.6712;stroke-linecap:round;stroke-miterlimit:10;}
	.st30{fill:none;stroke:#343434;stroke-width:0.9375;stroke-linecap:round;stroke-linejoin:round;stroke-miterlimit:10;}
	.st31{fill:none;stroke:#343434;stroke-width:0.9;stroke-linecap:round;stroke-miterlimit:10;}
	.st32{fill:none;stroke:#FFFFFF;stroke-width:0.9375;stroke-linecap:round;stroke-linejoin:round;stroke-miterlimit:10;}
	.st33{fill:none;stroke:#FFFFFF;stroke-width:0.9;stroke-linecap:round;stroke-miterlimit:10;}
	.st34{fill:none;stroke:#FFFFFF;stroke-width:0.9;stroke-linecap:round;stroke-linejoin:round;stroke-miterlimit:10;}
	.st35{fill:none;stroke:#343434;stroke-width:0.9;stroke-linecap:round;stroke-linejoin:round;stroke-miterlimit:10;}
	.st36{fill:none;stroke:#FFFFFF;stroke-width:1.05;stroke-linecap:round;stroke-miterlimit:10;}
	.st37{fill:none;stroke:#343434;stroke-width:1.05;stroke-linecap:round;stroke-miterlimit:10;}
</style>
<g>
	<path class="st4" d="M22.313,13.024h-9.949c-0.29,0-0.525-0.235-0.525-0.525s0.235-0.525,0.525-0.525h9.949
		c0.29,0,0.525,0.235,0.525,0.525S22.603,13.024,22.313,13.024z"/>
	<path class="st4" d="M12.677,17.994c-3.03,0-5.495-2.466-5.495-5.496s2.465-5.495,5.495-5.495c1.919,0,3.668,0.977,4.678,2.612
		c0.152,0.246,0.076,0.569-0.171,0.722c-0.247,0.153-0.571,0.076-0.723-0.171c-0.817-1.323-2.232-2.112-3.785-2.112
		c-2.451,0-4.445,1.993-4.445,4.444s1.994,4.445,4.445,4.445c1.54,0,2.948-0.779,3.768-2.085c0.154-0.244,0.477-0.32,0.724-0.165
		c0.246,0.154,0.319,0.478,0.166,0.724C16.32,17.031,14.579,17.994,12.677,17.994z"/>
	<path class="st4" d="M12.367,22.704c-5.627,0-10.206-4.578-10.206-10.206c0-5.627,4.578-10.205,10.206-10.205
		c4.573,0,8.618,3.074,9.836,7.477c0.066,0.239-0.074,0.487-0.313,0.554c-0.237,0.063-0.487-0.074-0.554-0.313
		c-1.111-4.014-4.799-6.816-8.969-6.816c-5.131,0-9.305,4.174-9.305,9.305s4.174,9.306,9.305,9.306c4.156,0,7.84-2.791,8.961-6.787
		c0.067-0.24,0.317-0.377,0.555-0.312c0.239,0.067,0.379,0.315,0.312,0.555C20.966,19.643,16.925,22.704,12.367,22.704z"/>
</g>
</svg>
