<?xml version="1.0" encoding="UTF-8"?>
<svg width="16px" height="16px" viewBox="0 0 16 16" version="1.1" xmlns="http://www.w3.org/2000/svg" xmlns:xlink="http://www.w3.org/1999/xlink">
    <!-- Generator: sketchtool 51.2 (57519) - http://www.bohemiancoding.com/sketch -->
    <title>4239A8D7-1CEF-4E12-BCB1-2B2F74B8A71C</title>
    <desc>Created with sketchtool.</desc>
    <defs></defs>
    <g id="Page-1" stroke="none" stroke-width="1" fill="none" fill-rule="evenodd">
        <g id="Artboard" transform="translate(-75.000000, -447.000000)">
            <g id="baseline-search-24px" transform="translate(75.000000, 447.000000)">
                <path d="M10.3333333,9.33333333 L9.80666667,9.33333333 L9.62,9.15333333 C10.2733333,8.39333333 10.6666667,7.40666667 10.6666667,6.33333333 C10.6666667,3.94 8.72666667,2 6.33333333,2 C3.94,2 2,3.94 2,6.33333333 C2,8.72666667 3.94,10.6666667 6.33333333,10.6666667 C7.40666667,10.6666667 8.39333333,10.2733333 9.15333333,9.62 L9.33333333,9.80666667 L9.33333333,10.3333333 L12.6666667,13.66 L13.66,12.6666667 L10.3333333,9.33333333 Z M6.33333333,9.33333333 C4.67333333,9.33333333 3.33333333,7.99333333 3.33333333,6.33333333 C3.33333333,4.67333333 4.67333333,3.33333333 6.33333333,3.33333333 C7.99333333,3.33333333 9.33333333,4.67333333 9.33333333,6.33333333 C9.33333333,7.99333333 7.99333333,9.33333333 6.33333333,9.33333333 Z" id="Shape" fill="#000000" fill-rule="nonzero"></path>
                <polygon id="Shape" points="0 0 16 0 16 16 0 16"></polygon>
            </g>
        </g>
    </g>
</svg>