<?xml version="1.0" encoding="UTF-8"?>
<svg width="214px" height="16px" viewBox="0 0 214 16" version="1.1" xmlns="http://www.w3.org/2000/svg" xmlns:xlink="http://www.w3.org/1999/xlink">
    <!-- Generator: sketchtool 51.2 (57519) - http://www.bohemiancoding.com/sketch -->
    <title>E6674FE9-C3F2-47DA-89EF-6644A6E09E75</title>
    <desc>Created with sketchtool.</desc>
    <defs>
        <polygon id="path-1" points="1.21212121e-05 0.0472727273 17.5258909 0.0472727273 17.5258909 15.7575758 1.21212121e-05 15.7575758"></polygon>
        <polygon id="path-3" points="0 15.9528485 213.57697 15.9528485 213.57697 0.242545455 0 0.242545455"></polygon>
    </defs>
    <g id="Page-1" stroke="none" stroke-width="1" fill="none" fill-rule="evenodd">
        <g id="main" transform="translate(-24.000000, -24.000000)">
            <g id="ic_uppward-logo" transform="translate(24.000000, 24.000000)">
                <path d="M127.806473,12.5171394 C127.96817,12.4439273 128.074594,12.3011394 128.129867,12.0880485 C128.185139,11.8752 128.211806,11.5222303 128.211806,11.0286545 C128.211806,10.5348364 128.185139,10.1821091 128.129867,9.96901818 C128.074594,9.75592727 127.96817,9.61313939 127.806473,9.53992727 C127.644776,9.46768485 127.378352,9.43156364 127.003564,9.43156364 C126.712655,9.43156364 126.480655,9.47059394 126.307321,9.54865455 C126.132533,9.62574545 126.008897,9.74841212 125.936412,9.91471515 C125.885018,10.0497455 125.849139,10.2010182 125.831685,10.3704727 C125.812776,10.5387152 125.803321,10.7585939 125.803321,11.0286545 C125.803321,11.3045333 125.812776,11.5251394 125.828048,11.6904727 C125.843321,11.8570182 125.879442,12.0053818 125.936412,12.1348364 C126.005018,12.3069576 126.124776,12.4315636 126.299806,12.5093818 C126.472897,12.5864727 126.709018,12.625503 127.003564,12.625503 C127.378352,12.625503 127.644776,12.5893818 127.806473,12.5171394 M126.315079,12.9452606 C126.083079,12.8565333 125.915564,12.6836848 125.812776,12.4228364 L125.772776,12.4228364 L125.75023,13.0155636 L125.329624,13.0155636 L125.329624,7.22598788 L125.803321,7.22598788 L125.803321,9.57144242 L125.843321,9.57144242 C125.94223,9.35835152 126.100048,9.20707879 126.318715,9.11592727 C126.535685,9.02453333 126.826836,8.97992727 127.19217,8.97992727 C127.606715,8.97992727 127.920655,9.03689697 128.129867,9.15107879 C128.341018,9.26501818 128.485745,9.46501818 128.565503,9.75107879 C128.647442,10.0366545 128.6872,10.4625939 128.6872,11.0286545 C128.6872,11.5944727 128.645503,12.0206545 128.561624,12.3069576 C128.479927,12.5922909 128.333503,12.7920485 128.122352,12.9059879 C127.9112,13.0204121 127.597261,13.0783515 127.174958,13.0783515 C126.832412,13.0783515 126.545382,13.033503 126.315079,12.9452606" id="Fill-1" fill="#484949"></path>
                <path d="M130.058836,14.5583515 L130.058836,14.1379879 C130.530594,14.1682909 130.945139,14.1845333 131.297139,14.1845333 C131.713867,14.1845333 132.01617,14.1360485 132.208412,14.0398061 C132.400412,13.9438061 132.52623,13.7954424 132.5832,13.5956848 C132.64017,13.3959273 132.668776,13.0936242 132.668776,12.6882909 L132.668776,12.4621091 L132.630715,12.4621091 C132.556533,12.6446545 132.421503,12.7891394 132.221745,12.8984727 C132.020048,13.0078061 131.715806,13.0621091 131.304897,13.0621091 C130.9112,13.0621091 130.612291,13.0107152 130.412533,12.9062303 C130.213018,12.8024727 130.077745,12.6446545 130.007442,12.4315636 C129.939079,12.2184727 129.902715,11.916897 129.902715,11.5270788 L129.902715,9.04174545 L130.378352,9.04174545 L130.378352,11.3634424 C130.378352,11.7486545 130.405018,12.0242909 130.460048,12.1937455 C130.515321,12.3619879 130.61423,12.4742303 130.760897,12.5285333 C130.905382,12.5828364 131.144897,12.6102303 131.476048,12.6102303 C131.845018,12.6102303 132.115079,12.5503515 132.28623,12.4315636 C132.459321,12.3115636 132.565988,12.1518061 132.605988,11.9522909 C132.647927,11.7522909 132.668776,11.4652606 132.668776,11.0914424 L132.668776,9.04174545 L133.144412,9.04174545 L133.144412,12.5171394 C133.144412,13.0727758 133.100533,13.4948364 133.014958,13.7830788 C132.929382,14.0713212 132.763806,14.2824727 132.516776,14.4184727 C132.2712,14.553503 131.894473,14.6211394 131.390473,14.6211394 C130.850352,14.6211394 130.406958,14.6000485 130.058836,14.5583515" id="Fill-3" fill="#484949"></path>
                <path d="M32.8817455,0.814133333 L32.8817455,8.44031515 C32.8817455,10.2728 32.7641697,11.6143758 32.5297455,12.4635879 C32.2962909,13.3137697 31.8046545,13.9123152 31.0550788,14.2601939 C30.305503,14.6080727 29.1016242,14.7818909 27.4424727,14.7818909 C25.7840485,14.7818909 24.5794424,14.6080727 23.8305939,14.2601939 C23.0810182,13.9123152 22.5859879,13.3137697 22.3452606,12.4635879 C22.1042909,11.6143758 21.9842909,10.2728 21.9842909,8.44031515 L21.9842909,0.814133333 L24.8342303,0.814133333 L24.8342303,9.16225455 C24.8342303,10.1928 24.8807758,10.9079515 24.9748364,11.3096485 C25.0679273,11.7106182 25.2882909,11.9850424 25.636897,12.1329212 C25.9840485,12.2798303 26.5864727,12.3532848 27.4424727,12.3532848 C28.3120485,12.3532848 28.9178667,12.2798303 29.2594424,12.1329212 C29.5998061,11.9850424 29.8138667,11.7106182 29.9011394,11.3096485 C29.9876848,10.9079515 30.0318061,10.1928 30.0318061,9.16225455 L30.0318061,0.814133333 L32.8817455,0.814133333 Z" id="Fill-5" fill="#000000"></path>
                <path d="M41.2297697,7.55667879 C42.0326788,7.55667879 42.6084364,7.50358788 42.9560727,7.39667879 C43.3039515,7.28952727 43.5308606,7.09195152 43.6380121,6.80467879 C43.7449212,6.51716364 43.7989818,6.05170909 43.7989818,5.41001212 C43.7989818,4.76734545 43.7490424,4.3057697 43.6486788,4.02504242 C43.5480727,3.74407273 43.3267394,3.54964848 42.9863758,3.44273939 C42.6450424,3.3358303 42.0726788,3.28273939 41.2697697,3.28273939 L38.942497,3.28273939 L38.942497,7.55667879 L41.2297697,7.55667879 Z M36.0928,0.814133333 L42.4540121,0.814133333 C43.6045576,0.814133333 44.4879515,0.99449697 45.1029818,1.35546667 C45.7187394,1.71740606 46.1335273,2.22528485 46.3473455,2.8808 C46.5614061,3.53655758 46.6683152,4.37946667 46.6683152,5.41001212 C46.6683152,6.39958788 46.5645576,7.22286061 46.3570424,7.87764848 C46.1497697,8.53340606 45.7315879,9.05510303 45.1029818,9.44298182 C44.4741333,9.8318303 43.5708606,10.0252848 42.3943758,10.0252848 L38.942497,10.0252848 L38.942497,14.6211636 L36.0928,14.6211636 L36.0928,0.814133333 Z" id="Fill-7" fill="#000000"></path>
                <path d="M54.2740364,7.55667879 C55.0769455,7.55667879 55.652703,7.50358788 56.0003394,7.39667879 C56.3482182,7.28952727 56.5751273,7.09195152 56.6822788,6.80467879 C56.7891879,6.51716364 56.8432485,6.05170909 56.8432485,5.41001212 C56.8432485,4.76734545 56.7933091,4.3057697 56.6929455,4.02504242 C56.5923394,3.74407273 56.3710061,3.54964848 56.0306424,3.44273939 C55.6893091,3.3358303 55.1169455,3.28273939 54.3140364,3.28273939 L51.9867636,3.28273939 L51.9867636,7.55667879 L54.2740364,7.55667879 Z M49.1370667,0.814133333 L55.4982788,0.814133333 C56.6488242,0.814133333 57.5322182,0.99449697 58.1472485,1.35546667 C58.7630061,1.71740606 59.1777939,2.22528485 59.3916121,2.8808 C59.6056727,3.53655758 59.7125818,4.37946667 59.7125818,5.41001212 C59.7125818,6.39958788 59.6088242,7.22286061 59.4013091,7.87764848 C59.1940364,8.53340606 58.7758545,9.05510303 58.1472485,9.44298182 C57.5184,9.8318303 56.6151273,10.0252848 55.4386424,10.0252848 L51.9867636,10.0252848 L51.9867636,14.6211636 L49.1370667,14.6211636 L49.1370667,0.814133333 Z" id="Fill-9" fill="#000000"></path>
                <polygon id="Fill-11" fill="#000000" points="73.0377697 14.6210909 70.5291636 5.38933333 70.4491636 5.38933333 67.9408 14.6210909 64.3686788 14.6210909 60.9766788 0.814060606 63.8469818 0.814060606 66.2952242 11.1294545 66.3955879 11.1294545 69.0641939 0.814060606 72.014497 0.814060606 74.7437091 11.1294545 74.8440727 11.1294545 77.1526788 0.814060606 80.0018909 0.814060606 76.6103758 14.6210909"></polygon>
                <path d="M86.304097,3.50317576 L86.2037333,3.50317576 L84.3370667,9.16208485 L88.1904,9.16208485 L86.304097,3.50317576 Z M89.9557333,14.6209939 L88.9533091,11.6510545 L83.5741576,11.6510545 L82.5911273,14.6209939 L79.7215515,14.6209939 L84.3974303,0.814206061 L88.2304,0.814206061 L92.9062788,14.6209939 L89.9557333,14.6209939 Z" id="Fill-13" fill="#000000"></path>
                <path d="M101.9272,6.99488485 C102.281624,6.88797576 102.509261,6.70421818 102.609867,6.44288485 C102.71023,6.18227879 102.76017,5.77088485 102.76017,5.20894545 C102.76017,4.63415758 102.71023,4.2193697 102.609867,3.96458182 C102.509261,3.71052121 102.288897,3.53330909 101.947564,3.43294545 C101.60623,3.33258182 101.041382,3.28264242 100.251564,3.28264242 L97.7233212,3.28264242 L97.7233212,7.15585455 L100.231927,7.15585455 C101.007685,7.15585455 101.572776,7.10179394 101.9272,6.99488485 Z M102.860776,14.6210667 L100.833624,9.62446061 L97.7233212,9.62446061 L97.7233212,14.6210667 L94.8733818,14.6210667 L94.8733818,0.814036364 L101.3752,0.814036364 C102.565745,0.814036364 103.473139,0.991248485 104.09423,1.34567273 C104.716776,1.70009697 105.131564,2.18833939 105.338836,2.81064242 C105.546352,3.43294545 105.649867,4.23221818 105.649867,5.20894545 C105.649867,7.39003636 104.994352,8.73427879 103.683564,9.24288485 L105.891079,14.6210667 L102.860776,14.6210667 Z" id="Fill-15" fill="#000000"></path>
                <path d="M113.055055,12.1525576 C114.271782,12.1525576 115.088267,12.0856485 115.503297,11.9515879 C115.917115,11.818497 116.1816,11.4771636 116.296024,10.9285576 C116.409479,10.3797091 116.465721,9.30989091 116.465721,7.71764848 C116.465721,6.13898182 116.406085,5.0718303 116.285358,4.51643636 C116.165358,3.96128485 115.90063,3.6168 115.493358,3.48273939 C115.084873,3.34964848 114.271782,3.28273939 113.055055,3.28273939 L111.349115,3.28273939 L111.349115,12.1525576 L113.055055,12.1525576 Z M108.499176,0.814133333 L113.195418,0.814133333 C115.174812,0.814133333 116.590085,1.01170909 117.439297,1.40613333 C118.289236,1.80055758 118.820873,2.43910303 119.034933,3.32273939 C119.248752,4.20540606 119.355661,5.67037576 119.355661,7.71764848 C119.355661,9.76467879 119.248752,11.2296485 119.034933,12.1123152 C118.820873,12.9952242 118.289236,13.634497 117.439297,14.0289212 C116.590085,14.4235879 115.174812,14.6211636 113.195418,14.6211636 L108.499176,14.6211636 L108.499176,0.814133333 Z" id="Fill-17" fill="#000000"></path>
                <g id="Group-21" transform="translate(0.000000, 0.195273)">
                    <mask id="mask-2" fill="white">
                        <use xlink:href="#path-1"></use>
                    </mask>
                    <g id="Clip-20"></g>
                    <path d="M15.0221333,8.71427879 L12.6408,12.8653091 C12.695103,12.9833697 12.7232242,13.1060364 12.7232242,13.2313697 C12.7232242,13.7237333 12.3239515,14.1254303 11.8352242,14.1254303 C11.5443152,14.1254303 11.2778909,13.9850667 11.1115879,13.7462788 L6.46649697,13.7462788 C6.30019394,13.9850667 6.03449697,14.1254303 5.7448,14.1254303 C5.25437576,14.1254303 4.85534545,13.7237333 4.85534545,13.2313697 C4.85534545,13.1162182 4.87861818,13.0039758 4.92492121,12.8946424 L2.5297697,8.7193697 C2.09292121,8.6614303 1.75837576,8.28373333 1.75837576,7.83718788 C1.75837576,7.36203636 2.1288,6.97100606 2.59473939,6.94409697 L4.91740606,2.89706667 C4.87692121,2.79015758 4.85534545,2.68082424 4.85534545,2.57391515 C4.85534545,2.08155152 5.25437576,1.6793697 5.7448,1.6793697 C6.02407273,1.6793697 6.28273939,1.81076364 6.45146667,2.03161212 L11.1285576,2.03161212 C11.2953455,1.81076364 11.5557091,1.6793697 11.8352242,1.6793697 C12.3239515,1.6793697 12.7232242,2.08155152 12.7232242,2.57391515 C12.7232242,2.69173333 12.6965576,2.81270303 12.6475879,2.9254303 L14.9557091,6.94700606 C15.4092848,6.98749091 15.7675879,7.37415758 15.7675879,7.83718788 C15.7675879,8.27718788 15.4512242,8.64494545 15.0221333,8.71427879 M17.3084364,7.08470303 L13.7392242,0.866036364 C13.4492848,0.359369697 12.9128,0.0471272727 12.3324364,0.0471272727 L5.19425455,0.0471272727 C4.61413333,0.0471272727 4.07764848,0.359369697 3.78722424,0.866036364 L0.218012121,7.08470303 C-0.0726545455,7.5913697 -0.0726545455,8.2153697 0.218012121,8.7193697 L3.78722424,14.9394909 C4.07764848,15.4461576 4.61413333,15.7576727 5.19425455,15.7576727 L12.3324364,15.7576727 C12.9128,15.7576727 13.4492848,15.4461576 13.7392242,14.9394909 L17.3084364,8.7193697 C17.5983758,8.2153697 17.5983758,7.5913697 17.3084364,7.08470303" id="Fill-19" fill="#18A3C2" mask="url(#mask-2)"></path>
                </g>
                <path d="M14.2453818,7.41156364 L12.7445333,4.79532121 L7.15229091,7.95338182 C7.15301818,7.95895758 7.15301818,7.96453333 7.15301818,7.96938182 C7.15301818,8.46344242 6.75447273,8.86513939 6.26550303,8.86513939 C5.77459394,8.86513939 5.37726061,8.46344242 5.37726061,7.96938182 C5.37726061,7.47726061 5.77459394,7.07726061 6.26550303,7.07726061 C6.46986667,7.07726061 6.66550303,7.14707879 6.82283636,7.27556364 L12.3709576,4.14198788 L12.0752,3.62804848 C11.9964121,3.65059394 11.9152,3.66247273 11.8352,3.66247273 C11.4240485,3.66247273 11.0710788,3.37568485 10.9745939,2.98029091 L6.60368485,2.98029091 C6.5081697,3.37568485 6.15253333,3.66247273 5.74501818,3.66247273 C5.65507879,3.66247273 5.56465455,3.64889697 5.47835152,3.62126061 L3.29459394,7.4241697 C3.4502303,7.59168485 3.53507879,7.80526061 3.53507879,8.03265455 C3.53507879,8.27895758 3.43495758,8.50829091 3.2582303,8.67701818 L4.92538182,11.5851394 L10.644897,8.25253333 C10.6424727,8.22635152 10.6407758,8.19992727 10.6407758,8.17301818 C10.6407758,7.6792 11.0400485,7.27798788 11.5290182,7.27798788 C12.0192,7.27798788 12.4162909,7.6792 12.4162909,8.17301818 C12.4162909,8.66538182 12.0192,9.06610909 11.5290182,9.06610909 C11.3462303,9.06610909 11.1721697,9.00962424 11.0223515,8.9032 L5.29895758,12.2355636 L5.4912,12.5710788 C5.57313939,12.5451394 5.65726061,12.5332606 5.74501818,12.5332606 C6.14865455,12.5332606 6.49459394,12.8035636 6.59859394,13.1890182 L10.9796848,13.1890182 C11.1033212,12.7305939 11.5869576,12.4316848 12.0616242,12.5652606 L14.2827152,8.69180606 C14.0984727,8.52404848 13.9915636,8.28404848 13.9915636,8.03265455 C13.9915636,7.79968485 14.0827152,7.57713939 14.2453818,7.41156364" id="Fill-22" fill="#18A3C2"></path>
                <path d="M136.379152,13.7330667 L136.379152,12.9214303 C136.936242,12.9759758 137.412364,13.0031273 137.806303,13.0031273 C138.037333,13.0031273 138.217939,12.9929455 138.346667,12.9728242 C138.475879,12.9522182 138.572121,12.9168242 138.635636,12.8668848 C138.694303,12.8215515 138.731636,12.7672485 138.747879,12.7032485 C138.763394,12.6397333 138.771636,12.5488242 138.771636,12.4305212 C138.771636,12.2986424 138.762182,12.2019152 138.744242,12.1408242 C138.726061,12.0794909 138.689697,12.0341576 138.635636,12.0043394 C138.581576,11.9747636 138.490424,11.9531879 138.363636,11.9396121 L137.364364,11.8234909 C137.065697,11.7832485 136.834424,11.7042182 136.671273,11.588097 C136.508121,11.472703 136.395879,11.3221576 136.33503,11.1381576 C136.273697,10.9541576 136.242667,10.7260364 136.242667,10.4528242 C136.242667,10.0533091 136.315636,9.75003636 136.460848,9.54252121 C136.605818,9.33621818 136.800727,9.20070303 137.045333,9.1374303 C137.289697,9.0734303 137.605091,9.04167273 137.989818,9.04167273 C138.583273,9.04167273 139.090909,9.08724848 139.512485,9.17815758 L139.512485,9.96894545 C139.072727,9.90979394 138.63103,9.88021818 138.186909,9.88021818 C137.778909,9.88021818 137.509576,9.91464242 137.377939,9.98300606 C137.305697,10.0191273 137.260364,10.0666424 137.242182,10.1257939 C137.224,10.1849455 137.21503,10.2734303 137.21503,10.3917333 C137.21503,10.5279758 137.224,10.6259152 137.242182,10.6850667 C137.260364,10.7442182 137.299879,10.7864 137.361212,10.8111273 C137.422303,10.836097 137.525333,10.8579152 137.670303,10.8758545 L138.744242,11.0055515 C138.952727,11.028097 139.124606,11.0702788 139.260848,11.1316121 C139.396848,11.192703 139.503273,11.2942788 139.580121,11.4348848 C139.688727,11.6300364 139.743515,11.9328242 139.743515,12.3420364 C139.743515,12.7735515 139.675394,13.0986424 139.539152,13.3168242 C139.403636,13.5350061 139.221091,13.6773091 138.992,13.7430061 C138.763394,13.8089455 138.463273,13.8419152 138.091636,13.8419152 C137.425939,13.8419152 136.854788,13.8055515 136.379152,13.7330667" id="Fill-24" fill="#484949"></path>
                <polygon id="Fill-26" fill="#484949" points="141.476921 13.7875152 141.476921 9.09612121 144.691467 9.09612121 144.691467 9.93466667 142.441527 9.93466667 142.441527 10.9986667 144.372194 10.9986667 144.372194 11.837697 142.441527 11.837697 142.441527 12.9487273 144.691467 12.9487273 144.691467 13.7875152"></polygon>
                <polygon id="Fill-28" fill="#484949" points="149.29983 13.7875152 147.390255 10.8073939 147.363345 10.8073939 147.363345 13.7875152 146.431952 13.7875152 146.431952 9.09612121 147.430982 9.09612121 149.259103 11.9053333 149.293527 11.9053333 149.293527 9.09612121 150.224436 9.09612121 150.224436 13.7875152"></polygon>
                <polygon id="Fill-30" fill="#484949" points="153.072558 13.7875152 153.072558 9.97587879 151.713285 9.97587879 151.713285 9.09612121 155.396436 9.09612121 155.396436 9.97587879 154.037648 9.97587879 154.037648 13.7875152"></polygon>
                <mask id="mask-4" fill="white">
                    <use xlink:href="#path-3"></use>
                </mask>
                <g id="Clip-33"></g>
                <polygon id="Fill-32" fill="#484949" mask="url(#mask-4)" points="156.892848 13.7875152 157.857697 13.7875152 157.857697 9.09612121 156.892848 9.09612121"></polygon>
                <polygon id="Fill-34" fill="#484949" mask="url(#mask-4)" points="162.642885 13.7875152 160.733067 10.8073939 160.705915 10.8073939 160.705915 13.7875152 159.774764 13.7875152 159.774764 9.09612121 160.774036 9.09612121 162.601915 11.9053333 162.636097 11.9053333 162.636097 9.09612121 163.567248 9.09612121 163.567248 13.7875152"></polygon>
                <polygon id="Fill-35" fill="#484949" mask="url(#mask-4)" points="165.484485 13.7875152 165.484485 9.09612121 168.69903 9.09612121 168.69903 9.93466667 166.449091 9.93466667 166.449091 10.9986667 168.37903 10.9986667 168.37903 11.837697 166.449091 11.837697 166.449091 12.9487273 168.69903 12.9487273 168.69903 13.7875152"></polygon>
                <polygon id="Fill-36" fill="#484949" mask="url(#mask-4)" points="170.446376 13.7875152 170.446376 9.09612121 171.411224 9.09612121 171.411224 12.9075152 173.389164 12.9075152 173.389164 13.7875152"></polygon>
                <path d="M178.375588,11.387297 C178.64783,11.387297 178.842255,11.3696 178.960558,11.3327515 C179.078133,11.2963879 179.154982,11.2294788 179.190861,11.1315394 C179.227467,11.0340848 179.245648,10.8760242 179.245648,10.6578424 C179.245648,10.4394182 179.228679,10.2825697 179.194497,10.1868121 C179.1608,10.0915394 179.085891,10.0260848 178.970255,9.98947879 C178.855345,9.95335758 178.661406,9.93493333 178.389648,9.93493333 L177.601042,9.93493333 L177.601042,11.387297 L178.375588,11.387297 Z M176.635709,9.09614545 L178.790376,9.09614545 C179.179709,9.09614545 179.478861,9.15747879 179.687588,9.2806303 C179.89583,9.40329697 180.036436,9.57590303 180.108436,9.79844848 C180.181164,10.0212364 180.217527,10.3075394 180.217527,10.6578424 C180.217527,10.9940848 180.182618,11.2738424 180.112073,11.4963879 C180.042012,11.7191758 179.900194,11.8963879 179.687588,12.0285091 C179.474255,12.1601455 179.168558,12.2260848 178.770255,12.2260848 L177.601042,12.2260848 L177.601042,13.787297 L176.635709,13.787297 L176.635709,9.09614545 Z" id="Fill-37" fill="#484949" mask="url(#mask-4)"></path>
                <path d="M183.82257,11.1962424 C183.942327,11.1598788 184.019418,11.0973333 184.0536,11.0086061 C184.087539,10.9198788 184.104752,10.7804848 184.104752,10.5894545 C184.104752,10.3938182 184.087539,10.2527273 184.0536,10.1666667 C184.019418,10.0803636 183.944994,10.02 183.829115,9.98581818 C183.713721,9.95163636 183.522448,9.93490909 183.255297,9.93490909 L182.39857,9.93490909 L182.39857,11.2510303 L183.248267,11.2510303 C183.511055,11.2510303 183.702327,11.2330909 183.82257,11.1962424 Z M184.138691,13.7875152 L183.452145,12.0895758 L182.39857,12.0895758 L182.39857,13.7875152 L181.433721,13.7875152 L181.433721,9.09612121 L183.635661,9.09612121 C184.038812,9.09612121 184.345964,9.15648485 184.556145,9.27672727 C184.767539,9.39745455 184.907661,9.56327273 184.978206,9.77490909 C185.048024,9.98581818 185.083418,10.2575758 185.083418,10.5894545 C185.083418,11.3305455 184.861115,11.7877576 184.417236,11.9598788 L185.164873,13.7875152 L184.138691,13.7875152 Z" id="Fill-38" fill="#484949" mask="url(#mask-4)"></path>
                <path d="M188.993964,12.9282424 C189.118812,12.8778182 189.197842,12.7566061 189.231539,12.5636364 C189.265721,12.3704242 189.282448,11.9963636 189.282448,11.441697 C189.282448,10.8875152 189.265721,10.513697 189.231539,10.3202424 C189.197842,10.1267879 189.118812,10.0053333 188.993964,9.95539394 C188.869115,9.90521212 188.628145,9.88048485 188.270085,9.88048485 C187.912267,9.88048485 187.672267,9.90521212 187.5496,9.95539394 C187.427661,10.0053333 187.348145,10.128 187.311782,10.3231515 C187.275661,10.5190303 187.257479,10.8918788 187.257479,11.441697 C187.257479,11.992 187.275661,12.3646061 187.311782,12.56 C187.348145,12.7556364 187.427661,12.8778182 187.5496,12.9282424 C187.672267,12.9781818 187.912267,13.0031515 188.270085,13.0031515 C188.628145,13.0031515 188.869115,12.9781818 188.993964,12.9282424 M186.904267,13.6373333 C186.632509,13.5008485 186.461358,13.2780606 186.391297,12.9692121 C186.320752,12.6601212 186.285842,12.1507879 186.285842,11.441697 C186.285842,10.7323636 186.320752,10.2230303 186.391297,9.91442424 C186.461358,9.60509091 186.632509,9.38254545 186.904267,9.24630303 C187.175782,9.10981818 187.631539,9.04169697 188.270085,9.04169697 C188.909115,9.04169697 189.365358,9.10981818 189.639539,9.24630303 C189.913721,9.38254545 190.085842,9.60509091 190.156145,9.91442424 C190.226206,10.2230303 190.2616,10.7323636 190.2616,11.441697 C190.2616,12.1507879 190.226206,12.6601212 190.156145,12.9692121 C190.085842,13.2780606 189.913721,13.5008485 189.639539,13.6373333 C189.365358,13.7735758 188.909115,13.8419394 188.270085,13.8419394 C187.631539,13.8419394 187.175782,13.7735758 186.904267,13.6373333" id="Fill-39" fill="#484949" mask="url(#mask-4)"></path>
                <polygon id="Fill-40" fill="#484949" mask="url(#mask-4)" points="192.558109 13.7873939 192.558109 9.976 191.199079 9.976 191.199079 9.096 194.882473 9.096 194.882473 9.976 193.522958 9.976 193.522958 13.7873939"></polygon>
                <path d="M198.528291,12.9282424 C198.653139,12.8778182 198.731927,12.7566061 198.766109,12.5636364 C198.800291,12.3704242 198.817018,11.9963636 198.817018,11.441697 C198.817018,10.8875152 198.800291,10.513697 198.766109,10.3202424 C198.731927,10.1267879 198.653139,10.0053333 198.528291,9.95539394 C198.4032,9.90521212 198.16223,9.88048485 197.804412,9.88048485 C197.446352,9.88048485 197.206352,9.90521212 197.083927,9.95539394 C196.961745,10.0053333 196.881988,10.128 196.846109,10.3231515 C196.809503,10.5190303 196.792048,10.8918788 196.792048,11.441697 C196.792048,11.992 196.809503,12.3646061 196.846109,12.56 C196.881988,12.7556364 196.961745,12.8778182 197.083927,12.9282424 C197.206352,12.9781818 197.446352,13.0031515 197.804412,13.0031515 C198.16223,13.0031515 198.4032,12.9781818 198.528291,12.9282424 M196.438109,13.6373333 C196.166594,13.5008485 195.995685,13.2780606 195.925382,12.9692121 C195.855079,12.6601212 195.819927,12.1507879 195.819927,11.441697 C195.819927,10.7323636 195.855079,10.2230303 195.925382,9.91442424 C195.995685,9.60509091 196.166594,9.38254545 196.438109,9.24630303 C196.710594,9.10981818 197.165139,9.04169697 197.804412,9.04169697 C198.442958,9.04169697 198.899685,9.10981818 199.174109,9.24630303 C199.448291,9.38254545 199.619927,9.60509091 199.69023,9.91442424 C199.760776,10.2230303 199.795927,10.7323636 199.795927,11.441697 C199.795927,12.1507879 199.760776,12.6601212 199.69023,12.9692121 C199.619927,13.2780606 199.448291,13.5008485 199.174109,13.6373333 C198.899685,13.7735758 198.442958,13.8419394 197.804412,13.8419394 C197.165139,13.8419394 196.710594,13.7735758 196.438109,13.6373333" id="Fill-41" fill="#484949" mask="url(#mask-4)"></path>
                <path d="M203.597648,13.8114182 C203.373406,13.8317818 203.166376,13.8417212 202.97583,13.8417212 C202.400315,13.8417212 201.97583,13.7716606 201.702133,13.6305697 C201.427467,13.4899636 201.244921,13.2557818 201.154739,12.9280242 C201.06383,12.6012364 201.018739,12.1054788 201.018739,11.4417212 C201.018739,10.7874182 201.06383,10.2955394 201.154739,9.9656 C201.244921,9.63614545 201.427467,9.39978182 201.702133,9.25650909 C201.97583,9.11299394 202.400315,9.04172121 202.97583,9.04172121 C203.170739,9.04172121 203.377042,9.05335758 203.594497,9.07566061 C203.812194,9.09869091 203.993285,9.12826667 204.138012,9.16438788 L204.138012,9.9486303 C203.744315,9.90305455 203.438376,9.88050909 203.220436,9.88050909 C202.808073,9.88050909 202.522739,9.91081212 202.364194,9.97287273 C202.205648,10.0339636 202.10383,10.1646303 202.058497,10.3648727 C202.013648,10.5646303 201.990376,10.9236606 201.990376,11.4417212 C201.990376,11.9600242 202.013648,12.319297 202.058497,12.519297 C202.10383,12.719297 202.205648,12.8502061 202.364194,12.911297 C202.522739,12.9728727 202.808073,13.0031758 203.220436,13.0031758 C203.564921,13.0031758 203.87983,12.9806303 204.165164,12.935297 L204.165164,13.7331152 C204.011467,13.7648727 203.822376,13.7910545 203.597648,13.8114182" id="Fill-42" fill="#484949" mask="url(#mask-4)"></path>
                <path d="M208.00177,12.9282424 C208.125891,12.8778182 208.205164,12.7566061 208.239345,12.5636364 C208.273285,12.3704242 208.290255,11.9963636 208.290255,11.441697 C208.290255,10.8875152 208.273285,10.513697 208.239345,10.3202424 C208.205164,10.1267879 208.125891,10.0053333 208.00177,9.95539394 C207.876921,9.90521212 207.635467,9.88048485 207.277891,9.88048485 C206.91983,9.88048485 206.679345,9.90521212 206.557406,9.95539394 C206.434982,10.0053333 206.355952,10.128 206.319103,10.3231515 C206.283224,10.5190303 206.265042,10.8918788 206.265042,11.441697 C206.265042,11.992 206.283224,12.3646061 206.319103,12.56 C206.355952,12.7556364 206.434982,12.8778182 206.557406,12.9282424 C206.679345,12.9781818 206.91983,13.0031515 207.277891,13.0031515 C207.635467,13.0031515 207.876921,12.9781818 208.00177,12.9282424 M205.91183,13.6373333 C205.63983,13.5008485 205.468436,13.2780606 205.398376,12.9692121 C205.328558,12.6601212 205.292921,12.1507879 205.292921,11.441697 C205.292921,10.7323636 205.328558,10.2230303 205.398376,9.91442424 C205.468436,9.60509091 205.63983,9.38254545 205.91183,9.24630303 C206.183588,9.10981818 206.638861,9.04169697 207.277891,9.04169697 C207.916679,9.04169697 208.373164,9.10981818 208.647103,9.24630303 C208.921042,9.38254545 209.093164,9.60509091 209.163467,9.91442424 C209.234012,10.2230303 209.269164,10.7323636 209.269164,11.441697 C209.269164,12.1507879 209.234012,12.6601212 209.163467,12.9692121 C209.093164,13.2780606 208.921042,13.5008485 208.647103,13.6373333 C208.373164,13.7735758 207.916679,13.8419394 207.277891,13.8419394 C206.638861,13.8419394 206.183588,13.7735758 205.91183,13.6373333" id="Fill-43" fill="#484949" mask="url(#mask-4)"></path>
                <polygon id="Fill-44" fill="#484949" mask="url(#mask-4)" points="210.634836 13.7873939 210.634836 9.096 211.599442 9.096 211.599442 12.9073939 213.577139 12.9073939 213.577139 13.7873939"></polygon>
            </g>
        </g>
    </g>
</svg>