<?xml version="1.0" encoding="utf-8"?>
<!-- Generator: Adobe Illustrator 20.1.0, SVG Export Plug-In . SVG Version: 6.00 Build 0)  -->
<svg version="1.1" id="Layer_1" xmlns="http://www.w3.org/2000/svg" xmlns:xlink="http://www.w3.org/1999/xlink" x="0px" y="0px"
	 width="20px" height="20px" viewBox="0 0 20 20" style="enable-background:new 0 0 20 20;" xml:space="preserve">
<style type="text/css">
	.st0{fill:#12B886;}
</style>
<title>8E3183CE-21C0-49C7-A729-0C43B1BBF492</title>
<desc>Created with sketchtool.</desc>
<g id="Page-1">
	<g id="ic" transform="translate(-25.000000, -84.000000)">
		<g id="ic-safecheck" transform="translate(25.000000, 84.000000)">
			<path id="Oval" class="st0" d="M10,20C4.5,20,0,15.5,0,10S4.5,0,10,0s10,4.5,10,10S15.5,20,10,20z M10,18c4.4,0,8-3.6,8-8
				s-3.6-8-8-8s-8,3.6-8,8S5.6,18,10,18z"/>
			<polygon id="Path-5" class="st0" points="12.9,6.4 14.4,7.7 8.9,13.7 5.4,9.5 6.9,8.2 9,10.7 			"/>
		</g>
	</g>
</g>
</svg>
