<?xml version="1.0" encoding="UTF-8"?>
<svg width="64px" height="64px" viewBox="0 0 64 64" version="1.1" xmlns="http://www.w3.org/2000/svg" xmlns:xlink="http://www.w3.org/1999/xlink">
    <!-- Generator: sketchtool 59.1 (101010) - https://sketch.com -->
    <title>7EB0A2B7-48EC-417C-82E0-8CB3FBD41064</title>
    <desc>Created with sketchtool.</desc>
    <g id="Page-1" stroke="none" stroke-width="1" fill="none" fill-rule="evenodd">
        <g id="ic" transform="translate(-470.000000, -112.000000)">
            <g id="Group-18" transform="translate(473.000000, 114.000000)">
                <polygon id="Fill-1" fill="#4C6EF5" points="0 59.9830986 58.6309859 59.9830986 58.6309859 19.9947887 0 19.9947887"></polygon>
                <polygon id="Fill-2" fill="#4C6EF5" points="29.3153662 0.000126760563 -0.000126760563 19.994493 58.6312817 19.994493 29.3166338 0.000126760563"></polygon>
                <polygon id="Fill-3" fill="#FFFFFF" points="5.89352113 43.2464789 52.7374648 43.2464789 52.7374648 5.16211268 5.89352113 5.16211268"></polygon>
                <polygon id="Fill-4" fill="#A4BAFF" points="0 59.9830986 58.6309859 59.9830986 58.6309859 19.9947887"></polygon>
                <polygon id="Fill-5" fill="#809DF9" points="0 59.9830986 29.3159155 39.9891549 0 19.9947887"></polygon>
                <polygon id="Fill-6" fill="#809DF9" points="5.89352113 9.42084507 10.1522535 9.42084507 10.1522535 5.16253521 5.89352113 5.16253521"></polygon>
                <polygon id="Fill-7" fill="#FFFFFF" points="14.4106901 9.42071831 9.21223944 9.42071831 10.1523803 5.16240845 14.4106901 5.16240845"></polygon>
                <polygon id="Fill-8" fill="#809DF9" points="17.729493 9.42071831 13.4711831 9.42071831 14.4109014 5.16240845 18.6692113 5.16240845"></polygon>
                <polygon id="Fill-9" fill="#FFFFFF" points="18.6692958 9.42084507 22.9280282 9.42084507 22.9280282 5.16253521 18.6692958 5.16253521"></polygon>
                <polygon id="Fill-10" fill="#809DF9" points="26.2466197 9.42071831 21.9878873 9.42071831 22.9280282 5.16240845 27.186338 5.16240845"></polygon>
                <polygon id="Fill-11" fill="#FFFFFF" points="27.186338 9.42084507 31.4450704 9.42084507 31.4450704 5.16253521 27.186338 5.16253521"></polygon>
                <polygon id="Fill-12" fill="#809DF9" points="34.7637465 9.42071831 30.5050141 9.42071831 31.4451549 5.16240845 35.7034648 5.16240845"></polygon>
                <polygon id="Fill-13" fill="#FFFFFF" points="35.7033803 9.42084507 39.9621127 9.42084507 39.9621127 5.16253521 35.7033803 5.16253521"></polygon>
                <polygon id="Fill-14" fill="#809DF9" points="43.280493 9.42071831 39.0221831 9.42071831 39.9619014 5.16240845 44.2206338 5.16240845"></polygon>
                <polygon id="Fill-15" fill="#FFFFFF" points="44.2204225 9.42084507 48.4787324 9.42084507 48.4787324 5.16253521 44.2204225 5.16253521"></polygon>
                <polygon id="Fill-16" fill="#809DF9" points="51.7976197 9.42071831 47.5393099 9.42071831 48.4790282 5.16240845 52.7377606 5.16240845"></polygon>
                <polygon id="Fill-17" fill="#4C6EF5" points="29.1325775 26.145507 25.6289155 21.6924085 26.9577887 20.6474789 29.3007465 23.6259296 34.1282113 18.9374789 35.3058169 20.1501549"></polygon>
            </g>
        </g>
    </g>
</svg>