<?xml version="1.0" encoding="UTF-8"?>
<svg width="24px" height="24px" viewBox="0 0 24 24" version="1.1" xmlns="http://www.w3.org/2000/svg" xmlns:xlink="http://www.w3.org/1999/xlink">
    <!-- Generator: sketchtool 59.1 (101010) - https://sketch.com -->
    <title>15C34649-5572-4D0F-9CF5-373344879D79</title>
    <desc>Created with sketchtool.</desc>
    <g id="Page-1" stroke="none" stroke-width="1" fill="none" fill-rule="evenodd">
        <g id="ic" transform="translate(-172.000000, -214.000000)">
            <g id="settings-4-line" transform="translate(172.000000, 214.000000)">
                <polygon id="Path" points="0 0 24 0 24 24 0 24"></polygon>
                <path d="M2,12 C2,11.135 2.11,10.297 2.316,9.496 C3.44247921,9.55521481 4.50696023,8.97751905 5.07120623,8.00074465 C5.63545224,7.02397024 5.604078,5.81323993 4.99,4.867 C6.19894242,3.67756882 7.69079374,2.81549556 9.325,2.362 C9.83678261,3.36822119 10.8701056,4.00195441 11.999,4.00195441 C13.1278944,4.00195441 14.1612174,3.36822119 14.673,2.362 C16.3072063,2.81549556 17.7990576,3.67756882 19.008,4.867 C18.393217,5.81342796 18.3616048,7.02480779 18.9261885,8.00201257 C19.4907723,8.97921735 20.5560139,9.55688573 21.683,9.497 C21.889,10.297 21.999,11.135 21.999,12 C21.999,12.865 21.889,13.703 21.683,14.504 C20.5563433,14.4443854 19.4915048,15.0219254 18.9270014,15.99878 C18.362498,16.9756347 18.3937935,18.1866071 19.008,19.133 C17.7990576,20.3224312 16.3072063,21.1845044 14.673,21.638 C14.1612174,20.6317788 13.1278944,19.9980456 11.999,19.9980456 C10.8701056,19.9980456 9.83678261,20.6317788 9.325,21.638 C7.69079374,21.1845044 6.19894242,20.3224312 4.99,19.133 C5.60478299,18.186572 5.63639524,16.9751922 5.07181148,15.9979874 C4.50722772,15.0207826 3.44198612,14.4431143 2.315,14.503 C2.11,13.704 2,12.866 2,12 Z M6.804,15 C7.434,16.091 7.614,17.346 7.368,18.524 C7.776,18.814 8.21,19.065 8.665,19.274 C9.58166748,18.4528366 10.769314,17.9991449 12,18 C13.26,18 14.438,18.471 15.335,19.274 C15.79,19.065 16.224,18.814 16.632,18.524 C16.3794356,17.3199643 16.5802756,16.06507 17.196,15 C17.8106284,13.9343731 18.797017,13.1331549 19.966,12.75 C20.0122469,12.2510694 20.0122469,11.7489306 19.966,11.25 C18.7966452,10.8670597 17.8098711,10.0658177 17.195,9 C16.5792756,7.93492995 16.3784356,6.68003568 16.631,5.476 C16.2231151,5.18592315 15.7888727,4.93481922 15.334,4.726 C14.4175892,5.54693322 13.2303413,6.00060863 12,6 C10.769314,6.00085512 9.58166748,5.54716345 8.665,4.726 C8.21012999,4.93482447 7.77588808,5.18592812 7.368,5.476 C7.62056445,6.68003568 7.41972439,7.93492995 6.804,9 C6.18937156,10.0656269 5.20298298,10.8668451 4.034,11.25 C3.98775313,11.7489306 3.98775313,12.2510694 4.034,12.75 C5.2033548,13.1329403 6.19012886,13.9341823 6.805,15 L6.804,15 Z M12,15 C10.3431458,15 9,13.6568542 9,12 C9,10.3431458 10.3431458,9 12,9 C13.6568542,9 15,10.3431458 15,12 C15,13.6568542 13.6568542,15 12,15 Z M12,13 C12.5522847,13 13,12.5522847 13,12 C13,11.4477153 12.5522847,11 12,11 C11.4477153,11 11,11.4477153 11,12 C11,12.5522847 11.4477153,13 12,13 Z" id="Shape" fill="#000000" fill-rule="nonzero"></path>
            </g>
        </g>
    </g>
</svg>