<?xml version="1.0" encoding="UTF-8"?>
<svg width="215px" height="18px" viewBox="0 0 215 18" version="1.1" xmlns="http://www.w3.org/2000/svg" xmlns:xlink="http://www.w3.org/1999/xlink">
    <!-- Generator: Sketch 59.1 (86144) - https://sketch.com -->
    <title>ic_uppward_blue_2</title>
    <desc>Created with Sketch.</desc>
    <defs>
        <polygon id="path-1" points="0 0.0513618083 18.9758784 0.0513618083 18.9758784 17.1206028 0 17.1206028"></polygon>
    </defs>
    <g id="Page-1" stroke="none" stroke-width="1" fill="none" fill-rule="evenodd">
        <g id="ic" transform="translate(-87.000000, -272.000000)">
            <g id="Group-2" transform="translate(87.000000, 272.000000)">
                <g id="Group-3" transform="translate(23.803120, 1.672260)" fill="#000000">
                    <path d="M11.0615586,4.93863542e-05 L11.0615586,7.76802903 C11.0615586,9.63458628 10.9422123,11.0013536 10.7042579,11.8663556 C10.4672878,12.7320984 9.96824787,13.341773 9.2073843,13.69612 C8.44627465,14.0504671 7.2245128,14.2275172 5.54037623,14.2275172 C3.85673181,14.2275172 2.63423174,14.0504671 1.87410639,13.69612 C1.11299674,13.341773 0.610757886,12.7320984 0.366405517,11.8663556 C0.121807072,11.0013536 6.39488462e-14,9.63458628 6.39488462e-14,7.76802903 L6.39488462e-14,4.93863542e-05 L2.89285645,4.93863542e-05 L2.89285645,8.50339184 C2.89285645,9.5530988 2.94010283,10.2817945 3.03533381,10.6909604 C3.12982657,11.0993855 3.35375473,11.3789123 3.70761042,11.5292938 C4.05998967,11.6791813 4.67148578,11.7540017 5.54037623,11.7540017 C6.4228008,11.7540017 7.03798803,11.6791813 7.38470756,11.5292938 C7.73019671,11.3789123 7.94748084,11.0993855 8.0360678,10.6909604 C8.12391654,10.2817945 8.16870217,9.5530988 8.16870217,8.50339184 L8.16870217,4.93863542e-05 L11.0615586,4.93863542e-05 Z" id="Fill-1"></path>
                    <path d="M19.5352952,6.86808619 C20.3500492,6.86808619 20.9344771,6.81400813 21.2875945,6.70511122 C21.640712,6.59596738 21.8710381,6.39471799 21.9798032,6.10185691 C22.0883223,5.80924276 22.1429509,5.33513376 22.1429509,4.68150536 C22.1429509,4.02664231 22.0925055,3.55673115 21.9906305,3.27078416 C21.8885094,2.9843433 21.6638431,2.78655095 21.3181078,2.67740711 C20.9716344,2.56875713 20.3906516,2.51443214 19.5758976,2.51443214 L17.2133325,2.51443214 L17.2133325,6.86808619 L19.5352952,6.86808619 Z M14.3207222,0.000172852239 L20.7777274,0.000172852239 C21.9455988,0.000172852239 22.8422957,0.18389009 23.4668338,0.551571496 C24.091864,0.919993698 24.5128982,1.43756269 24.7299362,2.1052662 C24.9469743,2.77321664 25.0557394,3.6317984 25.0557394,4.68150536 C25.0557394,5.68948085 24.9504193,6.52781421 24.7397792,7.19502385 C24.5293852,7.86272736 24.104906,8.39437147 23.4668338,8.7894623 C22.8285155,9.18554086 21.9116405,9.38259241 20.717439,9.38259241 L17.2133325,9.38259241 L17.2133325,14.0639249 L14.3207222,14.0639249 L14.3207222,0.000172852239 Z" id="Fill-3"></path>
                    <path d="M32.7759947,6.86808619 C33.5907487,6.86808619 34.1751765,6.81400813 34.528294,6.70511122 C34.8814115,6.59596738 35.1117376,6.39471799 35.2205027,6.10185691 C35.3290217,5.80924276 35.3836503,5.33513376 35.3836503,4.68150536 C35.3836503,4.02664231 35.333205,3.55673115 35.23133,3.27078416 C35.1292089,2.9843433 34.9045425,2.78655095 34.5588073,2.67740711 C34.2123338,2.56875713 33.6315971,2.51443214 32.816597,2.51443214 L30.454032,2.51443214 L30.454032,6.86808619 L32.7759947,6.86808619 Z M27.5614216,0.000172852239 L34.0184268,0.000172852239 C35.1862983,0.000172852239 36.0829952,0.18389009 36.7075333,0.551571496 C37.3325635,0.919993698 37.7535976,1.43756269 37.9706357,2.1052662 C38.1876737,2.77321664 38.2964388,3.6317984 38.2964388,4.68150536 C38.2964388,5.68948085 38.1911188,6.52781421 37.9804787,7.19502385 C37.7700846,7.86272736 37.3456055,8.39437147 36.7075333,8.7894623 C36.069215,9.18554086 35.1523399,9.38259241 33.9578924,9.38259241 L30.454032,9.38259241 L30.454032,14.0639249 L27.5614216,14.0639249 L27.5614216,0.000172852239 Z" id="Fill-5"></path>
                    <polygon id="Fill-7" points="51.8222899 14.0638261 49.2756608 4.66066432 49.1944561 4.66066432 46.6483192 14.0638261 43.0226517 14.0638261 39.5795718 7.40795313e-05 42.4930985 7.40795313e-05 44.9782089 10.5072679 45.0800839 10.5072679 47.7886302 7.40795313e-05 50.7836078 7.40795313e-05 53.5536728 10.5072679 53.6555478 10.5072679 55.9991651 7.40795313e-05 58.8910373 7.40795313e-05 55.4484495 14.0638261"></polygon>
                    <path d="M65.2883939,2.73921413 L65.1865189,2.73921413 L63.2917422,8.50334246 L67.2031027,8.50334246 L65.2883939,2.73921413 Z M68.9950201,14.0637521 L67.9772543,11.0385909 L62.5173446,11.0385909 L61.5195109,14.0637521 L58.6067223,14.0637521 L63.3530149,5.32907052e-15 L67.243705,5.32907052e-15 L71.9897515,14.0637521 L68.9950201,14.0637521 Z" id="Fill-9"></path>
                    <path d="M81.1467643,6.29584651 C81.5065258,6.18694959 81.7375901,5.99977531 81.8394651,5.73358286 C81.9415862,5.46813121 81.9922776,5.04884106 81.9922776,4.47670015 C81.9922776,3.89122492 81.9415862,3.46872466 81.8394651,3.20919937 C81.7375901,2.95041488 81.513908,2.76990775 81.1674346,2.667678 C80.8209611,2.56544825 80.2473605,2.5145803 79.4458946,2.5145803 L76.8795795,2.5145803 L76.8795795,6.45956227 L79.4259625,6.45956227 C80.2134022,6.45956227 80.7870028,6.40474342 81.1467643,6.29584651 L81.1467643,6.29584651 Z M82.0941526,14.0638261 L80.0367204,8.97431542 L76.8795795,8.97431542 L76.8795795,14.0638261 L73.9867231,14.0638261 L73.9867231,7.40795313e-05 L80.5864517,7.40795313e-05 C81.7949255,7.40795313e-05 82.7157378,0.180581204 83.3464278,0.541595453 C83.978102,0.902609701 84.3993822,1.39993029 84.6097763,2.03380414 C84.8204164,2.667678 84.9254903,3.48181205 84.9254903,4.47670015 C84.9254903,6.69834529 84.2598578,8.06758196 82.9295769,8.58564481 L85.1703349,14.0638261 L82.0941526,14.0638261 Z" id="Fill-11"></path>
                    <path d="M92.4419464,11.5494187 C93.6772424,11.5494187 94.5060226,11.4812655 94.9270568,11.3447123 C95.3473527,11.2091467 95.6158204,10.8614668 95.7317217,10.3024133 C95.8471308,9.74360666 95.9042202,8.65389676 95.9042202,7.03204889 C95.9042202,5.4240292 95.8436857,4.33703554 95.7211404,3.77131485 C95.5993334,3.2058411 95.3306196,2.85470412 94.9172138,2.71815085 C94.5025776,2.58258531 93.6772424,2.51443214 92.4419464,2.51443214 L90.7105635,2.51443214 L90.7105635,11.5494187 L92.4419464,11.5494187 Z M87.817707,0.000172852239 L92.5846698,0.000172852239 C94.5938713,0.000172852239 96.0302105,0.201422245 96.8922109,0.603180236 C97.7551955,1.00493823 98.2948378,1.65535651 98.5118758,2.55517588 C98.7291599,3.45450139 98.837679,4.94671008 98.837679,7.03204889 C98.837679,9.11714076 98.7291599,10.6093494 98.5118758,11.508675 C98.2948378,12.4077535 97.7551955,13.0589126 96.8922109,13.4606706 C96.0302105,13.8624286 94.5938713,14.0639249 92.5846698,14.0639249 L87.817707,14.0639249 L87.817707,0.000172852239 Z" id="Fill-13"></path>
                </g>
                <g id="Group-17" transform="translate(0.000000, -0.000000)">
                    <mask id="mask-2" fill="white">
                        <use xlink:href="#path-1"></use>
                    </mask>
                    <g id="Clip-16"></g>
                    <path d="M16.2649861,9.46798306 L13.6866462,13.9780766 C13.7451792,14.1063494 13.7758894,14.2396268 13.7758894,14.3758014 C13.7758894,14.9110178 13.343585,15.3471981 12.8141631,15.3471981 C12.4994497,15.3471981 12.2109843,15.194693 12.0309231,14.9355134 L7.0012835,14.9355134 C6.8212223,15.194693 6.53380683,15.3471981 6.22014336,15.3471981 C5.68888407,15.3471981 5.25710466,14.9110178 5.25710466,14.3758014 C5.25710466,14.2509527 5.28204025,14.1287379 5.33243638,14.0099473 L2.7391351,9.47351434 C2.26588387,9.4105632 1.90366163,9.00045891 1.90366163,8.51528737 C1.90366163,7.99877195 2.30499337,7.574181 2.80947971,7.54468089 L5.32429951,3.1478467 C5.28020289,3.0314266 5.25710466,2.91289935 5.25710466,2.79647926 C5.25710466,2.26178966 5.68888407,1.82455581 6.22014336,1.82455581 C6.52225771,1.82455581 6.80258623,1.96731529 6.98527223,2.20753052 L12.0492967,2.20753052 C12.2298828,1.96731529 12.5117862,1.82455581 12.8141631,1.82455581 C13.343585,1.82455581 13.7758894,2.26178966 13.7758894,2.79647926 C13.7758894,2.92448869 13.7470166,3.05592224 13.6939957,3.17840039 L16.1928042,7.54810501 C16.683904,7.59209179 17.0721118,8.01220504 17.0721118,8.51528737 C17.0721118,8.99308388 16.7293131,9.39265241 16.2649861,9.46798306 M18.740434,7.69744934 L14.8756801,0.941132704 C14.5620166,0.390376082 13.9808862,0.0511247538 13.3525093,0.0511247538 L5.62405154,0.0511247538 C4.99593717,0.0511247538 4.4148067,0.390376082 4.10061828,0.941132704 L0.236126906,7.69744934 C-0.0788489579,8.24794257 -0.0788489579,8.92591844 0.236126906,9.47351434 L4.10061828,16.2319381 C4.4148067,16.7824314 4.99593717,17.1206291 5.62405154,17.1206291 L13.3525093,17.1206291 C13.9808862,17.1206291 14.5620166,16.7824314 14.8756801,16.2319381 L18.740434,9.47351434 C19.0543599,8.92591844 19.0543599,8.24794257 18.740434,7.69744934" id="Fill-15" fill="#4C6EF5" mask="url(#mask-2)"></path>
                </g>
                <path d="M13.7989614,4.9980044 L7.74407533,8.42923658 C7.74486277,8.43529464 7.74486277,8.4413527 7.74486277,8.44688398 C7.74486277,8.98341733 7.31334584,9.419861 6.78392391,9.419861 C6.25240214,9.419861 5.82193512,8.98341733 5.82193512,8.44688398 C5.82193512,7.91193099 6.25240214,7.47706768 6.78392391,7.47706768 C7.00519445,7.47706768 7.21701572,7.55292512 7.38736517,7.69278727 L13.3944799,4.28815787 L13.0742544,3.72976282 C12.9889484,3.75399506 12.9010177,3.76716475 12.8141368,3.76716475 C12.3689709,3.76716475 11.9870627,3.45556978 11.8825957,3.02597435 L7.14982087,3.02597435 C7.0464038,3.45556978 6.66160828,3.76716475 6.22037959,3.76716475 C6.12299955,3.76716475 6.02509456,3.7524147 5.93165172,3.72238779 L3.5672329,7.85424773 C3.73574499,8.0362529 3.82761295,8.26803953 3.82761295,8.51536639 C3.82761295,8.78271118 3.71920875,9.0321452 3.52786092,9.21546734 L5.3329351,12.3751404 L11.5256231,8.75426464 C11.5229983,8.7258181 11.5211609,8.69710817 11.5211609,8.66787145 C11.5211609,8.1313381 11.9534653,7.69542121 12.4828872,7.69542121 C13.0136215,7.69542121 13.4433011,8.1313381 13.4433011,8.66787145 C13.4433011,9.20282444 13.0136215,9.63795114 12.4828872,9.63795114 C12.2849774,9.63795114 12.0965168,9.57684376 11.9340418,9.46121384 L5.7374166,13.0818262 L5.94556315,13.4461 C6.03401887,13.4181802 6.12536187,13.4052739 6.22037959,13.4052739 C6.65714612,13.4052739 7.03170492,13.6986947 7.14457127,14.117491 L11.8878453,14.117491 C12.0219725,13.6196766 12.5453574,13.2949119 13.0595555,13.4403053 L15.4643962,9.23127098 C15.2649115,9.0492658 15.1488954,8.78850585 15.1488954,8.51536639 C15.1488954,8.26224486 15.2478503,8.02044927 15.4239743,7.84055124 L13.7989614,4.9980044 Z" id="Fill-18" fill="#4C6EF5"></path>
            </g>
            <g id="Group-4" transform="translate(214.472000, 278.000000)">
                <path d="M1.85714286,3.67936508 C2.41799222,3.67936508 2.86110948,3.86190294 3.18650794,4.22698413 C3.51190639,4.59206532 3.67460317,5.09735127 3.67460317,5.74285714 C3.67460317,6.38836302 3.51190639,6.89365079 3.18650794,7.25873016 C2.86110948,7.62381135 2.41799222,7.80634921 1.85714286,7.80634921 C1.50264373,7.80634921 1.19576849,7.72037123 0.936507937,7.5484127 C0.677247381,7.37645417 0.492064048,7.13968405 0.380952381,6.83809524 L0.357142857,7.72698413 L4.61852778e-14,7.72698413 L4.61852778e-14,1.93333333 L0.396825397,1.93333333 L0.396825397,4.6 C0.518519127,4.31428429 0.707670675,4.08941881 0.964285714,3.92539683 C1.22090075,3.76137484 1.51851683,3.67936508 1.85714286,3.67936508 Z M1.80952381,7.45714286 C2.26984357,7.45714286 2.62962833,7.30502798 2.88888889,7.00079365 C3.14814944,6.69655933 3.27777778,6.27725135 3.27777778,5.74285714 C3.27777778,5.20846294 3.14814944,4.78915496 2.88888889,4.48492063 C2.62962833,4.18068631 2.26984357,4.02857143 1.80952381,4.02857143 C1.3968254,4.02857143 1.06349333,4.16878167 0.80952381,4.44920635 C0.555554286,4.72963103 0.417989524,5.11322508 0.396825397,5.6 L0.396825397,5.88571429 C0.417989524,6.37248921 0.555554286,6.75608325 0.80952381,7.03650794 C1.06349333,7.31693262 1.3968254,7.45714286 1.80952381,7.45714286 Z M6.1031746,8.45714286 C5.95502571,8.81693302 5.79100619,9.06957599 5.61111111,9.21507937 C5.43121603,9.36058274 5.20370508,9.43333333 4.92857143,9.43333333 C4.60052746,9.43333333 4.34920722,9.33545071 4.17460317,9.13968254 L4.32539683,8.7984127 C4.45238159,8.98888984 4.65343778,9.08412698 4.92857143,9.08412698 C5.11375754,9.08412698 5.27116337,9.0325402 5.40079365,8.92936508 C5.53042393,8.82618996 5.6507931,8.63703841 5.76190476,8.36190476 L6.01587302,7.72698413 L5.6031746,6.74285714 L4.34126984,3.75873016 L4.79365079,3.75873016 L6.00793651,6.76666667 L6.20634921,7.2984127 L6.42063492,6.72698413 L7.58730159,3.75873016 L8.01587302,3.75873016 L6.1031746,8.45714286 Z" id="by" fill="#212529" fill-rule="nonzero"></path>
                <g id="logo" transform="translate(10.440000, -0.000000)">
                    <g id="type">
                        <path d="M15.613485,6.47050689 C15.8161654,6.21344499 15.9175055,5.84359904 15.9175055,5.36129881 C15.9175055,4.87932836 15.8161654,4.50931752 15.613485,4.25225562 C15.4104691,3.99519372 15.1259112,3.86658032 14.7596436,3.86658032 C14.4324692,3.86658032 14.1675418,3.97738571 13.9646937,4.19916137 C13.7618455,4.42093703 13.6472506,4.73785363 13.6212444,5.1492516 L13.6212444,5.5736758 C13.6472506,5.97864311 13.7618455,6.29374592 13.9646937,6.51865447 C14.1675418,6.7438928 14.4324692,6.85634708 14.7596436,6.85634708 C15.1259112,6.85634708 15.4104691,6.72773368 15.613485,6.47050689 M16.7027242,3.51437749 C17.075703,3.95496081 17.2621085,4.56735844 17.2621085,5.35173525 C17.2621085,6.14270763 17.075703,6.75988703 16.7027242,7.20343835 C16.3299131,7.64715456 15.8161654,7.86893022 15.1621521,7.86893022 C14.8086359,7.86893022 14.5010919,7.79027819 14.2395202,7.63280922 C13.9776129,7.47517537 13.7715769,7.25818149 13.6212444,6.98182758 L13.6212444,9.79780136 L12.2766414,9.79780136 L12.2766414,2.95029233 L13.4642007,2.95029233 L13.513193,3.90499945 C13.6571497,3.58346597 13.871407,3.32805296 14.1559649,3.13826576 C14.4406905,2.94880833 14.7759185,2.85383229 15.1621521,2.85383229 C15.8161654,2.85383229 16.3299131,3.07395906 16.7027242,3.51437749" id="Fill-1" fill="#000000"></path>
                        <path d="M18.0764708,6.94311165 L18.8616895,6.15213928 C18.9923914,6.42865807 19.1804748,6.62339194 19.4257717,6.73568133 C19.6712364,6.8483005 19.9737469,6.90452763 20.3336388,6.90452763 C20.6213845,6.90452763 20.8440309,6.86594362 21.0010746,6.78877558 C21.1579506,6.71160754 21.2364724,6.60541905 21.2364724,6.47053987 C21.2364724,6.36121849 21.162984,6.26789133 21.0156716,6.19088818 C20.868527,6.11372015 20.6150088,6.039685 20.2551169,5.96911252 C19.5026158,5.82104223 18.9744388,5.62680303 18.6702505,5.38557047 C18.3660621,5.14433791 18.2138841,4.81802264 18.2138841,4.40662467 C18.2138841,4.13653654 18.2987817,3.88244264 18.4690801,3.64467275 C18.6392108,3.40690286 18.8910513,3.21546677 19.2247692,3.07085915 C19.5584871,2.92608663 19.9574721,2.85386527 20.421892,2.85386527 C20.971545,2.85386527 21.4163345,2.93565019 21.7567637,3.09954983 C22.0966895,3.26377924 22.3812474,3.52265492 22.6102694,3.87601197 L21.7763941,4.5705243 C21.6322696,4.3134624 21.4539176,4.1236752 21.2413381,4.00149248 C21.0287586,3.87947464 20.7621534,3.81830084 20.4416903,3.81830084 C20.1732394,3.81830084 19.9591499,3.86315063 19.7987506,3.9533449 C19.638519,4.04337428 19.5584871,4.15253077 19.5584871,4.28114417 C19.5584871,4.41635312 19.6370089,4.52864251 19.7938849,4.61867188 C19.9509286,4.70886615 20.228943,4.79229996 20.6280958,4.86963289 C21.3411682,5.01094273 21.8465269,5.19578327 22.1441717,5.4239896 C22.4419843,5.65236082 22.5908068,5.96911252 22.5908068,6.37407983 C22.5908068,6.82422671 22.3960121,7.1859931 22.0069263,7.45921412 C21.6175048,7.73260003 21.0663417,7.8689632 20.3532693,7.8689632 C19.2606745,7.8689632 18.5016298,7.56029106 18.0764708,6.94311165" id="Fill-3" fill="#000000"></path>
                        <path d="M26.0891906,6.7645369 C26.3281118,6.62652484 26.4475724,6.43838652 26.4475724,6.20045174 L26.4475724,5.69902439 L25.3974264,5.93036362 C25.17478,5.98197386 25.009515,6.05089745 24.9017991,6.13762905 C24.7937477,6.22452553 24.7398897,6.34505937 24.7398897,6.49956033 C24.7398897,6.65373151 24.788882,6.77113246 24.8870343,6.85159828 C24.9851866,6.9318992 25.1225999,6.97196722 25.2992741,6.97196722 C25.5870198,6.97196722 25.8502694,6.90304363 26.0891906,6.7645369 M28.4789062,6.9333832 L28.3807538,7.73391914 C28.1973684,7.82394851 27.9847889,7.8689632 27.7428476,7.8689632 C27.1146727,7.8689632 26.738506,7.62789553 26.6143475,7.1455953 C26.470223,7.38369497 26.2477444,7.56375372 25.9469117,7.68560667 C25.6457434,7.8077894 25.289375,7.8689632 24.8771352,7.8689632 C24.3996283,7.8689632 24.0266495,7.7629396 23.7583664,7.5507275 C23.4902512,7.33835051 23.3561936,7.03314103 23.3561936,6.63443951 C23.3561936,5.85022758 23.9940998,5.34203978 25.2697445,5.11070056 L26.4475724,4.88876001 L26.4475724,4.65742079 C26.4475724,4.400194 26.3737485,4.19606146 26.2264361,4.04485828 C26.0792915,3.89381998 25.8749333,3.81830084 25.6133615,3.81830084 C25.3121933,3.81830084 25.0668964,3.88244264 24.8771352,4.01122093 C24.6875418,4.13983432 24.5565043,4.34874864 24.4846937,4.63812878 L23.415085,4.19441257 C23.519613,3.77641904 23.7551786,3.44861977 24.1214462,3.21068499 C24.4878815,2.9729151 24.9655562,2.85386527 25.5543024,2.85386527 C26.2542879,2.85386527 26.800753,3.00308978 27.1933623,3.30219837 C27.5858039,3.60114207 27.7821085,4.04337428 27.7821085,4.62840033 L27.7821085,6.60541905 C27.7821085,6.73419733 27.8116381,6.8273596 27.8703617,6.88507074 C27.9294209,6.94311165 28.020862,6.97196722 28.1451882,6.97196722 C28.2826015,6.97196722 28.393673,6.95927077 28.4789062,6.9333832" id="Fill-5" fill="#000000"></path>
                        <path d="M30.6181571,6.23911821 C30.6181571,6.47045743 30.6523846,6.63138906 30.7211751,6.72125355 C30.7897978,6.81144781 30.9156342,6.85629761 31.0990196,6.85629761 C31.2100911,6.85629761 31.3067334,6.84821805 31.3884431,6.83238871 C31.4703206,6.81622959 31.5666274,6.78885802 31.6780345,6.750274 L31.5602517,7.66639711 C31.4553881,7.73086869 31.3181426,7.78050027 31.1480119,7.8159514 C30.978049,7.85123764 30.8109383,7.86904565 30.6476867,7.86904565 C30.1698442,7.86904565 29.8215293,7.75477759 29.6024064,7.52673615 C29.3831156,7.29836493 29.2737219,6.93346565 29.2737219,6.43187341 L29.2737219,0.838180087 L30.6181571,0.838180087 L30.6181571,6.23911821 Z" id="Fill-7" fill="#000000"></path>
                        <path d="M34.8623476,6.7645369 C35.1012688,6.62652484 35.2207295,6.43838652 35.2207295,6.20045174 L35.2207295,5.69902439 L34.1705834,5.93036362 C33.9481048,5.98197386 33.7828398,6.05089745 33.6749561,6.13762905 C33.5669047,6.22452553 33.5130467,6.34505937 33.5130467,6.49956033 C33.5130467,6.65373151 33.562039,6.77113246 33.6601913,6.85159828 C33.7583437,6.9318992 33.8957569,6.97196722 34.0724311,6.97196722 C34.3601768,6.97196722 34.6234264,6.90304363 34.8623476,6.7645369 M37.2520632,6.9333832 L37.1539109,7.73391914 C36.9705254,7.82394851 36.7581137,7.8689632 36.5160046,7.8689632 C35.8878297,7.8689632 35.511663,7.62789553 35.3875045,7.1455953 C35.24338,7.38369497 35.0209014,7.56375372 34.7200687,7.68560667 C34.4189004,7.8077894 34.062532,7.8689632 33.6502922,7.8689632 C33.1727853,7.8689632 32.7998065,7.7629396 32.5315235,7.5507275 C32.2634082,7.33835051 32.1293506,7.03314103 32.1293506,6.63443951 C32.1293506,5.85022758 32.7672568,5.34203978 34.0429015,5.11070056 L35.2207295,4.88876001 L35.2207295,4.65742079 C35.2207295,4.400194 35.1469055,4.19606146 34.9995931,4.04485828 C34.8524485,3.89381998 34.6480903,3.81830084 34.3865186,3.81830084 C34.0853503,3.81830084 33.8400534,3.88244264 33.6502922,4.01122093 C33.4606988,4.13983432 33.3296613,4.34874864 33.2578507,4.63812878 L32.188242,4.19441257 C32.29277,3.77641904 32.5283356,3.44861977 32.8946032,3.21068499 C33.2610385,2.9729151 33.7387132,2.85386527 34.3274594,2.85386527 C35.0274449,2.85386527 35.5739101,3.00308978 35.9665194,3.30219837 C36.3589609,3.60114207 36.5552655,4.04337428 36.5552655,4.62840033 L36.5552655,6.60541905 C36.5552655,6.73419733 36.5847951,6.8273596 36.6435187,6.88507074 C36.7025779,6.94311165 36.794019,6.97196722 36.9183453,6.97196722 C37.0557585,6.97196722 37.16683,6.95927077 37.2520632,6.9333832" id="Fill-9" fill="#000000"></path>
                        <g id="Group" transform="translate(37.693346, 1.474701)" fill="#868E96">
                            <path d="M-2.30926389e-14,5.46841069 L0.785218618,4.67743831 C0.916088388,4.95395711 1.10417174,5.14869098 1.34946866,5.26098036 C1.59493337,5.37359953 1.89744388,5.42982667 2.25716796,5.42982667 C2.54508146,5.42982667 2.76756007,5.39124265 2.92460379,5.31407461 C3.08147973,5.23690658 3.16016938,5.13071808 3.16016938,4.99583891 C3.16016938,4.88651752 3.08651318,4.79319036 2.93936858,4.71618722 C2.79222398,4.63901918 2.53853797,4.56498403 2.1786461,4.49441156 C1.42631271,4.34634126 0.89813574,4.15210206 0.593947416,3.9108695 C0.289759093,3.66963694 0.137413258,3.34332168 0.137413258,2.9319237 C0.137413258,2.66183557 0.222310827,2.40774168 0.392609309,2.16997179 C0.56274001,1.9322019 0.814580426,1.7407658 1.14829834,1.59615818 C1.48201625,1.45138567 1.88100127,1.3791643 2.34542117,1.3791643 C2.8950742,1.3791643 3.33986364,1.46094923 3.68029282,1.62484886 C4.02038644,1.78907827 4.3049443,2.04795395 4.53396639,2.40131101 L3.69992328,3.09582334 C3.55579876,2.83876144 3.37761453,2.64897424 3.16503505,2.52679151 C2.95245556,2.40477368 2.68568257,2.34359987 2.36521942,2.34359987 C2.09676861,2.34359987 1.88267908,2.38844967 1.72244751,2.47864393 C1.56204815,2.56867331 1.48201625,2.6778298 1.48201625,2.8064432 C1.48201625,2.94165215 1.56053811,3.05394154 1.71741406,3.14397091 C1.87445778,3.23416518 2.15247215,3.317599 2.55162495,3.39493192 C3.26469741,3.53624177 3.77005606,3.7210823 4.06786868,3.94928863 C4.36551351,4.17765985 4.51433593,4.49441156 4.51433593,4.89937886 C4.51433593,5.34952574 4.31954131,5.71129213 3.93045542,5.98451315 C3.54103396,6.25789906 2.98987089,6.39426224 2.27679843,6.39426224 C1.18420363,6.39426224 0.425326752,6.08559009 -2.30926389e-14,5.46841069" id="Fill-11"></path>
                            <path d="M6.99227113,2.63293054 C6.79932211,2.81958485 6.67650586,3.09593876 6.62432574,3.46232204 L8.91102329,3.46232204 C8.8585076,3.10236943 8.73418132,2.82749952 8.53804445,2.63754743 C8.34173979,2.44809001 8.08637596,2.35327885 7.77245629,2.35327885 C7.44528187,2.35327885 7.18505237,2.44644112 6.99227113,2.63293054 M10.1081461,4.38833848 L6.63405708,4.38833848 C6.77147034,5.06982458 7.18035448,5.41048519 7.86087728,5.41048519 C8.1420795,5.41048519 8.37428945,5.35903983 8.55750713,5.25614912 C8.74072481,5.15342329 8.86823894,5.00551789 8.94021732,4.8125978 L10.0393556,5.20800154 C9.88247966,5.59384172 9.61889452,5.88783875 9.24927131,6.09065218 C8.87981588,6.29297094 8.41673824,6.39437766 7.86087728,6.39437766 C7.04948471,6.39437766 6.42147759,6.174086 5.97652038,5.73366757 C5.53156316,5.29341402 5.30925233,4.67738884 5.30925233,3.88674625 C5.30925233,3.09593876 5.52518745,2.48024336 5.95688991,2.03966004 C6.38876015,1.5992416 6.9971368,1.37911483 7.78235542,1.37911483 C8.54106452,1.37911483 9.12511281,1.59462471 9.53382917,2.02531469 C9.94271331,2.45616957 10.1474071,3.07021608 10.1474071,3.86728935 C10.1474071,4.0473481 10.1343201,4.22097618 10.1081461,4.38833848" id="Fill-13"></path>
                            <path d="M15.0343191,1.76485608 C15.394211,2.02208287 15.6393402,2.36604126 15.7703777,2.79689613 L14.5141957,3.24044745 C14.3964129,2.65542139 14.0791376,2.36290837 13.5623698,2.36290837 C13.1761362,2.36290837 12.880337,2.49300576 12.674301,2.75336544 C12.4680972,3.01372512 12.3650792,3.39494841 12.3650792,3.89637576 C12.3650792,4.397968 12.4696072,4.77572862 12.6789989,5.02949274 C12.8883905,5.28358664 13.1794918,5.41038626 13.5524707,5.41038626 C14.1281299,5.41038626 14.4683913,5.12446879 14.5730871,4.55213918 L15.7900082,4.93797937 C15.6853124,5.38169558 15.4416933,5.73538241 15.0588153,5.99887498 C14.6761051,6.26253244 14.1804778,6.39427872 13.5721011,6.39427872 C12.7608764,6.39427872 12.1327015,6.17398706 11.687912,5.73356863 C11.242787,5.29331509 11.0204762,4.6774548 11.0204762,3.88664731 C11.0204762,3.09583983 11.2414448,2.48030931 11.6830464,2.03972599 C12.1246479,1.59930756 12.7378903,1.37918079 13.5229411,1.37918079 C14.1707464,1.37918079 14.6744273,1.50779418 15.0343191,1.76485608" id="Fill-15"></path>
                            <path d="M21.5209464,1.47565732 L21.5209464,6.29783517 L20.3236558,6.29783517 L20.2746635,5.46844366 C19.9605761,6.08562307 19.3881047,6.39429521 18.5572495,6.39429521 C18.0273947,6.39429521 17.6069336,6.25430448 17.2962018,5.97465279 C16.98547,5.6950011 16.8301041,5.25952934 16.8301041,4.66790773 L16.8301041,1.47565732 L18.1745393,1.47565732 L18.1745393,4.33021512 C18.1745393,4.70335886 18.2465176,4.96701631 18.3904744,5.1211875 C18.5342634,5.27552357 18.7470106,5.35269161 19.0283806,5.35269161 C19.3684742,5.35269161 19.6448108,5.245184 19.8577258,5.02950923 C20.0703053,4.81416424 20.1765112,4.49114675 20.1765112,4.06029188 L20.1765112,1.47565732 L21.5209464,1.47565732 Z" id="Fill-17"></path>
                            <path d="M26.2412848,1.48515493 L26.0745097,2.64267548 C25.9238417,2.54621543 25.7178057,2.49790296 25.4560661,2.49790296 C25.135603,2.49790296 24.8590987,2.61200613 24.6270565,2.84021246 C24.394511,3.06858368 24.2785738,3.38846828 24.2785738,3.79986625 L24.2785738,6.29776921 L22.9339708,6.29776921 L22.9339708,1.47559137 L24.1018996,1.47559137 L24.1901528,2.42073493 C24.4584358,1.72638749 24.9654723,1.37913132 25.71143,1.37913132 C25.9402843,1.37913132 26.1169585,1.41441756 26.2412848,1.48515493" id="Fill-19"></path>
                            <polygon id="Fill-21" points="27.0752775 6.29780219 28.4198805 6.29780219 28.4198805 1.47562435 27.0752775 1.47562435"></polygon>
                            <path d="M33.2089759,5.99882551 C33.0520999,6.12117313 32.8539497,6.21746829 32.6155318,6.28820565 C32.3766106,6.35910791 32.1261124,6.39422926 31.8642051,6.39422926 C30.7719459,6.39422926 30.2256485,5.90896103 30.2256485,4.9379299 L30.2256485,2.45931895 L29.3325462,2.45931895 L29.3325462,1.47559137 L30.2256485,1.47559137 L30.2256485,0.366548174 L31.5700837,3.55271368e-15 L31.5700837,1.47559137 L33.1599836,1.47559137 L33.1599836,2.45931895 L31.5700837,2.45931895 L31.5700837,4.7257178 C31.5700837,5.16943401 31.7959179,5.39120967 32.2472508,5.39120967 C32.5349966,5.39120967 32.7866692,5.30151007 33.0027721,5.12128643 L33.2089759,5.99882551 Z" id="Fill-23"></path>
                            <path d="M36.7712342,6.59671291 C36.5292929,7.25280611 36.2496007,7.71235166 35.9321577,7.97584423 C35.6145468,8.23966658 35.1912334,8.37141286 34.6613786,8.37141286 C34.1315239,8.37141286 33.7159284,8.24609725 33.414928,7.99513624 L33.7484781,7.05988602 C33.8531739,7.17547318 33.9694467,7.25396033 34.0969608,7.29600702 C34.2244749,7.33772393 34.3831965,7.35866483 34.5729577,7.35866483 C34.775638,7.35866483 34.9392252,7.31678303 35.0635515,7.23334921 C35.1878778,7.14975051 35.2925736,6.99871221 35.3778067,6.78006944 L35.5544809,6.36537369 L35.0145592,5.11155798 L33.5132481,1.47559137 L35.0049957,1.47559137 L35.9274598,4.36889807 L36.1923872,5.33349853 L36.4866764,4.31118694 L37.38951,1.47559137 L38.7535757,1.47559137 L36.7712342,6.59671291 Z" id="Fill-24"></path>
                        </g>
                        <path d="M3.34640712,5.53495987 C3.34640712,5.96581474 3.24003349,6.28883223 3.02762179,6.50417722 C2.81470674,6.72001688 2.53837019,6.8273596 2.19810879,6.8273596 C1.91673878,6.8273596 1.7041593,6.75019156 1.56020255,6.59602038 C1.41641358,6.4416843 1.34426743,6.17802684 1.34426743,5.805048 L1.34426743,2.95032531 L2.05169215e-13,2.95032531 L2.05169215e-13,6.14274061 C2.05169215e-13,6.73419733 0.155198124,7.16966909 0.466097718,7.44932078 C0.776829531,7.72913736 1.19712283,7.8689632 1.7271454,7.8689632 C2.52863885,7.8689632 3.08735209,7.57875862 3.40781525,7.00428546 L3.40781525,7.77761471 L4.65141362,7.77761471 L4.65141362,7.77250316 L4.65141362,2.95032531 L3.40781525,2.95032531 C3.40781525,2.95032531 3.38667475,5.24112773 3.34640712,5.53495987" id="Fill-27" fill="#000000"></path>
                        <path d="M9.4406264,6.47050689 C9.23777826,6.72773368 8.9532204,6.85634708 8.58678505,6.85634708 C8.25961062,6.85634708 7.99468323,6.7438928 7.79183509,6.51865447 C7.58915473,6.29374592 7.474392,5.97864311 7.44838583,5.5736758 L7.44838583,5.1492516 C7.474392,4.73785363 7.58915473,4.42093703 7.79183509,4.19916137 C7.99468323,3.97738571 8.25961062,3.86658032 8.58678505,3.86658032 C8.9532204,3.86658032 9.23777826,3.99519372 9.4406264,4.25225562 C9.64330676,4.50931752 9.74464695,4.87932836 9.74464695,5.36129881 C9.74464695,5.84359904 9.64330676,6.21344499 9.4406264,6.47050689 M10.5298656,3.51437749 C10.1570545,3.07395906 9.64330676,2.85383229 8.98929348,2.85383229 C8.60305988,2.85383229 8.26799971,2.94880833 7.98327407,3.13826576 C7.69871621,3.32805296 7.48429113,3.58346597 7.34033438,3.90499945 L7.31768384,3.97079015 L7.31768384,3.45996413 L7.31768384,3.22351335 L7.31768384,2.95029233 L7.29134211,2.95029233 L6.10378284,2.95029233 L6.10378284,9.79780136 L7.31768384,9.79780136 L7.31768384,6.55377582 C7.31768384,6.74306836 7.44838583,6.98182758 7.44838583,6.98182758 C7.59888607,7.25818149 7.80492206,7.47517537 8.0666616,7.63280922 C8.32823336,7.79027819 8.63577732,7.86893022 8.98929348,7.86893022 C9.64330676,7.86893022 10.1570545,7.64715456 10.5298656,7.20343835 C10.9028444,6.75988703 11.0892499,6.14270763 11.0892499,5.35173525 C11.0892499,4.56735844 10.9028444,3.95496081 10.5298656,3.51437749" id="Fill-28" fill="#000000"></path>
                        <polygon id="Polygon" fill="#4C6EF5" transform="translate(65.414751, 1.147627) rotate(90.000000) translate(-65.414751, -1.147627) " points="65.4147511 -5.7586302e-13 66.4086254 0.573813606 66.4086254 1.72144082 65.4147511 2.29525442 64.4208767 1.72144082 64.4208767 0.573813606"></polygon>
                    </g>
                    <path d="M5.36274116,0.306033923 C4.28474337,0.306033923 3.40791592,1.16101356 3.40791592,2.21178631 L4.65151429,2.21178631 C4.65151429,1.82935999 4.97046741,1.51825012 5.36274116,1.51825012 C5.7550149,1.51825012 6.0741358,1.82935999 6.0741358,2.21178631 L7.3175664,2.21178631 C7.3175664,1.16101356 6.44057116,0.306033923 5.36274116,0.306033923" id="Fill-26" fill="#4C6EF5"></path>
                </g>
            </g>
        </g>
    </g>
</svg>