<?xml version="1.0" encoding="UTF-8"?>
<svg width="124px" height="18px" viewBox="0 0 124 18" version="1.1" xmlns="http://www.w3.org/2000/svg" xmlns:xlink="http://www.w3.org/1999/xlink">
    <!-- Generator: Sketch 59.1 (86144) - https://sketch.com -->
    <title>ic_uppward_blue</title>
    <desc>Created with Sketch.</desc>
    <defs>
        <polygon id="path-1" points="0 0.0513618083 18.9758784 0.0513618083 18.9758784 17.1206028 0 17.1206028"></polygon>
    </defs>
    <g id="Page-1" stroke="none" stroke-width="1" fill="none" fill-rule="evenodd">
        <g id="ic" transform="translate(-87.000000, -272.000000)">
            <g id="Group-2" transform="translate(87.000000, 272.000000)">
                <g id="Group-3" transform="translate(23.803120, 1.672260)" fill="#000000">
                    <path d="M11.0615586,4.93863542e-05 L11.0615586,7.76802903 C11.0615586,9.63458628 10.9422123,11.0013536 10.7042579,11.8663556 C10.4672878,12.7320984 9.96824787,13.341773 9.2073843,13.69612 C8.44627465,14.0504671 7.2245128,14.2275172 5.54037623,14.2275172 C3.85673181,14.2275172 2.63423174,14.0504671 1.87410639,13.69612 C1.11299674,13.341773 0.610757886,12.7320984 0.366405517,11.8663556 C0.121807072,11.0013536 6.39488462e-14,9.63458628 6.39488462e-14,7.76802903 L6.39488462e-14,4.93863542e-05 L2.89285645,4.93863542e-05 L2.89285645,8.50339184 C2.89285645,9.5530988 2.94010283,10.2817945 3.03533381,10.6909604 C3.12982657,11.0993855 3.35375473,11.3789123 3.70761042,11.5292938 C4.05998967,11.6791813 4.67148578,11.7540017 5.54037623,11.7540017 C6.4228008,11.7540017 7.03798803,11.6791813 7.38470756,11.5292938 C7.73019671,11.3789123 7.94748084,11.0993855 8.0360678,10.6909604 C8.12391654,10.2817945 8.16870217,9.5530988 8.16870217,8.50339184 L8.16870217,4.93863542e-05 L11.0615586,4.93863542e-05 Z" id="Fill-1"></path>
                    <path d="M19.5352952,6.86808619 C20.3500492,6.86808619 20.9344771,6.81400813 21.2875945,6.70511122 C21.640712,6.59596738 21.8710381,6.39471799 21.9798032,6.10185691 C22.0883223,5.80924276 22.1429509,5.33513376 22.1429509,4.68150536 C22.1429509,4.02664231 22.0925055,3.55673115 21.9906305,3.27078416 C21.8885094,2.9843433 21.6638431,2.78655095 21.3181078,2.67740711 C20.9716344,2.56875713 20.3906516,2.51443214 19.5758976,2.51443214 L17.2133325,2.51443214 L17.2133325,6.86808619 L19.5352952,6.86808619 Z M14.3207222,0.000172852239 L20.7777274,0.000172852239 C21.9455988,0.000172852239 22.8422957,0.18389009 23.4668338,0.551571496 C24.091864,0.919993698 24.5128982,1.43756269 24.7299362,2.1052662 C24.9469743,2.77321664 25.0557394,3.6317984 25.0557394,4.68150536 C25.0557394,5.68948085 24.9504193,6.52781421 24.7397792,7.19502385 C24.5293852,7.86272736 24.104906,8.39437147 23.4668338,8.7894623 C22.8285155,9.18554086 21.9116405,9.38259241 20.717439,9.38259241 L17.2133325,9.38259241 L17.2133325,14.0639249 L14.3207222,14.0639249 L14.3207222,0.000172852239 Z" id="Fill-3"></path>
                    <path d="M32.7759947,6.86808619 C33.5907487,6.86808619 34.1751765,6.81400813 34.528294,6.70511122 C34.8814115,6.59596738 35.1117376,6.39471799 35.2205027,6.10185691 C35.3290217,5.80924276 35.3836503,5.33513376 35.3836503,4.68150536 C35.3836503,4.02664231 35.333205,3.55673115 35.23133,3.27078416 C35.1292089,2.9843433 34.9045425,2.78655095 34.5588073,2.67740711 C34.2123338,2.56875713 33.6315971,2.51443214 32.816597,2.51443214 L30.454032,2.51443214 L30.454032,6.86808619 L32.7759947,6.86808619 Z M27.5614216,0.000172852239 L34.0184268,0.000172852239 C35.1862983,0.000172852239 36.0829952,0.18389009 36.7075333,0.551571496 C37.3325635,0.919993698 37.7535976,1.43756269 37.9706357,2.1052662 C38.1876737,2.77321664 38.2964388,3.6317984 38.2964388,4.68150536 C38.2964388,5.68948085 38.1911188,6.52781421 37.9804787,7.19502385 C37.7700846,7.86272736 37.3456055,8.39437147 36.7075333,8.7894623 C36.069215,9.18554086 35.1523399,9.38259241 33.9578924,9.38259241 L30.454032,9.38259241 L30.454032,14.0639249 L27.5614216,14.0639249 L27.5614216,0.000172852239 Z" id="Fill-5"></path>
                    <polygon id="Fill-7" points="51.8222899 14.0638261 49.2756608 4.66066432 49.1944561 4.66066432 46.6483192 14.0638261 43.0226517 14.0638261 39.5795718 7.40795313e-05 42.4930985 7.40795313e-05 44.9782089 10.5072679 45.0800839 10.5072679 47.7886302 7.40795313e-05 50.7836078 7.40795313e-05 53.5536728 10.5072679 53.6555478 10.5072679 55.9991651 7.40795313e-05 58.8910373 7.40795313e-05 55.4484495 14.0638261"></polygon>
                    <path d="M65.2883939,2.73921413 L65.1865189,2.73921413 L63.2917422,8.50334246 L67.2031027,8.50334246 L65.2883939,2.73921413 Z M68.9950201,14.0637521 L67.9772543,11.0385909 L62.5173446,11.0385909 L61.5195109,14.0637521 L58.6067223,14.0637521 L63.3530149,5.32907052e-15 L67.243705,5.32907052e-15 L71.9897515,14.0637521 L68.9950201,14.0637521 Z" id="Fill-9"></path>
                    <path d="M81.1467643,6.29584651 C81.5065258,6.18694959 81.7375901,5.99977531 81.8394651,5.73358286 C81.9415862,5.46813121 81.9922776,5.04884106 81.9922776,4.47670015 C81.9922776,3.89122492 81.9415862,3.46872466 81.8394651,3.20919937 C81.7375901,2.95041488 81.513908,2.76990775 81.1674346,2.667678 C80.8209611,2.56544825 80.2473605,2.5145803 79.4458946,2.5145803 L76.8795795,2.5145803 L76.8795795,6.45956227 L79.4259625,6.45956227 C80.2134022,6.45956227 80.7870028,6.40474342 81.1467643,6.29584651 L81.1467643,6.29584651 Z M82.0941526,14.0638261 L80.0367204,8.97431542 L76.8795795,8.97431542 L76.8795795,14.0638261 L73.9867231,14.0638261 L73.9867231,7.40795313e-05 L80.5864517,7.40795313e-05 C81.7949255,7.40795313e-05 82.7157378,0.180581204 83.3464278,0.541595453 C83.978102,0.902609701 84.3993822,1.39993029 84.6097763,2.03380414 C84.8204164,2.667678 84.9254903,3.48181205 84.9254903,4.47670015 C84.9254903,6.69834529 84.2598578,8.06758196 82.9295769,8.58564481 L85.1703349,14.0638261 L82.0941526,14.0638261 Z" id="Fill-11"></path>
                    <path d="M92.4419464,11.5494187 C93.6772424,11.5494187 94.5060226,11.4812655 94.9270568,11.3447123 C95.3473527,11.2091467 95.6158204,10.8614668 95.7317217,10.3024133 C95.8471308,9.74360666 95.9042202,8.65389676 95.9042202,7.03204889 C95.9042202,5.4240292 95.8436857,4.33703554 95.7211404,3.77131485 C95.5993334,3.2058411 95.3306196,2.85470412 94.9172138,2.71815085 C94.5025776,2.58258531 93.6772424,2.51443214 92.4419464,2.51443214 L90.7105635,2.51443214 L90.7105635,11.5494187 L92.4419464,11.5494187 Z M87.817707,0.000172852239 L92.5846698,0.000172852239 C94.5938713,0.000172852239 96.0302105,0.201422245 96.8922109,0.603180236 C97.7551955,1.00493823 98.2948378,1.65535651 98.5118758,2.55517588 C98.7291599,3.45450139 98.837679,4.94671008 98.837679,7.03204889 C98.837679,9.11714076 98.7291599,10.6093494 98.5118758,11.508675 C98.2948378,12.4077535 97.7551955,13.0589126 96.8922109,13.4606706 C96.0302105,13.8624286 94.5938713,14.0639249 92.5846698,14.0639249 L87.817707,14.0639249 L87.817707,0.000172852239 Z" id="Fill-13"></path>
                </g>
                <g id="Group-17" transform="translate(0.000000, -0.000000)">
                    <mask id="mask-2" fill="white">
                        <use xlink:href="#path-1"></use>
                    </mask>
                    <g id="Clip-16"></g>
                    <path d="M16.2649861,9.46798306 L13.6866462,13.9780766 C13.7451792,14.1063494 13.7758894,14.2396268 13.7758894,14.3758014 C13.7758894,14.9110178 13.343585,15.3471981 12.8141631,15.3471981 C12.4994497,15.3471981 12.2109843,15.194693 12.0309231,14.9355134 L7.0012835,14.9355134 C6.8212223,15.194693 6.53380683,15.3471981 6.22014336,15.3471981 C5.68888407,15.3471981 5.25710466,14.9110178 5.25710466,14.3758014 C5.25710466,14.2509527 5.28204025,14.1287379 5.33243638,14.0099473 L2.7391351,9.47351434 C2.26588387,9.4105632 1.90366163,9.00045891 1.90366163,8.51528737 C1.90366163,7.99877195 2.30499337,7.574181 2.80947971,7.54468089 L5.32429951,3.1478467 C5.28020289,3.0314266 5.25710466,2.91289935 5.25710466,2.79647926 C5.25710466,2.26178966 5.68888407,1.82455581 6.22014336,1.82455581 C6.52225771,1.82455581 6.80258623,1.96731529 6.98527223,2.20753052 L12.0492967,2.20753052 C12.2298828,1.96731529 12.5117862,1.82455581 12.8141631,1.82455581 C13.343585,1.82455581 13.7758894,2.26178966 13.7758894,2.79647926 C13.7758894,2.92448869 13.7470166,3.05592224 13.6939957,3.17840039 L16.1928042,7.54810501 C16.683904,7.59209179 17.0721118,8.01220504 17.0721118,8.51528737 C17.0721118,8.99308388 16.7293131,9.39265241 16.2649861,9.46798306 M18.740434,7.69744934 L14.8756801,0.941132704 C14.5620166,0.390376082 13.9808862,0.0511247538 13.3525093,0.0511247538 L5.62405154,0.0511247538 C4.99593717,0.0511247538 4.4148067,0.390376082 4.10061828,0.941132704 L0.236126906,7.69744934 C-0.0788489579,8.24794257 -0.0788489579,8.92591844 0.236126906,9.47351434 L4.10061828,16.2319381 C4.4148067,16.7824314 4.99593717,17.1206291 5.62405154,17.1206291 L13.3525093,17.1206291 C13.9808862,17.1206291 14.5620166,16.7824314 14.8756801,16.2319381 L18.740434,9.47351434 C19.0543599,8.92591844 19.0543599,8.24794257 18.740434,7.69744934" id="Fill-15" fill="#4C6EF5" mask="url(#mask-2)"></path>
                </g>
                <path d="M13.7989614,4.9980044 L7.74407533,8.42923658 C7.74486277,8.43529464 7.74486277,8.4413527 7.74486277,8.44688398 C7.74486277,8.98341733 7.31334584,9.419861 6.78392391,9.419861 C6.25240214,9.419861 5.82193512,8.98341733 5.82193512,8.44688398 C5.82193512,7.91193099 6.25240214,7.47706768 6.78392391,7.47706768 C7.00519445,7.47706768 7.21701572,7.55292512 7.38736517,7.69278727 L13.3944799,4.28815787 L13.0742544,3.72976282 C12.9889484,3.75399506 12.9010177,3.76716475 12.8141368,3.76716475 C12.3689709,3.76716475 11.9870627,3.45556978 11.8825957,3.02597435 L7.14982087,3.02597435 C7.0464038,3.45556978 6.66160828,3.76716475 6.22037959,3.76716475 C6.12299955,3.76716475 6.02509456,3.7524147 5.93165172,3.72238779 L3.5672329,7.85424773 C3.73574499,8.0362529 3.82761295,8.26803953 3.82761295,8.51536639 C3.82761295,8.78271118 3.71920875,9.0321452 3.52786092,9.21546734 L5.3329351,12.3751404 L11.5256231,8.75426464 C11.5229983,8.7258181 11.5211609,8.69710817 11.5211609,8.66787145 C11.5211609,8.1313381 11.9534653,7.69542121 12.4828872,7.69542121 C13.0136215,7.69542121 13.4433011,8.1313381 13.4433011,8.66787145 C13.4433011,9.20282444 13.0136215,9.63795114 12.4828872,9.63795114 C12.2849774,9.63795114 12.0965168,9.57684376 11.9340418,9.46121384 L5.7374166,13.0818262 L5.94556315,13.4461 C6.03401887,13.4181802 6.12536187,13.4052739 6.22037959,13.4052739 C6.65714612,13.4052739 7.03170492,13.6986947 7.14457127,14.117491 L11.8878453,14.117491 C12.0219725,13.6196766 12.5453574,13.2949119 13.0595555,13.4403053 L15.4643962,9.23127098 C15.2649115,9.0492658 15.1488954,8.78850585 15.1488954,8.51536639 C15.1488954,8.26224486 15.2478503,8.02044927 15.4239743,7.84055124 L13.7989614,4.9980044 Z" id="Fill-18" fill="#4C6EF5"></path>
            </g>
        </g>
    </g>
</svg>