<svg xmlns="http://www.w3.org/2000/svg" width="32" height="32" viewBox="0 0 32 32"><g transform="translate(2934 1549)"><rect width="32" height="32" rx="4" transform="translate(-2934 -1549)" fill="#00abff"/><path d="M340.459,473.9a10.031,10.031,0,1,0,.786,3.893A9.965,9.965,0,0,0,340.459,473.9Zm-14.074,3.584a9.917,9.917,0,0,1,.266-2.293h4.091v4.757h-4.059A10.351,10.351,0,0,1,326.385,477.489Zm7.372-6.575a10.573,10.573,0,0,1,1.709,2.734q.114.268.21.542h-3.927v-5.13A11.583,11.583,0,0,1,333.756,470.914Zm-3.014-1.756v5.031h-3.794q.093-.263.2-.521a10.555,10.555,0,0,1,1.694-2.727A11.67,11.67,0,0,1,330.742,469.158Zm0,11.8v5.4a14.019,14.019,0,0,1-1.86-1.968,12.435,12.435,0,0,1-1.721-2.956q-.1-.236-.179-.475Zm1.006,5.513v-5.513h3.893q-.081.229-.172.457a12.422,12.422,0,0,1-1.708,2.949A13.988,13.988,0,0,1,331.748,486.471Zm0-6.519V475.2h4.225a9.918,9.918,0,0,1,.266,2.293,10.351,10.351,0,0,1-.3,2.464ZM337,475.2h2.854a9.094,9.094,0,0,1,.121,4.757h-3.006a11.339,11.339,0,0,0,.271-2.464A10.942,10.942,0,0,0,337,475.2Zm.6-3.758a8.988,8.988,0,0,1,1.884,2.752h-2.751q-.151-.474-.346-.935a11.572,11.572,0,0,0-1.87-2.995,12.794,12.794,0,0,0-1.186-1.213A8.935,8.935,0,0,1,337.6,471.438Zm-12.719,0a8.93,8.93,0,0,1,4.448-2.431,12.785,12.785,0,0,0-1.232,1.253,11.574,11.574,0,0,0-1.87,2.995q-.2.46-.346.935H323A8.986,8.986,0,0,1,324.886,471.438Zm-2.254,3.758h2.987a10.942,10.942,0,0,0-.241,2.293,11.346,11.346,0,0,0,.271,2.464H322.51a9.094,9.094,0,0,1,.121-4.757Zm2.254,8.96a8.963,8.963,0,0,1-2.065-3.2h3.1q.137.43.307.853a13.44,13.44,0,0,0,1.859,3.2,15.172,15.172,0,0,0,1.461,1.624A8.928,8.928,0,0,1,324.886,484.156Zm12.719,0a8.93,8.93,0,0,1-4.494,2.441,15.176,15.176,0,0,0,1.426-1.59,13.437,13.437,0,0,0,1.859-3.2q.171-.423.307-.853h2.967A8.965,8.965,0,0,1,337.6,484.156Z" transform="translate(-3249.245 -2010.797)" fill="#fff"/></g></svg>