<svg xmlns="http://www.w3.org/2000/svg" width="32" height="32" viewBox="0 0 32 32"><g transform="translate(3080 1548)"><rect width="32" height="32" rx="4" transform="translate(-3080 -1548)" fill="#ff871b"/><path d="M35.769,451.4a.106.106,0,0,0-.109.09l-.2,1.277.2,1.256a.105.105,0,0,0,.109.089.108.108,0,0,0,.108-.089h0l.234-1.256-.234-1.277A.108.108,0,0,0,35.769,451.4Zm1.11-.7a.112.112,0,0,0-.113-.093.111.111,0,0,0-.112.093l-.265,2.065.265,2.02a.114.114,0,0,0,.224,0l.3-2.02Zm4.182-1.906a.2.2,0,0,0-.2.173l-.211,3.8.211,2.457a.207.207,0,0,0,.409,0h0l.238-2.457-.238-3.8A.2.2,0,0,0,41.061,448.793ZM38.9,450.115a.153.153,0,0,0-.158.132l-.238,2.518.238,2.436a.161.161,0,0,0,.317,0l.271-2.436-.271-2.518A.154.154,0,0,0,38.9,450.115Zm4.365,5.279a.238.238,0,0,0,.25-.211l.207-2.414-.207-5.06a.254.254,0,0,0-.5,0l-.184,5.058.184,2.416A.236.236,0,0,0,43.262,455.393Zm4.5.012a.324.324,0,0,0,.343-.291v0l.144-2.345-.144-5.843a.348.348,0,0,0-.686,0l-.128,5.841s.128,2.349.128,2.349A.325.325,0,0,0,47.765,455.405ZM45.5,455.4a.28.28,0,0,0,.3-.252v0l.176-2.378-.177-5.1a.3.3,0,0,0-.593,0l-.156,5.1.156,2.378A.279.279,0,0,0,45.5,455.4Zm-5.522-.023a.173.173,0,0,0,.181-.152l.256-2.457-.256-2.336a.184.184,0,0,0-.362,0l-.224,2.335.224,2.457A.173.173,0,0,0,39.975,455.373Zm-2.147-.134a.133.133,0,0,0,.136-.113l.286-2.361-.286-2.451a.133.133,0,0,0-.136-.113.13.13,0,0,0-.135.113l-.252,2.451.252,2.361A.13.13,0,0,0,37.827,455.239Zm8.8-7.652a.3.3,0,0,0-.32.271l-.142,4.91.142,2.362a.324.324,0,0,0,.639,0v0l.161-2.363-.161-4.911A.3.3,0,0,0,46.626,447.588ZM42.158,455.4a.218.218,0,0,0,.227-.192l.222-2.44-.222-4.67a.218.218,0,0,0-.227-.192.216.216,0,0,0-.227.192l-.2,4.67.2,2.441A.215.215,0,0,0,42.158,455.4Zm2.49-.231h0l.191-2.4-.191-5.23a.278.278,0,0,0-.548,0l-.169,5.23.17,2.4a.277.277,0,0,0,.547,0Zm14.494-5.415a3.836,3.836,0,0,0-1.285.22c-.264-2.549-2.774-4.549-5.836-4.549a6.868,6.868,0,0,0-2.125.338c-.25.083-.317.168-.319.333v8.979a.369.369,0,0,0,.358.334l9.206,0a2.866,2.866,0,1,0,0-5.659ZM48.9,446.086a.346.346,0,0,0-.367.31l-.15,6.373.151,2.313a.371.371,0,0,0,.731,0v0l.163-2.313-.163-6.373A.346.346,0,0,0,48.9,446.086Z" transform="translate(-3113.463 -1982.424)" fill="#fff"/></g></svg>