<svg xmlns="http://www.w3.org/2000/svg" xmlns:xlink="http://www.w3.org/1999/xlink" width="32" height="32" viewBox="0 0 32 32"><defs><clipPath id="a"><path d="M47.214,377.71a4.974,4.974,0,0,0-.914-2.282,3.286,3.286,0,0,0-2.3-.974c-3.218-.233-8.046-.233-8.046-.233h-.01s-4.828,0-8.047.233a3.286,3.286,0,0,0-2.3.974,4.974,4.974,0,0,0-.914,2.282,34.813,34.813,0,0,0-.23,3.723v1.745a34.809,34.809,0,0,0,.23,3.722,4.975,4.975,0,0,0,.914,2.283,3.9,3.9,0,0,0,2.536.983c1.839.177,7.82.231,7.82.231s4.832-.007,8.051-.24a3.286,3.286,0,0,0,2.3-.974,4.975,4.975,0,0,0,.914-2.283,34.808,34.808,0,0,0,.23-3.722v-1.745a34.812,34.812,0,0,0-.23-3.723M33.57,385.293V378.83l6.214,3.242Z" transform="translate(-24.444 -374.221)" fill="#fff"/></clipPath><clipPath id="b"><rect width="22.999" height="16.175" fill="#fff"/></clipPath></defs><g transform="translate(2972 1548)"><g transform="translate(-2972 -1548)"><rect width="32" height="32" rx="4" fill="#ff1121"/><g transform="translate(5 7.913)"><path d="M47.214,377.71a4.974,4.974,0,0,0-.914-2.282,3.286,3.286,0,0,0-2.3-.974c-3.218-.233-8.046-.233-8.046-.233h-.01s-4.828,0-8.047.233a3.286,3.286,0,0,0-2.3.974,4.974,4.974,0,0,0-.914,2.282,34.813,34.813,0,0,0-.23,3.723v1.745a34.809,34.809,0,0,0,.23,3.722,4.975,4.975,0,0,0,.914,2.283,3.9,3.9,0,0,0,2.536.983c1.839.177,7.82.231,7.82.231s4.832-.007,8.051-.24a3.286,3.286,0,0,0,2.3-.974,4.975,4.975,0,0,0,.914-2.283,34.808,34.808,0,0,0,.23-3.722v-1.745a34.812,34.812,0,0,0-.23-3.723M33.57,385.293V378.83l6.214,3.242Z" transform="translate(-24.444 -374.221)" fill="#fff"/><g transform="translate(0 0)" clip-path="url(#a)"><g transform="translate(0.001 0)"><rect width="22.999" height="16.175" fill="#fff"/><g clip-path="url(#b)"><rect width="22.999" height="16.175" fill="#fff"/></g></g></g></g></g></g></svg>