<?xml version="1.0" encoding="utf-8"?>
<!-- Generator: Adobe Illustrator 22.0.1, SVG Export Plug-In . SVG Version: 6.00 Build 0)  -->
<svg version="1.1" xmlns="http://www.w3.org/2000/svg" xmlns:xlink="http://www.w3.org/1999/xlink" x="0px" y="0px"
	 viewBox="0 0 154 154" enable-background="new 0 0 154 154" xml:space="preserve">
<g id="icons">
	<g id="not_x5F_advice">
		<path fill="#ED4714" d="M122.6,31.4C110.4,19.3,94.2,12.6,77,12.6c-17.2,0-33.4,6.7-45.6,18.9C19.2,43.6,12.5,59.8,12.5,77
			c0,17.2,6.7,33.4,18.9,45.6c12.2,12.2,28.4,18.9,45.6,18.9c17.2,0,33.4-6.7,45.6-18.9c12.2-12.2,18.9-28.4,18.9-45.6
			S134.7,43.6,122.6,31.4z M133.8,77c0,15.2-5.9,29.4-16.6,40.2c-10.7,10.7-25,16.6-40.2,16.6c-15.2,0-29.4-5.9-40.2-16.6
			c-10.7-10.7-16.6-25-16.6-40.2c0-15.2,5.9-29.4,16.6-40.2c10.7-10.7,25-16.6,40.2-16.6c15.2,0,29.4,5.9,40.2,16.6
			C127.9,47.6,133.8,61.8,133.8,77z"/>
		<path fill="#ED4714" d="M75.6,99.6c-2.9,0-5.2,0.7-6.7,2.2c-1.5,1.5-2.3,3.6-2.3,6.5c0,2.8,0.8,4.9,2.4,6.4
			c1.6,1.5,3.8,2.3,6.7,2.3c2.8,0,5-0.8,6.6-2.3c1.6-1.6,2.4-3.7,2.4-6.4c0-2.8-0.8-5-2.3-6.5C80.6,100.3,78.4,99.6,75.6,99.6z"/>
		<polygon fill="#ED4714" points="69.4,90.7 81.9,90.7 84.5,40.6 66.8,40.6 		"/>
	</g>
</g>
<g id="sin_cortonear_copia" display="none">
	<g display="inline">
		<g>
			<g>
				<g>
					<path fill="#343334" d="M121.8,32.2c-12-12-27.9-18.6-44.9-18.6c-16.9,0-32.9,6.6-44.9,18.6c-12,12-18.6,27.9-18.6,44.9
						s6.6,32.9,18.6,44.9c12,12,27.9,18.6,44.9,18.6c16.9,0,32.9-6.6,44.9-18.6c12-12,18.6-27.9,18.6-44.9
						C140.4,60.1,133.8,44.1,121.8,32.2z M134.8,77c0,15.4-6,30-16.9,40.9c-10.9,10.9-25.4,16.9-40.9,16.9c-15.4,0-30-6-40.9-16.9
						C25.2,107,19.2,92.5,19.2,77s6-30,16.9-40.9C47,25.2,61.5,19.2,77,19.2c15.4,0,30,6,40.9,16.9C128.8,47.1,134.8,61.6,134.8,77z
						"/>
				</g>
			</g>
		</g>
	</g>
	<g display="inline">
		<g>
			<path fill="#343334" d="M77,44.1c5,0,8.6,3.6,8.6,8.6c0,5-3.6,8.6-8.6,8.6c-5,0-8.6-3.6-8.6-8.6C68.4,47.7,72,44.1,77,44.1
				 M77,38.5c-8.1,0-14.2,6.1-14.2,14.2c0,8.1,6.1,14.2,14.2,14.2c8.1,0,14.2-6.1,14.2-14.2C91.1,44.5,85.1,38.5,77,38.5L77,38.5z"
				/>
		</g>
		<g>
			<path fill="#343334" d="M83.1,75.3c0.7,0,1.3,0.5,1.3,1.1v32.5c0,0.6-0.6,1.1-1.3,1.1H70.8c-0.7,0-1.3-0.5-1.3-1.1V76.4
				c0-0.6,0.6-1.1,1.3-1.1H83.1 M83.1,69.7H70.8c-3.8,0-6.9,3-6.9,6.7v32.5c0,3.7,3.1,6.7,6.9,6.7h12.4c3.8,0,6.9-3,6.9-6.7V76.4
				C90,72.7,86.9,69.7,83.1,69.7L83.1,69.7z"/>
		</g>
	</g>
</g>
<g id="guia" display="none">
	<g display="inline">
		<path fill="none" stroke="#45A2DB" stroke-miterlimit="10" d="M131.1,22.9C116.6,8.5,97.4,0.5,77,0.5c-20.4,0-39.6,8-54.1,22.4
			S0.5,56.6,0.5,77c0,20.4,8,39.6,22.4,54.1c14.4,14.4,33.6,22.4,54.1,22.4s39.6-8,54.1-22.4c14.4-14.4,22.4-33.7,22.4-54.1
			C153.5,56.6,145.5,37.3,131.1,22.9z"/>
		<path fill="none" stroke="#45A2DB" stroke-miterlimit="10" d="M77,140.5c-17,0-32.9-6.6-44.9-18.6c-12-12-18.6-27.9-18.6-44.9
			c0-17,6.6-32.9,18.6-44.9S60,13.5,77,13.5c17,0,32.9,6.6,44.9,18.6c12,12,18.6,27.9,18.6,44.9c0,17-6.6,32.9-18.6,44.9
			C109.9,133.9,93.9,140.5,77,140.5z"/>
		<path fill="none" stroke="#45A2DB" stroke-miterlimit="10" d="M77,127.5c-13.5,0-26.2-5.3-35.7-14.8c-9.5-9.5-14.8-22.2-14.8-35.7
			c0-13.5,5.3-26.2,14.8-35.7S63.5,26.5,77,26.5c13.5,0,26.2,5.3,35.7,14.8c9.5,9.5,14.8,22.2,14.8,35.7c0,13.5-5.3,26.2-14.8,35.7
			C103.1,122.2,90.5,127.5,77,127.5z"/>
	</g>
	<path display="inline" fill="none" stroke="#45A2DB" stroke-miterlimit="10" d="M77,114.5c-10,0-19.4-3.9-26.5-11
		c-7.1-7.1-11-16.5-11-26.5c0-10,3.9-19.4,11-26.5s16.5-11,26.5-11c10,0,19.4,3.9,26.5,11c7.1,7.1,11,16.5,11,26.5
		c0,10-3.9,19.4-11,26.5C96.4,110.6,87,114.5,77,114.5z"/>
</g>
</svg>
