<?xml version="1.0" encoding="utf-8"?>
<!-- Generator: Adobe Illustrator 22.0.1, SVG Export Plug-In . SVG Version: 6.00 Build 0)  -->
<svg version="1.1" xmlns="http://www.w3.org/2000/svg" xmlns:xlink="http://www.w3.org/1999/xlink" x="0px" y="0px"
	 viewBox="0 0 154 154" enable-background="new 0 0 154 154" xml:space="preserve">
<g id="icons">
	<g id="new_x5F_feature">
		<path fill="#00ABFF" d="M30.7,44.1c1.9-2.6,3.9-5,6.1-7.2c10.7-10.7,25-16.6,40.2-16.6c15.2,0,29.4,5.9,40.2,16.6
			c2.2,2.2,4.2,4.6,6.1,7.2l0.3,0.4h9.1l-1-1.5c-2.6-4.2-5.7-8-9.1-11.5C110.4,19.3,94.2,12.6,77,12.6c-17.2,0-33.4,6.7-45.6,18.9
			c-3.5,3.5-6.5,7.3-9.1,11.5l-1,1.5h9.1L30.7,44.1z"/>
		<path fill="#00ABFF" d="M119.3,114.9c-0.7,0.8-1.4,1.6-2.1,2.3c-10.7,10.7-25,16.6-40.2,16.6c-15.2,0-29.4-5.9-40.2-16.6
			c-0.7-0.7-1.4-1.4-2.1-2.3l-0.3-0.3h-9.8l1.2,1.6c1.8,2.3,3.6,4.4,5.6,6.4c12.2,12.2,28.4,18.9,45.6,18.9
			c17.2,0,33.4-6.7,45.6-18.9c1.9-1.9,3.8-4.1,5.6-6.4l1.2-1.6h-9.8L119.3,114.9z"/>
		<path fill="#00ABFF" d="M11.8,66.3l20.4,35.4h12.6V54.9h-8.9v22.2c0,2.5,0.2,6.8,0.5,12.9h-0.2L15.8,54.9H3.2v46.8h8.9v-22
			c0-2.7-0.2-7.1-0.6-13.4H11.8z"/>
		<polygon fill="#00ABFF" points="83.6,63.1 83.6,54.9 56.6,54.9 56.6,101.8 83.6,101.8 83.6,93.6 66.5,93.6 66.5,81.5 82.4,81.5 
			82.4,73.4 66.5,73.4 66.5,63.1 		"/>
		<path fill="#00ABFF" d="M141.1,54.9l-6,25.6c-0.4,1.5-0.8,3.6-1.3,6c-0.5,2.5-0.8,4.6-1,6.2c-0.2-1.7-0.6-3.8-1-6.2
			c-0.4-2.4-0.8-4.2-1.1-5.4l-6.8-26.2h-9.4l-6.8,26.2c-0.4,1.4-0.8,3.4-1.3,5.9c-0.5,2.6-0.8,4.4-0.9,5.7
			c-0.5-3.5-1.2-7.6-2.3-12.3l-6-25.6h-9.8l12,46.8h11.3l6.3-24.5c0.3-1.1,0.7-2.9,1.2-5.5c0.5-2.6,0.8-4.4,1-5.6
			c0.1,0.9,0.4,2.8,1,5.5c0.6,2.7,1,4.6,1.2,5.4l6.3,24.6H139l11.9-46.8H141.1z"/>
	</g>
</g>
<g id="sin_cortonear_copia" display="none">
	<g display="inline">
		<g>
			<g>
				<g>
					<path fill="#343334" d="M121.8,32.2c-12-12-27.9-18.6-44.9-18.6c-16.9,0-32.9,6.6-44.9,18.6c-12,12-18.6,27.9-18.6,44.9
						s6.6,32.9,18.6,44.9c12,12,27.9,18.6,44.9,18.6c16.9,0,32.9-6.6,44.9-18.6c12-12,18.6-27.9,18.6-44.9
						C140.4,60.1,133.8,44.1,121.8,32.2z M134.8,77c0,15.4-6,30-16.9,40.9c-10.9,10.9-25.4,16.9-40.9,16.9c-15.4,0-30-6-40.9-16.9
						C25.2,107,19.2,92.5,19.2,77s6-30,16.9-40.9C47,25.2,61.5,19.2,77,19.2c15.4,0,30,6,40.9,16.9C128.8,47.1,134.8,61.6,134.8,77z
						"/>
				</g>
			</g>
		</g>
	</g>
	<g display="inline">
		<g>
			<path fill="#343334" d="M77,44.1c5,0,8.6,3.6,8.6,8.6c0,5-3.6,8.6-8.6,8.6c-5,0-8.6-3.6-8.6-8.6C68.4,47.7,72,44.1,77,44.1
				 M77,38.5c-8.1,0-14.2,6.1-14.2,14.2c0,8.1,6.1,14.2,14.2,14.2c8.1,0,14.2-6.1,14.2-14.2C91.1,44.5,85.1,38.5,77,38.5L77,38.5z"
				/>
		</g>
		<g>
			<path fill="#343334" d="M83.1,75.3c0.7,0,1.3,0.5,1.3,1.1v32.5c0,0.6-0.6,1.1-1.3,1.1H70.8c-0.7,0-1.3-0.5-1.3-1.1V76.4
				c0-0.6,0.6-1.1,1.3-1.1H83.1 M83.1,69.7H70.8c-3.8,0-6.9,3-6.9,6.7v32.5c0,3.7,3.1,6.7,6.9,6.7h12.4c3.8,0,6.9-3,6.9-6.7V76.4
				C90,72.7,86.9,69.7,83.1,69.7L83.1,69.7z"/>
		</g>
	</g>
</g>
<g id="guia" display="none">
	<g display="inline">
		<path fill="none" stroke="#45A2DB" stroke-miterlimit="10" d="M131.1,22.9C116.6,8.5,97.4,0.5,77,0.5c-20.4,0-39.6,8-54.1,22.4
			S0.5,56.6,0.5,77c0,20.4,8,39.6,22.4,54.1c14.4,14.4,33.6,22.4,54.1,22.4s39.6-8,54.1-22.4c14.4-14.4,22.4-33.7,22.4-54.1
			C153.5,56.6,145.5,37.3,131.1,22.9z"/>
		<path fill="none" stroke="#45A2DB" stroke-miterlimit="10" d="M77,140.5c-17,0-32.9-6.6-44.9-18.6c-12-12-18.6-27.9-18.6-44.9
			c0-17,6.6-32.9,18.6-44.9S60,13.5,77,13.5c17,0,32.9,6.6,44.9,18.6c12,12,18.6,27.9,18.6,44.9c0,17-6.6,32.9-18.6,44.9
			C109.9,133.9,93.9,140.5,77,140.5z"/>
		<path fill="none" stroke="#45A2DB" stroke-miterlimit="10" d="M77,127.5c-13.5,0-26.2-5.3-35.7-14.8c-9.5-9.5-14.8-22.2-14.8-35.7
			c0-13.5,5.3-26.2,14.8-35.7S63.5,26.5,77,26.5c13.5,0,26.2,5.3,35.7,14.8c9.5,9.5,14.8,22.2,14.8,35.7c0,13.5-5.3,26.2-14.8,35.7
			C103.1,122.2,90.5,127.5,77,127.5z"/>
	</g>
	<path display="inline" fill="none" stroke="#45A2DB" stroke-miterlimit="10" d="M77,114.5c-10,0-19.4-3.9-26.5-11
		c-7.1-7.1-11-16.5-11-26.5c0-10,3.9-19.4,11-26.5s16.5-11,26.5-11c10,0,19.4,3.9,26.5,11c7.1,7.1,11,16.5,11,26.5
		c0,10-3.9,19.4-11,26.5C96.4,110.6,87,114.5,77,114.5z"/>
</g>
</svg>
