<svg version="1.1" id="BitTube_x5F_Grey" xmlns="http://www.w3.org/2000/svg" xmlns:xlink="http://www.w3.org/1999/xlink" width="20px" height="20px" viewBox="0 0 20 20" style="enable-background:new 0 0 20 20;" xml:space="preserve">
	<circle cx="10" cy="10" r="10" fill="#343434"></circle>

	<g transform="rotate(307.959 10 10)">
		<path fill="#ffffff" d="M10,3.6c-0.2,0-0.4,0.2-0.4,0.4c0,0.2,0.2,0.4,0.4,0.4c2.1,0,4,1.1,5,3c0.1,0.1,0.2,0.2,0.3,0.2
			c0.1,0,0.1,0,0.2,0c0.1,0,0.2-0.1,0.2-0.2c0-0.1,0-0.2,0-0.3C14.5,4.9,12.4,3.6,10,3.6z" />
		<animateTransform attributeType="xml" attributeName="transform" type="rotate" from="0 10 10" to="360 10 10" dur="3s" repeatCount="indefinite">
		</animateTransform>
	</g>
	<g>
		<path fill="#ffffff" d="M14.2,9.5l-6-3.6c-0.2-0.1-0.4-0.1-0.6,0C7.4,6,7.3,6.2,7.3,6.4v7.2c0,0.2,0.1,0.4,0.3,0.6
			c0.1,0.1,0.2,0.1,0.3,0.1c0.1,0,0.2,0,0.3-0.1l5.9-3.6c0.2-0.1,0.3-0.3,0.3-0.6C14.5,9.8,14.4,9.6,14.2,9.5z M13.7,10l-5.7,3.4
			V6.6L13.7,10z" />



		<path fill="#ffffff" d="M15.9,4.1c-1.6-1.6-3.7-2.4-5.9-2.4c-2.2,0-4.3,0.9-5.9,2.4C2.5,5.7,1.6,7.8,1.6,10s0.9,4.3,2.4,5.9
			c1.6,1.6,3.7,2.4,5.9,2.4c2.2,0,4.3-0.9,5.9-2.4c1.6-1.6,2.4-3.7,2.4-5.9C18.4,7.8,17.5,5.7,15.9,4.1z M17.6,10
			c0,2-0.8,3.9-2.2,5.4c-1.4,1.4-3.4,2.2-5.4,2.2c-2,0-3.9-0.8-5.4-2.2C3.2,13.9,2.4,12,2.4,10s0.8-3.9,2.2-5.4
			C6.1,3.2,8,2.4,10,2.4c2,0,3.9,0.8,5.4,2.2S17.6,8,17.6,10z" />
	</g>

</svg>
