<?xml version="1.0" encoding="utf-8"?>
<!-- Generator: Adobe Illustrator 23.0.2, SVG Export Plug-In . SVG Version: 6.00 Build 0)  -->
<svg version="1.1" id="Layer_1" xmlns="http://www.w3.org/2000/svg" xmlns:xlink="http://www.w3.org/1999/xlink" x="0px" y="0px"
	 viewBox="0 0 188.391 138.518" style="enable-background:new 0 0 188.391 138.518;" xml:space="preserve">
<style type="text/css">
	.st0{fill:#006DB6;}
	.st1{fill:#FFFFFF;}
	.st2{fill-rule:evenodd;clip-rule:evenodd;fill:#FFFFFF;}
	.st3{fill:#282F66;}
	.st4{fill:#201A1B;}
	.st5{fill:#EB5F2B;}
	.st6{fill:#E62C30;}
	.st7{fill:#F5991D;}
	.st8{fill:#EF7D00;}
	.st9{fill:url(#SVGID_1_);}
	.st10{opacity:0.65;fill:url(#SVGID_2_);}
	.st11{opacity:0.5;}
	.st12{clip-path:url(#SVGID_4_);}
	.st13{fill:#040403;}
	.st14{fill:#070707;}
	.st15{fill:#0B0B0B;}
	.st16{fill:#0F0F0F;}
	.st17{fill:#121212;}
	.st18{fill:#151515;}
	.st19{fill:#181818;}
	.st20{fill:#1B1B1A;}
	.st21{fill:#1D1D1D;}
	.st22{fill:#20201F;}
	.st23{fill:#222221;}
	.st24{fill:#242424;}
	.st25{fill:#272726;}
	.st26{fill:#292928;}
	.st27{fill:#2B2B2A;}
	.st28{fill:#2D2D2C;}
	.st29{fill:#2F2F2E;}
	.st30{fill:#313130;}
	.st31{fill:#333332;}
	.st32{fill:#353534;}
	.st33{fill:#363635;}
	.st34{fill:#373736;}
	.st35{fill:#383837;}
	.st36{fill:#393938;}
	.st37{fill:#3A3A39;}
	.st38{fill:#3C3B3A;}
	.st39{fill:#3D3C3B;}
	.st40{fill:#3E3D3D;}
	.st41{fill:#3F3E3E;}
	.st42{fill:#403F3F;}
	.st43{fill:#414040;}
	.st44{fill:#424141;}
	.st45{fill:#434242;}
	.st46{fill:#444443;}
	.st47{fill:#454544;}
	.st48{fill:#464645;}
	.st49{fill:#474746;}
	.st50{fill:#484847;}
	.st51{fill:#494948;}
	.st52{fill:#4A4A49;}
	.st53{fill:#4B4B4A;}
	.st54{fill:#4C4C4B;}
	.st55{fill:#4D4D4C;}
	.st56{fill:#4E4E4D;}
	.st57{fill:#4F4F4E;}
	.st58{fill:#50504F;}
	.st59{fill:#515150;}
	.st60{fill:#525251;}
	.st61{fill:#535352;}
	.st62{fill:#545453;}
	.st63{fill:#555554;}
	.st64{fill:#565655;}
	.st65{fill:#575756;}
	.st66{fill:#585757;}
	.st67{fill:#595858;}
	.st68{fill:#5A5959;}
	.st69{fill:#5B5A5A;}
	.st70{fill:#5B5B5A;}
	.st71{fill:#5C5C5B;}
	.st72{fill:#5D5D5C;}
	.st73{fill:#5E5E5D;}
	.st74{fill:#5F5F5E;}
	.st75{fill:#60605F;}
	.st76{fill:#616160;}
	.st77{fill:#626161;}
	.st78{fill:#636262;}
	.st79{fill:#646363;}
	.st80{fill:#646464;}
	.st81{fill:#656564;}
	.st82{fill:#666665;}
	.st83{fill:#676766;}
	.st84{fill:#686867;}
	.st85{fill:#696968;}
	.st86{fill:#6A6A69;}
	.st87{fill:#6B6A6A;}
	.st88{fill:#6C6B6B;}
	.st89{fill:#6D6C6C;}
	.st90{fill:#6D6D6D;}
	.st91{fill:#6E6E6D;}
	.st92{fill:#6F6F6E;}
	.st93{fill:#70706F;}
	.st94{fill:#717170;}
	.st95{fill:#727271;}
	.st96{fill:#737372;}
	.st97{fill:#747473;}
	.st98{fill:#757474;}
	.st99{fill:#767575;}
	.st100{fill:#777676;}
	.st101{fill:#777777;}
	.st102{fill:#787878;}
	.st103{fill:#797978;}
	.st104{fill:#7A7A79;}
	.st105{fill:#7B7B7A;}
	.st106{fill:#7C7C7B;}
	.st107{fill:#7D7D7C;}
	.st108{fill:#7E7D7D;}
	.st109{fill:#7F7E7E;}
	.st110{fill:#807F7F;}
	.st111{fill:#808080;}
	.st112{fill:#818180;}
	.st113{fill:#828281;}
	.st114{fill:#838382;}
	.st115{fill:#848483;}
	.st116{fill:#858484;}
	.st117{fill:#868585;}
	.st118{fill:#868686;}
	.st119{fill:#878787;}
	.st120{fill:#888887;}
	.st121{fill:#898988;}
	.st122{fill:#8A8A89;}
	.st123{fill:#8B8A8A;}
	.st124{fill:#8B8B8B;}
	.st125{fill:#8C8C8C;}
	.st126{fill:#8D8D8C;}
	.st127{fill:#8E8E8D;}
	.st128{fill:#8F8E8E;}
	.st129{fill:#8F8F8F;}
	.st130{fill:#909090;}
	.st131{fill:#919190;}
	.st132{fill:#929291;}
	.st133{fill:#939292;}
	.st134{fill:#939393;}
	.st135{fill:#949494;}
	.st136{fill:#959594;}
	.st137{fill:#969695;}
	.st138{fill:#979696;}
	.st139{fill:#979797;}
	.st140{fill:#989898;}
	.st141{fill:#999998;}
	.st142{fill:#9A9A99;}
	.st143{fill:#9B9A9A;}
	.st144{fill:#9B9B9B;}
	.st145{fill:#9C9C9C;}
	.st146{fill:#9D9D9C;}
	.st147{fill:#9E9E9D;}
	.st148{fill:#9F9E9E;}
	.st149{fill:#9F9F9F;}
	.st150{fill:#A0A0A0;}
	.st151{fill:#A1A1A0;}
	.st152{fill:#A2A2A1;}
	.st153{fill:#A3A2A2;}
	.st154{fill:#A3A3A3;}
	.st155{fill:#A4A4A4;}
	.st156{fill:#A5A5A5;}
	.st157{fill:#A6A6A5;}
	.st158{fill:#A7A7A6;}
	.st159{fill:#A8A7A7;}
	.st160{fill:#A8A8A8;}
	.st161{fill:#A9A9A9;}
	.st162{fill:#AAAAA9;}
	.st163{fill:#ABABAA;}
	.st164{fill:#ACABAB;}
	.st165{fill:#ACACAC;}
	.st166{fill:#ADADAD;}
	.st167{fill:#AEAEAD;}
	.st168{fill:#AFAFAE;}
	.st169{fill:#AFAFAF;}
	.st170{fill:#B0B0B0;}
	.st171{fill:#B1B1B1;}
	.st172{fill:#B2B2B1;}
	.st173{fill:#B3B2B2;}
	.st174{fill:#B3B3B3;}
	.st175{fill:#B4B4B4;}
	.st176{fill:#B5B5B4;}
	.st177{fill:#B6B5B5;}
	.st178{fill:#B6B6B6;}
	.st179{fill:#B7B7B7;}
	.st180{fill:#B8B8B7;}
	.st181{fill:#B9B8B8;}
	.st182{fill:#B9B9B9;}
	.st183{fill:#BABABA;}
	.st184{fill:#BBBBBA;}
	.st185{fill:#BCBBBB;}
	.st186{fill:#BCBCBC;}
	.st187{fill:#BDBDBD;}
	.st188{fill:#BEBEBD;}
	.st189{fill:#BFBEBE;}
	.st190{fill:#BFBFBF;}
	.st191{fill:#C0C0C0;}
	.st192{fill:#C1C1C0;}
	.st193{fill:#C2C1C1;}
	.st194{fill:#C2C2C2;}
	.st195{fill:#C3C3C3;}
	.st196{fill:#C4C4C3;}
	.st197{fill:#C4C4C4;}
	.st198{fill:#C5C5C5;}
	.st199{fill:#C6C6C6;}
	.st200{fill:#C7C7C6;}
	.st201{fill:#C7C7C7;}
	.st202{fill:#C8C8C8;}
	.st203{fill:#C9C9C8;}
	.st204{fill:#CAC9C9;}
	.st205{fill:#CACACA;}
	.st206{fill:#CBCBCB;}
	.st207{fill:#CCCCCB;}
	.st208{fill:#CDCCCC;}
	.st209{fill:#CDCDCD;}
	.st210{fill:#CECECE;}
	.st211{fill:#CFCFCE;}
	.st212{fill:#D0CFCF;}
	.st213{fill:#D0D0D0;}
	.st214{opacity:0.995;fill:#D0D0D0;}
	.st215{opacity:0.99;fill:#D1D1D0;}
	.st216{opacity:0.9851;fill:#D1D1D1;}
	.st217{opacity:0.9801;fill:#D1D1D1;}
	.st218{opacity:0.9751;fill:#D1D1D1;}
	.st219{opacity:0.9701;fill:#D2D2D1;}
	.st220{opacity:0.9652;fill:#D2D2D2;}
	.st221{opacity:0.9602;fill:#D2D2D2;}
	.st222{opacity:0.9552;fill:#D2D2D2;}
	.st223{opacity:0.9502;fill:#D3D3D2;}
	.st224{opacity:0.9453;fill:#D3D3D3;}
	.st225{opacity:0.9403;fill:#D3D3D3;}
	.st226{opacity:0.9353;fill:#D3D3D3;}
	.st227{opacity:0.9303;fill:#D4D4D3;}
	.st228{opacity:0.9254;fill:#D4D4D4;}
	.st229{opacity:0.9204;fill:#D4D4D4;}
	.st230{opacity:0.9154;fill:#D4D4D4;}
	.st231{opacity:0.9104;fill:#D5D5D4;}
	.st232{opacity:0.9055;fill:#D5D5D5;}
	.st233{opacity:0.9005;fill:#D5D5D5;}
	.st234{opacity:0.8955;fill:#D5D5D5;}
	.st235{opacity:0.8905;fill:#D6D6D5;}
	.st236{opacity:0.8856;fill:#D6D6D6;}
	.st237{opacity:0.8806;fill:#D6D6D6;}
	.st238{opacity:0.8756;fill:#D6D6D6;}
	.st239{opacity:0.8706;fill:#D7D7D6;}
	.st240{opacity:0.8657;fill:#D7D7D7;}
	.st241{opacity:0.8607;fill:#D7D7D7;}
	.st242{opacity:0.8557;fill:#D7D7D7;}
	.st243{opacity:0.8507;fill:#D8D8D7;}
	.st244{opacity:0.8458;fill:#D8D8D8;}
	.st245{opacity:0.8408;fill:#D8D8D8;}
	.st246{opacity:0.8358;fill:#D8D8D8;}
	.st247{opacity:0.8308;fill:#D9D9D8;}
	.st248{opacity:0.8259;fill:#D9D9D9;}
	.st249{opacity:0.8209;fill:#D9D9D9;}
	.st250{opacity:0.8159;fill:#D9D9D9;}
	.st251{opacity:0.8109;fill:#DAD9D9;}
	.st252{opacity:0.806;fill:#DADADA;}
	.st253{opacity:0.801;fill:#DADADA;}
	.st254{opacity:0.796;fill:#DADADA;}
	.st255{opacity:0.791;fill:#DBDADA;}
	.st256{opacity:0.7861;fill:#DBDBDB;}
	.st257{opacity:0.7811;fill:#DBDBDB;}
	.st258{opacity:0.7761;fill:#DBDBDB;}
	.st259{opacity:0.7711;fill:#DBDBDB;}
	.st260{opacity:0.7662;fill:#DCDCDB;}
	.st261{opacity:0.7612;fill:#DCDCDC;}
	.st262{opacity:0.7562;fill:#DCDCDC;}
	.st263{opacity:0.7512;fill:#DCDCDC;}
	.st264{opacity:0.7463;fill:#DDDDDC;}
	.st265{opacity:0.7413;fill:#DDDDDD;}
	.st266{opacity:0.7363;fill:#DDDDDD;}
	.st267{opacity:0.7313;fill:#DDDDDD;}
	.st268{opacity:0.7264;fill:#DEDDDD;}
	.st269{opacity:0.7214;fill:#DEDEDE;}
	.st270{opacity:0.7164;fill:#DEDEDE;}
	.st271{opacity:0.7114;fill:#DEDEDE;}
	.st272{opacity:0.7065;fill:#DEDEDE;}
	.st273{opacity:0.7015;fill:#DFDFDF;}
	.st274{opacity:0.6965;fill:#DFDFDF;}
	.st275{opacity:0.6915;fill:#DFDFDF;}
	.st276{opacity:0.6866;fill:#DFDFDF;}
	.st277{opacity:0.6816;fill:#E0E0DF;}
	.st278{opacity:0.6766;fill:#E0E0E0;}
	.st279{opacity:0.6716;fill:#E0E0E0;}
	.st280{opacity:0.6667;fill:#E0E0E0;}
	.st281{opacity:0.6617;fill:#E1E0E0;}
	.st282{opacity:0.6567;fill:#E1E1E1;}
	.st283{opacity:0.6517;fill:#E1E1E1;}
	.st284{opacity:0.6468;fill:#E1E1E1;}
	.st285{opacity:0.6418;fill:#E1E1E1;}
	.st286{opacity:0.6368;fill:#E2E2E1;}
	.st287{opacity:0.6318;fill:#E2E2E2;}
	.st288{opacity:0.6269;fill:#E2E2E2;}
	.st289{opacity:0.6219;fill:#E2E2E2;}
	.st290{opacity:0.6169;fill:#E3E3E2;}
	.st291{opacity:0.6119;fill:#E3E3E3;}
	.st292{opacity:0.607;fill:#E3E3E3;}
	.st293{opacity:0.602;fill:#E3E3E3;}
	.st294{opacity:0.597;fill:#E4E3E3;}
	.st295{opacity:0.592;fill:#E4E4E4;}
	.st296{opacity:0.5871;fill:#E4E4E4;}
	.st297{opacity:0.5821;fill:#E4E4E4;}
	.st298{opacity:0.5771;fill:#E4E4E4;}
	.st299{opacity:0.5721;fill:#E5E5E4;}
	.st300{opacity:0.5672;fill:#E5E5E5;}
	.st301{opacity:0.5622;fill:#E5E5E5;}
	.st302{opacity:0.5572;fill:#E5E5E5;}
	.st303{opacity:0.5522;fill:#E6E6E5;}
	.st304{opacity:0.5473;fill:#E6E6E6;}
	.st305{opacity:0.5423;fill:#E6E6E6;}
	.st306{opacity:0.5373;fill:#E6E6E6;}
	.st307{opacity:0.5323;fill:#E7E6E6;}
	.st308{opacity:0.5274;fill:#E7E7E7;}
	.st309{opacity:0.5224;fill:#E7E7E7;}
	.st310{opacity:0.5174;fill:#E7E7E7;}
	.st311{opacity:0.5124;fill:#E7E7E7;}
	.st312{opacity:0.5075;fill:#E8E8E8;}
	.st313{opacity:0.5025;fill:#E8E8E8;}
	.st314{opacity:0.4975;fill:#E8E8E8;}
	.st315{opacity:0.4925;fill:#E8E8E8;}
	.st316{opacity:0.4876;fill:#E9E9E8;}
	.st317{opacity:0.4826;fill:#E9E9E9;}
	.st318{opacity:0.4776;fill:#E9E9E9;}
	.st319{opacity:0.4726;fill:#E9E9E9;}
	.st320{opacity:0.4677;fill:#EAE9E9;}
	.st321{opacity:0.4627;fill:#EAEAEA;}
	.st322{opacity:0.4577;fill:#EAEAEA;}
	.st323{opacity:0.4527;fill:#EAEAEA;}
	.st324{opacity:0.4478;fill:#EAEAEA;}
	.st325{opacity:0.4428;fill:#EBEBEB;}
	.st326{opacity:0.4378;fill:#EBEBEB;}
	.st327{opacity:0.4328;fill:#EBEBEB;}
	.st328{opacity:0.4279;fill:#EBEBEB;}
	.st329{opacity:0.4229;fill:#ECECEB;}
	.st330{opacity:0.4179;fill:#ECECEC;}
	.st331{opacity:0.4129;fill:#ECECEC;}
	.st332{opacity:0.408;fill:#ECECEC;}
	.st333{opacity:0.403;fill:#EDECEC;}
	.st334{opacity:0.398;fill:#EDEDED;}
	.st335{opacity:0.393;fill:#EDEDED;}
	.st336{opacity:0.3881;fill:#EDEDED;}
	.st337{opacity:0.3831;fill:#EDEDED;}
	.st338{opacity:0.3781;fill:#EEEEEE;}
	.st339{opacity:0.3731;fill:#EEEEEE;}
	.st340{opacity:0.3682;fill:#EEEEEE;}
	.st341{opacity:0.3632;fill:#EEEEEE;}
	.st342{opacity:0.3582;fill:#EFEFEE;}
	.st343{opacity:0.3532;fill:#EFEFEF;}
	.st344{opacity:0.3483;fill:#EFEFEF;}
	.st345{opacity:0.3433;fill:#EFEFEF;}
	.st346{opacity:0.3383;fill:#F0EFEF;}
	.st347{opacity:0.3333;fill:#F0F0F0;}
	.st348{opacity:0.3284;fill:#F0F0F0;}
	.st349{opacity:0.3234;fill:#F0F0F0;}
	.st350{opacity:0.3184;fill:#F0F0F0;}
	.st351{opacity:0.3134;fill:#F1F1F1;}
	.st352{opacity:0.3085;fill:#F1F1F1;}
	.st353{opacity:0.3035;fill:#F1F1F1;}
	.st354{opacity:0.2985;fill:#F1F1F1;}
	.st355{opacity:0.2935;fill:#F2F2F2;}
	.st356{opacity:0.2886;fill:#F2F2F2;}
	.st357{opacity:0.2836;fill:#F2F2F2;}
	.st358{opacity:0.2786;fill:#F2F2F2;}
	.st359{opacity:0.2736;fill:#F3F2F2;}
	.st360{opacity:0.2687;fill:#F3F3F3;}
	.st361{opacity:0.2637;fill:#F3F3F3;}
	.st362{opacity:0.2587;fill:#F3F3F3;}
	.st363{opacity:0.2537;fill:#F3F3F3;}
	.st364{opacity:0.2488;fill:#F4F4F4;}
	.st365{opacity:0.2438;fill:#F4F4F4;}
	.st366{opacity:0.2388;fill:#F4F4F4;}
	.st367{opacity:0.2338;fill:#F4F4F4;}
	.st368{opacity:0.2289;fill:#F5F5F5;}
	.st369{opacity:0.2239;fill:#F5F5F5;}
	.st370{opacity:0.2189;fill:#F5F5F5;}
	.st371{opacity:0.2139;fill:#F5F5F5;}
	.st372{opacity:0.209;fill:#F6F5F5;}
	.st373{opacity:0.204;fill:#F6F6F6;}
	.st374{opacity:0.199;fill:#F6F6F6;}
	.st375{opacity:0.194;fill:#F6F6F6;}
	.st376{opacity:0.1891;fill:#F6F6F6;}
	.st377{opacity:0.1841;fill:#F7F7F7;}
	.st378{opacity:0.1791;fill:#F7F7F7;}
	.st379{opacity:0.1741;fill:#F7F7F7;}
	.st380{opacity:0.1692;fill:#F7F7F7;}
	.st381{opacity:0.1642;fill:#F8F8F8;}
	.st382{opacity:0.1592;fill:#F8F8F8;}
	.st383{opacity:0.1542;fill:#F8F8F8;}
	.st384{opacity:0.1493;fill:#F8F8F8;}
	.st385{opacity:0.1443;fill:#F8F8F8;}
	.st386{opacity:0.1393;fill:#F9F9F9;}
	.st387{opacity:0.1343;fill:#F9F9F9;}
	.st388{opacity:0.1294;fill:#F9F9F9;}
	.st389{opacity:0.1244;fill:#F9F9F9;}
	.st390{opacity:0.1194;fill:#FAFAFA;}
	.st391{opacity:0.1144;fill:#FAFAFA;}
	.st392{opacity:0.1095;fill:#FAFAFA;}
	.st393{opacity:0.1045;fill:#FAFAFA;}
	.st394{opacity:0.0995;fill:#FBFBFB;}
	.st395{opacity:0.0945;fill:#FBFBFB;}
	.st396{opacity:0.0896;fill:#FBFBFB;}
	.st397{opacity:0.0846;fill:#FBFBFB;}
	.st398{opacity:0.0796;fill:#FBFBFB;}
	.st399{opacity:0.0746;fill:#FCFCFC;}
	.st400{opacity:0.0697;fill:#FCFCFC;}
	.st401{opacity:0.0647;fill:#FCFCFC;}
	.st402{opacity:0.0597;fill:#FCFCFC;}
	.st403{opacity:0.0547;fill:#FDFDFD;}
	.st404{opacity:0.0498;fill:#FDFDFD;}
	.st405{opacity:0.0448;fill:#FDFDFD;}
	.st406{opacity:0.0398;fill:#FDFDFD;}
	.st407{opacity:0.0348;fill:#FDFDFD;}
	.st408{opacity:0.0299;fill:#FEFEFE;}
	.st409{opacity:0.0249;fill:#FEFEFE;}
	.st410{opacity:0.0199;fill:#FEFEFE;}
	.st411{opacity:0.0149;fill:#FEFEFE;}
	.st412{opacity:0.01;fill:#FFFFFF;}
	.st413{opacity:0.005;fill:#FFFFFF;}
	.st414{opacity:0;fill:#FFFFFF;}
	.st415{fill:#4D4D4D;}
	.st416{fill:#F39023;}
	.st417{fill:#F28F21;}
	.st418{fill:#A5A9AA;}
	.st419{fill:#3A3A38;}
	.st420{opacity:0.6;}
	.st421{clip-path:url(#SVGID_6_);fill:#020203;}
	.st422{opacity:0.45;}
	.st423{clip-path:url(#SVGID_8_);fill:#020203;}
	.st424{opacity:0.8;}
	.st425{clip-path:url(#SVGID_10_);fill:#020203;}
	.st426{clip-path:url(#SVGID_12_);fill:#020203;}
	.st427{clip-path:url(#SVGID_14_);fill:#020203;}
</style>
<rect x="0.5" y="0.5" class="st1" width="187.391" height="137.518"/>
<g>
	<path class="st3" d="M52.073,77.423c0.84-2.115,1.593-4.005,2.342-5.897c3.191-8.072,6.387-16.142,9.555-24.223
		c0.237-0.604,0.534-0.779,1.17-0.773c3.559,0.035,7.119,0.017,10.678,0.017c0.263,0,0.526,0,0.894,0
		c-0.896,2.151-1.748,4.206-2.608,6.258C68.714,65.668,63.317,78.529,57.944,91.4c-0.227,0.544-0.506,0.694-1.066,0.69
		c-3.559-0.025-7.119-0.045-10.678,0.012c-0.828,0.013-1.131-0.213-1.336-1.014c-3.042-11.879-6.137-23.744-9.175-35.624
		c-0.477-1.867-1.489-3.142-3.227-3.957c-3.356-1.575-6.887-2.595-10.475-3.452c-0.315-0.075-0.725-0.061-0.548-0.552
		c0.139-0.384-0.073-0.978,0.747-0.974c6.498,0.032,12.997-0.008,19.495,0.031c2.817,0.017,4.921,1.828,5.445,4.59
		C48.771,59.82,50.394,68.495,52.073,77.423z"/>
	<path class="st3" d="M116.434,45.737c3.734-0.047,7.176,0.618,10.541,1.764c0.451,0.154,0.661,0.305,0.542,0.84
		c-0.616,2.757-1.228,5.517-1.767,8.29c-0.153,0.787-0.405,0.737-1.015,0.477c-3.219-1.372-6.583-2.002-10.084-1.785
		c-1.549,0.096-3.047,0.43-4.31,1.411c-1.807,1.405-1.851,3.386-0.118,4.869c1.383,1.184,3.012,1.969,4.607,2.81
		c2.024,1.068,4.048,2.141,5.856,3.562c4.295,3.376,5.749,7.916,4.213,13.25c-1.299,4.509-4.347,7.466-8.518,9.356
		c-4.112,1.863-8.469,2.367-12.935,2.164c-3.513-0.159-6.961-0.691-10.3-1.832c-1.341-0.458-1.342-0.463-1.046-1.865
		c0.56-2.659,1.135-5.315,1.674-7.978c0.118-0.582,0.255-0.731,0.854-0.428c3.983,2.014,8.209,2.883,12.665,2.503
		c1.602-0.137,3.127-0.567,4.41-1.605c1.703-1.379,1.829-3.607,0.31-5.17c-1.186-1.221-2.669-1.996-4.16-2.744
		c-2.216-1.111-4.391-2.268-6.372-3.785c-6.543-5.01-5.639-12.308-2.155-16.969c2.678-3.583,6.46-5.428,10.706-6.44
		C112.188,45.918,114.383,45.69,116.434,45.737z"/>
	<path class="st3" d="M79.625,89.568c-1.699,0-3.399-0.043-5.095,0.019c-0.8,0.029-0.766-0.277-0.635-0.883
		c1.497-6.914,2.97-13.833,4.452-20.75c1.656-7.732,3.321-15.463,4.954-23.2c0.118-0.559,0.292-0.737,0.875-0.732
		c3.451,0.031,6.902,0.035,10.353-0.002c0.659-0.007,0.746,0.174,0.619,0.762c-1.74,8.072-3.463,16.148-5.191,24.223
		c-1.396,6.523-2.803,13.044-4.172,19.573c-0.156,0.745-0.4,1.055-1.227,1.014C82.917,89.511,81.27,89.568,79.625,89.568z"/>
	<path class="st3" d="M166.988,91.777c-3.107-14.875-6.221-29.749-9.31-44.628c-0.113-0.543-0.346-0.614-0.81-0.611
		c-3.073,0.015-6.146,0.005-9.219,0.009c-2.575,0.003-4.337,1.231-5.323,3.585c-5.739,13.704-11.472,27.409-17.205,41.115
		c-0.106,0.253-0.293,0.492-0.238,0.83c3.968,0,7.902-0.01,11.836,0.012c0.483,0.003,0.574-0.275,0.693-0.608
		c0.669-1.872,1.347-3.741,2.006-5.617c0.139-0.395,0.308-0.6,0.792-0.598c4.636,0.022,9.273,0.018,13.91,0.005
		c0.423-0.001,0.599,0.107,0.686,0.552c0.365,1.874,0.81,3.733,1.156,5.611c0.104,0.564,0.335,0.66,0.842,0.653
		c1.833-0.028,3.666-0.011,5.499-0.011c1.559,0,3.118,0,4.686,0C166.99,91.931,167.003,91.851,166.988,91.777z M152.163,75.9
		c-2.99-0.025-5.981-0.012-9.107-0.012c2.04-5.626,4.054-11.18,6.13-16.906c0.74,3.521,1.442,6.859,2.142,10.197
		c0.425,2.026,0.844,4.053,1.274,6.078C152.685,75.643,152.736,75.905,152.163,75.9z"/>
</g>
</svg>
