<?xml version="1.0" encoding="utf-8"?>
<!-- Generator: Adobe Illustrator 23.0.2, SVG Export Plug-In . SVG Version: 6.00 Build 0)  -->
<svg version="1.1" id="Layer_1" xmlns="http://www.w3.org/2000/svg" xmlns:xlink="http://www.w3.org/1999/xlink" x="0px" y="0px"
	 viewBox="0 0 188.391 138.518" style="enable-background:new 0 0 188.391 138.518;" xml:space="preserve">
<style type="text/css">
	.st0{fill:#006DB6;}
	.st1{fill:#FFFFFF;}
	.st2{fill-rule:evenodd;clip-rule:evenodd;fill:#FFFFFF;}
	.st3{fill:#282F66;}
	.st4{fill:#201A1B;}
	.st5{fill:#EB5F2B;}
	.st6{fill:#E62C30;}
	.st7{fill:#F5991D;}
	.st8{fill:#EF7D00;}
	.st9{fill:url(#SVGID_1_);}
	.st10{opacity:0.65;fill:url(#SVGID_2_);}
	.st11{opacity:0.5;}
	.st12{clip-path:url(#SVGID_4_);}
	.st13{fill:#040403;}
	.st14{fill:#070707;}
	.st15{fill:#0B0B0B;}
	.st16{fill:#0F0F0F;}
	.st17{fill:#121212;}
	.st18{fill:#151515;}
	.st19{fill:#181818;}
	.st20{fill:#1B1B1A;}
	.st21{fill:#1D1D1D;}
	.st22{fill:#20201F;}
	.st23{fill:#222221;}
	.st24{fill:#242424;}
	.st25{fill:#272726;}
	.st26{fill:#292928;}
	.st27{fill:#2B2B2A;}
	.st28{fill:#2D2D2C;}
	.st29{fill:#2F2F2E;}
	.st30{fill:#313130;}
	.st31{fill:#333332;}
	.st32{fill:#353534;}
	.st33{fill:#363635;}
	.st34{fill:#373736;}
	.st35{fill:#383837;}
	.st36{fill:#393938;}
	.st37{fill:#3A3A39;}
	.st38{fill:#3C3B3A;}
	.st39{fill:#3D3C3B;}
	.st40{fill:#3E3D3D;}
	.st41{fill:#3F3E3E;}
	.st42{fill:#403F3F;}
	.st43{fill:#414040;}
	.st44{fill:#424141;}
	.st45{fill:#434242;}
	.st46{fill:#444443;}
	.st47{fill:#454544;}
	.st48{fill:#464645;}
	.st49{fill:#474746;}
	.st50{fill:#484847;}
	.st51{fill:#494948;}
	.st52{fill:#4A4A49;}
	.st53{fill:#4B4B4A;}
	.st54{fill:#4C4C4B;}
	.st55{fill:#4D4D4C;}
	.st56{fill:#4E4E4D;}
	.st57{fill:#4F4F4E;}
	.st58{fill:#50504F;}
	.st59{fill:#515150;}
	.st60{fill:#525251;}
	.st61{fill:#535352;}
	.st62{fill:#545453;}
	.st63{fill:#555554;}
	.st64{fill:#565655;}
	.st65{fill:#575756;}
	.st66{fill:#585757;}
	.st67{fill:#595858;}
	.st68{fill:#5A5959;}
	.st69{fill:#5B5A5A;}
	.st70{fill:#5B5B5A;}
	.st71{fill:#5C5C5B;}
	.st72{fill:#5D5D5C;}
	.st73{fill:#5E5E5D;}
	.st74{fill:#5F5F5E;}
	.st75{fill:#60605F;}
	.st76{fill:#616160;}
	.st77{fill:#626161;}
	.st78{fill:#636262;}
	.st79{fill:#646363;}
	.st80{fill:#646464;}
	.st81{fill:#656564;}
	.st82{fill:#666665;}
	.st83{fill:#676766;}
	.st84{fill:#686867;}
	.st85{fill:#696968;}
	.st86{fill:#6A6A69;}
	.st87{fill:#6B6A6A;}
	.st88{fill:#6C6B6B;}
	.st89{fill:#6D6C6C;}
	.st90{fill:#6D6D6D;}
	.st91{fill:#6E6E6D;}
	.st92{fill:#6F6F6E;}
	.st93{fill:#70706F;}
	.st94{fill:#717170;}
	.st95{fill:#727271;}
	.st96{fill:#737372;}
	.st97{fill:#747473;}
	.st98{fill:#757474;}
	.st99{fill:#767575;}
	.st100{fill:#777676;}
	.st101{fill:#777777;}
	.st102{fill:#787878;}
	.st103{fill:#797978;}
	.st104{fill:#7A7A79;}
	.st105{fill:#7B7B7A;}
	.st106{fill:#7C7C7B;}
	.st107{fill:#7D7D7C;}
	.st108{fill:#7E7D7D;}
	.st109{fill:#7F7E7E;}
	.st110{fill:#807F7F;}
	.st111{fill:#808080;}
	.st112{fill:#818180;}
	.st113{fill:#828281;}
	.st114{fill:#838382;}
	.st115{fill:#848483;}
	.st116{fill:#858484;}
	.st117{fill:#868585;}
	.st118{fill:#868686;}
	.st119{fill:#878787;}
	.st120{fill:#888887;}
	.st121{fill:#898988;}
	.st122{fill:#8A8A89;}
	.st123{fill:#8B8A8A;}
	.st124{fill:#8B8B8B;}
	.st125{fill:#8C8C8C;}
	.st126{fill:#8D8D8C;}
	.st127{fill:#8E8E8D;}
	.st128{fill:#8F8E8E;}
	.st129{fill:#8F8F8F;}
	.st130{fill:#909090;}
	.st131{fill:#919190;}
	.st132{fill:#929291;}
	.st133{fill:#939292;}
	.st134{fill:#939393;}
	.st135{fill:#949494;}
	.st136{fill:#959594;}
	.st137{fill:#969695;}
	.st138{fill:#979696;}
	.st139{fill:#979797;}
	.st140{fill:#989898;}
	.st141{fill:#999998;}
	.st142{fill:#9A9A99;}
	.st143{fill:#9B9A9A;}
	.st144{fill:#9B9B9B;}
	.st145{fill:#9C9C9C;}
	.st146{fill:#9D9D9C;}
	.st147{fill:#9E9E9D;}
	.st148{fill:#9F9E9E;}
	.st149{fill:#9F9F9F;}
	.st150{fill:#A0A0A0;}
	.st151{fill:#A1A1A0;}
	.st152{fill:#A2A2A1;}
	.st153{fill:#A3A2A2;}
	.st154{fill:#A3A3A3;}
	.st155{fill:#A4A4A4;}
	.st156{fill:#A5A5A5;}
	.st157{fill:#A6A6A5;}
	.st158{fill:#A7A7A6;}
	.st159{fill:#A8A7A7;}
	.st160{fill:#A8A8A8;}
	.st161{fill:#A9A9A9;}
	.st162{fill:#AAAAA9;}
	.st163{fill:#ABABAA;}
	.st164{fill:#ACABAB;}
	.st165{fill:#ACACAC;}
	.st166{fill:#ADADAD;}
	.st167{fill:#AEAEAD;}
	.st168{fill:#AFAFAE;}
	.st169{fill:#AFAFAF;}
	.st170{fill:#B0B0B0;}
	.st171{fill:#B1B1B1;}
	.st172{fill:#B2B2B1;}
	.st173{fill:#B3B2B2;}
	.st174{fill:#B3B3B3;}
	.st175{fill:#B4B4B4;}
	.st176{fill:#B5B5B4;}
	.st177{fill:#B6B5B5;}
	.st178{fill:#B6B6B6;}
	.st179{fill:#B7B7B7;}
	.st180{fill:#B8B8B7;}
	.st181{fill:#B9B8B8;}
	.st182{fill:#B9B9B9;}
	.st183{fill:#BABABA;}
	.st184{fill:#BBBBBA;}
	.st185{fill:#BCBBBB;}
	.st186{fill:#BCBCBC;}
	.st187{fill:#BDBDBD;}
	.st188{fill:#BEBEBD;}
	.st189{fill:#BFBEBE;}
	.st190{fill:#BFBFBF;}
	.st191{fill:#C0C0C0;}
	.st192{fill:#C1C1C0;}
	.st193{fill:#C2C1C1;}
	.st194{fill:#C2C2C2;}
	.st195{fill:#C3C3C3;}
	.st196{fill:#C4C4C3;}
	.st197{fill:#C4C4C4;}
	.st198{fill:#C5C5C5;}
	.st199{fill:#C6C6C6;}
	.st200{fill:#C7C7C6;}
	.st201{fill:#C7C7C7;}
	.st202{fill:#C8C8C8;}
	.st203{fill:#C9C9C8;}
	.st204{fill:#CAC9C9;}
	.st205{fill:#CACACA;}
	.st206{fill:#CBCBCB;}
	.st207{fill:#CCCCCB;}
	.st208{fill:#CDCCCC;}
	.st209{fill:#CDCDCD;}
	.st210{fill:#CECECE;}
	.st211{fill:#CFCFCE;}
	.st212{fill:#D0CFCF;}
	.st213{fill:#D0D0D0;}
	.st214{opacity:0.995;fill:#D0D0D0;}
	.st215{opacity:0.99;fill:#D1D1D0;}
	.st216{opacity:0.9851;fill:#D1D1D1;}
	.st217{opacity:0.9801;fill:#D1D1D1;}
	.st218{opacity:0.9751;fill:#D1D1D1;}
	.st219{opacity:0.9701;fill:#D2D2D1;}
	.st220{opacity:0.9652;fill:#D2D2D2;}
	.st221{opacity:0.9602;fill:#D2D2D2;}
	.st222{opacity:0.9552;fill:#D2D2D2;}
	.st223{opacity:0.9502;fill:#D3D3D2;}
	.st224{opacity:0.9453;fill:#D3D3D3;}
	.st225{opacity:0.9403;fill:#D3D3D3;}
	.st226{opacity:0.9353;fill:#D3D3D3;}
	.st227{opacity:0.9303;fill:#D4D4D3;}
	.st228{opacity:0.9254;fill:#D4D4D4;}
	.st229{opacity:0.9204;fill:#D4D4D4;}
	.st230{opacity:0.9154;fill:#D4D4D4;}
	.st231{opacity:0.9104;fill:#D5D5D4;}
	.st232{opacity:0.9055;fill:#D5D5D5;}
	.st233{opacity:0.9005;fill:#D5D5D5;}
	.st234{opacity:0.8955;fill:#D5D5D5;}
	.st235{opacity:0.8905;fill:#D6D6D5;}
	.st236{opacity:0.8856;fill:#D6D6D6;}
	.st237{opacity:0.8806;fill:#D6D6D6;}
	.st238{opacity:0.8756;fill:#D6D6D6;}
	.st239{opacity:0.8706;fill:#D7D7D6;}
	.st240{opacity:0.8657;fill:#D7D7D7;}
	.st241{opacity:0.8607;fill:#D7D7D7;}
	.st242{opacity:0.8557;fill:#D7D7D7;}
	.st243{opacity:0.8507;fill:#D8D8D7;}
	.st244{opacity:0.8458;fill:#D8D8D8;}
	.st245{opacity:0.8408;fill:#D8D8D8;}
	.st246{opacity:0.8358;fill:#D8D8D8;}
	.st247{opacity:0.8308;fill:#D9D9D8;}
	.st248{opacity:0.8259;fill:#D9D9D9;}
	.st249{opacity:0.8209;fill:#D9D9D9;}
	.st250{opacity:0.8159;fill:#D9D9D9;}
	.st251{opacity:0.8109;fill:#DAD9D9;}
	.st252{opacity:0.806;fill:#DADADA;}
	.st253{opacity:0.801;fill:#DADADA;}
	.st254{opacity:0.796;fill:#DADADA;}
	.st255{opacity:0.791;fill:#DBDADA;}
	.st256{opacity:0.7861;fill:#DBDBDB;}
	.st257{opacity:0.7811;fill:#DBDBDB;}
	.st258{opacity:0.7761;fill:#DBDBDB;}
	.st259{opacity:0.7711;fill:#DBDBDB;}
	.st260{opacity:0.7662;fill:#DCDCDB;}
	.st261{opacity:0.7612;fill:#DCDCDC;}
	.st262{opacity:0.7562;fill:#DCDCDC;}
	.st263{opacity:0.7512;fill:#DCDCDC;}
	.st264{opacity:0.7463;fill:#DDDDDC;}
	.st265{opacity:0.7413;fill:#DDDDDD;}
	.st266{opacity:0.7363;fill:#DDDDDD;}
	.st267{opacity:0.7313;fill:#DDDDDD;}
	.st268{opacity:0.7264;fill:#DEDDDD;}
	.st269{opacity:0.7214;fill:#DEDEDE;}
	.st270{opacity:0.7164;fill:#DEDEDE;}
	.st271{opacity:0.7114;fill:#DEDEDE;}
	.st272{opacity:0.7065;fill:#DEDEDE;}
	.st273{opacity:0.7015;fill:#DFDFDF;}
	.st274{opacity:0.6965;fill:#DFDFDF;}
	.st275{opacity:0.6915;fill:#DFDFDF;}
	.st276{opacity:0.6866;fill:#DFDFDF;}
	.st277{opacity:0.6816;fill:#E0E0DF;}
	.st278{opacity:0.6766;fill:#E0E0E0;}
	.st279{opacity:0.6716;fill:#E0E0E0;}
	.st280{opacity:0.6667;fill:#E0E0E0;}
	.st281{opacity:0.6617;fill:#E1E0E0;}
	.st282{opacity:0.6567;fill:#E1E1E1;}
	.st283{opacity:0.6517;fill:#E1E1E1;}
	.st284{opacity:0.6468;fill:#E1E1E1;}
	.st285{opacity:0.6418;fill:#E1E1E1;}
	.st286{opacity:0.6368;fill:#E2E2E1;}
	.st287{opacity:0.6318;fill:#E2E2E2;}
	.st288{opacity:0.6269;fill:#E2E2E2;}
	.st289{opacity:0.6219;fill:#E2E2E2;}
	.st290{opacity:0.6169;fill:#E3E3E2;}
	.st291{opacity:0.6119;fill:#E3E3E3;}
	.st292{opacity:0.607;fill:#E3E3E3;}
	.st293{opacity:0.602;fill:#E3E3E3;}
	.st294{opacity:0.597;fill:#E4E3E3;}
	.st295{opacity:0.592;fill:#E4E4E4;}
	.st296{opacity:0.5871;fill:#E4E4E4;}
	.st297{opacity:0.5821;fill:#E4E4E4;}
	.st298{opacity:0.5771;fill:#E4E4E4;}
	.st299{opacity:0.5721;fill:#E5E5E4;}
	.st300{opacity:0.5672;fill:#E5E5E5;}
	.st301{opacity:0.5622;fill:#E5E5E5;}
	.st302{opacity:0.5572;fill:#E5E5E5;}
	.st303{opacity:0.5522;fill:#E6E6E5;}
	.st304{opacity:0.5473;fill:#E6E6E6;}
	.st305{opacity:0.5423;fill:#E6E6E6;}
	.st306{opacity:0.5373;fill:#E6E6E6;}
	.st307{opacity:0.5323;fill:#E7E6E6;}
	.st308{opacity:0.5274;fill:#E7E7E7;}
	.st309{opacity:0.5224;fill:#E7E7E7;}
	.st310{opacity:0.5174;fill:#E7E7E7;}
	.st311{opacity:0.5124;fill:#E7E7E7;}
	.st312{opacity:0.5075;fill:#E8E8E8;}
	.st313{opacity:0.5025;fill:#E8E8E8;}
	.st314{opacity:0.4975;fill:#E8E8E8;}
	.st315{opacity:0.4925;fill:#E8E8E8;}
	.st316{opacity:0.4876;fill:#E9E9E8;}
	.st317{opacity:0.4826;fill:#E9E9E9;}
	.st318{opacity:0.4776;fill:#E9E9E9;}
	.st319{opacity:0.4726;fill:#E9E9E9;}
	.st320{opacity:0.4677;fill:#EAE9E9;}
	.st321{opacity:0.4627;fill:#EAEAEA;}
	.st322{opacity:0.4577;fill:#EAEAEA;}
	.st323{opacity:0.4527;fill:#EAEAEA;}
	.st324{opacity:0.4478;fill:#EAEAEA;}
	.st325{opacity:0.4428;fill:#EBEBEB;}
	.st326{opacity:0.4378;fill:#EBEBEB;}
	.st327{opacity:0.4328;fill:#EBEBEB;}
	.st328{opacity:0.4279;fill:#EBEBEB;}
	.st329{opacity:0.4229;fill:#ECECEB;}
	.st330{opacity:0.4179;fill:#ECECEC;}
	.st331{opacity:0.4129;fill:#ECECEC;}
	.st332{opacity:0.408;fill:#ECECEC;}
	.st333{opacity:0.403;fill:#EDECEC;}
	.st334{opacity:0.398;fill:#EDEDED;}
	.st335{opacity:0.393;fill:#EDEDED;}
	.st336{opacity:0.3881;fill:#EDEDED;}
	.st337{opacity:0.3831;fill:#EDEDED;}
	.st338{opacity:0.3781;fill:#EEEEEE;}
	.st339{opacity:0.3731;fill:#EEEEEE;}
	.st340{opacity:0.3682;fill:#EEEEEE;}
	.st341{opacity:0.3632;fill:#EEEEEE;}
	.st342{opacity:0.3582;fill:#EFEFEE;}
	.st343{opacity:0.3532;fill:#EFEFEF;}
	.st344{opacity:0.3483;fill:#EFEFEF;}
	.st345{opacity:0.3433;fill:#EFEFEF;}
	.st346{opacity:0.3383;fill:#F0EFEF;}
	.st347{opacity:0.3333;fill:#F0F0F0;}
	.st348{opacity:0.3284;fill:#F0F0F0;}
	.st349{opacity:0.3234;fill:#F0F0F0;}
	.st350{opacity:0.3184;fill:#F0F0F0;}
	.st351{opacity:0.3134;fill:#F1F1F1;}
	.st352{opacity:0.3085;fill:#F1F1F1;}
	.st353{opacity:0.3035;fill:#F1F1F1;}
	.st354{opacity:0.2985;fill:#F1F1F1;}
	.st355{opacity:0.2935;fill:#F2F2F2;}
	.st356{opacity:0.2886;fill:#F2F2F2;}
	.st357{opacity:0.2836;fill:#F2F2F2;}
	.st358{opacity:0.2786;fill:#F2F2F2;}
	.st359{opacity:0.2736;fill:#F3F2F2;}
	.st360{opacity:0.2687;fill:#F3F3F3;}
	.st361{opacity:0.2637;fill:#F3F3F3;}
	.st362{opacity:0.2587;fill:#F3F3F3;}
	.st363{opacity:0.2537;fill:#F3F3F3;}
	.st364{opacity:0.2488;fill:#F4F4F4;}
	.st365{opacity:0.2438;fill:#F4F4F4;}
	.st366{opacity:0.2388;fill:#F4F4F4;}
	.st367{opacity:0.2338;fill:#F4F4F4;}
	.st368{opacity:0.2289;fill:#F5F5F5;}
	.st369{opacity:0.2239;fill:#F5F5F5;}
	.st370{opacity:0.2189;fill:#F5F5F5;}
	.st371{opacity:0.2139;fill:#F5F5F5;}
	.st372{opacity:0.209;fill:#F6F5F5;}
	.st373{opacity:0.204;fill:#F6F6F6;}
	.st374{opacity:0.199;fill:#F6F6F6;}
	.st375{opacity:0.194;fill:#F6F6F6;}
	.st376{opacity:0.1891;fill:#F6F6F6;}
	.st377{opacity:0.1841;fill:#F7F7F7;}
	.st378{opacity:0.1791;fill:#F7F7F7;}
	.st379{opacity:0.1741;fill:#F7F7F7;}
	.st380{opacity:0.1692;fill:#F7F7F7;}
	.st381{opacity:0.1642;fill:#F8F8F8;}
	.st382{opacity:0.1592;fill:#F8F8F8;}
	.st383{opacity:0.1542;fill:#F8F8F8;}
	.st384{opacity:0.1493;fill:#F8F8F8;}
	.st385{opacity:0.1443;fill:#F8F8F8;}
	.st386{opacity:0.1393;fill:#F9F9F9;}
	.st387{opacity:0.1343;fill:#F9F9F9;}
	.st388{opacity:0.1294;fill:#F9F9F9;}
	.st389{opacity:0.1244;fill:#F9F9F9;}
	.st390{opacity:0.1194;fill:#FAFAFA;}
	.st391{opacity:0.1144;fill:#FAFAFA;}
	.st392{opacity:0.1095;fill:#FAFAFA;}
	.st393{opacity:0.1045;fill:#FAFAFA;}
	.st394{opacity:0.0995;fill:#FBFBFB;}
	.st395{opacity:0.0945;fill:#FBFBFB;}
	.st396{opacity:0.0896;fill:#FBFBFB;}
	.st397{opacity:0.0846;fill:#FBFBFB;}
	.st398{opacity:0.0796;fill:#FBFBFB;}
	.st399{opacity:0.0746;fill:#FCFCFC;}
	.st400{opacity:0.0697;fill:#FCFCFC;}
	.st401{opacity:0.0647;fill:#FCFCFC;}
	.st402{opacity:0.0597;fill:#FCFCFC;}
	.st403{opacity:0.0547;fill:#FDFDFD;}
	.st404{opacity:0.0498;fill:#FDFDFD;}
	.st405{opacity:0.0448;fill:#FDFDFD;}
	.st406{opacity:0.0398;fill:#FDFDFD;}
	.st407{opacity:0.0348;fill:#FDFDFD;}
	.st408{opacity:0.0299;fill:#FEFEFE;}
	.st409{opacity:0.0249;fill:#FEFEFE;}
	.st410{opacity:0.0199;fill:#FEFEFE;}
	.st411{opacity:0.0149;fill:#FEFEFE;}
	.st412{opacity:0.01;fill:#FFFFFF;}
	.st413{opacity:0.005;fill:#FFFFFF;}
	.st414{opacity:0;fill:#FFFFFF;}
	.st415{fill:#4D4D4D;}
	.st416{fill:#F39023;}
	.st417{fill:#F28F21;}
	.st418{fill:#A5A9AA;}
	.st419{fill:#3A3A38;}
	.st420{opacity:0.6;}
	.st421{clip-path:url(#SVGID_6_);fill:#020203;}
	.st422{opacity:0.45;}
	.st423{clip-path:url(#SVGID_8_);fill:#020203;}
	.st424{opacity:0.8;}
	.st425{clip-path:url(#SVGID_10_);fill:#020203;}
	.st426{clip-path:url(#SVGID_12_);fill:#020203;}
	.st427{clip-path:url(#SVGID_14_);fill:#020203;}
</style>
<rect x="0.5" y="0.5" class="st1" width="187.391" height="137.518"/>
<path class="st8" d="M184.027,83.436c0,0-48.529,34.244-137.41,49.57h137.41V83.436z"/>
<path d="M22.069,54.89h-7.411v25.884h7.372c3.92,0,6.75-0.925,9.235-2.988c2.953-2.443,4.699-6.127,4.699-9.936
	C35.965,60.211,30.257,54.89,22.069,54.89z M27.967,74.335c-1.586,1.433-3.647,2.058-6.909,2.058h-1.355V59.276h1.355
	c3.262,0,5.242,0.583,6.909,2.093c1.746,1.555,2.796,3.964,2.796,6.443C30.764,70.297,29.714,72.78,27.967,74.335z"/>
<rect x="38.288" y="54.89" width="5.049" height="25.884"/>
<path d="M55.682,64.823c-3.03-1.121-3.919-1.86-3.919-3.259c0-1.63,1.585-2.869,3.761-2.869c1.513,0,2.756,0.622,4.071,2.096
	l2.642-3.459c-2.171-1.899-4.768-2.87-7.606-2.87c-4.58,0-8.073,3.18-8.073,7.417c0,3.566,1.626,5.392,6.368,7.098
	c1.976,0.697,2.982,1.162,3.49,1.474c1.009,0.659,1.514,1.591,1.514,2.678c0,2.097-1.667,3.651-3.92,3.651
	c-2.408,0-4.348-1.204-5.51-3.452l-3.262,3.141c2.326,3.415,5.12,4.928,8.961,4.928c5.247,0,8.927-3.488,8.927-8.499
	C63.127,68.785,61.425,66.923,55.682,64.823z"/>
<path d="M64.719,67.85c0,7.608,5.974,13.507,13.662,13.507c2.173,0,4.035-0.427,6.33-1.508v-5.943
	c-2.019,2.02-3.806,2.835-6.095,2.835c-5.085,0-8.694-3.687-8.694-8.928c0-4.969,3.723-8.89,8.459-8.89
	c2.408,0,4.231,0.859,6.33,2.913v-5.94c-2.216-1.124-4.039-1.59-6.211-1.59C70.852,54.305,64.719,60.324,64.719,67.85z"/>
<polygon points="124.743,72.276 117.84,54.89 112.325,54.89 123.309,81.438 126.026,81.438 137.208,54.89 131.735,54.89 "/>
<polygon points="139.491,80.774 153.809,80.774 153.809,76.392 144.536,76.392 144.536,69.405 153.467,69.405 153.467,65.021 
	144.536,65.021 144.536,59.276 153.809,59.276 153.809,54.89 139.491,54.89 "/>
<path d="M173.799,62.532c0-4.846-3.338-7.642-9.16-7.642h-7.486v25.884h5.043V70.376h0.658l6.988,10.398h6.209l-8.148-10.904
	C171.706,69.096,173.799,66.495,173.799,62.532z M163.671,66.807h-1.475v-7.839h1.555c3.145,0,4.854,1.317,4.854,3.836
	C168.604,65.406,166.895,66.807,163.671,66.807z"/>
<g>
	<g>
		<linearGradient id="SVGID_1_" gradientUnits="userSpaceOnUse" x1="107.1777" y1="78.9572" x2="97.6439" y2="64.03">
			<stop  offset="0" style="stop-color:#F6A000"/>
			<stop  offset="0.2041" style="stop-color:#F59D00"/>
			<stop  offset="0.4348" style="stop-color:#F39200"/>
			<stop  offset="0.6196" style="stop-color:#F18400"/>
			<stop  offset="0.7969" style="stop-color:#EF7801"/>
			<stop  offset="1" style="stop-color:#ED6D05"/>
		</linearGradient>
		<path class="st9" d="M113.899,67.921c0,7.605-6.165,13.77-13.77,13.77c-7.605,0-13.77-6.165-13.77-13.77
			c0-7.605,6.164-13.769,13.77-13.769C107.734,54.153,113.899,60.316,113.899,67.921z"/>
		<linearGradient id="SVGID_2_" gradientUnits="userSpaceOnUse" x1="105.6718" y1="78.7543" x2="91.7377" y2="51.5195">
			<stop  offset="0" style="stop-color:#F18400;stop-opacity:0"/>
			<stop  offset="0.3403" style="stop-color:#DF6C1B;stop-opacity:0.2565"/>
			<stop  offset="0.6944" style="stop-color:#D35B23;stop-opacity:0.5235"/>
			<stop  offset="0.9816" style="stop-color:#CF5625;stop-opacity:0.74"/>
		</linearGradient>
		<path class="st10" d="M113.899,67.921c0,7.605-6.165,13.77-13.77,13.77c-7.605,0-13.77-6.165-13.77-13.77
			c0-7.605,6.164-13.769,13.77-13.769C107.734,54.153,113.899,60.316,113.899,67.921z"/>
	</g>
	<g class="st11">
		<defs>
			<path id="SVGID_3_" class="st11" d="M113.898,67.925c0,7.605-6.166,13.77-13.771,13.77c-7.605,0-13.769-6.165-13.769-13.77
				c0-7.605,6.164-13.769,13.769-13.769C107.732,54.157,113.898,60.32,113.898,67.925z"/>
		</defs>
		<clipPath id="SVGID_4_">
			<use xlink:href="#SVGID_3_"  style="overflow:visible;"/>
		</clipPath>
		<g class="st12">
			<path d="M114.219,67.969c0,7.758-6.29,14.046-14.047,14.046c-7.759,0-14.046-6.288-14.046-14.046s6.288-14.047,14.046-14.047
				C107.929,53.921,114.219,60.211,114.219,67.969z"/>
			<path class="st13" d="M100.18,53.932c7.756,0,14.045,6.289,14.045,14.046c0,7.757-6.289,14.045-14.045,14.045
				c-7.758,0-14.045-6.287-14.045-14.045C86.135,60.221,92.422,53.932,100.18,53.932z"/>
			<path class="st14" d="M100.188,53.942c7.755,0,14.044,6.288,14.044,14.045s-6.289,14.043-14.044,14.043
				c-7.757,0-14.044-6.287-14.044-14.043S92.431,53.942,100.188,53.942z"/>
			<path class="st15" d="M100.195,53.952c7.755,0,14.043,6.288,14.043,14.043c0,7.756-6.288,14.042-14.043,14.042
				c-7.757,0-14.042-6.286-14.042-14.042C86.153,60.24,92.439,53.952,100.195,53.952z"/>
			<path class="st16" d="M100.203,53.962c7.754,0,14.041,6.287,14.041,14.042c0,7.755-6.288,14.04-14.041,14.04
				c-7.756,0-14.041-6.286-14.041-14.04C86.162,60.249,92.447,53.962,100.203,53.962z"/>
			<path class="st17" d="M100.211,53.972c7.753,0,14.04,6.287,14.04,14.041c0,7.754-6.287,14.039-14.04,14.039
				c-7.755,0-14.04-6.285-14.04-14.039C86.171,60.259,92.456,53.972,100.211,53.972z"/>
			<path class="st18" d="M100.218,53.982c7.752,0,14.039,6.286,14.039,14.039c0,7.753-6.286,14.038-14.039,14.038
				c-7.754,0-14.038-6.284-14.038-14.038C86.18,60.268,92.464,53.982,100.218,53.982z"/>
			<path class="st19" d="M100.226,53.992c7.752,0,14.037,6.285,14.037,14.038c0,7.753-6.286,14.036-14.037,14.036
				c-7.753,0-14.037-6.284-14.037-14.036C86.189,60.278,92.472,53.992,100.226,53.992z"/>
			<path class="st20" d="M100.233,54.003c7.751,0,14.036,6.285,14.036,14.036c0,7.752-6.285,14.035-14.036,14.035
				c-7.753,0-14.035-6.283-14.035-14.035C86.198,60.287,92.481,54.003,100.233,54.003z"/>
			<path class="st21" d="M100.241,54.013c7.75,0,14.034,6.284,14.034,14.035c0,7.751-6.284,14.034-14.034,14.034
				c-7.752,0-14.034-6.283-14.034-14.034C86.207,60.297,92.489,54.013,100.241,54.013z"/>
			<path class="st22" d="M100.249,54.023c7.749,0,14.033,6.283,14.033,14.034c0,7.75-6.284,14.032-14.033,14.032
				c-7.751,0-14.033-6.282-14.033-14.032C86.216,60.306,92.498,54.023,100.249,54.023z"/>
			<path class="st23" d="M100.256,54.033c7.749,0,14.032,6.283,14.032,14.032c0,7.749-6.283,14.031-14.032,14.031
				c-7.75,0-14.031-6.281-14.031-14.031C86.225,60.316,92.506,54.033,100.256,54.033z"/>
			<path class="st24" d="M100.264,54.043c7.748,0,14.03,6.282,14.03,14.031c0,7.749-6.283,14.03-14.03,14.03
				c-7.75,0-14.03-6.281-14.03-14.03C86.234,60.325,92.514,54.043,100.264,54.043z"/>
			<path class="st25" d="M100.271,54.053c7.747,0,14.029,6.282,14.029,14.029c0,7.748-6.282,14.028-14.029,14.028
				c-7.749,0-14.029-6.28-14.029-14.028C86.243,60.335,92.523,54.053,100.271,54.053z"/>
			<path class="st26" d="M100.279,54.063c7.746,0,14.028,6.281,14.028,14.028c0,7.747-6.281,14.027-14.028,14.027
				c-7.748,0-14.027-6.28-14.027-14.027C86.252,60.344,92.531,54.063,100.279,54.063z"/>
			<path class="st27" d="M100.287,54.074c7.746,0,14.026,6.28,14.026,14.027c0,7.746-6.281,14.025-14.026,14.025
				c-7.747,0-14.026-6.279-14.026-14.025C86.261,60.354,92.539,54.074,100.287,54.074z"/>
			<path class="st28" d="M100.294,54.084c7.745,0,14.025,6.28,14.025,14.025c0,7.746-6.28,14.024-14.025,14.024
				c-7.747,0-14.024-6.278-14.024-14.024C86.27,60.363,92.548,54.084,100.294,54.084z"/>
			<path class="st29" d="M100.302,54.094c7.744,0,14.024,6.279,14.024,14.024c0,7.745-6.279,14.023-14.024,14.023
				c-7.746,0-14.023-6.278-14.023-14.023C86.279,60.373,92.556,54.094,100.302,54.094z"/>
			<path class="st30" d="M100.31,54.104c7.743,0,14.022,6.278,14.022,14.023c0,7.744-6.279,14.021-14.022,14.021
				c-7.745,0-14.022-6.277-14.022-14.021C86.288,60.383,92.565,54.104,100.31,54.104z"/>
			<path class="st31" d="M100.317,54.114c7.743,0,14.021,6.278,14.021,14.021c0,7.743-6.278,14.02-14.021,14.02
				c-7.744,0-14.02-6.277-14.02-14.02C86.297,60.392,92.573,54.114,100.317,54.114z"/>
			<path class="st32" d="M100.325,54.124c7.742,0,14.019,6.277,14.019,14.02c0,7.743-6.278,14.019-14.019,14.019
				c-7.743,0-14.019-6.276-14.019-14.019C86.306,60.402,92.581,54.124,100.325,54.124z"/>
			<path class="st33" d="M100.332,54.135c7.741,0,14.018,6.277,14.018,14.018c0,7.742-6.277,14.017-14.018,14.017
				c-7.743,0-14.018-6.275-14.018-14.017C86.315,60.411,92.59,54.135,100.332,54.135z"/>
			<path class="st34" d="M100.34,54.145c7.74,0,14.017,6.276,14.017,14.017c0,7.741-6.276,14.016-14.017,14.016
				c-7.742,0-14.016-6.275-14.016-14.016C86.324,60.421,92.598,54.145,100.34,54.145z"/>
			<path class="st35" d="M100.348,54.155c7.74,0,14.015,6.275,14.015,14.016c0,7.74-6.276,14.015-14.015,14.015
				c-7.741,0-14.015-6.274-14.015-14.015C86.333,60.43,92.606,54.155,100.348,54.155z"/>
			<path class="st36" d="M100.355,54.165c7.739,0,14.014,6.275,14.014,14.014c0,7.74-6.275,14.013-14.014,14.013
				c-7.74,0-14.013-6.274-14.013-14.013C86.342,60.44,92.615,54.165,100.355,54.165z"/>
			<path class="st37" d="M100.363,54.175c7.738,0,14.013,6.274,14.013,14.013c0,7.739-6.274,14.012-14.013,14.012
				c-7.74,0-14.012-6.273-14.012-14.012C86.351,60.449,92.623,54.175,100.363,54.175z"/>
			<path class="st38" d="M100.37,54.185c7.737,0,14.011,6.273,14.011,14.012c0,7.738-6.274,14.011-14.011,14.011
				c-7.739,0-14.011-6.272-14.011-14.011C86.36,60.459,92.632,54.185,100.37,54.185z"/>
			<path class="st39" d="M100.378,54.195c7.737,0,14.01,6.273,14.01,14.01c0,7.737-6.273,14.009-14.01,14.009
				c-7.738,0-14.009-6.272-14.009-14.009C86.369,60.468,92.64,54.195,100.378,54.195z"/>
			<path class="st40" d="M100.386,54.206c7.736,0,14.008,6.272,14.008,14.009c0,7.737-6.273,14.008-14.008,14.008
				c-7.737,0-14.008-6.271-14.008-14.008C86.378,60.478,92.648,54.206,100.386,54.206z"/>
			<path class="st41" d="M100.393,54.216c7.735,0,14.007,6.272,14.007,14.007c0,7.736-6.272,14.006-14.007,14.006
				c-7.737,0-14.007-6.271-14.007-14.006C86.387,60.487,92.657,54.216,100.393,54.216z"/>
			<path class="st42" d="M100.401,54.226c7.734,0,14.006,6.271,14.006,14.006c0,7.735-6.271,14.005-14.006,14.005
				c-7.736,0-14.005-6.27-14.005-14.005C86.396,60.497,92.665,54.226,100.401,54.226z"/>
			<path class="st43" d="M100.408,54.236c7.734,0,14.004,6.27,14.004,14.005c0,7.734-6.271,14.004-14.004,14.004
				c-7.735,0-14.004-6.269-14.004-14.004C86.405,60.506,92.673,54.236,100.408,54.236z"/>
			<path class="st44" d="M100.416,54.246c7.733,0,14.003,6.27,14.003,14.003c0,7.734-6.27,14.002-14.003,14.002
				c-7.734,0-14.002-6.269-14.002-14.002C86.414,60.516,92.682,54.246,100.416,54.246z"/>
			<path class="st45" d="M100.424,54.256c7.732,0,14.002,6.269,14.002,14.002c0,7.733-6.269,14.001-14.002,14.001
				c-7.733,0-14.001-6.268-14.001-14.001C86.423,60.525,92.69,54.256,100.424,54.256z"/>
			<path class="st46" d="M100.431,54.266c7.731,0,14,6.269,14,14c0,7.732-6.269,14-14,14c-7.733,0-14-6.268-14-14
				C86.431,60.535,92.699,54.266,100.431,54.266z"/>
			<path class="st47" d="M100.439,54.277c7.731,0,13.999,6.268,13.999,13.999c0,7.731-6.268,13.998-13.999,13.998
				c-7.732,0-13.998-6.267-13.998-13.998C86.44,60.544,92.707,54.277,100.439,54.277z"/>
			<path class="st48" d="M100.446,54.287c7.73,0,13.997,6.267,13.997,13.998c0,7.731-6.268,13.997-13.997,13.997
				c-7.731,0-13.997-6.266-13.997-13.997C86.449,60.554,92.715,54.287,100.446,54.287z"/>
			<path class="st49" d="M100.454,54.297c7.729,0,13.996,6.267,13.996,13.996c0,7.73-6.267,13.996-13.996,13.996
				c-7.73,0-13.996-6.266-13.996-13.996C86.458,60.564,92.724,54.297,100.454,54.297z"/>
			<path class="st50" d="M100.462,54.307c7.728,0,13.995,6.266,13.995,13.995c0,7.729-6.266,13.994-13.995,13.994
				c-7.73,0-13.994-6.265-13.994-13.994C86.467,60.573,92.732,54.307,100.462,54.307z"/>
			<path class="st51" d="M100.469,54.317c7.728,0,13.993,6.265,13.993,13.994c0,7.728-6.266,13.993-13.993,13.993
				c-7.729,0-13.993-6.265-13.993-13.993C86.476,60.583,92.74,54.317,100.469,54.317z"/>
			<path class="st52" d="M100.477,54.327c7.727,0,13.992,6.265,13.992,13.992c0,7.728-6.265,13.991-13.992,13.991
				c-7.728,0-13.992-6.264-13.992-13.991C86.485,60.592,92.749,54.327,100.477,54.327z"/>
			<path class="st53" d="M100.484,54.337c7.726,0,13.991,6.264,13.991,13.991c0,7.727-6.264,13.99-13.991,13.99
				c-7.727,0-13.99-6.263-13.99-13.99C86.494,60.602,92.757,54.337,100.484,54.337z"/>
			<path class="st54" d="M100.492,54.348c7.725,0,13.989,6.264,13.989,13.989c0,7.726-6.264,13.989-13.989,13.989
				c-7.727,0-13.989-6.263-13.989-13.989C86.503,60.611,92.766,54.348,100.492,54.348z"/>
			<path class="st55" d="M100.5,54.358c7.725,0,13.988,6.263,13.988,13.988c0,7.725-6.263,13.987-13.988,13.987
				c-7.726,0-13.987-6.262-13.987-13.987C86.512,60.621,92.774,54.358,100.5,54.358z"/>
			<path class="st56" d="M100.507,54.368c7.724,0,13.987,6.262,13.987,13.987c0,7.725-6.263,13.986-13.987,13.986
				c-7.725,0-13.986-6.261-13.986-13.986C86.521,60.63,92.782,54.368,100.507,54.368z"/>
			<path class="st57" d="M100.515,54.378c7.723,0,13.985,6.262,13.985,13.985c0,7.724-6.262,13.985-13.985,13.985
				c-7.724,0-13.985-6.261-13.985-13.985C86.53,60.64,92.791,54.378,100.515,54.378z"/>
			<path class="st58" d="M100.523,54.388c7.722,0,13.984,6.261,13.984,13.984c0,7.723-6.261,13.983-13.984,13.983
				c-7.723,0-13.983-6.26-13.983-13.983C86.539,60.649,92.799,54.388,100.523,54.388z"/>
			<path class="st59" d="M100.53,54.398c7.722,0,13.982,6.26,13.982,13.983c0,7.722-6.261,13.982-13.982,13.982
				c-7.723,0-13.982-6.26-13.982-13.982C86.548,60.659,92.807,54.398,100.53,54.398z"/>
			<path class="st60" d="M100.538,54.408c7.721,0,13.981,6.26,13.981,13.981c0,7.722-6.26,13.981-13.981,13.981
				c-7.722,0-13.981-6.259-13.981-13.981C86.557,60.668,92.816,54.408,100.538,54.408z"/>
			<path class="st61" d="M100.545,54.419c7.72,0,13.98,6.259,13.98,13.98c0,7.721-6.26,13.979-13.98,13.979
				c-7.721,0-13.979-6.258-13.979-13.979C86.566,60.678,92.824,54.419,100.545,54.419z"/>
			<path class="st62" d="M100.553,54.429c7.719,0,13.978,6.259,13.978,13.978c0,7.72-6.259,13.978-13.978,13.978
				c-7.72,0-13.978-6.258-13.978-13.978C86.575,60.687,92.833,54.429,100.553,54.429z"/>
			<path class="st63" d="M100.561,54.439c7.719,0,13.977,6.258,13.977,13.977c0,7.719-6.258,13.977-13.977,13.977
				c-7.72,0-13.976-6.257-13.976-13.977C86.584,60.697,92.841,54.439,100.561,54.439z"/>
			<path class="st64" d="M100.568,54.449c7.718,0,13.976,6.257,13.976,13.976c0,7.719-6.258,13.975-13.976,13.975
				c-7.719,0-13.975-6.257-13.975-13.975C86.593,60.706,92.849,54.449,100.568,54.449z"/>
			<path class="st65" d="M100.576,54.459c7.717,0,13.974,6.257,13.974,13.974c0,7.718-6.257,13.974-13.974,13.974
				c-7.718,0-13.974-6.256-13.974-13.974C86.602,60.716,92.858,54.459,100.576,54.459z"/>
			<path class="st66" d="M100.583,54.469c7.716,0,13.973,6.256,13.973,13.973c0,7.717-6.256,13.972-13.973,13.972
				c-7.717,0-13.972-6.255-13.972-13.972C86.611,60.726,92.866,54.469,100.583,54.469z"/>
			<path class="st67" d="M100.591,54.48c7.716,0,13.971,6.256,13.971,13.971c0,7.716-6.256,13.971-13.971,13.971
				c-7.717,0-13.971-6.255-13.971-13.971C86.62,60.735,92.874,54.48,100.591,54.48z"/>
			<path class="st68" d="M100.599,54.49c7.715,0,13.97,6.255,13.97,13.97c0,7.715-6.255,13.97-13.97,13.97
				c-7.716,0-13.97-6.254-13.97-13.97C86.629,60.745,92.883,54.49,100.599,54.49z"/>
			<path class="st69" d="M100.606,54.5c7.714,0,13.969,6.254,13.969,13.969c0,7.715-6.255,13.968-13.969,13.968
				c-7.715,0-13.968-6.254-13.968-13.968C86.638,60.754,92.891,54.5,100.606,54.5z"/>
			<path class="st70" d="M100.614,54.51c7.713,0,13.967,6.254,13.967,13.967c0,7.714-6.254,13.967-13.967,13.967
				c-7.714,0-13.967-6.253-13.967-13.967C86.647,60.764,92.9,54.51,100.614,54.51z"/>
			<path class="st71" d="M100.621,54.52c7.713,0,13.966,6.253,13.966,13.966c0,7.713-6.253,13.966-13.966,13.966
				c-7.714,0-13.965-6.252-13.965-13.966C86.656,60.773,92.908,54.52,100.621,54.52z"/>
			<path class="st72" d="M100.629,54.53c7.712,0,13.965,6.252,13.965,13.965c0,7.712-6.253,13.964-13.965,13.964
				c-7.713,0-13.964-6.252-13.964-13.964C86.665,60.783,92.916,54.53,100.629,54.53z"/>
			<path class="st73" d="M100.637,54.54c7.711,0,13.963,6.252,13.963,13.963c0,7.712-6.252,13.963-13.963,13.963
				c-7.712,0-13.963-6.251-13.963-13.963C86.674,60.792,92.925,54.54,100.637,54.54z"/>
			<path class="st74" d="M100.644,54.551c7.71,0,13.962,6.251,13.962,13.962c0,7.711-6.251,13.962-13.962,13.962
				c-7.711,0-13.961-6.251-13.961-13.962C86.683,60.802,92.933,54.551,100.644,54.551z"/>
			<path class="st75" d="M100.652,54.561c7.71,0,13.96,6.251,13.96,13.96c0,7.71-6.251,13.96-13.96,13.96
				c-7.71,0-13.96-6.25-13.96-13.96C86.692,60.811,92.941,54.561,100.652,54.561z"/>
			<path class="st76" d="M100.659,54.571c7.709,0,13.959,6.25,13.959,13.959c0,7.709-6.25,13.959-13.959,13.959
				c-7.71,0-13.959-6.249-13.959-13.959C86.701,60.821,92.95,54.571,100.659,54.571z"/>
			<path class="st77" d="M100.667,54.581c7.708,0,13.958,6.249,13.958,13.958c0,7.709-6.25,13.957-13.958,13.957
				c-7.709,0-13.957-6.249-13.957-13.957C86.71,60.83,92.958,54.581,100.667,54.581z"/>
			<path class="st78" d="M100.675,54.591c7.707,0,13.956,6.249,13.956,13.956c0,7.708-6.249,13.956-13.956,13.956
				c-7.708,0-13.956-6.248-13.956-13.956C86.719,60.84,92.967,54.591,100.675,54.591z"/>
			<path class="st79" d="M100.682,54.601c7.707,0,13.955,6.248,13.955,13.955c0,7.707-6.248,13.955-13.955,13.955
				c-7.707,0-13.954-6.248-13.954-13.955C86.728,60.849,92.975,54.601,100.682,54.601z"/>
			<path class="st80" d="M100.69,54.611c7.706,0,13.954,6.247,13.954,13.954c0,7.706-6.248,13.953-13.954,13.953
				c-7.707,0-13.953-6.247-13.953-13.953C86.737,60.859,92.983,54.611,100.69,54.611z"/>
			<path class="st81" d="M100.698,54.622c7.705,0,13.952,6.247,13.952,13.952c0,7.706-6.247,13.952-13.952,13.952
				c-7.706,0-13.952-6.246-13.952-13.952C86.746,60.868,92.992,54.622,100.698,54.622z"/>
			<path class="st82" d="M100.705,54.632c7.704,0,13.951,6.246,13.951,13.951c0,7.705-6.246,13.951-13.951,13.951
				c-7.705,0-13.95-6.246-13.95-13.951C86.755,60.878,93,54.632,100.705,54.632z"/>
			<path class="st83" d="M100.713,54.642c7.704,0,13.95,6.246,13.95,13.949c0,7.704-6.246,13.949-13.95,13.949
				c-7.704,0-13.949-6.245-13.949-13.949C86.764,60.887,93.008,54.642,100.713,54.642z"/>
			<path class="st84" d="M100.72,54.652c7.703,0,13.948,6.245,13.948,13.948c0,7.703-6.245,13.948-13.948,13.948
				c-7.704,0-13.948-6.245-13.948-13.948C86.773,60.897,93.017,54.652,100.72,54.652z"/>
			<path class="st85" d="M100.728,54.662c7.702,0,13.947,6.244,13.947,13.947c0,7.703-6.245,13.947-13.947,13.947
				c-7.703,0-13.946-6.244-13.946-13.947C86.782,60.907,93.025,54.662,100.728,54.662z"/>
			<path class="st86" d="M100.736,54.672c7.701,0,13.945,6.244,13.945,13.945c0,7.702-6.244,13.945-13.945,13.945
				c-7.702,0-13.945-6.243-13.945-13.945C86.791,60.916,93.034,54.672,100.736,54.672z"/>
			<path class="st87" d="M100.743,54.682c7.701,0,13.944,6.243,13.944,13.944c0,7.701-6.243,13.944-13.944,13.944
				c-7.701,0-13.943-6.243-13.943-13.944C86.8,60.926,93.042,54.682,100.743,54.682z"/>
			<path class="st88" d="M100.751,54.693c7.7,0,13.943,6.242,13.943,13.943c0,7.7-6.243,13.942-13.943,13.942
				c-7.7,0-13.942-6.242-13.942-13.942C86.809,60.935,93.05,54.693,100.751,54.693z"/>
			<path class="st89" d="M100.758,54.703c7.699,0,13.941,6.242,13.941,13.941c0,7.7-6.242,13.941-13.941,13.941
				c-7.7,0-13.941-6.242-13.941-13.941C86.818,60.945,93.059,54.703,100.758,54.703z"/>
			<path class="st90" d="M100.766,54.713c7.698,0,13.94,6.241,13.94,13.94c0,7.699-6.241,13.94-13.94,13.94
				c-7.699,0-13.939-6.241-13.939-13.94C86.827,60.954,93.067,54.713,100.766,54.713z"/>
			<path class="st91" d="M100.774,54.723c7.698,0,13.939,6.241,13.939,13.938c0,7.698-6.241,13.938-13.939,13.938
				c-7.698,0-13.938-6.24-13.938-13.938C86.836,60.964,93.075,54.723,100.774,54.723z"/>
			<path class="st92" d="M100.781,54.733c7.697,0,13.937,6.24,13.937,13.937c0,7.697-6.24,13.937-13.937,13.937
				c-7.697,0-13.937-6.24-13.937-13.937C86.845,60.973,93.084,54.733,100.781,54.733z"/>
			<path class="st93" d="M100.789,54.743c7.696,0,13.936,6.239,13.936,13.936c0,7.697-6.24,13.936-13.936,13.936
				c-7.697,0-13.935-6.239-13.935-13.936C86.854,60.983,93.092,54.743,100.789,54.743z"/>
			<path class="st94" d="M100.796,54.754c7.695,0,13.934,6.239,13.934,13.934c0,7.696-6.239,13.934-13.934,13.934
				c-7.696,0-13.934-6.238-13.934-13.934C86.863,60.992,93.101,54.754,100.796,54.754z"/>
			<path class="st95" d="M100.804,54.764c7.695,0,13.933,6.238,13.933,13.933c0,7.695-6.238,13.933-13.933,13.933
				c-7.695,0-13.933-6.238-13.933-13.933C86.872,61.002,93.109,54.764,100.804,54.764z"/>
			<path class="st96" d="M100.812,54.774c7.694,0,13.932,6.238,13.932,13.931c0,7.694-6.238,13.932-13.932,13.932
				c-7.694,0-13.931-6.237-13.931-13.932C86.881,61.011,93.117,54.774,100.812,54.774z"/>
			<path class="st97" d="M100.819,54.784c7.693,0,13.93,6.237,13.93,13.93c0,7.694-6.237,13.93-13.93,13.93
				c-7.694,0-13.93-6.237-13.93-13.93C86.89,61.021,93.126,54.784,100.819,54.784z"/>
			<path class="st98" d="M100.827,54.794c7.692,0,13.929,6.236,13.929,13.929c0,7.693-6.237,13.929-13.929,13.929
				c-7.693,0-13.928-6.236-13.928-13.929C86.898,61.03,93.134,54.794,100.827,54.794z"/>
			<path class="st99" d="M100.834,54.804c7.692,0,13.928,6.236,13.928,13.927c0,7.692-6.236,13.928-13.928,13.928
				c-7.692,0-13.927-6.235-13.927-13.928C86.907,61.04,93.142,54.804,100.834,54.804z"/>
			<path class="st100" d="M100.842,54.814c7.691,0,13.926,6.235,13.926,13.926c0,7.691-6.235,13.926-13.926,13.926
				c-7.691,0-13.926-6.235-13.926-13.926C86.916,61.049,93.151,54.814,100.842,54.814z"/>
			<path class="st101" d="M100.85,54.825c7.69,0,13.925,6.234,13.925,13.925c0,7.691-6.235,13.925-13.925,13.925
				c-7.69,0-13.924-6.234-13.924-13.925C86.925,61.059,93.159,54.825,100.85,54.825z"/>
			<path class="st102" d="M100.857,54.835c7.689,0,13.923,6.234,13.923,13.923c0,7.69-6.234,13.923-13.923,13.923
				c-7.69,0-13.923-6.234-13.923-13.923C86.934,61.068,93.168,54.835,100.857,54.835z"/>
			<path class="st103" d="M100.865,54.845c7.689,0,13.922,6.233,13.922,13.922c0,7.689-6.233,13.922-13.922,13.922
				c-7.689,0-13.922-6.233-13.922-13.922C86.943,61.078,93.176,54.845,100.865,54.845z"/>
			<path class="st104" d="M100.873,54.855c7.688,0,13.921,6.233,13.921,13.92c0,7.688-6.233,13.921-13.921,13.921
				c-7.688,0-13.92-6.232-13.92-13.921C86.952,61.088,93.184,54.855,100.873,54.855z"/>
			<path class="st105" d="M100.88,54.865c7.687,0,13.919,6.232,13.919,13.919c0,7.688-6.232,13.919-13.919,13.919
				c-7.687,0-13.919-6.232-13.919-13.919C86.961,61.097,93.193,54.865,100.88,54.865z"/>
			<path class="st106" d="M100.888,54.875c7.686,0,13.918,6.231,13.918,13.918c0,7.687-6.232,13.918-13.918,13.918
				c-7.687,0-13.917-6.231-13.917-13.918C86.97,61.107,93.201,54.875,100.888,54.875z"/>
			<path class="st107" d="M100.895,54.885c7.686,0,13.917,6.231,13.917,13.916c0,7.686-6.231,13.917-13.917,13.917
				c-7.686,0-13.916-6.231-13.916-13.917C86.979,61.116,93.209,54.885,100.895,54.885z"/>
			<path class="st108" d="M100.903,54.896c7.685,0,13.915,6.23,13.915,13.915c0,7.685-6.23,13.915-13.915,13.915
				c-7.685,0-13.915-6.23-13.915-13.915C86.988,61.126,93.218,54.896,100.903,54.896z"/>
			<path class="st109" d="M100.911,54.906c7.684,0,13.914,6.229,13.914,13.914c0,7.684-6.23,13.914-13.914,13.914
				c-7.684,0-13.913-6.229-13.913-13.914C86.997,61.135,93.226,54.906,100.911,54.906z"/>
			<path class="st110" d="M100.918,54.916c7.683,0,13.913,6.229,13.913,13.912c0,7.684-6.229,13.913-13.913,13.913
				c-7.684,0-13.912-6.229-13.912-13.913C87.006,61.145,93.235,54.916,100.918,54.916z"/>
			<path class="st111" d="M100.926,54.926c7.683,0,13.911,6.228,13.911,13.911c0,7.683-6.228,13.911-13.911,13.911
				c-7.683,0-13.911-6.228-13.911-13.911C87.015,61.154,93.243,54.926,100.926,54.926z"/>
			<path class="st112" d="M100.933,54.936c7.682,0,13.91,6.228,13.91,13.909c0,7.682-6.228,13.91-13.91,13.91
				c-7.682,0-13.909-6.228-13.909-13.91C87.024,61.164,93.251,54.936,100.933,54.936z"/>
			<path class="st113" d="M100.941,54.946c7.681,0,13.908,6.227,13.908,13.908c0,7.681-6.227,13.908-13.908,13.908
				c-7.681,0-13.908-6.227-13.908-13.908C87.033,61.173,93.26,54.946,100.941,54.946z"/>
			<path class="st114" d="M100.949,54.956c7.68,0,13.907,6.226,13.907,13.907c0,7.681-6.227,13.907-13.907,13.907
				c-7.68,0-13.906-6.226-13.906-13.907C87.042,61.183,93.268,54.956,100.949,54.956z"/>
			<path class="st115" d="M100.956,54.967c7.68,0,13.906,6.226,13.906,13.905c0,7.68-6.226,13.906-13.906,13.906
				s-13.905-6.226-13.905-13.906C87.051,61.192,93.276,54.967,100.956,54.967z"/>
			<path class="st116" d="M100.964,54.977c7.679,0,13.904,6.225,13.904,13.904c0,7.679-6.225,13.904-13.904,13.904
				c-7.679,0-13.904-6.225-13.904-13.904C87.06,61.202,93.285,54.977,100.964,54.977z"/>
			<path class="st117" d="M100.971,54.987c7.678,0,13.903,6.225,13.903,13.902c0,7.678-6.225,13.903-13.903,13.903
				c-7.678,0-13.902-6.225-13.902-13.903C87.069,61.211,93.293,54.987,100.971,54.987z"/>
			<path class="st118" d="M100.979,54.997c7.677,0,13.902,6.224,13.902,13.901c0,7.678-6.224,13.902-13.902,13.902
				c-7.677,0-13.901-6.224-13.901-13.902C87.078,61.221,93.302,54.997,100.979,54.997z"/>
			<path class="st119" d="M100.987,55.007c7.677,0,13.9,6.223,13.9,13.9c0,7.677-6.223,13.9-13.9,13.9
				c-7.677,0-13.9-6.223-13.9-13.9C87.087,61.23,93.31,55.007,100.987,55.007z"/>
			<path class="st120" d="M100.994,55.017c7.676,0,13.899,6.223,13.899,13.898c0,7.676-6.223,13.899-13.899,13.899
				c-7.676,0-13.898-6.223-13.898-13.899C87.096,61.24,93.318,55.017,100.994,55.017z"/>
			<path class="st121" d="M101.002,55.027c7.675,0,13.897,6.222,13.897,13.897c0,7.675-6.222,13.898-13.897,13.898
				c-7.675,0-13.897-6.222-13.897-13.898C87.105,61.25,93.327,55.027,101.002,55.027z"/>
			<path class="st122" d="M101.009,55.038c7.674,0,13.896,6.221,13.896,13.896c0,7.675-6.222,13.896-13.896,13.896
				c-7.674,0-13.895-6.222-13.895-13.896C87.114,61.259,93.335,55.038,101.009,55.038z"/>
			<path class="st123" d="M101.017,55.048c7.674,0,13.895,6.221,13.895,13.894c0,7.674-6.221,13.895-13.895,13.895
				c-7.674,0-13.894-6.221-13.894-13.895C87.123,61.269,93.344,55.048,101.017,55.048z"/>
			<path class="st124" d="M101.025,55.058c7.673,0,13.893,6.22,13.893,13.893c0,7.673-6.22,13.894-13.893,13.894
				c-7.673,0-13.893-6.22-13.893-13.894C87.132,61.278,93.352,55.058,101.025,55.058z"/>
			<path class="st125" d="M101.032,55.068c7.672,0,13.892,6.22,13.892,13.891c0,7.672-6.22,13.892-13.892,13.892
				c-7.672,0-13.891-6.22-13.891-13.892C87.141,61.288,93.36,55.068,101.032,55.068z"/>
			<path class="st126" d="M101.04,55.078c7.672,0,13.891,6.219,13.891,13.89c0,7.672-6.219,13.891-13.891,13.891
				c-7.671,0-13.89-6.219-13.89-13.891C87.15,61.297,93.369,55.078,101.04,55.078z"/>
			<path class="st127" d="M101.048,55.088c7.671,0,13.889,6.218,13.889,13.889c0,7.671-6.218,13.889-13.889,13.889
				c-7.671,0-13.889-6.219-13.889-13.889C87.159,61.307,93.377,55.088,101.048,55.088z"/>
			<path class="st128" d="M101.055,55.099c7.67,0,13.888,6.218,13.888,13.887c0,7.67-6.218,13.888-13.888,13.888
				c-7.67,0-13.887-6.218-13.887-13.888C87.168,61.316,93.385,55.099,101.055,55.099z"/>
			<path class="st129" d="M101.063,55.109c7.669,0,13.886,6.217,13.886,13.886c0,7.669-6.217,13.887-13.886,13.887
				c-7.669,0-13.886-6.217-13.886-13.887C87.177,61.326,93.394,55.109,101.063,55.109z"/>
			<path class="st130" d="M101.07,55.119c7.669,0,13.885,6.216,13.885,13.885c0,7.669-6.217,13.885-13.885,13.885
				c-7.668,0-13.884-6.217-13.884-13.885C87.186,61.335,93.402,55.119,101.07,55.119z"/>
			<path class="st131" d="M101.078,55.129c7.668,0,13.884,6.216,13.884,13.883c0,7.668-6.216,13.884-13.884,13.884
				c-7.667,0-13.883-6.216-13.883-13.884C87.195,61.345,93.411,55.129,101.078,55.129z"/>
			<path class="st132" d="M101.086,55.139c7.667,0,13.882,6.215,13.882,13.882c0,7.667-6.215,13.883-13.882,13.883
				c-7.667,0-13.882-6.215-13.882-13.883C87.204,61.354,93.419,55.139,101.086,55.139z"/>
			<path class="st133" d="M101.093,55.149c7.666,0,13.881,6.215,13.881,13.88c0,7.666-6.215,13.881-13.881,13.881
				c-7.666,0-13.88-6.215-13.88-13.881C87.213,61.364,93.427,55.149,101.093,55.149z"/>
			<path class="st134" d="M101.101,55.159c7.666,0,13.88,6.214,13.88,13.879c0,7.666-6.214,13.88-13.88,13.88
				c-7.665,0-13.879-6.214-13.879-13.88C87.222,61.373,93.436,55.159,101.101,55.159z"/>
			<path class="st135" d="M101.108,55.17c7.665,0,13.878,6.213,13.878,13.878c0,7.665-6.214,13.879-13.878,13.879
				c-7.664,0-13.878-6.214-13.878-13.879C87.231,61.383,93.444,55.17,101.108,55.17z"/>
			<path class="st136" d="M101.116,55.18c7.664,0,13.877,6.213,13.877,13.876c0,7.664-6.213,13.877-13.877,13.877
				c-7.664,0-13.876-6.213-13.876-13.877C87.24,61.392,93.452,55.18,101.116,55.18z"/>
			<path class="st137" d="M101.124,55.19c7.663,0,13.876,6.212,13.876,13.875c0,7.663-6.212,13.876-13.876,13.876
				c-7.663,0-13.875-6.212-13.875-13.876C87.249,61.402,93.461,55.19,101.124,55.19z"/>
			<path class="st138" d="M101.131,55.2c7.663,0,13.874,6.211,13.874,13.874c0,7.663-6.212,13.874-13.874,13.874
				c-7.662,0-13.874-6.212-13.874-13.874C87.258,61.411,93.469,55.2,101.131,55.2z"/>
			<path class="st139" d="M101.139,55.21c7.662,0,13.873,6.211,13.873,13.872c0,7.662-6.211,13.873-13.873,13.873
				c-7.661,0-13.872-6.211-13.872-13.873C87.267,61.421,93.478,55.21,101.139,55.21z"/>
			<path class="st140" d="M101.146,55.22c7.661,0,13.871,6.21,13.871,13.871c0,7.661-6.21,13.872-13.871,13.872
				c-7.661,0-13.871-6.211-13.871-13.872C87.276,61.431,93.486,55.22,101.146,55.22z"/>
			<path class="st141" d="M101.154,55.23c7.66,0,13.87,6.21,13.87,13.869c0,7.66-6.21,13.87-13.87,13.87
				c-7.66,0-13.869-6.21-13.869-13.87C87.285,61.44,93.494,55.23,101.154,55.23z"/>
			<path class="st142" d="M101.162,55.241c7.66,0,13.869,6.209,13.869,13.868c0,7.66-6.209,13.869-13.869,13.869
				c-7.659,0-13.868-6.209-13.868-13.869C87.294,61.45,93.503,55.241,101.162,55.241z"/>
			<path class="st143" d="M101.169,55.251c7.659,0,13.867,6.208,13.867,13.867c0,7.659-6.209,13.868-13.867,13.868
				c-7.658,0-13.867-6.209-13.867-13.868C87.303,61.459,93.511,55.251,101.169,55.251z"/>
			<path class="st144" d="M101.177,55.261c7.658,0,13.866,6.208,13.866,13.865c0,7.658-6.208,13.866-13.866,13.866
				c-7.657,0-13.865-6.208-13.865-13.866C87.312,61.469,93.519,55.261,101.177,55.261z"/>
			<path class="st145" d="M101.184,55.271c7.657,0,13.865,6.207,13.865,13.864c0,7.657-6.207,13.865-13.865,13.865
				c-7.657,0-13.864-6.208-13.864-13.865C87.321,61.478,93.528,55.271,101.184,55.271z"/>
			<path class="st146" d="M101.192,55.281c7.657,0,13.863,6.207,13.863,13.862c0,7.657-6.207,13.864-13.863,13.864
				c-7.656,0-13.863-6.207-13.863-13.864C87.33,61.488,93.536,55.281,101.192,55.281z"/>
			<path class="st147" d="M101.2,55.291c7.656,0,13.862,6.206,13.862,13.861c0,7.656-6.206,13.862-13.862,13.862
				c-7.655,0-13.861-6.206-13.861-13.862C87.339,61.497,93.545,55.291,101.2,55.291z"/>
			<path class="st148" d="M101.207,55.301c7.655,0,13.86,6.205,13.86,13.86c0,7.655-6.205,13.861-13.86,13.861
				c-7.654,0-13.86-6.206-13.86-13.861C87.348,61.507,93.553,55.301,101.207,55.301z"/>
			<path class="st149" d="M101.215,55.312c7.654,0,13.859,6.205,13.859,13.858c0,7.654-6.205,13.859-13.859,13.859
				c-7.654,0-13.858-6.205-13.858-13.859C87.356,61.516,93.561,55.312,101.215,55.312z"/>
			<path class="st150" d="M101.223,55.322c7.654,0,13.858,6.204,13.858,13.857c0,7.654-6.204,13.858-13.858,13.858
				c-7.653,0-13.857-6.205-13.857-13.858C87.365,61.526,93.57,55.322,101.223,55.322z"/>
			<path class="st151" d="M101.23,55.332c7.653,0,13.856,6.203,13.856,13.856c0,7.653-6.204,13.857-13.856,13.857
				c-7.652,0-13.856-6.204-13.856-13.857C87.374,61.535,93.578,55.332,101.23,55.332z"/>
			<path class="st152" d="M101.238,55.342c7.652,0,13.855,6.203,13.855,13.854c0,7.652-6.203,13.855-13.855,13.855
				c-7.651,0-13.854-6.203-13.854-13.855C87.383,61.545,93.586,55.342,101.238,55.342z"/>
			<path class="st153" d="M101.245,55.352c7.651,0,13.854,6.202,13.854,13.853c0,7.651-6.202,13.854-13.854,13.854
				c-7.651,0-13.853-6.203-13.853-13.854C87.392,61.554,93.595,55.352,101.245,55.352z"/>
			<path class="st154" d="M101.253,55.362c7.651,0,13.852,6.202,13.852,13.851c0,7.65-6.202,13.853-13.852,13.853
				c-7.65,0-13.852-6.202-13.852-13.853C87.401,61.564,93.603,55.362,101.253,55.362z"/>
			<path class="st155" d="M101.261,55.372c7.65,0,13.851,6.201,13.851,13.85c0,7.65-6.201,13.851-13.851,13.851
				c-7.649,0-13.85-6.202-13.85-13.851C87.41,61.573,93.612,55.372,101.261,55.372z"/>
			<path class="st156" d="M101.268,55.383c7.649,0,13.849,6.2,13.849,13.849c0,7.649-6.2,13.85-13.849,13.85
				c-7.648,0-13.849-6.201-13.849-13.85C87.419,61.583,93.62,55.383,101.268,55.383z"/>
			<path class="st157" d="M101.276,55.393c7.648,0,13.848,6.2,13.848,13.847c0,7.648-6.2,13.849-13.848,13.849
				c-7.647,0-13.847-6.2-13.847-13.849C87.428,61.592,93.628,55.393,101.276,55.393z"/>
			<path class="st158" d="M101.283,55.403c7.648,0,13.847,6.199,13.847,13.846c0,7.647-6.199,13.847-13.847,13.847
				c-7.647,0-13.846-6.2-13.846-13.847C87.437,61.602,93.637,55.403,101.283,55.403z"/>
			<path class="st159" d="M101.291,55.413c7.647,0,13.845,6.198,13.845,13.845c0,7.647-6.199,13.846-13.845,13.846
				c-7.646,0-13.845-6.199-13.845-13.846C87.446,61.612,93.645,55.413,101.291,55.413z"/>
			<path class="st160" d="M101.299,55.423c7.646,0,13.844,6.198,13.844,13.843c0,7.646-6.198,13.845-13.844,13.845
				c-7.645,0-13.843-6.199-13.843-13.845C87.455,61.621,93.653,55.423,101.299,55.423z"/>
			<path class="st161" d="M101.306,55.433c7.645,0,13.843,6.197,13.843,13.842c0,7.645-6.197,13.843-13.843,13.843
				c-7.644,0-13.842-6.198-13.842-13.843C87.464,61.631,93.662,55.433,101.306,55.433z"/>
			<path class="st162" d="M101.314,55.444c7.645,0,13.841,6.197,13.841,13.84c0,7.644-6.197,13.842-13.841,13.842
				c-7.644,0-13.841-6.197-13.841-13.842C87.473,61.64,93.67,55.444,101.314,55.444z"/>
			<path class="st163" d="M101.321,55.454c7.644,0,13.84,6.196,13.84,13.839c0,7.644-6.196,13.84-13.84,13.84
				c-7.643,0-13.839-6.197-13.839-13.84C87.482,61.65,93.679,55.454,101.321,55.454z"/>
			<path class="st164" d="M101.329,55.464c7.643,0,13.839,6.195,13.839,13.838c0,7.643-6.195,13.839-13.839,13.839
				c-7.642,0-13.838-6.196-13.838-13.839C87.491,61.659,93.687,55.464,101.329,55.464z"/>
			<path class="st165" d="M101.337,55.474c7.642,0,13.837,6.195,13.837,13.836c0,7.642-6.195,13.838-13.837,13.838
				c-7.641,0-13.836-6.196-13.836-13.838C87.5,61.669,93.695,55.474,101.337,55.474z"/>
			<path class="st166" d="M101.344,55.484c7.642,0,13.836,6.194,13.836,13.835c0,7.641-6.194,13.836-13.836,13.836
				c-7.641,0-13.835-6.195-13.835-13.836C87.509,61.678,93.704,55.484,101.344,55.484z"/>
			<path class="st167" d="M101.352,55.494c7.641,0,13.834,6.194,13.834,13.833c0,7.641-6.194,13.835-13.834,13.835
				c-7.64,0-13.834-6.194-13.834-13.835C87.518,61.688,93.712,55.494,101.352,55.494z"/>
			<path class="st168" d="M101.359,55.504c7.64,0,13.833,6.193,13.833,13.832c0,7.64-6.193,13.834-13.833,13.834
				c-7.639,0-13.832-6.194-13.832-13.834C87.527,61.697,93.72,55.504,101.359,55.504z"/>
			<path class="st169" d="M101.367,55.515c7.639,0,13.832,6.192,13.832,13.831c0,7.639-6.192,13.832-13.832,13.832
				c-7.638,0-13.831-6.193-13.831-13.832C87.536,61.707,93.729,55.515,101.367,55.515z"/>
			<path class="st170" d="M101.375,55.525c7.639,0,13.83,6.192,13.83,13.829c0,7.638-6.192,13.831-13.83,13.831
				c-7.638,0-13.83-6.193-13.83-13.831C87.545,61.716,93.737,55.525,101.375,55.525z"/>
			<path class="st171" d="M101.382,55.535c7.638,0,13.829,6.191,13.829,13.828c0,7.638-6.191,13.83-13.829,13.83
				c-7.637,0-13.828-6.192-13.828-13.83C87.554,61.726,93.746,55.535,101.382,55.535z"/>
			<path class="st172" d="M101.39,55.545c7.637,0,13.828,6.19,13.828,13.827c0,7.637-6.19,13.828-13.828,13.828
				c-7.636,0-13.827-6.191-13.827-13.828C87.563,61.735,93.754,55.545,101.39,55.545z"/>
			<path class="st173" d="M101.398,55.555c7.636,0,13.826,6.19,13.826,13.825c0,7.636-6.19,13.827-13.826,13.827
				c-7.635,0-13.825-6.191-13.825-13.827C87.572,61.745,93.762,55.555,101.398,55.555z"/>
			<path class="st174" d="M101.405,55.565c7.636,0,13.825,6.189,13.825,13.824c0,7.635-6.189,13.825-13.825,13.825
				c-7.634,0-13.824-6.19-13.824-13.825C87.581,61.754,93.771,55.565,101.405,55.565z"/>
			<path class="st175" d="M101.413,55.575c7.635,0,13.823,6.189,13.823,13.822c0,7.635-6.189,13.824-13.823,13.824
				c-7.634,0-13.823-6.189-13.823-13.824C87.59,61.764,93.779,55.575,101.413,55.575z"/>
			<path class="st176" d="M101.42,55.586c7.634,0,13.822,6.188,13.822,13.821c0,7.634-6.188,13.823-13.822,13.823
				c-7.633,0-13.821-6.189-13.821-13.823C87.599,61.774,93.787,55.586,101.42,55.586z"/>
			<path class="st177" d="M101.428,55.596c7.633,0,13.821,6.187,13.821,13.82c0,7.633-6.187,13.821-13.821,13.821
				c-7.632,0-13.82-6.188-13.82-13.821C87.608,61.783,93.796,55.596,101.428,55.596z"/>
			<path class="st178" d="M101.436,55.606c7.633,0,13.819,6.187,13.819,13.818c0,7.632-6.187,13.82-13.819,13.82
				c-7.631,0-13.819-6.188-13.819-13.82C87.617,61.793,93.804,55.606,101.436,55.606z"/>
			<path class="st179" d="M101.443,55.616c7.632,0,13.818,6.186,13.818,13.817c0,7.632-6.186,13.819-13.818,13.819
				c-7.631,0-13.817-6.187-13.817-13.819C87.626,61.802,93.813,55.616,101.443,55.616z"/>
			<path class="st180" d="M101.451,55.626c7.631,0,13.817,6.185,13.817,13.816c0,7.631-6.186,13.817-13.817,13.817
				c-7.63,0-13.816-6.186-13.816-13.817C87.635,61.812,93.821,55.626,101.451,55.626z"/>
			<path class="st181" d="M101.458,55.636c7.63,0,13.815,6.185,13.815,13.814c0,7.63-6.185,13.816-13.815,13.816
				c-7.629,0-13.815-6.186-13.815-13.816C87.644,61.821,93.829,55.636,101.458,55.636z"/>
			<path class="st182" d="M101.466,55.646c7.63,0,13.814,6.184,13.814,13.813c0,7.629-6.184,13.815-13.814,13.815
				c-7.628,0-13.813-6.185-13.813-13.815C87.653,61.831,93.838,55.646,101.466,55.646z"/>
			<path class="st183" d="M101.474,55.657c7.629,0,13.812,6.184,13.812,13.811c0,7.629-6.184,13.813-13.812,13.813
				c-7.628,0-13.812-6.185-13.812-13.813C87.662,61.84,93.846,55.657,101.474,55.657z"/>
			<path class="st184" d="M101.481,55.667c7.628,0,13.811,6.183,13.811,13.81c0,7.628-6.183,13.812-13.811,13.812
				c-7.627,0-13.81-6.184-13.81-13.812C87.671,61.85,93.854,55.667,101.481,55.667z"/>
			<path class="st185" d="M101.489,55.677c7.627,0,13.81,6.182,13.81,13.809c0,7.627-6.182,13.811-13.81,13.811
				c-7.626,0-13.809-6.183-13.809-13.811C87.68,61.859,93.863,55.677,101.489,55.677z"/>
			<path class="st186" d="M101.496,55.687c7.627,0,13.808,6.182,13.808,13.807c0,7.626-6.182,13.809-13.808,13.809
				c-7.625,0-13.808-6.183-13.808-13.809C87.689,61.869,93.871,55.687,101.496,55.687z"/>
			<path class="st187" d="M101.504,55.697c7.626,0,13.807,6.181,13.807,13.806c0,7.626-6.181,13.808-13.807,13.808
				c-7.624,0-13.806-6.182-13.806-13.808C87.698,61.878,93.88,55.697,101.504,55.697z"/>
			<path class="st188" d="M101.512,55.707c7.625,0,13.806,6.18,13.806,13.805c0,7.625-6.181,13.806-13.806,13.806
				c-7.624,0-13.805-6.182-13.805-13.806C87.707,61.888,93.888,55.707,101.512,55.707z"/>
			<path class="st189" d="M101.519,55.717c7.624,0,13.804,6.18,13.804,13.803c0,7.624-6.18,13.805-13.804,13.805
				c-7.623,0-13.804-6.181-13.804-13.805C87.716,61.897,93.896,55.717,101.519,55.717z"/>
			<path class="st190" d="M101.527,55.728c7.624,0,13.803,6.179,13.803,13.802c0,7.623-6.179,13.804-13.803,13.804
				c-7.622,0-13.802-6.18-13.802-13.804C87.725,61.907,93.905,55.728,101.527,55.728z"/>
			<path class="st191" d="M101.534,55.738c7.623,0,13.802,6.179,13.802,13.8c0,7.623-6.179,13.802-13.802,13.802
				c-7.621,0-13.801-6.18-13.801-13.802C87.734,61.916,93.913,55.738,101.534,55.738z"/>
			<path class="st192" d="M101.542,55.748c7.622,0,13.8,6.178,13.8,13.799c0,7.622-6.178,13.801-13.8,13.801
				c-7.621,0-13.799-6.179-13.799-13.801C87.743,61.926,93.921,55.748,101.542,55.748z"/>
			<path class="st193" d="M101.55,55.758c7.621,0,13.799,6.177,13.799,13.798c0,7.621-6.177,13.8-13.799,13.8
				c-7.62,0-13.798-6.179-13.798-13.8C87.752,61.935,93.93,55.758,101.55,55.758z"/>
			<path class="st194" d="M101.557,55.768c7.621,0,13.797,6.177,13.797,13.796c0,7.62-6.177,13.798-13.797,13.798
				c-7.619,0-13.797-6.178-13.797-13.798C87.761,61.945,93.938,55.768,101.557,55.768z"/>
			<path class="st195" d="M101.565,55.778c7.62,0,13.796,6.176,13.796,13.795c0,7.62-6.176,13.797-13.796,13.797
				c-7.618,0-13.795-6.177-13.795-13.797C87.77,61.955,93.947,55.778,101.565,55.778z"/>
			<path class="st196" d="M101.573,55.789c7.619,0,13.795,6.176,13.795,13.793c0,7.619-6.176,13.796-13.795,13.796
				c-7.618,0-13.794-6.177-13.794-13.796C87.779,61.964,93.955,55.789,101.573,55.789z"/>
			<path class="st197" d="M101.58,55.799c7.618,0,13.793,6.175,13.793,13.792c0,7.618-6.175,13.794-13.793,13.794
				c-7.617,0-13.793-6.176-13.793-13.794C87.788,61.974,93.963,55.799,101.58,55.799z"/>
			<path class="st198" d="M101.588,55.809c7.618,0,13.792,6.174,13.792,13.791c0,7.617-6.174,13.793-13.792,13.793
				c-7.616,0-13.791-6.176-13.791-13.793C87.797,61.983,93.972,55.809,101.588,55.809z"/>
			<path class="st199" d="M101.595,55.819c7.617,0,13.791,6.174,13.791,13.789c0,7.616-6.174,13.791-13.791,13.791
				c-7.615,0-13.79-6.175-13.79-13.791C87.806,61.993,93.98,55.819,101.595,55.819z"/>
			<path class="st200" d="M101.603,55.829c7.616,0,13.789,6.173,13.789,13.788c0,7.616-6.173,13.79-13.789,13.79
				c-7.614,0-13.788-6.174-13.788-13.79C87.815,62.002,93.988,55.829,101.603,55.829z"/>
			<path class="st201" d="M101.611,55.839c7.615,0,13.788,6.172,13.788,13.787c0,7.615-6.172,13.789-13.788,13.789
				c-7.614,0-13.787-6.174-13.787-13.789C87.823,62.012,93.997,55.839,101.611,55.839z"/>
			<path class="st202" d="M101.618,55.849c7.615,0,13.786,6.172,13.786,13.785c0,7.614-6.172,13.787-13.786,13.787
				c-7.613,0-13.786-6.173-13.786-13.787C87.832,62.021,94.005,55.849,101.618,55.849z"/>
			<path class="st203" d="M101.626,55.86c7.614,0,13.785,6.171,13.785,13.784c0,7.613-6.171,13.786-13.785,13.786
				c-7.612,0-13.784-6.173-13.784-13.786C87.841,62.031,94.014,55.86,101.626,55.86z"/>
			<path class="st204" d="M101.633,55.87c7.613,0,13.784,6.171,13.784,13.782c0,7.613-6.171,13.785-13.784,13.785
				c-7.611,0-13.783-6.172-13.783-13.785C87.85,62.04,94.022,55.87,101.633,55.87z"/>
			<path class="st205" d="M101.641,55.88c7.612,0,13.782,6.17,13.782,13.781c0,7.612-6.17,13.783-13.782,13.783
				c-7.611,0-13.782-6.171-13.782-13.783C87.859,62.05,94.03,55.88,101.641,55.88z"/>
			<path class="st206" d="M101.649,55.89c7.612,0,13.781,6.169,13.781,13.78c0,7.611-6.169,13.782-13.781,13.782
				c-7.61,0-13.78-6.171-13.78-13.782C87.868,62.059,94.039,55.89,101.649,55.89z"/>
			<path class="st207" d="M101.656,55.9c7.611,0,13.78,6.169,13.78,13.778c0,7.61-6.169,13.781-13.78,13.781
				c-7.609,0-13.779-6.17-13.779-13.781C87.877,62.069,94.047,55.9,101.656,55.9z"/>
			<path class="st208" d="M101.664,55.91c7.61,0,13.778,6.168,13.778,13.777c0,7.61-6.168,13.779-13.778,13.779
				c-7.608,0-13.777-6.17-13.777-13.779C87.886,62.078,94.055,55.91,101.664,55.91z"/>
			<path class="st209" d="M101.671,55.92c7.609,0,13.777,6.167,13.777,13.776c0,7.609-6.167,13.778-13.777,13.778
				c-7.608,0-13.776-6.169-13.776-13.778C87.895,62.088,94.064,55.92,101.671,55.92z"/>
			<path class="st210" d="M101.679,55.931c7.609,0,13.776,6.167,13.776,13.774c0,7.608-6.167,13.776-13.776,13.776
				c-7.607,0-13.775-6.168-13.775-13.776C87.904,62.097,94.072,55.931,101.679,55.931z"/>
			<path class="st211" d="M101.687,55.941c7.608,0,13.774,6.166,13.774,13.773c0,7.607-6.166,13.775-13.774,13.775
				c-7.606,0-13.773-6.168-13.773-13.775C87.913,62.107,94.081,55.941,101.687,55.941z"/>
			<path class="st212" d="M101.694,55.951c7.607,0,13.773,6.166,13.773,13.771c0,7.607-6.166,13.774-13.773,13.774
				c-7.605,0-13.772-6.167-13.772-13.774C87.922,62.117,94.089,55.951,101.694,55.951z"/>
			<path class="st213" d="M115.473,69.731c0,7.606-6.165,13.772-13.771,13.772c-7.604,0-13.771-6.166-13.771-13.772
				c0-7.605,6.166-13.77,13.771-13.77C109.308,55.961,115.473,62.126,115.473,69.731z"/>
			<path class="st214" d="M101.708,55.969c7.606,0,13.771,6.165,13.771,13.77c0,7.606-6.165,13.772-13.771,13.772
				c-7.604,0-13.771-6.166-13.771-13.772C87.938,62.134,94.104,55.969,101.708,55.969z"/>
			<path class="st215" d="M101.715,55.977c7.606,0,13.771,6.165,13.771,13.77c0,7.606-6.165,13.772-13.771,13.772
				c-7.604,0-13.771-6.166-13.771-13.772C87.944,62.142,94.11,55.977,101.715,55.977z"/>
			<path class="st216" d="M101.722,55.985c7.606,0,13.771,6.165,13.771,13.77c0,7.606-6.165,13.772-13.771,13.772
				c-7.605,0-13.771-6.166-13.771-13.772C87.951,62.15,94.117,55.985,101.722,55.985z"/>
			<path class="st217" d="M101.728,55.993c7.606,0,13.771,6.165,13.771,13.77c0,7.606-6.165,13.772-13.771,13.772
				c-7.605,0-13.771-6.166-13.771-13.772C87.958,62.158,94.124,55.993,101.728,55.993z"/>
			<path class="st218" d="M101.735,56.001c7.606,0,13.771,6.165,13.771,13.77c0,7.606-6.165,13.772-13.771,13.772
				c-7.605,0-13.771-6.166-13.771-13.772C87.964,62.166,94.13,56.001,101.735,56.001z"/>
			<path class="st219" d="M101.741,56.009c7.606,0,13.771,6.165,13.771,13.77c0,7.606-6.165,13.772-13.771,13.772
				c-7.605,0-13.771-6.166-13.771-13.772C87.971,62.174,94.137,56.009,101.741,56.009z"/>
			<path class="st220" d="M101.748,56.016c7.606,0,13.771,6.165,13.771,13.77c0,7.606-6.165,13.772-13.771,13.772
				c-7.605,0-13.771-6.166-13.771-13.772C87.977,62.182,94.143,56.016,101.748,56.016z"/>
			<path class="st221" d="M101.754,56.024c7.606,0,13.771,6.165,13.771,13.77c0,7.606-6.165,13.772-13.771,13.772
				c-7.605,0-13.771-6.166-13.771-13.772C87.984,62.189,94.15,56.024,101.754,56.024z"/>
			<path class="st222" d="M101.761,56.032c7.606,0,13.771,6.165,13.771,13.77c0,7.606-6.165,13.772-13.771,13.772
				c-7.605,0-13.771-6.166-13.771-13.772C87.99,62.197,94.156,56.032,101.761,56.032z"/>
			<path class="st223" d="M101.768,56.04c7.606,0,13.771,6.165,13.771,13.77c0,7.606-6.165,13.772-13.771,13.772
				c-7.605,0-13.771-6.166-13.771-13.772C87.997,62.205,94.163,56.04,101.768,56.04z"/>
			<path class="st224" d="M101.774,56.048c7.606,0,13.771,6.165,13.771,13.77c0,7.606-6.165,13.772-13.771,13.772
				c-7.605,0-13.771-6.166-13.771-13.772C88.004,62.213,94.17,56.048,101.774,56.048z"/>
			<path class="st225" d="M101.781,56.056c7.606,0,13.771,6.165,13.771,13.77c0,7.606-6.165,13.772-13.771,13.772
				c-7.605,0-13.771-6.166-13.771-13.772C88.01,62.221,94.176,56.056,101.781,56.056z"/>
			<path class="st226" d="M101.787,56.064c7.606,0,13.771,6.165,13.771,13.77c0,7.606-6.165,13.772-13.771,13.772
				c-7.605,0-13.771-6.166-13.771-13.772C88.017,62.229,94.183,56.064,101.787,56.064z"/>
			<path class="st227" d="M101.794,56.072c7.606,0,13.771,6.165,13.771,13.77c0,7.606-6.165,13.772-13.771,13.772
				c-7.605,0-13.771-6.166-13.771-13.772C88.023,62.237,94.189,56.072,101.794,56.072z"/>
			<path class="st228" d="M101.8,56.08c7.606,0,13.771,6.165,13.771,13.77c0,7.606-6.165,13.772-13.771,13.772
				c-7.605,0-13.771-6.166-13.771-13.772C88.03,62.245,94.196,56.08,101.8,56.08z"/>
			<path class="st229" d="M101.807,56.088c7.606,0,13.771,6.165,13.771,13.77c0,7.606-6.165,13.772-13.771,13.772
				c-7.605,0-13.771-6.166-13.771-13.772C88.036,62.253,94.202,56.088,101.807,56.088z"/>
			<path class="st230" d="M101.814,56.096c7.606,0,13.771,6.165,13.771,13.77c0,7.606-6.165,13.772-13.771,13.772
				c-7.605,0-13.771-6.166-13.771-13.772C88.043,62.261,94.209,56.096,101.814,56.096z"/>
			<path class="st231" d="M101.82,56.104c7.606,0,13.771,6.165,13.771,13.77c0,7.606-6.165,13.772-13.771,13.772
				c-7.605,0-13.771-6.166-13.771-13.772C88.05,62.269,94.216,56.104,101.82,56.104z"/>
			<path class="st232" d="M101.827,56.112c7.606,0,13.771,6.165,13.771,13.77c0,7.606-6.165,13.772-13.771,13.772
				c-7.605,0-13.771-6.166-13.771-13.772C88.056,62.277,94.222,56.112,101.827,56.112z"/>
			<path class="st233" d="M101.833,56.12c7.606,0,13.771,6.165,13.771,13.77c0,7.606-6.165,13.772-13.771,13.772
				c-7.605,0-13.771-6.166-13.771-13.772C88.063,62.285,94.229,56.12,101.833,56.12z"/>
			<path class="st234" d="M101.84,56.127c7.606,0,13.771,6.165,13.771,13.77c0,7.606-6.165,13.772-13.771,13.772
				c-7.605,0-13.771-6.166-13.771-13.772C88.069,62.293,94.235,56.127,101.84,56.127z"/>
			<path class="st235" d="M101.846,56.135c7.606,0,13.771,6.165,13.771,13.77c0,7.606-6.165,13.772-13.771,13.772
				c-7.605,0-13.771-6.166-13.771-13.772C88.076,62.3,94.242,56.135,101.846,56.135z"/>
			<path class="st236" d="M101.853,56.143c7.606,0,13.771,6.165,13.771,13.77c0,7.606-6.165,13.772-13.771,13.772
				c-7.605,0-13.771-6.166-13.771-13.772C88.082,62.308,94.248,56.143,101.853,56.143z"/>
			<path class="st237" d="M101.86,56.151c7.606,0,13.771,6.165,13.771,13.77c0,7.606-6.165,13.772-13.771,13.772
				c-7.605,0-13.771-6.166-13.771-13.772C88.089,62.316,94.255,56.151,101.86,56.151z"/>
			<path class="st238" d="M101.866,56.159c7.606,0,13.771,6.165,13.771,13.77c0,7.606-6.165,13.772-13.771,13.772
				c-7.605,0-13.771-6.166-13.771-13.772C88.096,62.324,94.262,56.159,101.866,56.159z"/>
			<path class="st239" d="M101.873,56.167c7.606,0,13.771,6.165,13.771,13.77c0,7.606-6.165,13.772-13.771,13.772
				c-7.605,0-13.771-6.166-13.771-13.772C88.102,62.332,94.268,56.167,101.873,56.167z"/>
			<path class="st240" d="M101.879,56.175c7.606,0,13.771,6.165,13.771,13.77c0,7.606-6.165,13.772-13.771,13.772
				c-7.605,0-13.771-6.166-13.771-13.772C88.109,62.34,94.275,56.175,101.879,56.175z"/>
			<path class="st241" d="M101.886,56.183c7.606,0,13.771,6.165,13.771,13.77c0,7.606-6.165,13.772-13.771,13.772
				c-7.605,0-13.771-6.166-13.771-13.772C88.115,62.348,94.281,56.183,101.886,56.183z"/>
			<path class="st242" d="M101.892,56.191c7.606,0,13.771,6.165,13.771,13.77c0,7.606-6.165,13.772-13.771,13.772
				c-7.605,0-13.771-6.166-13.771-13.772C88.122,62.356,94.288,56.191,101.892,56.191z"/>
			<path class="st243" d="M101.899,56.199c7.606,0,13.771,6.165,13.771,13.77c0,7.606-6.165,13.772-13.771,13.772
				c-7.605,0-13.771-6.166-13.771-13.772C88.128,62.364,94.294,56.199,101.899,56.199z"/>
			<path class="st244" d="M101.906,56.207c7.606,0,13.771,6.165,13.771,13.77c0,7.606-6.165,13.772-13.771,13.772
				c-7.605,0-13.771-6.166-13.771-13.772C88.135,62.372,94.301,56.207,101.906,56.207z"/>
			<path class="st245" d="M101.912,56.215c7.606,0,13.771,6.165,13.771,13.77c0,7.606-6.165,13.772-13.771,13.772
				c-7.605,0-13.771-6.166-13.771-13.772C88.142,62.38,94.308,56.215,101.912,56.215z"/>
			<path class="st246" d="M101.919,56.223c7.606,0,13.771,6.165,13.771,13.77c0,7.606-6.165,13.772-13.771,13.772
				c-7.605,0-13.771-6.166-13.771-13.772C88.148,62.388,94.314,56.223,101.919,56.223z"/>
			<path class="st247" d="M101.925,56.23c7.606,0,13.771,6.165,13.771,13.77c0,7.606-6.165,13.772-13.771,13.772
				c-7.605,0-13.771-6.166-13.771-13.772C88.155,62.396,94.321,56.23,101.925,56.23z"/>
			<path class="st248" d="M101.932,56.238c7.606,0,13.771,6.165,13.771,13.77c0,7.606-6.165,13.772-13.771,13.772
				c-7.605,0-13.771-6.166-13.771-13.772C88.161,62.404,94.327,56.238,101.932,56.238z"/>
			<path class="st249" d="M101.938,56.246c7.606,0,13.771,6.165,13.771,13.77c0,7.606-6.165,13.772-13.771,13.772
				c-7.605,0-13.771-6.166-13.771-13.772C88.168,62.411,94.334,56.246,101.938,56.246z"/>
			<path class="st250" d="M101.945,56.254c7.606,0,13.771,6.165,13.771,13.77c0,7.606-6.165,13.772-13.771,13.772
				c-7.605,0-13.771-6.166-13.771-13.772C88.174,62.419,94.34,56.254,101.945,56.254z"/>
			<path class="st251" d="M101.952,56.262c7.606,0,13.771,6.165,13.771,13.77c0,7.606-6.165,13.772-13.771,13.772
				c-7.605,0-13.771-6.166-13.771-13.772C88.181,62.427,94.347,56.262,101.952,56.262z"/>
			<path class="st252" d="M101.958,56.27c7.606,0,13.771,6.165,13.771,13.77c0,7.606-6.165,13.772-13.771,13.772
				c-7.605,0-13.771-6.166-13.771-13.772C88.188,62.435,94.354,56.27,101.958,56.27z"/>
			<path class="st253" d="M101.965,56.278c7.606,0,13.771,6.165,13.771,13.77c0,7.606-6.165,13.772-13.771,13.772
				c-7.605,0-13.771-6.166-13.771-13.772C88.194,62.443,94.36,56.278,101.965,56.278z"/>
			<path class="st254" d="M101.971,56.286c7.606,0,13.771,6.165,13.771,13.77c0,7.606-6.165,13.772-13.771,13.772
				c-7.605,0-13.771-6.166-13.771-13.772C88.201,62.451,94.367,56.286,101.971,56.286z"/>
			<path class="st255" d="M101.978,56.294c7.606,0,13.771,6.165,13.771,13.77c0,7.606-6.165,13.772-13.771,13.772
				c-7.605,0-13.771-6.166-13.771-13.772C88.207,62.459,94.373,56.294,101.978,56.294z"/>
			<path class="st256" d="M101.984,56.302c7.606,0,13.771,6.165,13.771,13.77c0,7.606-6.165,13.772-13.771,13.772
				c-7.605,0-13.771-6.166-13.771-13.772C88.214,62.467,94.38,56.302,101.984,56.302z"/>
			<path class="st257" d="M101.991,56.31c7.606,0,13.771,6.165,13.771,13.77c0,7.606-6.165,13.772-13.771,13.772
				c-7.605,0-13.771-6.166-13.771-13.772C88.22,62.475,94.386,56.31,101.991,56.31z"/>
			<path class="st258" d="M101.998,56.318c7.606,0,13.771,6.165,13.771,13.77c0,7.606-6.165,13.772-13.771,13.772
				c-7.605,0-13.771-6.166-13.771-13.772C88.227,62.483,94.393,56.318,101.998,56.318z"/>
			<path class="st259" d="M102.004,56.326c7.606,0,13.771,6.165,13.771,13.77c0,7.606-6.165,13.772-13.771,13.772
				c-7.605,0-13.771-6.166-13.771-13.772C88.234,62.491,94.4,56.326,102.004,56.326z"/>
			<path class="st260" d="M102.011,56.333c7.606,0,13.771,6.165,13.771,13.77c0,7.606-6.165,13.772-13.771,13.772
				c-7.605,0-13.771-6.166-13.771-13.772C88.24,62.499,94.406,56.333,102.011,56.333z"/>
			<path class="st261" d="M102.017,56.341c7.606,0,13.771,6.165,13.771,13.77c0,7.606-6.165,13.772-13.771,13.772
				c-7.605,0-13.771-6.166-13.771-13.772C88.247,62.507,94.413,56.341,102.017,56.341z"/>
			<path class="st262" d="M102.024,56.349c7.606,0,13.771,6.165,13.771,13.77c0,7.606-6.165,13.772-13.771,13.772
				c-7.605,0-13.771-6.166-13.771-13.772C88.253,62.515,94.419,56.349,102.024,56.349z"/>
			<path class="st263" d="M102.031,56.357c7.606,0,13.771,6.165,13.771,13.77c0,7.606-6.165,13.772-13.771,13.772
				c-7.605,0-13.771-6.166-13.771-13.772C88.26,62.522,94.426,56.357,102.031,56.357z"/>
			<path class="st264" d="M102.037,56.365c7.606,0,13.771,6.165,13.771,13.77c0,7.606-6.165,13.772-13.771,13.772
				c-7.605,0-13.771-6.166-13.771-13.772C88.267,62.53,94.432,56.365,102.037,56.365z"/>
			<path class="st265" d="M102.044,56.373c7.606,0,13.771,6.165,13.771,13.77c0,7.606-6.165,13.772-13.771,13.772
				c-7.605,0-13.771-6.166-13.771-13.772C88.273,62.538,94.439,56.373,102.044,56.373z"/>
			<path class="st266" d="M102.05,56.381c7.606,0,13.771,6.165,13.771,13.77c0,7.606-6.165,13.772-13.771,13.772
				c-7.605,0-13.771-6.166-13.771-13.772C88.28,62.546,94.446,56.381,102.05,56.381z"/>
			<path class="st267" d="M102.057,56.389c7.606,0,13.771,6.165,13.771,13.77c0,7.606-6.165,13.772-13.771,13.772
				c-7.605,0-13.771-6.166-13.771-13.772C88.286,62.554,94.452,56.389,102.057,56.389z"/>
			<path class="st268" d="M102.063,56.397c7.606,0,13.771,6.165,13.771,13.77c0,7.606-6.165,13.772-13.771,13.772
				c-7.605,0-13.771-6.166-13.771-13.772C88.293,62.562,94.459,56.397,102.063,56.397z"/>
			<path class="st269" d="M102.07,56.405c7.606,0,13.771,6.165,13.771,13.77c0,7.606-6.165,13.772-13.771,13.772
				c-7.605,0-13.771-6.166-13.771-13.772C88.299,62.57,94.465,56.405,102.07,56.405z"/>
			<path class="st270" d="M102.077,56.413c7.606,0,13.771,6.165,13.771,13.77c0,7.606-6.165,13.772-13.771,13.772
				c-7.605,0-13.771-6.166-13.771-13.772C88.306,62.578,94.472,56.413,102.077,56.413z"/>
			<path class="st271" d="M102.083,56.421c7.606,0,13.771,6.165,13.771,13.77c0,7.606-6.165,13.772-13.771,13.772
				c-7.605,0-13.771-6.166-13.771-13.772C88.313,62.586,94.478,56.421,102.083,56.421z"/>
			<path class="st272" d="M102.09,56.429c7.606,0,13.771,6.165,13.771,13.77c0,7.606-6.165,13.772-13.771,13.772
				c-7.605,0-13.771-6.166-13.771-13.772C88.319,62.594,94.485,56.429,102.09,56.429z"/>
			<path class="st273" d="M102.096,56.436c7.606,0,13.771,6.165,13.771,13.77c0,7.606-6.165,13.772-13.771,13.772
				c-7.605,0-13.771-6.166-13.771-13.772C88.326,62.602,94.492,56.436,102.096,56.436z"/>
			<path class="st274" d="M102.103,56.444c7.606,0,13.771,6.165,13.771,13.77c0,7.606-6.165,13.772-13.771,13.772
				c-7.605,0-13.771-6.166-13.771-13.772C88.332,62.61,94.498,56.444,102.103,56.444z"/>
			<path class="st275" d="M102.109,56.452c7.606,0,13.771,6.165,13.771,13.77c0,7.606-6.165,13.772-13.771,13.772
				c-7.605,0-13.771-6.166-13.771-13.772C88.339,62.618,94.505,56.452,102.109,56.452z"/>
			<path class="st276" d="M102.116,56.46c7.606,0,13.771,6.165,13.771,13.77c0,7.606-6.165,13.772-13.771,13.772
				c-7.605,0-13.771-6.166-13.771-13.772C88.345,62.626,94.511,56.46,102.116,56.46z"/>
			<path class="st277" d="M102.123,56.468c7.606,0,13.771,6.165,13.771,13.77c0,7.606-6.165,13.772-13.771,13.772
				c-7.605,0-13.771-6.166-13.771-13.772C88.352,62.633,94.518,56.468,102.123,56.468z"/>
			<path class="st278" d="M102.129,56.476c7.606,0,13.771,6.165,13.771,13.77c0,7.606-6.165,13.772-13.771,13.772
				c-7.605,0-13.771-6.166-13.771-13.772C88.359,62.641,94.524,56.476,102.129,56.476z"/>
			<path class="st279" d="M102.136,56.484c7.606,0,13.771,6.165,13.771,13.77c0,7.606-6.165,13.772-13.771,13.772
				c-7.605,0-13.771-6.166-13.771-13.772C88.365,62.649,94.531,56.484,102.136,56.484z"/>
			<path class="st280" d="M102.142,56.492c7.606,0,13.771,6.165,13.771,13.77c0,7.606-6.165,13.772-13.771,13.772
				c-7.605,0-13.771-6.166-13.771-13.772C88.372,62.657,94.538,56.492,102.142,56.492z"/>
			<path class="st281" d="M102.149,56.5c7.606,0,13.771,6.165,13.771,13.77c0,7.606-6.165,13.772-13.771,13.772
				c-7.605,0-13.771-6.166-13.771-13.772C88.378,62.665,94.544,56.5,102.149,56.5z"/>
			<path class="st282" d="M102.155,56.508c7.606,0,13.771,6.165,13.771,13.77c0,7.606-6.165,13.772-13.771,13.772
				c-7.605,0-13.771-6.166-13.771-13.772C88.385,62.673,94.551,56.508,102.155,56.508z"/>
			<path class="st283" d="M102.162,56.516c7.606,0,13.771,6.165,13.771,13.77c0,7.606-6.165,13.772-13.771,13.772
				c-7.605,0-13.771-6.166-13.771-13.772C88.391,62.681,94.557,56.516,102.162,56.516z"/>
			<path class="st284" d="M102.169,56.524c7.606,0,13.771,6.165,13.771,13.77c0,7.606-6.165,13.772-13.771,13.772
				c-7.605,0-13.771-6.166-13.771-13.772C88.398,62.689,94.564,56.524,102.169,56.524z"/>
			<path class="st285" d="M102.175,56.532c7.606,0,13.771,6.165,13.771,13.77c0,7.606-6.165,13.772-13.771,13.772
				c-7.605,0-13.771-6.166-13.771-13.772C88.405,62.697,94.57,56.532,102.175,56.532z"/>
			<path class="st286" d="M102.182,56.539c7.606,0,13.771,6.165,13.771,13.77c0,7.606-6.165,13.772-13.771,13.772
				c-7.605,0-13.771-6.166-13.771-13.772C88.411,62.705,94.577,56.539,102.182,56.539z"/>
			<path class="st287" d="M102.188,56.547c7.606,0,13.771,6.165,13.771,13.77c0,7.606-6.165,13.772-13.771,13.772
				c-7.605,0-13.771-6.166-13.771-13.772C88.418,62.713,94.584,56.547,102.188,56.547z"/>
			<path class="st288" d="M102.195,56.555c7.606,0,13.771,6.165,13.771,13.77c0,7.606-6.165,13.772-13.771,13.772
				c-7.605,0-13.771-6.166-13.771-13.772C88.424,62.721,94.59,56.555,102.195,56.555z"/>
			<path class="st289" d="M102.201,56.563c7.606,0,13.771,6.165,13.771,13.77c0,7.606-6.165,13.772-13.771,13.772
				c-7.605,0-13.771-6.166-13.771-13.772C88.431,62.729,94.597,56.563,102.201,56.563z"/>
			<path class="st290" d="M102.208,56.571c7.606,0,13.771,6.165,13.771,13.77c0,7.606-6.165,13.772-13.771,13.772
				c-7.605,0-13.771-6.166-13.771-13.772C88.437,62.737,94.603,56.571,102.208,56.571z"/>
			<path class="st291" d="M102.215,56.579c7.606,0,13.771,6.165,13.771,13.77c0,7.606-6.165,13.772-13.771,13.772
				c-7.605,0-13.771-6.166-13.771-13.772C88.444,62.744,94.61,56.579,102.215,56.579z"/>
			<path class="st292" d="M102.221,56.587c7.606,0,13.771,6.165,13.771,13.77c0,7.606-6.165,13.772-13.771,13.772
				c-7.605,0-13.771-6.166-13.771-13.772C88.451,62.752,94.616,56.587,102.221,56.587z"/>
			<path class="st293" d="M102.228,56.595c7.606,0,13.771,6.165,13.771,13.77c0,7.606-6.165,13.772-13.771,13.772
				c-7.605,0-13.771-6.166-13.771-13.772C88.457,62.76,94.623,56.595,102.228,56.595z"/>
			<path class="st294" d="M102.234,56.603c7.606,0,13.771,6.165,13.771,13.77c0,7.606-6.165,13.772-13.771,13.772
				c-7.605,0-13.771-6.166-13.771-13.772C88.464,62.768,94.63,56.603,102.234,56.603z"/>
			<path class="st295" d="M102.241,56.611c7.606,0,13.771,6.165,13.771,13.77c0,7.606-6.165,13.772-13.771,13.772
				c-7.605,0-13.771-6.166-13.771-13.772C88.47,62.776,94.636,56.611,102.241,56.611z"/>
			<path class="st296" d="M102.247,56.619c7.606,0,13.771,6.165,13.771,13.77c0,7.606-6.165,13.772-13.771,13.772
				c-7.605,0-13.771-6.166-13.771-13.772C88.477,62.784,94.643,56.619,102.247,56.619z"/>
			<path class="st297" d="M102.254,56.627c7.606,0,13.771,6.165,13.771,13.77c0,7.606-6.165,13.772-13.771,13.772
				c-7.605,0-13.771-6.166-13.771-13.772C88.483,62.792,94.649,56.627,102.254,56.627z"/>
			<path class="st298" d="M102.261,56.635c7.606,0,13.771,6.165,13.771,13.77c0,7.606-6.165,13.772-13.771,13.772
				c-7.605,0-13.771-6.166-13.771-13.772C88.49,62.8,94.656,56.635,102.261,56.635z"/>
			<path class="st299" d="M102.267,56.642c7.606,0,13.771,6.165,13.771,13.77c0,7.606-6.165,13.772-13.771,13.772
				c-7.605,0-13.771-6.166-13.771-13.772C88.497,62.808,94.662,56.642,102.267,56.642z"/>
			<path class="st300" d="M102.274,56.65c7.606,0,13.771,6.165,13.771,13.77c0,7.606-6.165,13.772-13.771,13.772
				c-7.605,0-13.771-6.166-13.771-13.772C88.503,62.816,94.669,56.65,102.274,56.65z"/>
			<path class="st301" d="M102.28,56.658c7.606,0,13.771,6.165,13.771,13.77c0,7.606-6.165,13.772-13.771,13.772
				c-7.605,0-13.771-6.166-13.771-13.772C88.51,62.824,94.676,56.658,102.28,56.658z"/>
			<path class="st302" d="M102.287,56.666c7.606,0,13.771,6.165,13.771,13.77c0,7.606-6.165,13.772-13.771,13.772
				c-7.605,0-13.771-6.166-13.771-13.772C88.516,62.832,94.682,56.666,102.287,56.666z"/>
			<path class="st303" d="M102.293,56.674c7.606,0,13.771,6.165,13.771,13.77c0,7.606-6.165,13.772-13.771,13.772
				c-7.605,0-13.771-6.166-13.771-13.772C88.523,62.84,94.689,56.674,102.293,56.674z"/>
			<path class="st304" d="M102.3,56.682c7.606,0,13.771,6.165,13.771,13.77c0,7.606-6.165,13.772-13.771,13.772
				c-7.605,0-13.771-6.166-13.771-13.772C88.529,62.848,94.695,56.682,102.3,56.682z"/>
			<path class="st305" d="M102.307,56.69c7.606,0,13.771,6.165,13.771,13.77c0,7.606-6.165,13.772-13.771,13.772
				c-7.605,0-13.771-6.166-13.771-13.772C88.536,62.855,94.702,56.69,102.307,56.69z"/>
			<path class="st306" d="M102.313,56.698c7.606,0,13.771,6.165,13.771,13.77c0,7.606-6.165,13.772-13.771,13.772
				c-7.605,0-13.771-6.166-13.771-13.772C88.543,62.863,94.708,56.698,102.313,56.698z"/>
			<path class="st307" d="M102.32,56.706c7.606,0,13.771,6.165,13.771,13.77c0,7.606-6.165,13.772-13.771,13.772
				c-7.605,0-13.771-6.166-13.771-13.772C88.549,62.871,94.715,56.706,102.32,56.706z"/>
			<path class="st308" d="M102.326,56.714c7.606,0,13.771,6.165,13.771,13.77c0,7.606-6.165,13.772-13.771,13.772
				c-7.605,0-13.771-6.166-13.771-13.772C88.556,62.879,94.722,56.714,102.326,56.714z"/>
			<path class="st309" d="M102.333,56.722c7.606,0,13.771,6.165,13.771,13.77c0,7.606-6.165,13.772-13.771,13.772
				c-7.605,0-13.771-6.166-13.771-13.772C88.562,62.887,94.728,56.722,102.333,56.722z"/>
			<path class="st310" d="M102.339,56.73c7.606,0,13.771,6.165,13.771,13.77c0,7.606-6.165,13.772-13.771,13.772
				c-7.605,0-13.771-6.166-13.771-13.772C88.569,62.895,94.735,56.73,102.339,56.73z"/>
			<path class="st311" d="M102.346,56.738c7.606,0,13.771,6.165,13.771,13.77c0,7.606-6.165,13.772-13.771,13.772
				c-7.605,0-13.771-6.166-13.771-13.772C88.575,62.903,94.741,56.738,102.346,56.738z"/>
			<path class="st312" d="M102.353,56.745c7.606,0,13.771,6.165,13.771,13.77c0,7.606-6.165,13.772-13.771,13.772
				c-7.605,0-13.771-6.166-13.771-13.772C88.582,62.911,94.748,56.745,102.353,56.745z"/>
			<path class="st313" d="M102.359,56.753c7.606,0,13.771,6.165,13.771,13.771c0,7.606-6.165,13.772-13.771,13.772
				c-7.605,0-13.771-6.166-13.771-13.772C88.589,62.919,94.754,56.753,102.359,56.753z"/>
			<path class="st314" d="M102.366,56.761c7.606,0,13.771,6.166,13.771,13.771c0,7.606-6.165,13.772-13.771,13.772
				c-7.605,0-13.771-6.166-13.771-13.772C88.595,62.927,94.761,56.761,102.366,56.761z"/>
			<path class="st315" d="M102.372,56.769c7.606,0,13.771,6.166,13.771,13.771c0,7.606-6.165,13.772-13.771,13.772
				c-7.605,0-13.771-6.166-13.771-13.772C88.602,62.935,94.768,56.769,102.372,56.769z"/>
			<path class="st316" d="M102.379,56.777c7.606,0,13.771,6.166,13.771,13.771c0,7.606-6.165,13.772-13.771,13.772
				c-7.605,0-13.771-6.166-13.771-13.772C88.608,62.943,94.774,56.777,102.379,56.777z"/>
			<path class="st317" d="M102.385,56.785c7.606,0,13.771,6.166,13.771,13.771c0,7.606-6.165,13.772-13.771,13.772
				c-7.605,0-13.771-6.166-13.771-13.772C88.615,62.951,94.781,56.785,102.385,56.785z"/>
			<path class="st318" d="M102.392,56.793c7.606,0,13.771,6.166,13.771,13.771c0,7.606-6.165,13.772-13.771,13.772
				c-7.605,0-13.771-6.166-13.771-13.772C88.621,62.959,94.787,56.793,102.392,56.793z"/>
			<path class="st319" d="M102.399,56.801c7.606,0,13.771,6.166,13.771,13.771c0,7.606-6.165,13.772-13.771,13.772
				c-7.605,0-13.771-6.166-13.771-13.772C88.628,62.966,94.794,56.801,102.399,56.801z"/>
			<path class="st320" d="M102.405,56.809c7.606,0,13.771,6.166,13.771,13.771c0,7.606-6.165,13.772-13.771,13.772
				c-7.605,0-13.771-6.166-13.771-13.772C88.635,62.974,94.8,56.809,102.405,56.809z"/>
			<path class="st321" d="M102.412,56.817c7.606,0,13.771,6.166,13.771,13.771c0,7.606-6.165,13.772-13.771,13.772
				c-7.605,0-13.771-6.166-13.771-13.772C88.641,62.982,94.807,56.817,102.412,56.817z"/>
			<path class="st322" d="M102.418,56.825c7.606,0,13.771,6.166,13.771,13.771c0,7.606-6.165,13.772-13.771,13.772
				c-7.605,0-13.771-6.166-13.771-13.772C88.648,62.99,94.814,56.825,102.418,56.825z"/>
			<path class="st323" d="M102.425,56.833c7.606,0,13.771,6.166,13.771,13.771c0,7.606-6.165,13.772-13.771,13.772
				c-7.605,0-13.771-6.166-13.771-13.772C88.654,62.998,94.82,56.833,102.425,56.833z"/>
			<path class="st324" d="M102.431,56.841c7.606,0,13.771,6.166,13.771,13.771c0,7.606-6.165,13.772-13.771,13.772
				c-7.605,0-13.771-6.166-13.771-13.772C88.661,63.006,94.827,56.841,102.431,56.841z"/>
			<path class="st325" d="M102.438,56.849c7.606,0,13.771,6.166,13.771,13.771c0,7.606-6.165,13.772-13.771,13.772
				c-7.605,0-13.771-6.166-13.771-13.772C88.668,63.014,94.833,56.849,102.438,56.849z"/>
			<path class="st326" d="M102.445,56.856c7.606,0,13.771,6.166,13.771,13.771c0,7.606-6.165,13.772-13.771,13.772
				c-7.605,0-13.771-6.166-13.771-13.772C88.674,63.022,94.84,56.856,102.445,56.856z"/>
			<path class="st327" d="M102.451,56.864c7.606,0,13.771,6.166,13.771,13.771c0,7.606-6.165,13.772-13.771,13.772
				c-7.605,0-13.771-6.166-13.771-13.772C88.681,63.03,94.846,56.864,102.451,56.864z"/>
			<path class="st328" d="M102.458,56.872c7.606,0,13.771,6.166,13.771,13.771c0,7.606-6.165,13.772-13.771,13.772
				c-7.605,0-13.771-6.166-13.771-13.772C88.687,63.038,94.853,56.872,102.458,56.872z"/>
			<path class="st329" d="M102.464,56.88c7.606,0,13.771,6.166,13.771,13.771c0,7.606-6.165,13.772-13.771,13.772
				c-7.605,0-13.771-6.166-13.771-13.772C88.694,63.046,94.86,56.88,102.464,56.88z"/>
			<path class="st330" d="M102.471,56.888c7.606,0,13.771,6.166,13.771,13.771c0,7.606-6.165,13.772-13.771,13.772
				c-7.605,0-13.771-6.166-13.771-13.772C88.7,63.054,94.866,56.888,102.471,56.888z"/>
			<path class="st331" d="M102.477,56.896c7.606,0,13.771,6.166,13.771,13.771c0,7.606-6.165,13.772-13.771,13.772
				c-7.605,0-13.771-6.166-13.771-13.772C88.707,63.062,94.873,56.896,102.477,56.896z"/>
			<path class="st332" d="M102.484,56.904c7.606,0,13.771,6.166,13.771,13.771c0,7.606-6.165,13.772-13.771,13.772
				c-7.605,0-13.771-6.166-13.771-13.772C88.714,63.07,94.879,56.904,102.484,56.904z"/>
			<path class="st333" d="M102.491,56.912c7.606,0,13.771,6.166,13.771,13.771c0,7.606-6.165,13.772-13.771,13.772
				c-7.605,0-13.771-6.166-13.771-13.772C88.72,63.077,94.886,56.912,102.491,56.912z"/>
			<path class="st334" d="M102.497,56.92c7.606,0,13.771,6.166,13.771,13.771c0,7.606-6.165,13.772-13.771,13.772
				c-7.605,0-13.771-6.166-13.771-13.772C88.727,63.085,94.892,56.92,102.497,56.92z"/>
			<path class="st335" d="M102.504,56.928c7.606,0,13.771,6.166,13.771,13.771c0,7.606-6.165,13.772-13.771,13.772
				c-7.605,0-13.771-6.166-13.771-13.772C88.733,63.093,94.899,56.928,102.504,56.928z"/>
			<path class="st336" d="M102.51,56.936c7.606,0,13.771,6.166,13.771,13.771c0,7.606-6.165,13.772-13.771,13.772
				c-7.605,0-13.771-6.166-13.771-13.772C88.74,63.101,94.906,56.936,102.51,56.936z"/>
			<path class="st337" d="M102.517,56.944c7.606,0,13.771,6.166,13.771,13.771c0,7.606-6.165,13.772-13.771,13.772
				c-7.605,0-13.771-6.166-13.771-13.772C88.746,63.109,94.912,56.944,102.517,56.944z"/>
			<path class="st338" d="M102.523,56.952c7.606,0,13.771,6.166,13.771,13.771c0,7.606-6.165,13.772-13.771,13.772
				c-7.605,0-13.771-6.166-13.771-13.772C88.753,63.117,94.919,56.952,102.523,56.952z"/>
			<path class="st339" d="M102.53,56.959c7.606,0,13.771,6.166,13.771,13.771c0,7.606-6.165,13.772-13.771,13.772
				c-7.605,0-13.771-6.166-13.771-13.772C88.76,63.125,94.925,56.959,102.53,56.959z"/>
			<path class="st340" d="M102.537,56.967c7.606,0,13.771,6.166,13.771,13.771c0,7.606-6.165,13.772-13.771,13.772
				c-7.605,0-13.771-6.166-13.771-13.772C88.766,63.133,94.932,56.967,102.537,56.967z"/>
			<path class="st341" d="M102.543,56.975c7.606,0,13.771,6.166,13.771,13.771c0,7.606-6.165,13.772-13.771,13.772
				c-7.605,0-13.771-6.166-13.771-13.772C88.773,63.141,94.938,56.975,102.543,56.975z"/>
			<path class="st342" d="M102.55,56.983c7.606,0,13.771,6.166,13.771,13.771c0,7.606-6.165,13.772-13.771,13.772
				c-7.605,0-13.771-6.166-13.771-13.772C88.779,63.149,94.945,56.983,102.55,56.983z"/>
			<path class="st343" d="M102.556,56.991c7.606,0,13.771,6.166,13.771,13.771c0,7.606-6.165,13.772-13.771,13.772
				c-7.605,0-13.771-6.166-13.771-13.772C88.786,63.157,94.952,56.991,102.556,56.991z"/>
			<path class="st344" d="M102.563,56.999c7.606,0,13.771,6.166,13.771,13.771c0,7.606-6.165,13.772-13.771,13.772
				c-7.605,0-13.771-6.166-13.771-13.772C88.792,63.165,94.958,56.999,102.563,56.999z"/>
			<path class="st345" d="M102.57,57.007c7.606,0,13.771,6.166,13.771,13.771c0,7.606-6.165,13.772-13.771,13.772
				c-7.605,0-13.771-6.166-13.771-13.772C88.799,63.173,94.965,57.007,102.57,57.007z"/>
			<path class="st346" d="M102.576,57.015c7.606,0,13.771,6.166,13.771,13.771c0,7.606-6.165,13.772-13.771,13.772
				c-7.605,0-13.771-6.166-13.771-13.772C88.806,63.181,94.971,57.015,102.576,57.015z"/>
			<path class="st347" d="M102.583,57.023c7.606,0,13.771,6.166,13.771,13.771c0,7.606-6.165,13.772-13.771,13.772
				c-7.605,0-13.771-6.165-13.771-13.772C88.812,63.188,94.978,57.023,102.583,57.023z"/>
			<path class="st348" d="M102.589,57.031c7.606,0,13.771,6.166,13.771,13.771c0,7.606-6.165,13.772-13.771,13.772
				c-7.605,0-13.771-6.165-13.771-13.772C88.819,63.196,94.984,57.031,102.589,57.031z"/>
			<path class="st349" d="M102.596,57.039c7.606,0,13.771,6.166,13.771,13.771c0,7.606-6.165,13.772-13.771,13.772
				c-7.605,0-13.771-6.165-13.771-13.772C88.825,63.204,94.991,57.039,102.596,57.039z"/>
			<path class="st350" d="M102.602,57.047c7.606,0,13.771,6.166,13.771,13.771c0,7.606-6.165,13.772-13.771,13.772
				c-7.605,0-13.771-6.165-13.771-13.772C88.832,63.212,94.998,57.047,102.602,57.047z"/>
			<path class="st351" d="M102.609,57.055c7.606,0,13.771,6.166,13.771,13.771c0,7.606-6.165,13.772-13.771,13.772
				c-7.605,0-13.771-6.165-13.771-13.772C88.838,63.22,95.004,57.055,102.609,57.055z"/>
			<path class="st352" d="M102.616,57.062c7.606,0,13.771,6.166,13.771,13.771c0,7.606-6.165,13.772-13.771,13.772
				c-7.605,0-13.771-6.165-13.771-13.772C88.845,63.228,95.011,57.062,102.616,57.062z"/>
			<path class="st353" d="M102.622,57.07c7.606,0,13.771,6.166,13.771,13.771c0,7.606-6.165,13.772-13.771,13.772
				c-7.605,0-13.771-6.165-13.771-13.772C88.852,63.236,95.017,57.07,102.622,57.07z"/>
			<path class="st354" d="M102.629,57.078c7.606,0,13.771,6.166,13.771,13.771c0,7.606-6.165,13.772-13.771,13.772
				c-7.605,0-13.771-6.165-13.771-13.772C88.858,63.244,95.024,57.078,102.629,57.078z"/>
			<path class="st355" d="M102.635,57.086c7.606,0,13.771,6.166,13.771,13.771c0,7.606-6.165,13.772-13.771,13.772
				c-7.605,0-13.771-6.165-13.771-13.772C88.865,63.252,95.03,57.086,102.635,57.086z"/>
			<path class="st356" d="M102.642,57.094c7.606,0,13.771,6.166,13.771,13.771c0,7.606-6.165,13.772-13.771,13.772
				c-7.605,0-13.771-6.165-13.771-13.772C88.871,63.26,95.037,57.094,102.642,57.094z"/>
			<path class="st357" d="M102.648,57.102c7.606,0,13.771,6.166,13.771,13.771c0,7.606-6.165,13.772-13.771,13.772
				c-7.605,0-13.771-6.165-13.771-13.772C88.878,63.268,95.044,57.102,102.648,57.102z"/>
			<path class="st358" d="M102.655,57.11c7.606,0,13.771,6.166,13.771,13.771c0,7.606-6.165,13.772-13.771,13.772
				c-7.605,0-13.771-6.165-13.771-13.772C88.884,63.276,95.05,57.11,102.655,57.11z"/>
			<path class="st359" d="M102.662,57.118c7.606,0,13.771,6.166,13.771,13.771c0,7.606-6.165,13.772-13.771,13.772
				c-7.605,0-13.771-6.165-13.771-13.772C88.891,63.284,95.057,57.118,102.662,57.118z"/>
			<path class="st360" d="M102.668,57.126c7.606,0,13.771,6.166,13.771,13.771c0,7.606-6.165,13.772-13.771,13.772
				c-7.605,0-13.771-6.165-13.771-13.772C88.898,63.292,95.063,57.126,102.668,57.126z"/>
			<path class="st361" d="M102.675,57.134c7.606,0,13.771,6.166,13.771,13.771c0,7.606-6.165,13.772-13.771,13.772
				c-7.605,0-13.771-6.165-13.771-13.772C88.904,63.299,95.07,57.134,102.675,57.134z"/>
			<path class="st362" d="M102.681,57.142c7.606,0,13.771,6.166,13.771,13.771c0,7.606-6.165,13.772-13.771,13.772
				c-7.605,0-13.771-6.165-13.771-13.772C88.911,63.307,95.076,57.142,102.681,57.142z"/>
			<path class="st363" d="M102.688,57.15c7.606,0,13.771,6.166,13.771,13.771c0,7.606-6.165,13.772-13.771,13.772
				c-7.605,0-13.771-6.165-13.771-13.772C88.917,63.315,95.083,57.15,102.688,57.15z"/>
			<path class="st364" d="M102.694,57.158c7.606,0,13.771,6.166,13.771,13.771c0,7.606-6.165,13.772-13.771,13.772
				c-7.605,0-13.771-6.165-13.771-13.772C88.924,63.323,95.09,57.158,102.694,57.158z"/>
			<path class="st365" d="M102.701,57.165c7.606,0,13.771,6.166,13.771,13.771c0,7.606-6.165,13.772-13.771,13.772
				c-7.605,0-13.771-6.165-13.771-13.772C88.93,63.331,95.096,57.165,102.701,57.165z"/>
			<path class="st366" d="M102.708,57.173c7.606,0,13.771,6.166,13.771,13.771c0,7.606-6.165,13.772-13.771,13.772
				c-7.605,0-13.771-6.165-13.771-13.772C88.937,63.339,95.103,57.173,102.708,57.173z"/>
			<path class="st367" d="M102.714,57.181c7.606,0,13.771,6.166,13.771,13.771c0,7.606-6.165,13.772-13.771,13.772
				c-7.605,0-13.771-6.165-13.771-13.772C88.944,63.347,95.109,57.181,102.714,57.181z"/>
			<path class="st368" d="M102.721,57.189c7.606,0,13.771,6.166,13.771,13.771c0,7.606-6.165,13.772-13.771,13.772
				c-7.605,0-13.771-6.165-13.771-13.772C88.95,63.355,95.116,57.189,102.721,57.189z"/>
			<path class="st369" d="M102.727,57.197c7.606,0,13.771,6.166,13.771,13.771c0,7.606-6.165,13.772-13.771,13.772
				c-7.605,0-13.771-6.165-13.771-13.772C88.957,63.363,95.122,57.197,102.727,57.197z"/>
			<path class="st370" d="M102.734,57.205c7.606,0,13.771,6.166,13.771,13.771c0,7.606-6.165,13.772-13.771,13.772
				c-7.605,0-13.771-6.165-13.771-13.772C88.963,63.371,95.129,57.205,102.734,57.205z"/>
			<path class="st371" d="M102.74,57.213c7.606,0,13.771,6.166,13.771,13.771c0,7.606-6.165,13.772-13.771,13.772
				c-7.605,0-13.771-6.165-13.771-13.772C88.97,63.379,95.136,57.213,102.74,57.213z"/>
			<path class="st372" d="M102.747,57.221c7.606,0,13.771,6.166,13.771,13.771c0,7.606-6.165,13.772-13.771,13.772
				c-7.605,0-13.771-6.165-13.771-13.772C88.976,63.387,95.142,57.221,102.747,57.221z"/>
			<path class="st373" d="M102.754,57.229c7.606,0,13.771,6.166,13.771,13.771c0,7.606-6.165,13.772-13.771,13.772
				c-7.605,0-13.771-6.165-13.771-13.772C88.983,63.395,95.149,57.229,102.754,57.229z"/>
			<path class="st374" d="M102.76,57.237c7.606,0,13.771,6.166,13.771,13.771c0,7.606-6.165,13.772-13.771,13.772
				c-7.605,0-13.771-6.165-13.771-13.772C88.99,63.403,95.155,57.237,102.76,57.237z"/>
			<path class="st375" d="M102.767,57.245c7.606,0,13.771,6.166,13.771,13.771c0,7.606-6.165,13.772-13.771,13.772
				c-7.605,0-13.771-6.165-13.771-13.772C88.996,63.411,95.162,57.245,102.767,57.245z"/>
			<path class="st376" d="M102.773,57.253c7.606,0,13.771,6.166,13.771,13.771c0,7.606-6.165,13.772-13.771,13.772
				c-7.605,0-13.771-6.165-13.771-13.772C89.003,63.418,95.168,57.253,102.773,57.253z"/>
			<path class="st377" d="M102.78,57.261c7.606,0,13.771,6.166,13.771,13.771c0,7.606-6.165,13.772-13.771,13.772
				c-7.605,0-13.771-6.165-13.771-13.772C89.009,63.426,95.175,57.261,102.78,57.261z"/>
			<path class="st378" d="M102.786,57.268c7.606,0,13.771,6.166,13.771,13.771c0,7.606-6.165,13.772-13.771,13.772
				c-7.605,0-13.771-6.165-13.771-13.772C89.016,63.434,95.182,57.268,102.786,57.268z"/>
			<path class="st379" d="M102.793,57.276c7.606,0,13.771,6.166,13.771,13.771c0,7.606-6.165,13.772-13.771,13.772
				c-7.605,0-13.771-6.165-13.771-13.772C89.022,63.442,95.188,57.276,102.793,57.276z"/>
			<path class="st380" d="M102.8,57.284c7.606,0,13.771,6.166,13.771,13.771c0,7.606-6.165,13.772-13.771,13.772
				c-7.605,0-13.771-6.165-13.771-13.772C89.029,63.45,95.195,57.284,102.8,57.284z"/>
			<path class="st381" d="M102.806,57.292c7.606,0,13.771,6.166,13.771,13.771c0,7.606-6.165,13.772-13.771,13.772
				c-7.605,0-13.771-6.165-13.771-13.772C89.036,63.458,95.201,57.292,102.806,57.292z"/>
			<path class="st382" d="M102.813,57.3c7.606,0,13.771,6.166,13.771,13.771c0,7.606-6.165,13.772-13.771,13.772
				c-7.605,0-13.771-6.165-13.771-13.772C89.042,63.466,95.208,57.3,102.813,57.3z"/>
			<path class="st383" d="M102.819,57.308c7.606,0,13.771,6.166,13.771,13.771c0,7.606-6.165,13.772-13.771,13.772
				c-7.605,0-13.771-6.165-13.771-13.772C89.049,63.474,95.214,57.308,102.819,57.308z"/>
			<path class="st384" d="M102.826,57.316c7.606,0,13.771,6.166,13.771,13.771c0,7.606-6.165,13.772-13.771,13.772
				c-7.605,0-13.771-6.165-13.771-13.772C89.055,63.482,95.221,57.316,102.826,57.316z"/>
			<path class="st385" d="M102.832,57.324c7.606,0,13.771,6.166,13.771,13.771c0,7.606-6.165,13.772-13.771,13.772
				c-7.605,0-13.771-6.165-13.771-13.772C89.062,63.49,95.228,57.324,102.832,57.324z"/>
			<path class="st386" d="M102.839,57.332c7.606,0,13.771,6.166,13.771,13.771c0,7.606-6.165,13.772-13.771,13.772
				c-7.605,0-13.771-6.165-13.771-13.772C89.068,63.498,95.234,57.332,102.839,57.332z"/>
			<path class="st387" d="M102.846,57.34c7.606,0,13.771,6.166,13.771,13.771c0,7.606-6.165,13.772-13.771,13.772
				c-7.605,0-13.771-6.165-13.771-13.772C89.075,63.506,95.241,57.34,102.846,57.34z"/>
			<path class="st388" d="M102.852,57.348c7.606,0,13.771,6.166,13.771,13.771c0,7.606-6.165,13.772-13.771,13.772
				c-7.605,0-13.771-6.165-13.771-13.772C89.082,63.514,95.247,57.348,102.852,57.348z"/>
			<path class="st389" d="M102.859,57.356c7.606,0,13.771,6.166,13.771,13.771c0,7.606-6.165,13.772-13.771,13.772
				c-7.605,0-13.771-6.165-13.771-13.772C89.088,63.522,95.254,57.356,102.859,57.356z"/>
			<path class="st390" d="M102.865,57.364c7.606,0,13.771,6.166,13.771,13.771c0,7.606-6.165,13.772-13.771,13.772
				c-7.605,0-13.771-6.165-13.771-13.772C89.095,63.529,95.26,57.364,102.865,57.364z"/>
			<path class="st391" d="M102.872,57.371c7.606,0,13.771,6.166,13.771,13.771c0,7.606-6.165,13.772-13.771,13.772
				c-7.605,0-13.771-6.165-13.771-13.772C89.101,63.537,95.267,57.371,102.872,57.371z"/>
			<path class="st392" d="M102.878,57.379c7.606,0,13.771,6.166,13.771,13.771c0,7.606-6.165,13.772-13.771,13.772
				c-7.605,0-13.771-6.165-13.771-13.772C89.108,63.545,95.274,57.379,102.878,57.379z"/>
			<path class="st393" d="M102.885,57.387c7.606,0,13.771,6.166,13.771,13.771c0,7.606-6.165,13.772-13.771,13.772
				c-7.605,0-13.771-6.165-13.771-13.772C89.115,63.553,95.28,57.387,102.885,57.387z"/>
			<path class="st394" d="M102.892,57.395c7.606,0,13.771,6.166,13.771,13.771c0,7.606-6.165,13.772-13.771,13.772
				c-7.605,0-13.771-6.165-13.771-13.772C89.121,63.561,95.287,57.395,102.892,57.395z"/>
			<path class="st395" d="M102.898,57.403c7.606,0,13.771,6.166,13.771,13.771c0,7.606-6.165,13.772-13.771,13.772
				c-7.605,0-13.771-6.165-13.771-13.772C89.128,63.569,95.293,57.403,102.898,57.403z"/>
			<path class="st396" d="M102.905,57.411c7.606,0,13.771,6.166,13.771,13.771c0,7.606-6.165,13.772-13.771,13.772
				c-7.605,0-13.771-6.165-13.771-13.772C89.134,63.577,95.3,57.411,102.905,57.411z"/>
			<path class="st397" d="M102.911,57.419c7.606,0,13.771,6.166,13.771,13.771c0,7.606-6.165,13.772-13.771,13.772
				c-7.605,0-13.771-6.165-13.771-13.772C89.141,63.585,95.306,57.419,102.911,57.419z"/>
			<path class="st398" d="M102.918,57.427c7.606,0,13.771,6.166,13.771,13.771c0,7.606-6.165,13.772-13.771,13.772
				c-7.605,0-13.771-6.165-13.771-13.772C89.147,63.593,95.313,57.427,102.918,57.427z"/>
			<path class="st399" d="M102.924,57.435c7.606,0,13.771,6.166,13.771,13.771c0,7.606-6.165,13.772-13.771,13.772
				c-7.605,0-13.771-6.165-13.771-13.772C89.154,63.601,95.32,57.435,102.924,57.435z"/>
			<path class="st400" d="M102.931,57.443c7.606,0,13.771,6.166,13.771,13.771c0,7.606-6.165,13.772-13.771,13.772
				c-7.605,0-13.771-6.165-13.771-13.772C89.161,63.609,95.326,57.443,102.931,57.443z"/>
			<path class="st401" d="M102.938,57.451c7.606,0,13.771,6.166,13.771,13.771c0,7.606-6.165,13.772-13.771,13.772
				c-7.605,0-13.771-6.165-13.771-13.772C89.167,63.617,95.333,57.451,102.938,57.451z"/>
			<path class="st402" d="M102.944,57.459c7.606,0,13.771,6.166,13.771,13.771c0,7.606-6.165,13.772-13.771,13.772
				c-7.605,0-13.771-6.165-13.771-13.772C89.174,63.625,95.339,57.459,102.944,57.459z"/>
			<path class="st403" d="M102.951,57.467c7.606,0,13.771,6.166,13.771,13.771c0,7.606-6.165,13.772-13.771,13.772
				c-7.605,0-13.771-6.165-13.771-13.772C89.18,63.633,95.346,57.467,102.951,57.467z"/>
			<path class="st404" d="M102.957,57.474c7.606,0,13.771,6.166,13.771,13.771c0,7.606-6.165,13.772-13.771,13.772
				c-7.605,0-13.771-6.165-13.771-13.772C89.187,63.64,95.352,57.474,102.957,57.474z"/>
			<path class="st405" d="M102.964,57.482c7.606,0,13.771,6.166,13.771,13.771c0,7.606-6.165,13.772-13.771,13.772
				c-7.605,0-13.771-6.165-13.771-13.772C89.193,63.648,95.359,57.482,102.964,57.482z"/>
			<path class="st406" d="M102.97,57.49c7.606,0,13.771,6.166,13.771,13.771c0,7.606-6.165,13.772-13.771,13.772
				c-7.605,0-13.771-6.165-13.771-13.772C89.2,63.656,95.366,57.49,102.97,57.49z"/>
			<path class="st407" d="M102.977,57.498c7.606,0,13.771,6.166,13.771,13.771c0,7.606-6.165,13.772-13.771,13.772
				c-7.605,0-13.771-6.165-13.771-13.772C89.207,63.664,95.372,57.498,102.977,57.498z"/>
			<path class="st408" d="M102.984,57.506c7.606,0,13.771,6.166,13.771,13.771c0,7.606-6.165,13.772-13.771,13.772
				c-7.605,0-13.771-6.165-13.771-13.772C89.213,63.672,95.379,57.506,102.984,57.506z"/>
			<path class="st409" d="M102.99,57.514c7.606,0,13.771,6.166,13.771,13.771c0,7.606-6.165,13.772-13.771,13.772
				c-7.605,0-13.771-6.165-13.771-13.772C89.22,63.68,95.385,57.514,102.99,57.514z"/>
			<path class="st410" d="M102.997,57.522c7.606,0,13.771,6.166,13.771,13.771c0,7.606-6.165,13.772-13.771,13.772
				c-7.605,0-13.771-6.165-13.771-13.772C89.226,63.688,95.392,57.522,102.997,57.522z"/>
			<path class="st411" d="M103.003,57.53c7.606,0,13.771,6.166,13.771,13.771c0,7.606-6.165,13.771-13.771,13.771
				c-7.605,0-13.771-6.165-13.771-13.771C89.233,63.696,95.398,57.53,103.003,57.53z"/>
			<path class="st412" d="M103.01,57.538c7.606,0,13.771,6.166,13.771,13.771c0,7.606-6.165,13.771-13.771,13.771
				c-7.605,0-13.771-6.165-13.771-13.771C89.239,63.704,95.405,57.538,103.01,57.538z"/>
			<path class="st413" d="M103.016,57.546c7.606,0,13.771,6.166,13.771,13.771c0,7.606-6.165,13.771-13.771,13.771
				c-7.605,0-13.771-6.165-13.771-13.771C89.246,63.712,95.412,57.546,103.016,57.546z"/>
			<path class="st414" d="M116.795,71.325c0,7.606-6.165,13.771-13.771,13.771c-7.605,0-13.771-6.165-13.771-13.771
				c0-7.605,6.166-13.771,13.771-13.771C110.63,57.554,116.795,63.72,116.795,71.325z"/>
		</g>
	</g>
</g>
<g>
	<path d="M177.022,55.863c0-0.454-0.312-0.702-0.861-0.702h-0.73v2.275h0.543v-0.882l0.637,0.882h0.663l-0.748-0.938
		C176.845,56.412,177.022,56.179,177.022,55.863z M176.065,56.174h-0.092v-0.595h0.098c0.269,0,0.408,0.097,0.408,0.292
		C176.479,56.073,176.338,56.174,176.065,56.174z"/>
	<path d="M176.27,54.312c-1.104,0-1.981,0.881-1.981,1.983c0,1.101,0.887,1.984,1.981,1.984c1.076,0,1.958-0.892,1.958-1.984
		C178.228,55.209,177.346,54.312,176.27,54.312z M176.262,57.924c-0.869,0-1.58-0.724-1.58-1.626c0-0.906,0.702-1.629,1.58-1.629
		c0.865,0,1.57,0.74,1.57,1.629C177.833,57.192,177.128,57.924,176.262,57.924z"/>
</g>
</svg>
