<?xml version="1.0" encoding="utf-8"?>
<!-- Generator: Adobe Illustrator 23.0.2, SVG Export Plug-In . SVG Version: 6.00 Build 0)  -->
<svg version="1.1" id="Capa_1" xmlns="http://www.w3.org/2000/svg" xmlns:xlink="http://www.w3.org/1999/xlink" x="0px" y="0px"
	 viewBox="0 0 42.657 42.657" style="enable-background:new 0 0 42.657 42.657;" xml:space="preserve">
<style type="text/css">
	.st0{fill:#FFFFFF;}
	.st1{fill:#343434;}
	.st2{fill:none;stroke:#FFFFFF;stroke-width:1.6;stroke-linecap:round;stroke-miterlimit:10;}
	.st3{fill:none;stroke:#FFFFFF;stroke-width:1.6;stroke-miterlimit:10;}
	.st4{fill:#00ABFF;}
</style>
<path class="st0" d="M33.379,14.796c-2.403-4.424-7.02-7.172-12.051-7.172c-0.436,0-0.791,0.354-0.791,0.791
	c0,0.436,0.354,0.791,0.791,0.791c4.449,0,8.534,2.431,10.66,6.345c0.138,0.255,0.405,0.414,0.696,0.414
	c0.131,0,0.262-0.033,0.377-0.096c0.186-0.101,0.321-0.268,0.381-0.471S33.48,14.981,33.379,14.796z M33.934,8.723
	c-3.367-3.367-7.844-5.221-12.606-5.221c-4.762,0-9.238,1.854-12.606,5.221c-3.367,3.367-5.221,7.844-5.221,12.606
	c0,4.762,1.854,9.239,5.221,12.606c3.368,3.367,7.844,5.221,12.606,5.221c4.762,0,9.238-1.854,12.606-5.221
	c3.367-3.367,5.221-7.844,5.221-12.606C39.155,16.567,37.301,12.09,33.934,8.723z M32.815,32.815
	c-3.068,3.068-7.148,4.758-11.487,4.758c-4.339,0-8.419-1.69-11.487-4.758c-3.068-3.069-4.759-7.148-4.759-11.487
	c0-4.339,1.69-8.418,4.759-11.487c3.068-3.068,7.147-4.758,11.487-4.758c4.339,0,8.418,1.69,11.487,4.758
	c3.068,3.068,4.758,7.148,4.758,11.487C37.573,25.668,35.883,29.747,32.815,32.815z M25.463,21.66
	c1.035-0.584,1.595-1.752,1.402-2.924c-0.24-1.81-2.397-2.493-4.099-2.637v-2.72h-1.678v2.696h-1.126v-2.696h-1.678v2.696h-3.38
	v1.738h1.258c0.563,0,0.839,0.168,0.839,0.623v7.466c0,0.623-0.312,0.815-0.647,0.815h-1.282v1.774h3.26v2.756h1.69v-2.756h1.126
	v2.756h1.642v-2.756h0.36c3.451,0,4.602-1.69,4.602-3.991C27.725,23.144,26.784,21.976,25.463,21.66z M19.962,17.921h1.198
	c0.839,0,2.493,0.144,2.493,1.51c0.058,0.892-0.588,1.673-1.474,1.786h-2.217V17.921z M21.82,26.549v-0.012h-1.858v-3.595h2.157
	c0.503,0,2.397,0.168,2.397,1.51C24.516,25.794,23.618,26.549,21.82,26.549z"/>
</svg>
