<svg xmlns="http://www.w3.org/2000/svg" width="32" height="32" viewBox="0 0 32 32">
  <g id="buyTube" transform="translate(-5207 3172)">
    <path id="Trazado_926" data-name="Trazado 926" d="M22.958,9.412H8.9a.1.1,0,0,0-.1.1v2.181a.1.1,0,0,0,.1.1h5.84v3.563H11.182v1.187h3.562v1.187H11.182V18.91h3.562v7a.1.1,0,0,0,.1.1h2.181a.1.1,0,0,0,.1-.1v-7H20.68V17.722H17.118V16.535H20.68V15.348H17.118V11.786h5.84a.1.1,0,0,0,.1-.1V9.508A.1.1,0,0,0,22.958,9.412Z" transform="translate(5206.733 -3172.285)" fill="#00abff"/>
    <path id="Trazado_927" data-name="Trazado 927" d="M27.313,4.687A16,16,0,1,0,4.687,27.313,16,16,0,1,0,27.313,4.687Zm-1,21.622A14.579,14.579,0,1,1,5.691,5.69,14.579,14.579,0,1,1,26.309,26.309Z" transform="translate(5207 -3172)" fill="#00abff"/>
  </g>
</svg>
