<svg xmlns="http://www.w3.org/2000/svg" width="15" height="11" viewBox="0 0 15 11">
  <g id="convert" transform="translate(-5003.17 2012.505)">
    <g id="Grupo_1468" data-name="Grupo 1468" transform="translate(5044.293 -1936.625) rotate(90)">
      <g id="Grupo_1181" data-name="Grupo 1181" transform="translate(-75.881 34.389)">
        <path id="Trazado_1004" data-name="Trazado 1004" d="M-64.881,65.083a.374.374,0,0,1-.11.266l-5.136,5.392a.34.34,0,0,1-.253.116.34.34,0,0,1-.253-.116l-5.136-5.392a.374.374,0,0,1-.11-.266.374.374,0,0,1,.11-.266l.551-.579a.341.341,0,0,1,.253-.116.341.341,0,0,1,.253.116l4.332,4.548,4.332-4.548a.341.341,0,0,1,.253-.116.342.342,0,0,1,.254.116l.551.579A.374.374,0,0,1-64.881,65.083Z" transform="translate(75.881 -64.123)" fill="#dfdfdf"/>
      </g>
      <g id="Grupo_1182" data-name="Grupo 1182" transform="translate(-75.881 26.123)">
        <path id="Trazado_1005" data-name="Trazado 1005" d="M-75.881,31.9a.375.375,0,0,1,.11-.266l5.136-5.392a.341.341,0,0,1,.254-.116.34.34,0,0,1,.253.116l5.137,5.392a.374.374,0,0,1,.11.266.374.374,0,0,1-.11.266l-.551.579a.341.341,0,0,1-.254.116.342.342,0,0,1-.253-.116l-4.332-4.548-4.332,4.548a.341.341,0,0,1-.254.116.342.342,0,0,1-.253-.116l-.551-.579A.375.375,0,0,1-75.881,31.9Z" transform="translate(75.881 -26.123)" fill="#dfdfdf"/>
      </g>
    </g>
  </g>
</svg>
