<?xml version="1.0" encoding="utf-8"?>
<!-- Generator: Adobe Illustrator 23.0.3, SVG Export Plug-In . SVG Version: 6.00 Build 0)  -->
<svg version="1.1" xmlns="http://www.w3.org/2000/svg" xmlns:xlink="http://www.w3.org/1999/xlink" x="0px" y="0px" width="140px"
	 height="100px" viewBox="0 0 140 100" enable-background="new 0 0 140 100" xml:space="preserve">
<g id="Capa_1">
	<rect x="7.769" y="4.379" fill="#F6F6F6" width="122.347" height="69.526"/>
	<path fill="#FFFFFF" stroke="#E6E6E6" stroke-miterlimit="10" d="M61.173,69.694H28.677c-1.1,0-1.992-0.892-1.992-1.992V39.354
		c0-1.1,0.892-1.992,1.992-1.992h32.496c1.1,0,1.992,0.892,1.992,1.992v28.347C63.165,68.802,62.273,69.694,61.173,69.694z"/>
	<path fill="#FFFFFF" stroke="#E6E6E6" stroke-miterlimit="10" d="M61.427,33.359H28.423c-0.96,0-1.738-0.778-1.738-1.738V10.49
		c0-0.96,0.778-1.738,1.738-1.738h33.004c0.96,0,1.738,0.778,1.738,1.738V31.62C63.165,32.58,62.387,33.359,61.427,33.359z"/>
	<text transform="matrix(1 0 0 1 35.6967 48.0517)"><tspan x="0" y="0" fill="#373737" font-family="'BrushScriptMT'" font-size="6.5595px">BitTube </tspan><tspan x="2.794" y="7.871" fill="#373737" font-family="'BrushScriptMT'" font-size="6.5595px">0000</tspan><tspan x="-5.137" y="15.743" fill="#373737" font-family="'BrushScriptMT'" font-size="6.5595px">00.00.0000</tspan></text>
	<text transform="matrix(1 0 0 1 39.6194 89.1605)" fill="#00ABFF" font-family="'OpenSans-Semibold'" font-size="10px">Select image</text>
</g>
<g id="BitTube_x5F_Grey">
</g>
<g id="object">
	<g>
		<g>
			<path fill="none" stroke="#373737" stroke-width="1.1544" stroke-linecap="round" stroke-miterlimit="10" d="M36.879,21.1
				c2.239,0,4.06-1.822,4.06-4.062c0-2.24-1.821-4.062-4.06-4.062c-2.239,0-4.061,1.822-4.061,4.062
				C32.818,19.278,34.64,21.1,36.879,21.1z"/>
			<path fill="none" stroke="#373737" stroke-width="1.1544" stroke-linecap="round" stroke-miterlimit="10" d="M42.412,29.134
				v-1.706c0-2.184-1.777-3.962-3.962-3.962h-3.118c-2.185,0-3.962,1.777-3.962,3.962v1.706"/>
		</g>
		<g>
			<path fill="none" stroke="#373737" stroke-width="2.5" stroke-linecap="round" stroke-miterlimit="10" d="M92.581,39.271
				c6.548,0,11.875-5.329,11.875-11.879c0-6.55-5.327-11.88-11.875-11.88c-6.55,0-11.878,5.329-11.878,11.88
				C80.702,33.942,86.031,39.271,92.581,39.271z"/>
			<path fill="none" stroke="#373737" stroke-width="2.5" stroke-linecap="round" stroke-miterlimit="10" d="M108.763,62.77v-4.991
				c0-6.389-5.198-11.586-11.587-11.586h-9.119c-6.389,0-11.587,5.197-11.587,11.586v4.991"/>
		</g>
		
			<line fill="none" stroke="#373737" stroke-width="1.1544" stroke-linecap="round" stroke-miterlimit="10" x1="47.399" y1="15.058" x2="58.937" y2="15.058"/>
		
			<line fill="none" stroke="#373737" stroke-width="1.1544" stroke-linecap="round" stroke-miterlimit="10" x1="50.888" y1="20.283" x2="58.937" y2="20.283"/>
		
			<line fill="none" stroke="#373737" stroke-width="1.1544" stroke-linecap="round" stroke-miterlimit="10" x1="50.888" y1="23.787" x2="58.937" y2="23.787"/>
		
			<line fill="none" stroke="#373737" stroke-width="1.1544" stroke-linecap="round" stroke-miterlimit="10" x1="49.288" y1="26.926" x2="58.937" y2="26.926"/>
	</g>
</g>
<g id="OBJECTS">
</g>
</svg>
