<svg xmlns="http://www.w3.org/2000/svg" width="19.146" height="14.429" viewBox="0 0 19.146 14.429">
  <g id="Símbolo_13_1" data-name="Símbolo 13 – 1" transform="translate(-301.156 -197.132)">
    <g id="Grupo_1872" data-name="Grupo 1872" transform="translate(301.156 197.132)">
      <path id="Trazado_1737" data-name="Trazado 1737" d="M277.505,250.613h-.867V238.036a1.063,1.063,0,0,0-1.062-1.062h-1.936a1.063,1.063,0,0,0-1.062,1.062v12.577h-2.2v-6.878a1.063,1.063,0,0,0-1.062-1.062h-1.936a1.063,1.063,0,0,0-1.062,1.062v6.878h-2.2v-3.562a1.063,1.063,0,0,0-1.062-1.062h-1.937a1.063,1.063,0,0,0-1.062,1.062v3.562h-.913a.4.4,0,1,0,0,.79h18.357a.4.4,0,0,0,0-.79Zm-14.175,0h-2.48v-3.562a.272.272,0,0,1,.272-.272h1.936a.272.272,0,0,1,.272.272v3.562Zm6.259,0h-2.48v-6.878a.272.272,0,0,1,.271-.272h1.937a.272.272,0,0,1,.272.272Zm6.259,0h-2.48V238.036a.272.272,0,0,1,.272-.271h1.936a.272.272,0,0,1,.272.271v12.577Z" transform="translate(-258.753 -236.974)" fill="#00a2f0"/>
    </g>
  </g>
</svg>
