<svg xmlns="http://www.w3.org/2000/svg" width="10.512" height="13.954" viewBox="0 0 10.512 13.954">
  <g id="Símbolo_12_1" data-name="Símbolo 12 – 1" transform="translate(-274.466 -198.132)">
    <g id="Grupo_1868" data-name="Grupo 1868" transform="translate(274.466 198.132)">
      <path id="Trazado_1733" data-name="Trazado 1733" d="M240.75,245.2a.27.27,0,0,0-.269.269v8.154a.269.269,0,1,0,.539,0v-8.154A.27.27,0,0,0,240.75,245.2Z" transform="translate(-237.403 -241.441)" fill="#e33441"/>
      <path id="Trazado_1734" data-name="Trazado 1734" d="M242.387,245.2a.27.27,0,0,0-.269.269v8.154a.269.269,0,0,0,.539,0v-8.154A.27.27,0,0,0,242.387,245.2Z" transform="translate(-237.131 -241.441)" fill="#e33441"/>
      <path id="Trazado_1735" data-name="Trazado 1735" d="M243.889,245.466v8.154a.27.27,0,0,0,.54,0v-8.154a.27.27,0,0,0-.54,0Z" transform="translate(-236.836 -241.441)" fill="#e33441"/>
      <path id="Trazado_1736" data-name="Trazado 1736" d="M248.085,243.9H245.7v-.126a1.8,1.8,0,0,0-1.8-1.8H242.2a1.8,1.8,0,0,0-1.8,1.8v.126h-2.292a.27.27,0,0,0-.269.269v9.964a1.8,1.8,0,0,0,1.8,1.8h6.916a1.8,1.8,0,0,0,1.8-1.8V244.17A.269.269,0,0,0,248.085,243.9Zm-7.143-.126a1.26,1.26,0,0,1,1.258-1.258h1.705a1.262,1.262,0,0,1,1.26,1.258v.126h-4.223Zm6.873,10.359a1.26,1.26,0,0,1-1.258,1.258H239.64a1.26,1.26,0,0,1-1.258-1.258v-9.694h9.433v9.694Z" transform="translate(-237.842 -241.977)" fill="#e33441"/>
    </g>
  </g>
</svg>
