<?xml version="1.0" encoding="UTF-8"?>
<svg width="20px" height="20px" viewBox="0 0 20 20" version="1.1" xmlns="http://www.w3.org/2000/svg" xmlns:xlink="http://www.w3.org/1999/xlink">
    <!-- Generator: sketchtool 52.3 (67297) - http://www.bohemiancoding.com/sketch -->
    <title>8E3183CE-21C0-49C7-A729-0C43B1BBF492</title>
    <desc>Created with sketchtool.</desc>
    <g id="Page-1" stroke="none" stroke-width="1" fill="none" fill-rule="evenodd">
        <g id="ic" transform="translate(-25.000000, -84.000000)" fill="#FFFFFF" fill-rule="nonzero">
            <g id="ic-safecheck" transform="translate(25.000000, 84.000000)">
                <path d="M10,20 C4.4771525,20 0,15.5228475 0,10 C0,4.4771525 4.4771525,0 10,0 C15.5228475,0 20,4.4771525 20,10 C20,15.5228475 15.5228475,20 10,20 Z M10,18 C14.418278,18 18,14.418278 18,10 C18,5.581722 14.418278,2 10,2 C5.581722,2 2,5.581722 2,10 C2,14.418278 5.581722,18 10,18 Z" id="Oval"></path>
                <polygon id="Path-5" points="12.9409163 6.38497449 14.4122268 7.73968687 8.9357023 13.6875675 5.40851455 9.4849013 6.94047204 8.19916949 9.00525542 10.6593718"></polygon>
            </g>
        </g>
    </g>
</svg>