<?xml version="1.0" encoding="UTF-8"?>
<svg width="14px" height="14px" viewBox="0 0 14 14" version="1.1" xmlns="http://www.w3.org/2000/svg" xmlns:xlink="http://www.w3.org/1999/xlink">
    <!-- Generator: sketchtool 52.3 (67297) - http://www.bohemiancoding.com/sketch -->
    <title>77DDABB1-E435-4C9A-B30D-71C855CF58D6</title>
    <desc>Created with sketchtool.</desc>
    <defs>
        <polygon id="path-1" points="0.0186666667 0.192266667 13.7728889 0.192266667 13.7728889 13.6888889 0.0186666667 13.6888889"></polygon>
    </defs>
    <g id="Page-1" stroke="none" stroke-width="1" fill="none" fill-rule="evenodd">
        <g id="ic" transform="translate(-24.000000, -57.000000)">
            <g id="ic-setting" transform="translate(24.000000, 57.000000)">
                <mask id="mask-2" fill="white">
                    <use xlink:href="#path-1"></use>
                </mask>
                <g id="Clip-2"></g>
                <path d="M11.8853778,5.22697778 L11.6508,4.67164444 C12.4540889,2.856 12.4005778,2.80124444 12.2450222,2.64351111 L11.2183556,1.64204444 L11.116,1.55555556 L10.9971556,1.55555556 C10.9349333,1.55555556 10.7479556,1.55555556 9.18742222,2.26302222 L8.61404444,2.03217778 C7.87142222,0.192266667 7.79613333,0.192266667 7.57835556,0.192266667 L6.13106667,0.192266667 C5.9136,0.192266667 5.8296,0.192266667 5.14173333,2.03808889 L4.5696,2.27017778 C3.51586667,1.8256 2.89706667,1.59942222 2.73062222,1.59942222 L2.59342222,1.6044 L1.48991111,2.68582222 C1.32222222,2.84386667 1.26373333,2.89986667 2.11337778,4.68626667 L1.8788,5.2416 C0,5.96711111 0,6.03773333 0,6.26017778 L0,7.67946667 C0,7.90191111 0,7.98093333 1.88595556,8.65666667 L2.11928889,9.20951111 C1.316,11.0239111 1.36951111,11.0786667 1.52631111,11.2342222 L2.55204444,12.2391111 L2.65408889,12.3268444 L2.77324444,12.3268444 C2.83515556,12.3268444 3.01995556,12.3268444 4.58266667,11.6168889 L5.15511111,11.8502222 C5.89773333,13.6888889 5.97426667,13.6888889 6.19173333,13.6888889 L7.63933333,13.6888889 C7.86177778,13.6888889 7.93955556,13.6888889 8.6296,11.8443111 L9.20453333,11.6109778 C10.2570222,12.0568 10.8742667,12.2829778 11.0394667,12.2829778 L11.1782222,12.2792444 L12.2901333,11.1891111 C12.4481778,11.0301333 12.5038667,10.9753778 11.6595111,9.19488889 L11.8916,8.6408 C13.7728889,7.9128 13.7728889,7.83626667 13.7728889,7.62004444 L13.7728889,6.20168889 C13.7728889,5.978 13.7728889,5.90022222 11.8853778,5.22697778 Z M6.88582222,9.30191111 C5.55862222,9.30191111 4.47844444,8.24226667 4.47844444,6.93933333 C4.47844444,5.63795556 5.55862222,4.57924444 6.88582222,4.57924444 C8.21271111,4.57924444 9.29195556,5.63795556 9.29195556,6.93933333 C9.29195556,8.24226667 8.21271111,9.30191111 6.88582222,9.30191111 Z" id="Fill-1" fill="#ADB5BD" mask="url(#mask-2)"></path>
            </g>
        </g>
    </g>
</svg>