<?xml version="1.0" encoding="UTF-8"?>
<svg width="40px" height="40px" viewBox="0 0 40 40" version="1.1" xmlns="http://www.w3.org/2000/svg" xmlns:xlink="http://www.w3.org/1999/xlink">
    <!-- Generator: sketchtool 50.2 (55047) - http://www.bohemiancoding.com/sketch -->
    <title>8E169DC4-1403-46E4-8F5C-495B5DA620F3</title>
    <desc>Created with sketchtool.</desc>
    <defs></defs>
    <g id="Page-1" stroke="none" stroke-width="1" fill="none" fill-rule="evenodd">
        <g id="extension-icon-set" transform="translate(-75.000000, -207.000000)">
            <g id="Group-5" transform="translate(75.000000, 207.000000)">
                <rect id="Rectangle-2" x="0" y="0" width="40" height="40"></rect>
                <g id="Group-4" transform="translate(0.000000, 4.000000)" fill="#F03E3E">
                    <path d="M21.6535273,2.87853028 C21.5110818,2.66830048 21.3299029,2.48712159 21.1196731,2.34467616 C20.2052434,1.72508593 18.9616745,1.96410056 18.3420843,2.87853028 L2.34427852,26.489085 C2.11992286,26.820203 2,27.2109841 2,27.6109524 C2,28.7155219 2.8954305,29.6109524 4,29.6109524 L35.9956116,29.6109524 C36.3955798,29.6109524 36.7863609,29.4910295 37.1174789,29.2666739 C38.0319086,28.6470836 38.2709233,27.4035147 37.651333,26.489085 L21.6535273,2.87853028 Z M23.3092487,1.75666292 L39.3070545,25.3672177 C40.546235,27.1960771 40.0682057,29.6832149 38.2393463,30.9223953 C37.5771103,31.3711066 36.795548,31.6109524 35.9956116,31.6109524 L4,31.6109524 C1.790861,31.6109524 0,29.8200914 0,27.6109524 C0,26.8110159 0.239845727,26.0294537 0.688557035,25.3672177 L16.6863628,1.75666292 C17.9255433,-0.0721965269 20.412681,-0.550225791 22.2415405,0.688954677 C22.6620001,0.973845536 23.0243579,1.33620331 23.3092487,1.75666292 Z" id="Triangle" fill-rule="nonzero"></path>
                    <path d="M20,20.9158879 C19.7383164,20.9158879 19.5171349,20.8286613 19.3364486,20.6542056 C19.1557623,20.4797499 19.0404987,20.2305312 18.9906542,19.9065421 L18.0186916,14.0934579 C18.0062305,14.0186912 18,13.9190037 18,13.7943925 C18,13.2336421 18.1900293,12.7943941 18.5700935,12.4766355 C18.9501577,12.1588769 19.4267884,12 20,12 C20.5856727,12 21.0654187,12.1619921 21.4392523,12.4859813 C21.813086,12.8099705 22,13.2523336 22,13.8130841 C22,13.9376953 21.9937695,14.0373828 21.9813084,14.1121495 L20.9906542,19.9065421 C20.9532708,20.2305312 20.8442377,20.4797499 20.6635514,20.6542056 C20.4828651,20.8286613 20.2616836,20.9158879 20,20.9158879 Z M20,25.3831776 C19.4766329,25.3831776 19.0436154,25.2087245 18.7009346,24.8598131 C18.3582537,24.5109017 18.1869159,24.0809994 18.1869159,23.5700935 C18.1869159,23.0591875 18.3582537,22.6292852 18.7009346,22.2803738 C19.0436154,21.9314624 19.4766329,21.7570093 20,21.7570093 C20.510906,21.7570093 20.937693,21.9314624 21.2803738,22.2803738 C21.6230547,22.6292852 21.7943925,23.0591875 21.7943925,23.5700935 C21.7943925,24.0809994 21.6230547,24.5109017 21.2803738,24.8598131 C20.937693,25.2087245 20.510906,25.3831776 20,25.3831776 Z" id="!"></path>
                </g>
            </g>
        </g>
    </g>
</svg>