<?xml version="1.0" encoding="UTF-8"?>
<svg width="221px" height="16px" viewBox="0 0 221 16" version="1.1" xmlns="http://www.w3.org/2000/svg" xmlns:xlink="http://www.w3.org/1999/xlink">
    <!-- Generator: sketchtool 52.3 (67297) - http://www.bohemiancoding.com/sketch -->
    <title>064DE782-E760-425E-9520-EEBA905B28C9</title>
    <desc>Created with sketchtool.</desc>
    <defs>
        <polygon id="path-1" points="0 0.0456549407 16.8674475 0.0456549407 16.8674475 15.2183136 0 15.2183136"></polygon>
    </defs>
    <g id="Page-1" stroke="none" stroke-width="1" fill="none" fill-rule="evenodd">
        <g id="ic" transform="translate(-24.000000, -24.000000)">
            <g id="logo-uppward-updated" transform="translate(24.000000, 24.000000)">
                <rect id="Rectangle-22" fill-rule="nonzero" x="-5.68434189e-14" y="0" width="231.448931" height="15.8355599"></rect>
                <path d="M31.646325,0.786201492 L31.646325,8.151397 C31.646325,9.92116981 31.533167,11.2170677 31.307551,12.0372178 C31.0828682,12.8580702 30.6097044,13.436132 29.888293,13.7721055 C29.1666483,14.1080791 28.0082371,14.2759488 26.4114261,14.2759488 C24.8150818,14.2759488 23.6559706,14.1080791 22.9352592,13.7721055 C22.2136145,13.436132 21.7374176,12.8580702 21.5057354,12.0372178 C21.2738198,11.2170677 21.1583287,9.92116981 21.1583287,8.151397 L21.1583287,0.786201492 L23.9011852,0.786201492 L23.9011852,8.84862989 C23.9011852,9.8439076 23.9459817,10.534819 24.0362748,10.922769 C24.1258679,11.3100165 24.338185,11.5750493 24.6736926,11.7176332 C25.0078004,11.8597488 25.5875893,11.9306896 26.4114261,11.9306896 C27.2480954,11.9306896 27.831384,11.8597488 28.1601255,11.7176332 C28.4877004,11.5750493 28.6937179,11.3100165 28.7777115,10.922769 C28.8610051,10.534819 28.9034685,9.8439076 28.9034685,8.84862989 L28.9034685,0.786201492 L31.646325,0.786201492 Z" id="Fill-1" fill="#000000"></path>
                <path d="M39.6806827,7.29811787 C40.4531901,7.29811787 41.0073143,7.24684386 41.342122,7.14359345 C41.6769297,7.04010892 41.895313,6.84929468 41.9984384,6.57161899 C42.1013305,6.29417743 42.1531265,5.84465186 42.1531265,5.2249153 C42.1531265,4.60400811 42.1052969,4.15846272 42.0087043,3.88734261 C41.9118784,3.61575424 41.6988614,3.42821779 41.3710531,3.32473326 C41.042545,3.22171698 40.4916872,3.17020884 39.7191797,3.17020884 L37.479118,3.17020884 L37.479118,7.29811787 L39.6806827,7.29811787 Z M34.7364949,0.786318556 L40.8586924,0.786318556 C41.9660075,0.786318556 42.8162091,0.960509714 43.4083637,1.30912616 C44.0009849,1.65844499 44.4001877,2.14917707 44.6059719,2.78225891 C44.8117561,3.41557489 44.9148816,4.2296376 44.9148816,5.2249153 C44.9148816,6.1806254 44.8150226,6.97548962 44.6153045,7.60810321 C44.4158198,8.24118505 44.0133507,8.74526243 43.4083637,9.11986707 C42.8031434,9.49540822 41.93381,9.68224229 40.8015301,9.68224229 L37.479118,9.68224229 L37.479118,14.120839 L34.7364949,14.120839 L34.7364949,0.786318556 Z" id="Fill-3" fill="#000000"></path>
                <path d="M52.2348273,7.29811787 C53.0073348,7.29811787 53.561459,7.24684386 53.8962667,7.14359345 C54.2310744,7.04010892 54.4494576,6.84929468 54.5525831,6.57161899 C54.6554752,6.29417743 54.7072712,5.84465186 54.7072712,5.2249153 C54.7072712,4.60400811 54.6594415,4.15846272 54.5628489,3.88734261 C54.466023,3.61575424 54.253006,3.42821779 53.9251978,3.32473326 C53.5966896,3.22171698 53.0460652,3.17020884 52.2733244,3.17020884 L50.0332627,3.17020884 L50.0332627,7.29811787 L52.2348273,7.29811787 Z M47.2906395,0.786318556 L53.4128371,0.786318556 C54.5201522,0.786318556 55.3703537,0.960509714 55.9625084,1.30912616 C56.5551296,1.65844499 56.9543324,2.14917707 57.1601166,2.78225891 C57.3659008,3.41557489 57.4690262,4.2296376 57.4690262,5.2249153 C57.4690262,6.1806254 57.3691672,6.97548962 57.1694492,7.60810321 C56.9699645,8.24118505 56.5674953,8.74526243 55.9625084,9.11986707 C55.3572881,9.49540822 54.4879547,9.68224229 53.3554415,9.68224229 L50.0332627,9.68224229 L50.0332627,14.120839 L47.2906395,14.120839 L47.2906395,0.786318556 Z" id="Fill-5" fill="#000000"></path>
                <polygon id="Fill-7" fill="#000000" points="70.2935369 14.1207454 67.8789552 5.20515491 67.8019611 5.20515491 65.3878461 14.1207454 61.9501762 14.1207454 58.6856264 0.786224905 61.4480813 0.786224905 63.8043341 10.7486012 63.9009267 10.7486012 66.4690299 0.786224905 69.3087123 0.786224905 71.9351444 10.7486012 72.031737 10.7486012 74.2538334 0.786224905 76.9957566 0.786224905 73.7316734 14.1207454"></polygon>
                <path d="M83.0613985,3.38333547 L82.9648059,3.38333547 L81.1682769,8.84858307 L84.876826,8.84858307 L83.0613985,3.38333547 Z M86.5758292,14.1206751 L85.6108364,11.2523742 L80.4340331,11.2523742 L79.487939,14.1206751 L76.7261839,14.1206751 L81.2263724,0.786154666 L84.9153231,0.786154666 L89.4152783,14.1206751 L86.5758292,14.1206751 Z" id="Fill-9" fill="#000000"></path>
                <path d="M98.097483,6.75554987 C98.4385901,6.65229947 98.6576734,6.47483052 98.754266,6.22244064 C98.8510919,5.97075315 98.8991549,5.57320397 98.8991549,5.03072962 C98.8991549,4.47561237 98.8510919,4.07501953 98.754266,3.82895111 C98.6576734,3.58358507 98.4455896,3.41243757 98.1170814,3.31550862 C97.7885733,3.21857967 97.244715,3.17034932 96.4848065,3.17034932 L94.0515597,3.17034932 L94.0515597,6.91077667 L96.465908,6.91077667 C97.2125174,6.91077667 97.7563758,6.85880028 98.097483,6.75554987 Z M98.9957475,14.1207454 L97.0449969,9.29513521 L94.0515597,9.29513521 L94.0515597,14.1207454 L91.3087032,14.1207454 L91.3087032,0.786224905 L97.5662237,0.786224905 C98.7120359,0.786224905 99.5851023,0.9573724 100.18309,1.29966739 C100.782011,1.64196238 101.181447,2.11349598 101.380931,2.7145023 C101.580649,3.31550862 101.680275,4.08742831 101.680275,5.03072962 C101.680275,7.13717835 101.049157,8.43541756 99.7878534,8.9266179 L101.912424,14.1207454 L98.9957475,14.1207454 Z" id="Fill-11" fill="#000000"></path>
                <path d="M108.806989,11.7367146 C109.978233,11.7367146 110.764039,11.6720953 111.163242,11.5426226 C111.561745,11.4140864 111.816292,11.0844343 111.926183,10.5543687 C112.035608,10.0245373 112.089737,8.99133085 112.089737,7.4535788 C112.089737,5.9289379 112.032342,4.89830688 111.916151,4.36191986 C111.80066,3.82576697 111.545879,3.49283709 111.153909,3.36336436 C110.760773,3.23482815 109.978233,3.17020884 108.806989,3.17020884 L107.165381,3.17020884 L107.165381,11.7367146 L108.806989,11.7367146 Z M104.422525,0.786318556 L108.942312,0.786318556 C110.847333,0.786318556 112.209195,0.977132795 113.026499,1.35805889 C113.844736,1.73898499 114.356397,2.35567788 114.562181,3.20883995 C114.768199,4.06153376 114.871091,5.47636867 114.871091,7.4535788 C114.871091,9.43055479 114.768199,10.8453897 114.562181,11.6980835 C114.356397,12.5505432 113.844736,13.1679385 113.026499,13.5488646 C112.209195,13.9297907 110.847333,14.120839 108.942312,14.120839 L104.422525,14.120839 L104.422525,0.786318556 Z" id="Fill-13" fill="#000000"></path>
                <g id="Group-17" transform="translate(0.000000, 0.188590)">
                    <mask id="mask-2" fill="white">
                        <use xlink:href="#path-1"></use>
                    </mask>
                    <g id="Clip-16"></g>
                    <path d="M14.4577655,8.41598495 L12.1659077,12.424957 C12.2179371,12.5389773 12.245235,12.657446 12.245235,12.7784901 C12.245235,13.254238 11.8609644,13.6419538 11.3903672,13.6419538 C11.1106219,13.6419538 10.8542083,13.5063938 10.6941539,13.2760119 L6.22336311,13.2760119 C6.06330871,13.5063938 5.80782829,13.6419538 5.52901632,13.6419538 C5.05678584,13.6419538 4.67298192,13.254238 4.67298192,12.7784901 C4.67298192,12.6675135 4.69514689,12.5588782 4.73994345,12.4532865 L2.43478676,8.42090163 C2.01411899,8.36494506 1.69214367,8.00040792 1.69214367,7.56914433 C1.69214367,7.11001951 2.048883,6.73260534 2.4973153,6.70638301 L4.73271067,2.79808596 C4.69351368,2.69460143 4.67298192,2.58924387 4.67298192,2.48575934 C4.67298192,2.0104797 5.05678584,1.62182738 5.52901632,1.62182738 C5.79756241,1.62182738 6.04674331,1.74872471 6.20913087,1.96224935 L10.7104859,1.96224935 C10.871007,1.74872471 11.1215878,1.62182738 11.3903672,1.62182738 C11.8609644,1.62182738 12.245235,2.0104797 12.245235,2.48575934 C12.245235,2.5995455 12.2195703,2.71637532 12.1724406,2.8252448 L14.3936037,6.70942667 C14.8301369,6.74852603 15.1752105,7.12196004 15.1752105,7.56914433 C15.1752105,7.99385234 14.8705005,8.34902437 14.4577655,8.41598495 M16.6581635,6.84217719 L13.2228268,0.836562403 C12.9440148,0.347000962 12.4274544,0.0454442256 11.8688972,0.0454442256 L4.99915692,0.0454442256 C4.44083304,0.0454442256 3.92427262,0.347000962 3.64499402,0.836562403 L0.209890583,6.84217719 C-0.0700879626,7.33150451 -0.0700879626,7.93414973 0.209890583,8.42090163 L3.64499402,14.4283894 C3.92427262,14.9177168 4.44083304,15.218337 4.99915692,15.218337 L11.8688972,15.218337 C12.4274544,15.218337 12.9440148,14.9177168 13.2228268,14.4283894 L16.6581635,8.42090163 C16.9372088,7.93414973 16.9372088,7.33150451 16.6581635,6.84217719" id="Fill-15" fill="#18A3C2" mask="url(#mask-2)"></path>
                </g>
                <path d="M12.2657434,4.6312606 L6.88362252,7.68124477 C6.88432247,7.68662971 6.88432247,7.69201465 6.88432247,7.69693134 C6.88432247,8.17384987 6.50075186,8.5617998 6.03015459,8.5617998 C5.55769079,8.5617998 5.17505344,8.17384987 5.17505344,7.69693134 C5.17505344,7.22141757 5.55769079,6.8348724 6.03015459,6.8348724 C6.22683951,6.8348724 6.41512509,6.90230124 6.56654682,7.02662316 L11.9062043,4.00028591 L11.6215595,3.50393476 C11.5457319,3.52547452 11.4675713,3.53718092 11.3903438,3.53718092 C10.9946408,3.53718092 10.6551668,3.26020761 10.5623073,2.878345 L6.35539633,2.878345 C6.26347004,3.26020761 5.92142958,3.53718092 5.5292263,3.53718092 C5.44266627,3.53718092 5.35563961,3.52406975 5.2725793,3.49737917 L3.17087369,7.17014356 C3.32066221,7.33192594 3.40232262,7.53795849 3.40232262,7.75780459 C3.40232262,7.99544441 3.30596334,8.21716353 3.13587637,8.38011655 L4.74038675,11.1887149 L10.2449983,7.9701586 C10.2426651,7.94487278 10.2410319,7.91935284 10.2410319,7.89336464 C10.2410319,7.41644611 10.6253025,7.02896443 11.0958997,7.02896443 C11.5676636,7.02896443 11.949601,7.41644611 11.949601,7.89336464 C11.949601,8.36887841 11.5676636,8.7556577 11.0958997,8.7556577 C10.9199799,8.7556577 10.7524594,8.70134003 10.6080371,8.59855788 L5.09992587,11.81688 L5.28494502,12.1406789 C5.36357233,12.1158613 5.44476611,12.1043891 5.5292263,12.1043891 C5.91746322,12.1043891 6.25040438,12.3652076 6.35073002,12.7374709 L10.5669736,12.7374709 C10.6861978,12.2949692 11.1514288,12.0062895 11.6084938,12.1355281 L13.74613,8.39416423 C13.5688102,8.23238185 13.4656848,8.00059522 13.4656848,7.75780459 C13.4656848,7.53280768 13.5536447,7.31787826 13.7101994,7.15796891 L12.2657434,4.6312606 Z" id="Fill-18" fill="#18A3C2"></path>
                <path d="M120.786223,13.8313028 L120.786223,7.62068966 L121.540045,7.62068966 L121.540045,10.1757688 C121.71692,9.97057438 121.919762,9.80543753 122.148577,9.68035327 C122.377392,9.55526901 122.639191,9.49272782 122.933984,9.49272782 C123.181047,9.49272782 123.404244,9.53910668 123.603579,9.63186579 C123.802915,9.72462491 123.972769,9.86305878 124.113146,10.0471716 C124.253523,10.2312843 124.361612,10.4589624 124.437416,10.7302125 C124.513219,11.0014626 124.551121,11.3141686 124.551121,11.6683397 C124.551121,11.9831585 124.509008,12.2761886 124.424782,12.5474387 C124.340556,12.8186889 124.219131,13.053394 124.060505,13.2515612 C123.901879,13.4497284 123.708161,13.60573 123.479346,13.7195708 C123.250531,13.8334115 122.992943,13.890331 122.706574,13.890331 C122.431434,13.890331 122.19771,13.836925 122.005393,13.7301115 C121.813076,13.623298 121.645328,13.4743235 121.502143,13.2831835 L121.464242,13.6710833 C121.441781,13.7778968 121.377209,13.8313028 121.270522,13.8313028 L120.786223,13.8313028 Z M122.689728,10.0914427 C122.445472,10.0914427 122.2314,10.1476595 122.047506,10.2600948 C121.863612,10.3725301 121.69446,10.5313426 121.540045,10.736537 L121.540045,12.802525 C121.674807,12.9880433 121.824307,13.1187473 121.988548,13.1946411 C122.152789,13.270535 122.335979,13.3084813 122.538122,13.3084813 C122.936793,13.3084813 123.242811,13.1665339 123.456184,12.8826348 C123.669557,12.5987357 123.776243,12.1939747 123.776243,11.6683397 C123.776243,11.3900624 123.751677,11.151141 123.702545,10.9515684 C123.653413,10.7519957 123.582523,10.5882643 123.489874,10.4603692 C123.397226,10.332474 123.283522,10.2390136 123.14876,10.1799851 C123.013997,10.1209566 122.860989,10.0914427 122.689728,10.0914427 Z M126.719937,15.0919771 C126.69467,15.1481948 126.663085,15.1931682 126.625183,15.2268988 C126.587282,15.2606294 126.529026,15.2774944 126.450415,15.2774944 L125.894524,15.2774944 L126.673613,13.5825409 L124.913292,9.56018866 L125.561831,9.56018866 C125.626405,9.56018866 125.67694,9.57635099 125.713438,9.60867613 C125.749936,9.64100128 125.776607,9.67683949 125.793453,9.71619184 L126.934714,12.4061926 C126.959981,12.468032 126.98174,12.5298705 126.999989,12.5917099 C127.018238,12.6535493 127.034381,12.7167932 127.048418,12.7814435 C127.068071,12.7167932 127.087724,12.6535493 127.107377,12.5917099 C127.127029,12.5298705 127.149489,12.4666266 127.174757,12.4019763 L128.282328,9.71619184 C128.299173,9.67121772 128.32795,9.63397409 128.368659,9.60445983 C128.409369,9.57494557 128.453587,9.56018866 128.501315,9.56018866 L129.099319,9.56018866 L126.719937,15.0919771 Z M134.670862,8.84341729 C134.639979,8.90525669 134.604183,8.94882471 134.563474,8.97412265 C134.522764,8.99942059 134.474335,9.01206937 134.418184,9.01206937 C134.362033,9.01206937 134.298865,8.99028536 134.228676,8.94671669 C134.158487,8.90314802 134.075666,8.85466103 133.98021,8.80125426 C133.884753,8.7478475 133.773155,8.69936051 133.645412,8.65579184 C133.517668,8.61222317 133.366765,8.59043916 133.192697,8.59043916 C133.035475,8.59043916 132.898609,8.60941233 132.782096,8.64735924 C132.665583,8.68530614 132.567321,8.73800939 132.487306,8.80547057 C132.407291,8.87293174 132.347631,8.95374339 132.308326,9.04790794 C132.26902,9.14207249 132.249367,9.24537087 132.249367,9.35780615 C132.249367,9.50116114 132.289374,9.62062184 132.369389,9.71619184 C132.449404,9.81176183 132.555388,9.89327619 132.687342,9.96073736 C132.819297,10.0281985 132.969498,10.0886316 133.137951,10.1420384 C133.306403,10.1954451 133.478363,10.2523646 133.653834,10.3127986 C133.829306,10.3732326 134.001265,10.4435036 134.169718,10.5236137 C134.33817,10.6037238 134.488372,10.7049141 134.620326,10.8271875 C134.752281,10.9494608 134.858264,11.0991381 134.938279,11.2762236 C135.018294,11.4533092 135.058301,11.6683385 135.058301,11.9213179 C135.058301,12.1967843 135.011275,12.4546789 134.917223,12.6950093 C134.82317,12.9353398 134.685602,13.1447473 134.504516,13.3232383 C134.323429,13.5017294 134.102338,13.6422714 133.841237,13.7448686 C133.580135,13.8474658 133.281136,13.8987636 132.944231,13.8987636 C132.750511,13.8987636 132.5596,13.8797904 132.371495,13.8418435 C132.18339,13.8038966 132.003008,13.7497879 131.830344,13.6795159 C131.65768,13.6092438 131.496248,13.5249186 131.346045,13.4265378 C131.195841,13.3281569 131.061783,13.2185341 130.943866,13.0976662 L131.272347,12.5537632 C131.30323,12.5144109 131.340429,12.4813835 131.383946,12.4546801 C131.427463,12.4279767 131.475893,12.4146252 131.529236,12.4146252 C131.599425,12.4146252 131.675227,12.4434363 131.756646,12.5010594 C131.838065,12.5586825 131.934222,12.6226291 132.04512,12.6929012 C132.156018,12.7631732 132.286566,12.8271198 132.43677,12.8847429 C132.586974,12.942366 132.767356,12.9711771 132.977921,12.9711771 C133.300789,12.9711771 133.550657,12.8945817 133.727532,12.7413886 C133.904407,12.5881956 133.992843,12.3682473 133.992843,12.0815374 C133.992843,11.9213171 133.952837,11.790613 133.872822,11.6894213 C133.792807,11.5882295 133.686823,11.5032016 133.554869,11.434335 C133.422914,11.3654684 133.272713,11.3071434 133.10426,11.2593584 C132.935808,11.2115734 132.76455,11.1595729 132.590482,11.1033553 C132.416415,11.0471376 132.245157,10.9796774 132.076704,10.9009727 C131.908252,10.822268 131.75805,10.7196724 131.626096,10.5931827 C131.494141,10.466693 131.388158,10.3085832 131.308143,10.1188487 C131.228128,9.92911415 131.188121,9.69511172 131.188121,9.41683438 C131.188121,9.19477469 131.232339,8.97834001 131.320777,8.76752385 C131.409215,8.55670768 131.53836,8.36978682 131.708216,8.20675566 C131.878072,8.04372449 132.086529,7.91302043 132.333593,7.81463956 C132.580657,7.71625868 132.862811,7.66706898 133.180064,7.66706898 C133.539429,7.66706898 133.870714,7.72328578 134.173929,7.83572107 C134.477144,7.94815635 134.735434,8.10556339 134.948807,8.30794691 L134.670862,8.84341729 Z M140.047281,7.73452981 L140.047281,8.63681848 L137.347842,8.63681848 L137.347842,10.3275557 L139.474545,10.3275557 L139.474545,11.2003302 L137.347842,11.2003302 L137.347842,12.9247978 L140.047281,12.9247978 L140.047281,13.8313028 L136.206581,13.8313028 L136.206581,7.73452981 L140.047281,7.73452981 Z M141.903059,7.73452981 C141.953594,7.73452981 141.995707,7.73663794 142.029397,7.74085427 C142.063088,7.74507059 142.093269,7.75350311 142.11994,7.76615208 C142.146612,7.77880105 142.172581,7.79707151 142.197849,7.82096401 C142.223117,7.84485651 142.251192,7.87647846 142.282075,7.91583081 L145.478448,11.992995 C145.467218,11.8946141 145.459497,11.7983429 145.455286,11.7041783 C145.451074,11.6100138 145.448969,11.522175 145.448969,11.4406594 L145.448969,7.73452981 L146.447046,7.73452981 L146.447046,13.8313028 L145.861676,13.8313028 C145.771834,13.8313028 145.697435,13.8172486 145.638477,13.7891397 C145.579519,13.7610309 145.521965,13.7104358 145.465814,13.6373529 L142.282075,9.57705387 C142.290498,9.66700209 142.296815,9.75624627 142.301026,9.84478905 C142.305237,9.93333184 142.307343,10.0141435 142.307343,10.0872264 L142.307343,13.8313028 L141.309266,13.8313028 L141.309266,7.73452981 L141.903059,7.73452981 Z M152.248806,7.73452981 L152.248806,8.6663326 L150.416893,8.6663326 L150.416893,13.8313028 L149.284054,13.8313028 L149.284054,8.6663326 L147.443719,8.6663326 L147.443719,7.73452981 L152.248806,7.73452981 Z M154.525713,13.8313028 L153.388663,13.8313028 L153.388663,7.73452981 L154.525713,7.73452981 L154.525713,13.8313028 Z M156.768929,7.73452981 C156.819465,7.73452981 156.861577,7.73663794 156.895268,7.74085427 C156.928958,7.74507059 156.959139,7.75350311 156.985811,7.76615208 C157.012482,7.77880105 157.038452,7.79707151 157.06372,7.82096401 C157.088987,7.84485651 157.117062,7.87647846 157.147945,7.91583081 L160.344318,11.992995 C160.333088,11.8946141 160.325367,11.7983429 160.321156,11.7041783 C160.316945,11.6100138 160.314839,11.522175 160.314839,11.4406594 L160.314839,7.73452981 L161.312916,7.73452981 L161.312916,13.8313028 L160.727546,13.8313028 C160.637705,13.8313028 160.563306,13.8172486 160.504347,13.7891397 C160.445389,13.7610309 160.387835,13.7104358 160.331684,13.6373529 L157.147945,9.57705387 C157.156368,9.66700209 157.162685,9.75624627 157.166896,9.84478905 C157.171108,9.93333184 157.173213,10.0141435 157.173213,10.0872264 L157.173213,13.8313028 L156.175136,13.8313028 L156.175136,7.73452981 L156.768929,7.73452981 Z M166.664068,7.73452981 L166.664068,8.63681848 L163.964628,8.63681848 L163.964628,10.3275557 L166.091332,10.3275557 L166.091332,11.2003302 L163.964628,11.2003302 L163.964628,12.9247978 L166.664068,12.9247978 L166.664068,13.8313028 L162.823367,13.8313028 L162.823367,7.73452981 L166.664068,7.73452981 Z M169.058891,12.8952837 L171.49723,12.8952837 L171.49723,13.8313028 L167.926052,13.8313028 L167.926052,7.73452981 L169.058891,7.73452981 L169.058891,12.8952837 Z M175.638337,11.685205 L175.638337,13.8313028 L174.505498,13.8313028 L174.505498,7.73452981 L176.489018,7.73452981 C176.896112,7.73452981 177.248453,7.78231409 177.546053,7.87788409 C177.843653,7.97345408 178.089309,8.10696898 178.28303,8.27843279 C178.47675,8.44989661 178.619933,8.65508793 178.712582,8.89401291 C178.805231,9.1329379 178.851554,9.39434602 178.851554,9.67824512 C178.851554,9.97338775 178.802423,10.2439311 178.704159,10.4898833 C178.605895,10.7358355 178.458501,10.9473512 178.261973,11.1244368 C178.065445,11.3015223 177.819789,11.4392535 177.524997,11.5376344 C177.230205,11.6360153 176.884882,11.685205 176.489018,11.685205 L175.638337,11.685205 Z M175.638337,10.7997815 L176.489018,10.7997815 C176.696776,10.7997815 176.87786,10.7737812 177.032275,10.7217799 C177.18669,10.6697786 177.314431,10.5952913 177.415503,10.4983159 C177.516575,10.4013405 177.592377,10.2832852 177.642913,10.1441465 C177.693449,10.0050078 177.718716,9.84970893 177.718716,9.67824512 C177.718716,9.51521395 177.693449,9.36764485 177.642913,9.23553339 C177.592377,9.10342193 177.516575,8.99098833 177.415503,8.89822921 C177.314431,8.8054701 177.18669,8.73449639 177.032275,8.68530595 C176.87786,8.63611552 176.696776,8.61152067 176.489018,8.61152067 L175.638337,8.61152067 L175.638337,10.7997815 Z M181.183208,11.449092 L181.183208,13.8313028 L180.05037,13.8313028 L180.05037,7.73452981 L181.907551,7.73452981 C182.323067,7.73452981 182.678918,7.77739512 182.975114,7.86312703 C183.27131,7.94885894 183.514159,8.06902235 183.703668,8.22362087 C183.893177,8.37821939 184.032148,8.56303212 184.120586,8.7780646 C184.209024,8.99309709 184.253242,9.22991036 184.253242,9.48851152 C184.253242,9.69370592 184.223061,9.88765388 184.162699,10.0703612 C184.102337,10.2530686 184.015304,10.4189081 183.901599,10.5678849 C183.787893,10.7168616 183.647518,10.8475657 183.480469,10.960001 C183.31342,11.0724363 183.123212,11.1623831 182.909839,11.2298443 C183.053024,11.3113599 183.176554,11.4280098 183.280433,11.5797974 L184.804921,13.8313028 L183.785788,13.8313028 C183.687524,13.8313028 183.604001,13.8116269 183.535216,13.7722745 C183.466431,13.7329222 183.408176,13.6767054 183.360447,13.6036224 L182.080214,11.6514745 C182.032486,11.5783916 181.979845,11.5263911 181.92229,11.4954714 C181.864736,11.4645517 181.779809,11.449092 181.667507,11.449092 L181.183208,11.449092 Z M181.183208,10.6353457 L181.890705,10.6353457 C182.104079,10.6353457 182.290076,10.6086427 182.448702,10.555236 C182.607328,10.5018292 182.737877,10.4280447 182.840352,10.3338801 C182.942828,10.2397156 183.019332,10.1279847 183.069868,9.99868408 C183.120404,9.8693835 183.145671,9.72743608 183.145671,9.57283756 C183.145671,9.26364052 183.043899,9.02612454 182.840352,8.8602825 C182.636806,8.69444045 182.325875,8.61152067 181.907551,8.61152067 L181.183208,8.61152067 L181.183208,10.6353457 Z M191.448941,10.7829163 C191.448941,11.2298466 191.374542,11.6437427 191.225742,12.0246173 C191.076942,12.4054918 190.867783,12.7350628 190.598259,13.0133401 C190.328735,13.2916175 190.004469,13.5087549 189.62545,13.6647588 C189.246432,13.8207628 188.82671,13.8987636 188.366273,13.8987636 C187.905836,13.8987636 187.485412,13.8207628 187.10499,13.6647588 C186.724568,13.5087549 186.398898,13.2916175 186.12797,13.0133401 C185.857042,12.7350628 185.647181,12.4054918 185.498381,12.0246173 C185.349581,11.6437427 185.275183,11.2298466 185.275183,10.7829163 C185.275183,10.335986 185.349581,9.92208983 185.498381,9.5412153 C185.647181,9.16034076 185.857042,8.83076977 186.12797,8.55249244 C186.398898,8.2742151 186.724568,8.05707771 187.10499,7.90107375 C187.485412,7.74506979 187.905836,7.66706898 188.366273,7.66706898 C188.82671,7.66706898 189.246432,7.7457725 189.62545,7.9031819 C190.004469,8.0605913 190.328735,8.27772869 190.598259,8.55460059 C190.867783,8.83147248 191.076942,9.16034076 191.225742,9.5412153 C191.374542,9.92208983 191.448941,10.335986 191.448941,10.7829163 Z M190.286623,10.7829163 C190.286623,10.4484213 190.242405,10.1483641 190.153968,9.88273577 C190.06553,9.61710741 189.93849,9.3915375 189.772845,9.20601927 C189.6072,9.02050105 189.405762,8.87855363 189.168525,8.78017275 C188.931287,8.68179188 188.663873,8.63260218 188.366273,8.63260218 C188.068673,8.63260218 187.800557,8.68179188 187.561916,8.78017275 C187.323274,8.87855363 187.120432,9.02050105 186.953384,9.20601927 C186.786335,9.3915375 186.657892,9.61710741 186.56805,9.88273577 C186.478209,10.1483641 186.433289,10.4484213 186.433289,10.7829163 C186.433289,11.1174113 186.478209,11.4174684 186.56805,11.6830968 C186.657892,11.9487252 186.786335,12.1735924 186.953384,12.3577052 C187.120432,12.5418179 187.323274,12.6830626 187.561916,12.7814435 C187.800557,12.8798244 188.068673,12.9290141 188.366273,12.9290141 C188.663873,12.9290141 188.931287,12.8798244 189.168525,12.7814435 C189.405762,12.6830626 189.6072,12.5418179 189.772845,12.3577052 C189.93849,12.1735924 190.06553,11.9487252 190.153968,11.6830968 C190.242405,11.4174684 190.286623,11.1174113 190.286623,10.7829163 Z M196.585316,7.73452981 L196.585316,8.6663326 L194.753403,8.6663326 L194.753403,13.8313028 L193.620565,13.8313028 L193.620565,8.6663326 L191.780229,8.6663326 L191.780229,7.73452981 L196.585316,7.73452981 Z M203.098786,10.7829163 C203.098786,11.2298466 203.024387,11.6437427 202.875587,12.0246173 C202.726787,12.4054918 202.517628,12.7350628 202.248104,13.0133401 C201.97858,13.2916175 201.654313,13.5087549 201.275295,13.6647588 C200.896277,13.8207628 200.476555,13.8987636 200.016118,13.8987636 C199.555681,13.8987636 199.135257,13.8207628 198.754835,13.6647588 C198.374413,13.5087549 198.048743,13.2916175 197.777815,13.0133401 C197.506887,12.7350628 197.297026,12.4054918 197.148226,12.0246173 C196.999426,11.6437427 196.925028,11.2298466 196.925028,10.7829163 C196.925028,10.335986 196.999426,9.92208983 197.148226,9.5412153 C197.297026,9.16034076 197.506887,8.83076977 197.777815,8.55249244 C198.048743,8.2742151 198.374413,8.05707771 198.754835,7.90107375 C199.135257,7.74506979 199.555681,7.66706898 200.016118,7.66706898 C200.476555,7.66706898 200.896277,7.7457725 201.275295,7.9031819 C201.654313,8.0605913 201.97858,8.27772869 202.248104,8.55460059 C202.517628,8.83147248 202.726787,9.16034076 202.875587,9.5412153 C203.024387,9.92208983 203.098786,10.335986 203.098786,10.7829163 Z M201.936468,10.7829163 C201.936468,10.4484213 201.89225,10.1483641 201.803812,9.88273577 C201.715375,9.61710741 201.588335,9.3915375 201.42269,9.20601927 C201.257045,9.02050105 201.055607,8.87855363 200.818369,8.78017275 C200.581132,8.68179188 200.313718,8.63260218 200.016118,8.63260218 C199.718518,8.63260218 199.450402,8.68179188 199.211761,8.78017275 C198.973119,8.87855363 198.770277,9.02050105 198.603228,9.20601927 C198.43618,9.3915375 198.307736,9.61710741 198.217895,9.88273577 C198.128054,10.1483641 198.083134,10.4484213 198.083134,10.7829163 C198.083134,11.1174113 198.128054,11.4174684 198.217895,11.6830968 C198.307736,11.9487252 198.43618,12.1735924 198.603228,12.3577052 C198.770277,12.5418179 198.973119,12.6830626 199.211761,12.7814435 C199.450402,12.8798244 199.718518,12.9290141 200.016118,12.9290141 C200.313718,12.9290141 200.581132,12.8798244 200.818369,12.7814435 C201.055607,12.6830626 201.257045,12.5418179 201.42269,12.3577052 C201.588335,12.1735924 201.715375,11.9487252 201.803812,11.6830968 C201.89225,11.4174684 201.936468,11.1174113 201.936468,10.7829163 Z M208.45836,12.3935437 C208.520126,12.3935437 208.573468,12.4174359 208.618389,12.4652209 L209.064786,12.9500956 C208.817723,13.2564818 208.51381,13.4911869 208.153041,13.6542181 C207.792272,13.8172492 207.359215,13.8987636 206.853857,13.8987636 C206.401842,13.8987636 205.995456,13.8214655 205.634687,13.666867 C205.273917,13.5122685 204.965794,13.2972392 204.710308,13.0217727 C204.454821,12.7463063 204.258998,12.417438 204.122832,12.035158 C203.986666,11.6528781 203.918584,11.2354683 203.918584,10.7829163 C203.918584,10.3247425 203.994387,9.90522462 204.145994,9.52435009 C204.297602,9.14347555 204.510972,8.81530998 204.786111,8.53984353 C205.06125,8.26437708 205.39043,8.05005053 205.77366,7.89685745 C206.156889,7.74366437 206.58012,7.66706898 207.043365,7.66706898 C207.495379,7.66706898 207.890535,7.73944811 208.228844,7.88420854 C208.567153,8.02896897 208.857028,8.2208088 209.098477,8.45973379 L208.71946,8.98677156 C208.697,9.02050215 208.668223,9.05001597 208.633129,9.07531391 C208.598034,9.10061185 208.549605,9.11326063 208.487839,9.11326063 C208.423266,9.11326063 208.357289,9.08796307 208.289908,9.03736719 C208.222527,8.98677131 208.136898,8.93195993 208.033019,8.8729314 C207.92914,8.81390288 207.797889,8.7590915 207.639263,8.70849562 C207.480637,8.65789974 207.279199,8.63260218 207.034942,8.63260218 C206.748573,8.63260218 206.48537,8.68249459 206.245325,8.7822809 C206.00528,8.88206722 205.798928,9.02471735 205.626264,9.21023558 C205.4536,9.3957538 205.31884,9.62132371 205.22198,9.88695208 C205.12512,10.1525804 205.07669,10.4512322 205.07669,10.7829163 C205.07669,11.1258439 205.12512,11.4308201 205.22198,11.6978539 C205.31884,11.9648877 205.450091,12.1897549 205.615736,12.3724622 C205.781381,12.5551696 205.976502,12.6950088 206.201106,12.7919843 C206.425709,12.8889597 206.667155,12.9374467 206.925449,12.9374467 C207.079864,12.9374467 207.219537,12.9290142 207.344473,12.9121489 C207.469408,12.8952836 207.584516,12.8685806 207.689799,12.8320391 C207.795082,12.7954977 207.894748,12.7484161 207.988801,12.690793 C208.082853,12.6331699 208.176203,12.5621962 208.268852,12.4778698 C208.296927,12.4525718 208.326406,12.4321932 208.357289,12.4167334 C208.388172,12.4012735 208.421862,12.3935437 208.45836,12.3935437 Z M216.041498,10.7829163 C216.041498,11.2298466 215.967099,11.6437427 215.818299,12.0246173 C215.669499,12.4054918 215.460341,12.7350628 215.190816,13.0133401 C214.921292,13.2916175 214.597026,13.5087549 214.218007,13.6647588 C213.838989,13.8207628 213.419267,13.8987636 212.95883,13.8987636 C212.498393,13.8987636 212.07797,13.8207628 211.697547,13.6647588 C211.317125,13.5087549 210.991455,13.2916175 210.720527,13.0133401 C210.449599,12.7350628 210.239738,12.4054918 210.090939,12.0246173 C209.942139,11.6437427 209.86774,11.2298466 209.86774,10.7829163 C209.86774,10.335986 209.942139,9.92208983 210.090939,9.5412153 C210.239738,9.16034076 210.449599,8.83076977 210.720527,8.55249244 C210.991455,8.2742151 211.317125,8.05707771 211.697547,7.90107375 C212.07797,7.74506979 212.498393,7.66706898 212.95883,7.66706898 C213.419267,7.66706898 213.838989,7.7457725 214.218007,7.9031819 C214.597026,8.0605913 214.921292,8.27772869 215.190816,8.55460059 C215.460341,8.83147248 215.669499,9.16034076 215.818299,9.5412153 C215.967099,9.92208983 216.041498,10.335986 216.041498,10.7829163 Z M214.879181,10.7829163 C214.879181,10.4484213 214.834962,10.1483641 214.746525,9.88273577 C214.658087,9.61710741 214.531048,9.3915375 214.365403,9.20601927 C214.199758,9.02050105 213.998319,8.87855363 213.761082,8.78017275 C213.523844,8.68179188 213.25643,8.63260218 212.95883,8.63260218 C212.661231,8.63260218 212.393114,8.68179188 212.154473,8.78017275 C211.915832,8.87855363 211.71299,9.02050105 211.545941,9.20601927 C211.378892,9.3915375 211.250449,9.61710741 211.160607,9.88273577 C211.070766,10.1483641 211.025846,10.4484213 211.025846,10.7829163 C211.025846,11.1174113 211.070766,11.4174684 211.160607,11.6830968 C211.250449,11.9487252 211.378892,12.1735924 211.545941,12.3577052 C211.71299,12.5418179 211.915832,12.6830626 212.154473,12.7814435 C212.393114,12.8798244 212.661231,12.9290141 212.95883,12.9290141 C213.25643,12.9290141 213.523844,12.8798244 213.761082,12.7814435 C213.998319,12.6830626 214.199758,12.5418179 214.365403,12.3577052 C214.531048,12.1735924 214.658087,11.9487252 214.746525,11.6830968 C214.834962,11.4174684 214.879181,11.1174113 214.879181,10.7829163 Z M218.347884,12.8952837 L220.786223,12.8952837 L220.786223,13.8313028 L217.215045,13.8313028 L217.215045,7.73452981 L218.347884,7.73452981 L218.347884,12.8952837 Z" id="by-SENTINEL-PROTOCOL" fill="#212529"></path>
            </g>
        </g>
    </g>
</svg>