<?xml version="1.0" encoding="UTF-8"?>
<svg width="80px" height="80px" viewBox="0 0 80 80" version="1.1" xmlns="http://www.w3.org/2000/svg" xmlns:xlink="http://www.w3.org/1999/xlink">
    <!-- Generator: sketchtool 59.1 (101010) - https://sketch.com -->
    <title>8296FD62-C23C-45A9-A4C2-B32561FAF6C7</title>
    <desc>Created with sketchtool.</desc>
    <defs>
        <polygon id="path-1" points="0.102451613 0.599655914 22.7312688 0.599655914 22.7312688 23.2258065 0.102451613 23.2258065"></polygon>
        <polygon id="path-3" points="0.000430107527 0.48172043 61.7892473 0.48172043 61.7892473 62.2713978 0.000430107527 62.2713978"></polygon>
    </defs>
    <g id="Page-1" stroke="none" stroke-width="1" fill="none" fill-rule="evenodd">
        <g id="ic" transform="translate(-368.000000, -96.000000)">
            <g id="Group-19" transform="translate(368.000000, 96.000000)">
                <path d="M51.6504946,10.9984516 C63.1137204,22.4616774 63.1137204,41.0483441 51.6504946,52.5107097 C40.1872688,63.9739355 21.6014624,63.9739355 10.1382366,52.5107097 C-1.32498925,41.0483441 -1.32498925,22.4616774 10.1382366,10.9984516 C21.6014624,-0.463913978 40.1872688,-0.463913978 51.6504946,10.9984516" id="Fill-1" fill="#F1F3F5"></path>
                <path d="M76.0221075,76.8964301 L76.0221075,76.8964301 C74.244043,78.6744946 71.3614624,78.6744946 69.5833978,76.8964301 L57.8406022,65.1544946 L64.280172,58.7157849 L76.0221075,70.4585806 C77.7993118,72.2357849 77.7993118,75.1192258 76.0221075,76.8964301" id="Fill-3" fill="#FFFFFF"></path>
                <g id="Group-7" transform="translate(55.913978, 56.292129)">
                    <mask id="mask-2" fill="white">
                        <use xlink:href="#path-1"></use>
                    </mask>
                    <g id="Clip-6"></g>
                    <path d="M3.75148387,8.86288172 L14.5815914,19.6929892 C15.8529892,20.9643871 17.9235269,20.9643871 19.1949247,19.6929892 C20.4671828,18.4207312 20.4671828,16.3501935 19.1949247,15.0787957 L8.3648172,4.24868817 L3.75148387,8.86288172 Z M16.887828,23.2258925 C15.391914,23.2258925 13.896,22.6564301 12.7570753,21.5175054 L0.102451613,8.86288172 L8.3648172,0.599655914 L21.0194409,13.2534194 C22.1230968,14.3579355 22.7312688,15.8254624 22.7312688,17.3850323 C22.7312688,18.9463226 22.1230968,20.4138495 21.0194409,21.5175054 C19.8805161,22.6564301 18.3846022,23.2258925 16.887828,23.2258925 L16.887828,23.2258925 Z" id="Fill-5" fill="#CED4DA" mask="url(#mask-2)"></path>
                </g>
                <polygon id="Fill-8" fill="#FFFFFF" points="63.1298065 59.8660645 58.9904516 64.0045591 49.7569032 54.7701505 53.8953978 50.6316559"></polygon>
                <path d="M51.5807312,54.7703226 L58.9906237,62.1802151 L61.3054624,59.8662366 L53.8947097,52.4563441 L51.5807312,54.7703226 Z M58.9906237,65.8292473 L47.9316989,54.7703226 L53.8947097,48.8064516 L64.9544946,59.8662366 L58.9906237,65.8292473 Z" id="Fill-10" fill="#CED4DA"></path>
                <polygon id="Fill-12" fill="#ADB5BD" points="68.6875699 63.1237849 62.2488602 69.5616344 57.8411183 65.1538925 64.279828 58.716043"></polygon>
                <path d="M59.6654624,65.1550108 L62.2486882,67.7382366 L66.8628817,63.124043 L64.2787957,60.5408172 L59.6654624,65.1550108 Z M62.2486882,71.3872688 L56.0164301,65.1550108 L64.2787957,56.8917849 L70.511914,63.124043 L62.2486882,71.3872688 Z" id="Fill-14" fill="#ADB5BD"></path>
                <g id="Group-18" transform="translate(0.000000, 0.378151)">
                    <mask id="mask-4" fill="white">
                        <use xlink:href="#path-3"></use>
                    </mask>
                    <g id="Clip-17"></g>
                    <path d="M30.8868817,3.57892473 C23.4606452,3.57892473 16.4774194,6.47096774 11.2258065,11.7234409 C0.385376344,22.5630108 0.385376344,40.2034409 11.2258065,51.0455914 C22.0696774,61.8860215 39.7083871,61.8860215 50.547957,51.0455914 C55.8004301,45.7931183 58.6924731,38.8107527 58.6924731,31.3836559 C58.6924731,23.9565591 55.8004301,16.9750538 50.547957,11.7234409 C45.2963441,6.47096774 38.3148387,3.57892473 30.8868817,3.57892473 M30.8868817,62.2713978 C22.9737634,62.2713978 15.0606452,59.2597849 9.03655914,53.2356989 C-3.0116129,41.1858065 -3.0116129,21.5823656 9.03655914,9.53333333 C14.8731183,3.69677419 22.6331183,0.481290323 30.8868817,0.481290323 C39.1423656,0.481290323 46.9023656,3.69677419 52.7372043,9.53333333 C58.5746237,15.3690323 61.7892473,23.1298925 61.7892473,31.3836559 C61.7892473,39.6382796 58.5746237,47.3982796 52.7372043,53.2356989 C46.7131183,59.2597849 38.8,62.2713978 30.8868817,62.2713978" id="Fill-16" fill="#CED4DA" mask="url(#mask-4)"></path>
                </g>
            </g>
        </g>
    </g>
</svg>