<?xml version="1.0" encoding="UTF-8"?>
<svg width="80px" height="80px" viewBox="0 0 80 80" version="1.1" xmlns="http://www.w3.org/2000/svg" xmlns:xlink="http://www.w3.org/1999/xlink">
    <!-- Generator: sketchtool 59.1 (101010) - https://sketch.com -->
    <title>7C55BE8D-3F58-4FC2-96D0-B7D35B7CFDB5</title>
    <desc>Created with sketchtool.</desc>
    <defs>
        <polygon id="path-1" points="0 0.401852941 79.4541176 0.401852941 79.4541176 69.4117059 0 69.4117059"></polygon>
        <polygon id="path-3" points="0 69.5982353 79.4541176 69.5982353 79.4541176 0.588235294 0 0.588235294"></polygon>
    </defs>
    <g id="Page-1" stroke="none" stroke-width="1" fill="none" fill-rule="evenodd">
        <g id="ic" transform="translate(-252.000000, -96.000000)">
            <g id="Group" transform="translate(252.000000, 96.000000)">
                <rect id="Rectangle" x="0" y="0" width="80" height="80"></rect>
                <g id="Group-10" transform="translate(0.000000, 5.000000)">
                    <g id="Group-3" transform="translate(0.000000, 0.186471)">
                        <mask id="mask-2" fill="white">
                            <use xlink:href="#path-1"></use>
                        </mask>
                        <g id="Clip-2"></g>
                        <path d="M39.0717647,0.779941176 L0.102352941,68.277 C-0.188823529,68.7817059 0.175294118,69.4117059 0.757647059,69.4117059 L78.6964706,69.4117059 C79.2788235,69.4117059 79.6429412,68.7817059 79.3517647,68.277 L40.3829412,0.779941176 C40.0911765,0.275823529 39.3629412,0.275823529 39.0717647,0.779941176" id="Fill-1" fill="#F4574E" mask="url(#mask-2)"></path>
                    </g>
                    <path d="M39.0745882,13.5215294 L10.9510588,62.1309412 C10.6592941,62.6350588 11.0228235,63.2662353 11.6063529,63.2662353 L67.8481176,63.2662353 C68.4304706,63.2662353 68.7945882,62.6350588 68.5028235,62.1309412 L40.3851765,13.5215294 C40.0928235,13.018 39.3663529,13.018 39.0745882,13.5215294" id="Fill-4" fill="#FFFFFF"></path>
                    <path d="M41.8198824,31.6677647 L37.6398824,31.6677647 C36.7410588,31.6677647 36.034,32.4354118 36.1081176,33.3307059 L37.2822353,47.5730588 C37.3481176,48.3701176 38.014,48.9836471 38.814,48.9836471 L40.6457647,48.9836471 C41.4451765,48.9836471 42.1110588,48.3701176 42.1769412,47.5730588 L43.3516471,33.3307059 C43.4251765,32.4354118 42.7181176,31.6677647 41.8198824,31.6677647" id="Fill-6" fill="#F4574E"></path>
                    <mask id="mask-4" fill="white">
                        <use xlink:href="#path-3"></use>
                    </mask>
                    <g id="Clip-9"></g>
                    <polygon id="Fill-8" fill="#F4574E" mask="url(#mask-4)" points="37.3988235 55.6894118 42.0605882 55.6894118 42.0605882 52.5305882 37.3988235 52.5305882"></polygon>
                </g>
            </g>
        </g>
    </g>
</svg>