<?xml version="1.0" encoding="utf-8"?>
<!-- Generator: Adobe Illustrator 23.0.1, SVG Export Plug-In . SVG Version: 6.00 Build 0)  -->
<svg version="1.1" id="Capa_1" xmlns="http://www.w3.org/2000/svg" xmlns:xlink="http://www.w3.org/1999/xlink" x="0px" y="0px"
	 viewBox="0 0 32 32" style="enable-background:new 0 0 32 32;" xml:space="preserve">
<style type="text/css">
	.st0{fill:#3D5A93;}
	.st1{fill:#FFFFFF;}
</style>
<g transform="translate(3115 1548)">
	<path class="st0" d="M-3111-1548h24c2.2,0,4,1.8,4,4v24c0,2.2-1.8,4-4,4h-24c-2.2,0-4-1.8-4-4v-24
		C-3115-1546.2-3113.2-1548-3111-1548z"/>
	<g transform="translate(-3103.753 -1546)">
		<path class="st1" d="M8.2,30V17.1h3.7l0.6-5H8.2V8.9c0-1.5,0.3-2.4,2.1-2.4h2.3V1.9c-1.1-0.1-2.2-0.2-3.3-0.2
			C6,1.7,3.7,4.1,3.7,8.4v3.7H0v5h3.7V30L8.2,30z"/>
	</g>
</g>
</svg>
