<svg xmlns="http://www.w3.org/2000/svg" width="32" height="32" viewBox="0 0 32 32"><g transform="translate(3008 1548)"><rect width="32" height="32" rx="4" transform="translate(-3008 -1548)" fill="#00a2f0"/><path d="M35.831,357.838a13.368,13.368,0,0,1-7.441-2.266,9.514,9.514,0,0,0,7.187-2.089,4.886,4.886,0,0,1-4.535-3.5,4.68,4.68,0,0,0,2.192-.087,5,5,0,0,1-3.894-4.946v-.063a4.7,4.7,0,0,0,2.2.63,5.1,5.1,0,0,1-2.16-4.2,5.171,5.171,0,0,1,.658-2.536,13.618,13.618,0,0,0,10.006,5.27,5.261,5.261,0,0,1-.126-1.149,4.952,4.952,0,0,1,4.855-5.044,4.766,4.766,0,0,1,3.543,1.592,9.495,9.495,0,0,0,3.082-1.224,5.027,5.027,0,0,1-2.135,2.791,9.424,9.424,0,0,0,2.789-.794,10.1,10.1,0,0,1-2.422,2.611q.013.325.013.652c0,6.665-4.883,14.351-13.812,14.351" transform="translate(-3032.052 -1879.859)" fill="#fff"/></g></svg>