<?xml version="1.0" encoding="utf-8"?>
<!-- Generator: Adobe Illustrator 23.0.2, SVG Export Plug-In . SVG Version: 6.00 Build 0)  -->
<svg version="1.1" id="Capa_1" xmlns="http://www.w3.org/2000/svg" xmlns:xlink="http://www.w3.org/1999/xlink" x="0px" y="0px"
	 viewBox="0 0 25 24.998" style="enable-background:new 0 0 25 24.998;" xml:space="preserve">
<style type="text/css">
	.st0{fill:#F5F5F5;}
	.st1{fill:#EAB244;}
	.st2{fill:none;stroke:#EAB244;stroke-miterlimit:10;}
	.st3{fill:#EDEDED;}
	.st4{fill:#343434;}
	.st5{fill:#FFFFFF;}
	.st6{fill:#FAFAFA;}
	.st7{fill:none;stroke:#00ABFF;stroke-width:4.817;stroke-miterlimit:10;}
	.st8{fill:none;stroke:#EAB244;stroke-width:0.8936;stroke-miterlimit:10;}
	.st9{fill:#313131;}
	.st10{fill:url(#);}
	.st11{fill:#00B1FB;}
	.st12{fill:none;stroke:#F5F5F5;}
	.st13{fill:#3E3E3E;}
	.st14{fill:#F9F9F9;}
	.st15{fill:#FF0046;}
	.st16{fill:none;stroke:#343434;stroke-width:0.6725;stroke-linecap:round;stroke-linejoin:round;stroke-miterlimit:10;}
	.st17{fill:none;stroke:#343434;stroke-width:0.6456;stroke-linecap:round;stroke-miterlimit:10;}
	.st18{fill:none;stroke:#343434;stroke-width:0.6456;stroke-linecap:round;stroke-linejoin:round;stroke-miterlimit:10;}
	.st19{fill:none;stroke:#FFFFFF;stroke-width:0.6675;stroke-linecap:round;stroke-miterlimit:10;}
	.st20{fill:none;stroke:#FFFFFF;stroke-width:0.6675;stroke-linecap:round;stroke-linejoin:round;stroke-miterlimit:10;}
	.st21{fill:none;stroke:#FFFFFF;stroke-width:0.6953;stroke-linecap:round;stroke-linejoin:round;stroke-miterlimit:10;}
	.st22{fill:none;stroke:#FFFFFF;stroke-width:1.0653;stroke-linecap:round;stroke-linejoin:round;stroke-miterlimit:10;}
	.st23{fill:none;stroke:#FFFFFF;stroke-width:1.0227;stroke-linecap:round;stroke-miterlimit:10;}
	.st24{fill:none;stroke:#FFFFFF;stroke-width:1.0227;stroke-linecap:round;stroke-linejoin:round;stroke-miterlimit:10;}
	.st25{fill:none;stroke:#FFFFFF;stroke-linecap:round;stroke-miterlimit:10;}
	.st26{fill:none;stroke:#FFFFFF;stroke-width:0.6563;stroke-linecap:round;stroke-miterlimit:10;}
	.st27{fill:none;stroke:#FFFFFF;stroke-width:0.6712;stroke-linecap:round;stroke-miterlimit:10;}
	.st28{fill:none;stroke:#343434;stroke-width:0.6563;stroke-linecap:round;stroke-miterlimit:10;}
	.st29{fill:none;stroke:#343434;stroke-width:0.6712;stroke-linecap:round;stroke-miterlimit:10;}
	.st30{fill:none;stroke:#343434;stroke-width:0.9375;stroke-linecap:round;stroke-linejoin:round;stroke-miterlimit:10;}
	.st31{fill:none;stroke:#343434;stroke-width:0.9;stroke-linecap:round;stroke-miterlimit:10;}
	.st32{fill:none;stroke:#FFFFFF;stroke-width:0.9375;stroke-linecap:round;stroke-linejoin:round;stroke-miterlimit:10;}
	.st33{fill:none;stroke:#FFFFFF;stroke-width:0.9;stroke-linecap:round;stroke-miterlimit:10;}
	.st34{fill:none;stroke:#FFFFFF;stroke-width:0.9;stroke-linecap:round;stroke-linejoin:round;stroke-miterlimit:10;}
	.st35{fill:none;stroke:#343434;stroke-width:0.9;stroke-linecap:round;stroke-linejoin:round;stroke-miterlimit:10;}
	.st36{fill:none;stroke:#FFFFFF;stroke-width:1.05;stroke-linecap:round;stroke-miterlimit:10;}
	.st37{fill:none;stroke:#343434;stroke-width:1.05;stroke-linecap:round;stroke-miterlimit:10;}
</style>
<g>
	<path class="st4" d="M12.617,22.704c-5.628,0-10.206-4.578-10.206-10.205c0-0.248,0.202-0.45,0.45-0.45s0.45,0.202,0.45,0.45
		c0,5.131,4.175,9.305,9.306,9.305c3.776,0,7.151-2.254,8.599-5.742c0.097-0.229,0.358-0.338,0.589-0.243
		c0.229,0.096,0.338,0.359,0.243,0.589C20.46,20.233,16.758,22.704,12.617,22.704z"/>
	<path class="st4" d="M22.372,12.949c-0.248,0-0.45-0.202-0.45-0.45c0-5.131-4.174-9.306-9.305-9.306
		c-3.678,0-7.019,2.173-8.511,5.536C4.006,8.958,3.738,9.058,3.513,8.958C3.286,8.858,3.184,8.592,3.284,8.364
		c1.636-3.688,5.299-6.071,9.333-6.071c5.627,0,10.205,4.578,10.205,10.206C22.822,12.747,22.62,12.949,22.372,12.949z"/>
	<path class="st4" d="M22.473,13.398c-0.111,0.111-0.283,0.111-0.393,0l-1.545-1.551c-0.172-0.172-0.05-0.471,0.199-0.471h0.991
		c0,0,0,0,0,0h1.108c0,0,0,0,0,0h0.991c0.249,0,0.371,0.299,0.194,0.471L22.473,13.398z"/>
	<path class="st4" d="M2.916,11.459c-0.111-0.111-0.283-0.111-0.393,0L0.978,13.01c-0.172,0.172-0.05,0.471,0.199,0.471h0.991
		c0,0,0,0,0,0h1.108c0,0,0,0,0,0h0.991c0.249,0,0.371-0.299,0.194-0.471L2.916,11.459z"/>
	<g>
		<path class="st4" d="M15.477,14.291c0,0.575-0.216,1.05-0.647,1.425c-0.432,0.374-1.034,0.61-1.81,0.708v1.473h-0.818v-1.416
			c-0.474,0-0.934-0.037-1.377-0.111c-0.445-0.074-0.809-0.177-1.092-0.308v-0.99c0.351,0.156,0.756,0.284,1.215,0.384
			s0.877,0.149,1.254,0.149v-2.793c-0.867-0.275-1.476-0.595-1.825-0.958c-0.349-0.364-0.523-0.834-0.523-1.41
			c0-0.554,0.215-1.009,0.645-1.364s0.997-0.571,1.704-0.647V7.277h0.818v1.143c0.779,0.021,1.53,0.178,2.254,0.47l-0.33,0.832
			c-0.631-0.25-1.271-0.398-1.924-0.445v2.756c0.665,0.211,1.162,0.417,1.492,0.618s0.573,0.432,0.73,0.692
			C15.398,13.602,15.477,13.918,15.477,14.291z M10.926,10.432c0,0.321,0.095,0.579,0.285,0.773c0.19,0.195,0.521,0.379,0.99,0.553
			V9.301c-0.419,0.068-0.736,0.2-0.952,0.397C11.033,9.895,10.926,10.139,10.926,10.432z M14.397,14.373
			c0-0.305-0.094-0.551-0.282-0.739s-0.554-0.376-1.096-0.562v2.469C13.938,15.414,14.397,15.025,14.397,14.373z"/>
	</g>
</g>
</svg>
