<?xml version="1.0" encoding="utf-8"?>


<svg version="1.1" id="Capa_1" xmlns="http://www.w3.org/2000/svg" xmlns:xlink="http://www.w3.org/1999/xlink" x="0px" y="0px"
	 viewBox="0 0 25 24.998" style="enable-background:new 0 0 25 24.998;" xml:space="preserve">
<style type="text/css">
	.st0{fill:#343434;}
</style>
<path class="st0" d="M12.5,2.293c-5.628,0-10.206,4.578-10.206,10.206c0,5.627,4.579,10.205,10.206,10.205
	s10.206-4.578,10.206-10.205C22.706,6.871,18.128,2.293,12.5,2.293z M12.5,21.805c-5.131,0-9.305-4.174-9.305-9.305
	c0-5.131,4.174-9.306,9.305-9.306s9.305,4.175,9.305,9.306C21.805,17.631,17.631,21.805,12.5,21.805z M17.729,8.003
	c-0.229-0.15-0.54-0.086-0.691,0.145l-4.999,7.642l-4.143-4.12c-0.195-0.195-0.512-0.193-0.707,0.002
	c-0.195,0.196-0.194,0.512,0.002,0.707l4.578,4.552c0.094,0.094,0.221,0.146,0.353,0.146c0.017,0,0.035-0.001,0.052-0.003
	c0.149-0.016,0.284-0.098,0.366-0.224l5.333-8.155C18.025,8.464,17.961,8.154,17.729,8.003z"/>
</svg>
