<svg xmlns="http://www.w3.org/2000/svg" viewBox="0 0 89.1 44.8"><path fill="none" d="M54.3 20.1c-.7 0-1.2.3-1.7 1-.4.7-.7 1.5-.7 2.5 0 2.4.8 3.5 2.3 3.5 1.5 0 2.2-1.2 2.2-3.5s-.7-3.5-2.1-3.5z"/><path fill="#fff" d="M22.8 0H22C9.8 0 0 9.8 0 22v.8a22 22 0 0 0 22 22h.8c12.1 0 22-9.9 22-22V22c0-12.2-9.8-22-22-22zm-4.4 28.4c-1 1.3-2.4 1.9-4.1 1.9s-3-.7-4-2c0 .3.1.5.1.6 0 .8-.5 1.2-1.4 1.2-1 0-1.4-.5-1.4-1.5V17.2c0-.8-.1-1.3-.4-1.3-.1 0-.3 0-.5.1h-.4c-.8 0-1.2-.5-1.2-1.4 0-.5.1-.9.4-1.2.3-.2.6-.4 1.1-.4.2 0 .5 0 .9.1.4 0 .7.1 1 .1.5 0 .9 0 1.3-.1s.7-.1.8-.1c.5 0 .7.3.7.9v4.7c1.1-1.1 2.3-1.7 3.6-1.7 1.5 0 2.7.6 3.6 1.8.9 1.2 1.4 2.8 1.4 4.7 0 2.1-.5 3.7-1.5 5zm9.5 1.5c-.2 0-.6 0-1.4-.1-.5 0-1-.1-1.6-.1-.3 0-.7 0-1.3.1-.6.1-1 .1-1.3.1-.5 0-.8-.2-1.1-.5-.3-.3-.4-.7-.4-1.2 0-1 .4-1.4 1.2-1.4l.7.2h.2c.3 0 .5-.5.5-1.4v-4c0-1-.1-1.4-.4-1.4 0 0-.2 0-.5.1h-.4c-.8 0-1.2-.5-1.2-1.4 0-.5.1-.9.4-1.2.3-.3.7-.5 1.1-.5.2 0 .5 0 .8.1.6.1 2 .1 2.5 0s.7-.1.8-.1c.5 0 .7.3.7 1v7.5c0 .8.2 1.3.5 1.3.1 0 .2 0 .4-.1.2 0 .3-.1.4-.1.7 0 1.1.4 1.1 1.3-.2 1.3-.7 1.8-1.7 1.8zm10.9-11.3c0 .9-.4 1.3-1.3 1.3h-2c-.4 0-.6.1-.6.2s-.1.3-.1.5v4.9c0 1 .3 1.5 1 1.5.6 0 .9-.4.9-1.3v-.9c0-.9.5-1.4 1.4-1.4 1 0 1.6.8 1.6 2.5 0 1.3-.4 2.3-1.2 3.1-.8.7-1.9 1.1-3.3 1.1-2.8 0-4.1-1.5-4.1-4.4 0-.5 0-1.2.1-2.1s.1-1.6.1-2.1v-.8c0-.4 0-.7-.1-.8-.5.1-.7.1-1 .1h-.4a.9.9 0 0 1-.8-.4c-.2-.2-.3-.6-.3-.9 0-.4.1-.7.3-1 .2-.3.5-.4.7-.4h.5c.4 0 .6-.1.7-.4 0-.1.1-.4.1-.7V15c0-.6-.1-1.8.3-2 .3-.2 1.1 0 2 0 .6 0 1.1-.2 1.3 0 .2.2.1 1.3.1 1.8v1.3c0 .5 0 .8.1.9.1.1.3.2.7.2h1.8c1 .1 1.5.5 1.5 1.4z"/><path fill="#fff" d="M13.3 20.1c-.7 0-1.2.3-1.7 1-.4.7-.7 1.5-.7 2.5 0 2.4.8 3.5 2.3 3.5 1.4 0 2.2-1.2 2.2-3.5s-.7-3.5-2.1-3.5zm75.1 3.6c-.3-.5-.8-.8-1.3-1.1-.5-.3-1.3-.5-2.4-.7-1.3-.2-2.2-.4-2.5-.6-.3-.1-.5-.4-.5-.7 0-.7.5-1 1.5-1 .8 0 1.5.4 2.1 1.1.5.6 1 1 1.7 1 .9 0 1.3-.4 1.3-1.3v-1.1c0-.3 0-.5.1-.8.1-.3.1-.5.1-.7 0-.6-.4-.9-1.3-.9-.8 0-1.3.4-1.4 1-.9-.7-2-1.1-3.2-1.1-1.3 0-2.4.4-3.2 1.2-.8.8-1.2 1.8-1.2 3 0 .7.1 1.3.4 1.9.3.5.7.9 1.2 1.2.5.3 1.3.5 2.5.8l1.5.3c1 .2 1.4.6 1.4 1.1 0 .8-.6 1.1-1.8 1.1-.7 0-1.2-.1-1.5-.3-.4-.2-.7-.6-1.2-1.2-.3-.4-.5-.6-.8-.8-.2-.1-.6-.2-1-.2-.9 0-1.4.4-1.4 1.1v2.2c0 .3-.1.6-.1.8 0 .7.5 1.1 1.4 1.1.8 0 1.3-.4 1.3-1.2 1.2.9 2.5 1.4 4 1.4s2.7-.4 3.7-1.3c1-.8 1.5-1.9 1.5-3.2-.2-.8-.5-1.5-.9-2.1zm-5.9-6.8zm-26.9 0c-1.3 0-2.5.6-3.6 1.7v-4.7c0-.6-.2-.9-.7-.9-.2 0-.5 0-.9.1s-.8.1-1.3.1c-.2 0-.6-.2-.9 0-.4.2 0 3.2 0 4v11.4c0 1 .5 1.5 1.4 1.5.9 0 1.4-.4 1.4-1.2v-.6c1 1.3 2.3 2 4 2s3.1-.6 4.1-1.9 1.5-2.9 1.5-5c0-1.9-.5-3.5-1.4-4.7-1-1.2-2.2-1.8-3.6-1.8zm-1.3 10.2c-1.5 0-2.3-1.2-2.3-3.5 0-1 .2-1.8.7-2.5.4-.7 1-1 1.7-1 1.4 0 2.1 1.2 2.1 3.5s-.8 3.5-2.2 3.5zm21.3-.1c-.3 0-.5-.4-.5-1.3V22c0-1.4-.2-2.5-.6-3.2-.7-1.3-1.9-1.9-3.7-1.9-1.6 0-3.1.8-4.3 2.3V18c0-.5-.2-.7-.7-.7 0 0-.3 0-.8.1s-.8.1-1 .1c-.2 0-.4 0-.7-.1-.4-.1-.7-.1-.8-.1-.5 0-.8.2-1.1.5-.2.2-.4.7-.4 1.2 0 .9.4 1.4 1.2 1.4.1 0 .2 0 .4-.1s.3-.1.4-.1c.3 0 .4.5.4 1.4v4c0 .9-.1 1.4-.4 1.4-.1 0-.2 0-.4-.1s-.3-.1-.4-.1c-.8 0-1.2.5-1.2 1.4 0 1.1.5 1.7 1.6 1.7.3 0 .7 0 1.3-.1.6-.1 1-.1 1.3-.1s.8 0 1.4.1c.4.1.7.1.9.1.9 0 1.3-.5 1.3-1.6 0-.8-.3-1.3-.9-1.3-.3 0-.5-.2-.6-.3-.1-.2-.1-.6-.1-1.4v-2.6c0-.7.2-1.3.7-1.8.4-.5 1-.7 1.7-.7.6 0 1 .2 1.3.6.3.4.4 1.1.4 2v3.5c0 .4-.2.6-.7.6-.7 0-1 .5-1 1.4 0 1 .5 1.5 1.5 1.5.3 0 .7 0 1.1-.1.5-.1.9-.1 1.3-.1.3 0 .7 0 1.2.1s1.6.5 1.6-.7c0-.9.2-1.4 0-2.1 0 0-.6.1-.7.1z"/></svg>