<svg xmlns="http://www.w3.org/2000/svg" viewBox="0 0 87 52"><g fill="#D9D4ED"><path d="M86.5 25.3h-1.7v-2.4c0-.3-.2-.5-.5-.5s-.5.2-.5.5v2.4H82c-.3 0-.5.2-.5.5s.2.5.5.5h1.8v2.8c0 .3.2.5.5.5s.5-.2.5-.5v-2.8h1.7c.3 0 .5-.2.5-.5s-.2-.5-.5-.5zM9.4 19.1H7.1v-2.9c0-.3-.2-.5-.5-.5s-.5.2-.5.5v2.9H4.8c-.3 0-.5.2-.5.5s.2.5.5.5h1.3V22c0 .3.2.5.5.5s.5-.2.5-.5v-1.9h2.3c.3 0 .5-.2.5-.5s-.2-.5-.5-.5zM33.6 3.6h-1.7V.5c0-.3-.2-.5-.5-.5s-.5.2-.5.5v3.1h-1.8c-.3 0-.5.2-.5.5s.2.5.5.5h1.8v2.1c0 .3.2.5.5.5s.5-.2.5-.5V4.6h1.7c.3 0 .5-.2.5-.5s-.2-.5-.5-.5zm26.5 3.6h-1.7V5c0-.3-.2-.5-.5-.5s-.5.2-.5.5v2.2h-1.8c-.3 0-.5.2-.5.5s.2.5.5.5h1.8v2c0 .3.2.5.5.5s.5-.2.5-.5v-2h1.7c.3 0 .5-.2.5-.5s-.3-.5-.5-.5zm18.7 27h-1.7v-2.3c0-.3-.2-.5-.5-.5s-.5.2-.5.5v2.3h-1.8c-.3 0-.5.2-.5.5s.2.5.5.5h1.8v1.3c0 .3.2.5.5.5s.5-.2.5-.5v-1.3h1.7c.3 0 .5-.2.5-.5s-.2-.5-.5-.5zm-63.9-2.9h-2.4v-1.6c0-.3-.2-.5-.5-.5s-.5.2-.5.5v1.6h-1.1c-.3 0-.5.2-.5.5s.2.5.5.5h1.1v2c0 .3.2.5.5.5s.5-.2.5-.5v-2h2.4c.3 0 .5-.2.5-.5s-.2-.5-.5-.5z"/><g opacity=".4" transform="matrix(-1 0 0 1 87 1.1)"><ellipse cx="9.7" cy="13.7" rx="1.4" ry="-1.4"/><ellipse cx="72.7" cy="7.2" rx="1" ry="-1"/><ellipse cx="19.5" cy="1.4" rx="1.4" ry="-1.4"/><ellipse cx="1.4" cy="4.1" rx="1.4" ry="-1.4"/><ellipse cx="85.6" cy="26.7" rx="1.4" ry="-1.4"/></g></g><ellipse cx="11.5" cy="11.6" fill="#BFB8DE" rx="11.5" ry="11.6" transform="translate(19.4 17.9)"/><g transform="translate(49 17.9)"><ellipse cx="11.5" cy="11.6" fill="#BFB8DE" rx="11.5" ry="11.6"/><path fill="#FFF" d="M12.4 10.7h2.9l-6.1 7.6 1.4-6.3H7.7l6.1-7.6-1.4 6.3z"/></g><path fill="#BFB8DE" d="M54.3 43.9s0 .1 0 0c-1.1 4.4-4.6 7.5-9.1 7.5a9 9 0 0 1-6.4-2.6l-1.6 1.6-.6.2a.9.9 0 0 1-.8-.8v-5.5c0-.4.4-.8.8-.8h5.5c.4 0 .8.4.8.8l-.2.6-1.7 1.6a6.1 6.1 0 0 0 4.3 1.7 6 6 0 0 0 5.3-3l.6-1.4c.1-.2.2-.3.4-.3h2.3c.2 0 .4.2.4.4zm.3-34v5.5c0 .4-.4.8-.8.8h-5.5a.9.9 0 0 1-.8-.8l.2-.6 1.7-1.7a6.3 6.3 0 0 0-4.3-1.7 6 6 0 0 0-5.3 3l-.6 1.4c-.1.2-.2.3-.4.3h-2.4c-.2.1-.4-.1-.4-.3v-.1a9.4 9.4 0 0 1 15.7-4.8l1.6-1.6.6-.2c.4 0 .7.4.7.8z" opacity=".6"/><path fill="#FFF" d="M34.8 24.3h-3c.5.4.9 1 1 1.9h2v.9h-2c-.2 1.9-1.7 3.1-4 3.2l4.6 5.3h-1.8c-1.4-1.7-2.8-3.4-4.5-5.2v-1.1h1c2 0 3-.8 3.2-2.1H27v-.9h4.2c-.3-1.1-1.2-1.6-2.8-1.6H27v-1.2h7.8v.8z"/></svg>