<svg xmlns="http://www.w3.org/2000/svg" viewBox="0 0 79 46"><path fill="#BFB8DE" d="M54.2 35.7l-7.1 7.1-7.1-7.1h4V15h6.1v20.7zM30 25.3c2.5.6 4.7 2.1 6.1 4.2v-9.4h4l-7-7.1-7.1 7.1h4v5.2zm-2 5.8v4.6l4 2.4-.7 1.1-4.6-2.8v-5.3H28zm-.5 11.5c6.4 0 9.5-8.3 4.6-12.5-5-4.2-12.8.3-11.5 6.8a7.2 7.2 0 0 0 6.9 5.7zm0-15.9c3.7 0 7 2.3 8.3 5.7 1.3 3.4.3 7.5-2.6 9.9a8.9 8.9 0 0 1-14.4-8.5 8.9 8.9 0 0 1 8.7-7.1z"/><path fill="#D9D4ED" d="M4.5 22.5H3v-2c0-.3-.2-.5-.5-.5-.2 0-.5.2-.5.5v2H.5c-.3 0-.5.3-.5.5 0 .3.2.5.5.5H2v2.3c0 .3.2.5.5.5s.5-.2.5-.5v-2.3h1.5c.3 0 .5-.2.5-.5 0-.2-.2-.5-.5-.5zm7 8H10v-2c0-.3-.2-.5-.5-.5-.2 0-.5.2-.5.5v2H7.5c-.3 0-.5.2-.5.5s.2.5.5.5H9v1c0 .3.3.5.5.5.3 0 .5-.2.5-.5v-1h1.5c.3 0 .5-.2.5-.5s-.2-.5-.5-.5zm63-13.5h-1v-2.5c0-.3-.2-.5-.5-.5s-.5.2-.5.5V17h-2c-.3 0-.5.2-.5.5s.2.5.5.5h2v1.5c0 .3.2.5.5.5s.5-.2.5-.5V18h1c.3 0 .5-.2.5-.5s-.2-.5-.5-.5zm-22-13.8H51V.5c0-.3-.2-.5-.5-.5-.2 0-.5.2-.5.5v2.7h-1.5c-.3 0-.5.2-.5.5s.2.5.5.5H50v1.7c0 .3.2.5.5.5s.5-.2.5-.5V4.2h1.5c.3 0 .5-.2.5-.5s-.2-.5-.5-.5zm-24 3.2H27V4.5c0-.3-.2-.5-.5-.5-.2 0-.5.2-.5.5v1.9h-1.5c-.3 0-.5.2-.5.5s.2.5.5.5H26V9c0 .3.2.5.5.5s.5-.2.5-.5V7.4h1.5c.3 0 .5-.2.5-.5s-.2-.5-.5-.5zm41 21.5h-.8v-1.4c0-.3-.2-.5-.5-.5s-.5.2-.5.5v1.4h-2.2c-.3 0-.5.2-.5.5s.2.5.5.5h2.2v1.6c0 .3.2.5.5.5s.5-.2.5-.5v-1.6h.8c.3 0 .5-.2.5-.5s-.2-.5-.5-.5z"/><g fill="#D9D4ED" opacity=".4" transform="translate(0 1)"><ellipse cx="8.8" cy="12.2" rx="1.3" ry="1.2"/><ellipse cx="66" cy="6.4" rx="1" ry="1"/><ellipse cx="17.7" cy="1.2" rx="1.3" ry="1.2"/><ellipse cx="1.3" cy="3.7" rx="1.3" ry="1.2"/><ellipse cx="77.7" cy="23.8" rx="1.3" ry="1.2"/></g></svg>