<svg xmlns="http://www.w3.org/2000/svg" width="24" height="24" viewBox="0 0 24 24"><defs/><g fill="none" fill-rule="nonzero"><circle cx="12" cy="12" r="11.5" fill="#FFF" stroke="#EAEDF0"/><path fill="#1C2143" d="M13.86 8.59c0-2.14-1.12-3.98-1.97-4.58 0 0-.07-.04-.06.05-.08 4.13-2.34 5.25-3.6 6.76-2.87 3.48-.2 7.3 2.53 8 1.53.4-.35-.7-.6-3-.28-2.8 3.7-4.92 3.7-7.23"/><path fill="#3C7AD2" d="M15.35 10c-.01-.02-.04-.03-.06 0-.05.52-.66 1.63-1.43 2.66-2.62 3.46-1.13 5.13-.29 6.03.49.52 0 0 1.22-.53a4.86 4.86 0 002.62-3.7 5.09 5.09 0 00-2.06-4.47"/></g></svg>