<?xml version="1.0" standalone="no"?>
<!DOCTYPE svg PUBLIC "-//W3C//DTD SVG 20010904//EN"
 "http://www.w3.org/TR/2001/REC-SVG-20010904/DTD/svg10.dtd">
<svg version="1.0" xmlns="http://www.w3.org/2000/svg"
 width="655.000000pt" height="121.000000pt" viewBox="0 0 655.000000 121.000000"
 preserveAspectRatio="xMidYMid meet">

<g transform="translate(0.000000,121.000000) scale(0.100000,-0.100000)"
fill="#000000" stroke="none">
<path d="M662 1013 c-247 -244 -352 -404 -360 -551 -6 -108 11 -156 77 -223
66 -65 117 -84 215 -77 77 5 143 41 193 106 40 53 41 69 6 83 -37 14 -91 -2
-123 -36 -34 -36 -56 -34 -34 4 20 34 63 61 98 61 14 0 26 5 26 10 0 12 -42
30 -68 30 -14 0 -15 -2 -2 -10 12 -7 12 -12 -4 -29 -18 -19 -69 -34 -160 -46
-36 -5 -46 -9 -37 -18 8 -8 23 -8 57 1 55 15 68 8 34 -18 -28 -21 -21 -27 40
-32 52 -4 33 -23 -20 -20 -68 4 -122 28 -166 73 -34 36 -37 42 -23 52 15 9 14
15 -8 56 -31 59 -29 124 3 129 16 2 20 8 17 23 -14 52 43 175 77 166 12 -3 22
3 28 19 30 65 131 146 156 125 18 -15 124 96 132 138 8 40 31 60 40 35 4 -11
15 -38 26 -61 24 -52 106 -127 122 -114 26 22 116 -52 155 -126 7 -14 17 -20
30 -16 28 7 62 -55 68 -127 5 -49 9 -60 24 -60 36 0 32 -88 -7 -148 -12 -18
-13 -27 -6 -30 34 -11 -16 -80 -80 -109 -47 -22 -129 -36 -153 -27 -25 10 -6
24 33 24 52 0 69 13 37 28 -32 15 -34 37 -2 28 50 -14 95 -18 101 -8 3 5 -19
12 -52 16 -80 9 -126 23 -154 46 -20 17 -21 21 -8 30 23 15 -7 12 -45 -4 -32
-14 -28 -18 29 -31 29 -6 86 -55 86 -74 0 -19 -21 -12 -41 13 -39 49 -149 59
-149 14 0 -51 74 -126 151 -153 136 -48 283 13 345 142 22 48 25 66 22 127 -3
39 -14 96 -26 127 -29 73 -123 214 -209 312 -87 99 -292 287 -314 287 -9 0
-89 -71 -177 -157z"/>
<path d="M5534 960 c-25 -50 -68 -121 -95 -158 -27 -36 -49 -72 -49 -78 0 -11
39 -123 46 -132 1 -2 16 11 33 30 l30 33 1 -185 c0 -217 7 -241 80 -277 42
-22 55 -23 300 -23 144 0 271 5 292 10 76 21 111 72 134 195 6 32 4 33 -42 49
-62 21 -74 20 -74 -5 0 -11 -5 -41 -11 -66 -18 -67 -38 -73 -266 -73 -259 0
-282 9 -283 108 l0 52 134 0 134 0 7 -31 7 -32 103 5 c181 8 191 26 201 351
l7 227 -266 0 c-147 0 -267 2 -267 5 0 3 7 22 15 42 8 19 15 37 15 39 0 2 -31
4 -70 4 l-69 0 -47 -90z m546 -269 c0 -181 -4 -191 -71 -191 l-39 0 0 135 0
135 -195 0 -196 0 23 40 23 40 228 0 227 0 0 -159z m-250 -86 l0 -65 -100 0
-100 0 0 65 0 65 100 0 100 0 0 -65z"/>
<path d="M1870 1010 l0 -30 -105 0 -105 0 0 -45 0 -45 105 0 105 0 0 -30 0
-30 64 0 c63 0 65 1 68 28 l3 27 115 0 115 0 3 -27 c3 -27 5 -28 62 -28 57 0
59 1 62 28 l3 27 108 3 107 3 0 44 0 44 -107 3 -108 3 -3 28 c-3 26 -5 27 -62
27 -57 0 -59 -1 -62 -27 l-3 -28 -115 0 -115 0 -3 28 c-3 26 -5 27 -68 27
l-64 0 0 -30z"/>
<path d="M4230 968 c-12 -40 -37 -107 -56 -148 l-34 -75 18 -70 18 -70 18 28
c12 17 27 27 42 27 22 0 24 -4 24 -45 l0 -45 -55 0 -55 0 0 -55 0 -55 55 0 55
0 0 -77 c-1 -43 -7 -94 -14 -114 -12 -35 -12 -38 21 -77 l34 -41 110 72 111
72 -7 45 c-4 25 -9 48 -12 52 -2 4 -27 -5 -56 -20 -29 -15 -55 -28 -59 -30 -5
-2 -8 24 -8 57 l0 61 60 0 60 0 0 55 0 55 -60 0 -60 0 0 45 0 45 50 0 50 0 0
50 0 50 -100 0 c-103 0 -110 3 -90 41 10 17 22 19 110 19 l100 0 0 50 0 50
-73 0 c-41 0 -76 3 -80 6 -3 3 1 24 9 46 8 22 14 42 14 43 0 4 -87 25 -103 25
-10 0 -23 -26 -37 -72z"/>
<path d="M4621 948 l2 -93 -57 -9 c-44 -7 -55 -13 -52 -25 2 -9 7 -33 11 -54
l6 -39 48 7 48 6 6 -37 c4 -20 4 -40 2 -44 -3 -4 -32 -10 -65 -14 -51 -6 -60
-10 -56 -24 2 -9 7 -34 10 -54 l7 -36 61 1 61 2 19 -80 c10 -43 17 -84 14 -90
-3 -8 -123 -73 -224 -122 -2 0 13 -24 33 -51 l36 -51 45 20 c25 10 72 35 105
54 33 19 62 35 65 35 3 0 17 -14 32 -31 34 -41 95 -69 150 -69 72 0 102 43
138 192 5 24 1 29 -44 52 l-50 25 -6 -31 c-17 -86 -27 -108 -47 -108 -11 0
-31 11 -44 24 l-25 25 86 86 c93 95 94 95 27 136 l-35 22 -63 -63 -63 -63 -11
39 c-10 36 -14 73 -8 75 1 0 61 8 132 17 l130 17 -4 50 c-1 28 -5 52 -7 54 -2
2 -63 -4 -135 -13 -72 -9 -133 -15 -134 -14 -2 2 -5 21 -7 43 l-3 40 138 14
c152 16 146 12 131 91 l-7 32 -61 -6 -61 -7 33 27 33 26 -23 25 c-13 14 -40
38 -60 55 l-38 29 -35 -27 -36 -27 52 -53 c58 -59 58 -58 -33 -66 -34 -4 -36
-2 -42 32 -3 19 -6 59 -6 88 l0 52 -61 0 -60 0 2 -92z"/>
<path d="M2990 950 l0 -80 -45 0 -45 0 0 -55 0 -55 45 0 45 0 0 -79 0 -80 -42
-8 c-42 -8 -43 -9 -46 -52 -2 -25 -1 -55 2 -67 5 -20 9 -22 38 -13 18 5 36 9
41 9 4 0 6 -44 5 -97 l-3 -98 -43 -3 c-39 -3 -43 -5 -39 -25 3 -12 9 -39 12
-59 8 -42 15 -44 109 -29 80 13 86 26 86 201 l0 148 35 6 35 7 0 61 0 60 -35
-6 -35 -7 0 66 0 65 40 0 40 0 0 55 0 55 -40 0 -40 0 0 80 0 80 -60 0 -60 0 0
-80z"/>
<path d="M3250 825 l0 -185 255 0 255 0 0 185 0 185 -255 0 -255 0 0 -185z
m390 65 l0 -30 -130 0 c-107 0 -132 3 -136 15 -16 40 0 45 136 45 l130 0 0
-30z m0 -125 l0 -25 -135 0 c-124 0 -135 1 -135 18 0 10 3 22 7 25 3 4 64 7
135 7 l128 0 0 -25z"/>
<path d="M795 943 c-44 -51 -47 -57 -35 -77 44 -69 53 -122 23 -133 -20 -8
-73 48 -73 77 0 26 15 25 34 -2 19 -27 21 -19 4 17 -14 32 -46 33 -54 1 -8
-33 18 -78 66 -117 42 -34 50 -49 25 -49 -40 0 -135 119 -135 170 0 28 -11 25
-48 -13 -37 -38 -40 -53 -11 -62 27 -9 32 -3 20 28 -9 24 -6 37 9 37 4 0 13
-14 20 -31 7 -16 36 -54 64 -83 28 -29 66 -70 84 -91 l32 -40 0 105 c-1 69 -6
119 -16 145 -29 76 -29 79 -6 73 18 -5 22 -2 22 15 0 29 15 51 29 43 6 -4 11
-21 11 -37 0 -26 3 -29 25 -23 30 7 30 8 3 -52 -25 -57 -40 -264 -19 -264 6 0
11 4 11 9 0 5 36 49 80 96 44 47 80 92 80 99 0 8 7 19 15 26 20 17 31 -10 15
-39 -9 -18 -8 -21 7 -21 10 0 24 4 32 9 11 7 10 14 -8 40 -12 17 -30 35 -40
41 -15 8 -20 3 -29 -29 -16 -53 -62 -113 -105 -136 -39 -21 -65 -12 -32 11 39
28 76 67 91 96 14 27 14 32 -1 55 -16 24 -17 24 -36 7 -10 -9 -19 -24 -19 -33
1 -14 2 -13 11 2 13 22 44 23 35 1 -3 -9 -6 -19 -6 -23 0 -15 -49 -61 -65 -61
-26 0 -20 80 10 120 l25 34 -33 36 c-19 19 -40 45 -48 57 -15 21 -15 21 -64
-34z"/>
<path d="M2078 853 c-46 -4 -47 -5 -38 -29 6 -14 10 -30 10 -35 0 -5 -71 -9
-170 -9 l-170 0 0 -45 0 -45 98 -1 c77 0 92 -3 75 -11 -27 -13 -28 -18 -8 -44
8 -10 15 -22 15 -26 0 -5 -49 -8 -110 -8 l-110 0 0 -45 0 -45 450 0 450 0 0
45 0 45 -110 0 c-60 0 -110 2 -110 5 0 3 7 17 16 31 9 13 15 26 13 27 -2 2
-15 8 -29 14 -21 10 -8 12 73 12 l97 1 0 45 0 45 -160 0 -159 0 -12 40 c-13
43 -5 41 -111 33z m150 -205 l-23 -43 -82 -3 -81 -3 -32 46 -31 45 136 0 136
0 -23 -42z"/>
<path d="M560 725 c0 -2 20 -13 45 -24 55 -24 141 -103 166 -153 10 -20 19
-40 19 -43 0 -13 -29 -3 -46 16 -10 12 -59 42 -109 66 -49 25 -105 61 -122 80
-19 19 -33 28 -33 20 0 -7 11 -24 25 -37 14 -13 25 -27 25 -32 0 -13 -27 -9
-40 7 -20 24 -30 18 -30 -20 0 -28 5 -37 31 -50 17 -9 56 -20 86 -25 31 -5 58
-12 61 -15 15 -14 -16 -17 -80 -7 -40 6 -74 9 -76 7 -2 -2 7 -9 20 -17 15 -8
53 -12 111 -11 84 1 111 -9 66 -25 -17 -7 -10 -11 36 -21 31 -7 59 -11 61 -8
8 7 -76 72 -125 97 -24 12 -72 28 -108 35 -36 8 -67 16 -70 19 -14 14 34 18
85 6 82 -18 160 -57 216 -109 l49 -46 -7 39 c-18 96 -100 197 -192 236 -45 20
-64 24 -64 15z"/>
<path d="M1055 706 c-27 -13 -70 -42 -93 -65 -47 -46 -95 -138 -90 -172 3 -19
5 -18 33 11 19 19 23 29 12 25 -49 -19 13 89 86 149 24 19 63 44 87 55 25 11
38 20 30 20 -8 1 -37 -10 -65 -23z"/>
<path d="M550 682 c0 -16 35 -41 95 -68 l60 -26 -25 27 c-41 43 -130 90 -130
67z"/>
<path d="M1065 661 c-49 -28 -82 -57 -74 -65 7 -7 143 68 147 82 6 20 -19 14
-73 -17z"/>
<path d="M1165 659 c-16 -17 -66 -49 -111 -70 -45 -22 -90 -49 -100 -60 -15
-17 -12 -16 26 5 82 48 230 83 230 56 0 -5 -12 -12 -27 -16 -84 -19 -113 -29
-164 -56 -31 -16 -71 -44 -88 -62 l-31 -32 66 15 c59 14 63 16 40 24 -49 16
-26 25 67 23 58 0 100 4 115 12 38 22 24 31 -25 16 -52 -16 -123 -19 -123 -5
0 5 31 14 70 21 77 13 120 39 120 74 0 33 -9 37 -37 19 -37 -25 -50 -2 -13 25
16 13 30 27 30 32 0 18 -14 11 -45 -21z"/>
<path d="M3200 540 l0 -50 130 0 130 0 0 -100 c0 -113 -3 -115 -67 -48 -29 30
-31 36 -24 71 8 34 7 38 -15 43 -13 3 -38 7 -55 7 -31 2 -32 0 -45 -55 -14
-61 -43 -123 -78 -171 l-21 -28 24 -19 c14 -10 37 -25 52 -34 l28 -17 31 53
c16 29 32 58 34 63 2 6 16 -2 32 -16 64 -59 85 -64 275 -67 l176 -4 7 37 c4
20 10 43 13 51 4 12 -16 14 -121 14 l-126 0 0 35 0 35 105 0 105 0 0 45 0 45
-105 0 -105 0 0 30 0 30 120 0 120 0 0 50 0 50 -310 0 -310 0 0 -50z"/>
<path d="M420 498 c0 -5 21 -18 48 -30 l47 -22 -44 -5 c-40 -5 -43 -7 -27 -20
15 -12 23 -13 49 -2 18 7 44 16 60 18 38 7 34 23 -6 23 -19 0 -55 11 -80 24
-26 13 -47 19 -47 14z"/>
<path d="M1215 484 c-27 -13 -65 -24 -84 -24 -19 0 -31 -3 -28 -6 5 -6 85 -36
120 -47 5 -1 15 8 23 20 15 21 15 21 -25 16 -53 -7 -53 10 -1 26 35 10 58 27
49 35 -2 2 -26 -7 -54 -20z"/>
<path d="M1760 305 l0 -155 64 0 c48 0 65 4 70 15 8 22 444 22 452 0 5 -11 22
-15 70 -15 l64 0 0 155 0 155 -360 0 -360 0 0 -155z m588 13 l-3 -43 -225 0
-225 0 -3 43 -3 42 231 0 231 0 -3 -42z"/>
<path d="M512 397 c-17 -10 -20 -15 -10 -25 15 -15 42 -16 32 0 -4 6 1 17 11
25 25 17 -1 17 -33 0z"/>
<path d="M1133 400 c9 -6 17 -18 17 -25 0 -17 26 -20 36 -4 9 15 -5 26 -41 34
-24 5 -27 4 -12 -5z"/>
<path d="M585 380 c-13 -5 -14 -9 -5 -9 8 0 24 4 35 9 13 5 14 9 5 9 -8 0 -24
-4 -35 -9z"/>
<path d="M1070 380 c8 -5 24 -9 35 -9 l20 0 -20 9 c-11 5 -27 9 -35 9 -13 1
-13 0 0 -9z"/>
<path d="M825 231 c-40 -79 -113 -136 -203 -160 -23 -7 -42 -16 -42 -21 0 -13
517 -13 525 0 3 5 -7 12 -22 15 -100 22 -167 68 -212 147 l-29 51 -17 -32z"/>
</g>
</svg>
