<?xml version="1.0" encoding="utf-8"?>
<!-- Generator: Adobe Illustrator 23.0.3, SVG Export Plug-In . SVG Version: 6.00 Build 0)  -->
<svg version="1.1" id="Capa_1" xmlns="http://www.w3.org/2000/svg" xmlns:xlink="http://www.w3.org/1999/xlink" x="0px" y="0px"
	 viewBox="0 0 16.076 16.076" style="enable-background:new 0 0 16.076 16.076;" xml:space="preserve">
<style type="text/css">
	.st0{fill:#FFFFFF;}
</style>
<g>
	<path class="st0" d="M9.497,12.306c-0.125,0-0.25-0.046-0.347-0.14L5.24,8.397c-0.098-0.094-0.153-0.224-0.153-0.36
		c0-0.136,0.055-0.266,0.153-0.36L9.154,3.91C9.353,3.719,9.67,3.724,9.861,3.924c0.191,0.199,0.186,0.516-0.014,0.707l-3.54,3.407
		l3.537,3.408c0.199,0.191,0.205,0.508,0.013,0.707C9.758,12.254,9.627,12.306,9.497,12.306z"/>
	<path class="st0" d="M8.038,16.076C3.606,16.076,0,12.47,0,8.038S3.606,0,8.038,0s8.038,3.606,8.038,8.038
		S12.47,16.076,8.038,16.076z M8.038,1C4.157,1,1,4.157,1,8.038s3.157,7.038,7.038,7.038c3.88,0,7.038-3.157,7.038-7.038
		S11.918,1,8.038,1z"/>
</g>
</svg>
