<?xml version="1.0" encoding="utf-8"?>
<!-- Generator: Adobe Illustrator 23.0.2, SVG Export Plug-In . SVG Version: 6.00 Build 0)  -->
<svg version="1.1" id="Layer_1" xmlns="http://www.w3.org/2000/svg" xmlns:xlink="http://www.w3.org/1999/xlink" x="0px" y="0px"
	 viewBox="0 0 188.391 138.518" style="enable-background:new 0 0 188.391 138.518;" xml:space="preserve">
<style type="text/css">
	.st0{fill:#006DB6;}
	.st1{fill:#FFFFFF;}
	.st2{fill-rule:evenodd;clip-rule:evenodd;fill:#FFFFFF;}
	.st3{fill:#282F66;}
	.st4{fill:#201A1B;}
	.st5{fill:#EB5F2B;}
	.st6{fill:#E62C30;}
	.st7{fill:#F5991D;}
	.st8{fill:#EF7D00;}
	.st9{fill:url(#SVGID_1_);}
	.st10{opacity:0.65;fill:url(#SVGID_2_);}
	.st11{opacity:0.5;}
	.st12{clip-path:url(#SVGID_4_);}
	.st13{fill:#040403;}
	.st14{fill:#070707;}
	.st15{fill:#0B0B0B;}
	.st16{fill:#0F0F0F;}
	.st17{fill:#121212;}
	.st18{fill:#151515;}
	.st19{fill:#181818;}
	.st20{fill:#1B1B1A;}
	.st21{fill:#1D1D1D;}
	.st22{fill:#20201F;}
	.st23{fill:#222221;}
	.st24{fill:#242424;}
	.st25{fill:#272726;}
	.st26{fill:#292928;}
	.st27{fill:#2B2B2A;}
	.st28{fill:#2D2D2C;}
	.st29{fill:#2F2F2E;}
	.st30{fill:#313130;}
	.st31{fill:#333332;}
	.st32{fill:#353534;}
	.st33{fill:#363635;}
	.st34{fill:#373736;}
	.st35{fill:#383837;}
	.st36{fill:#393938;}
	.st37{fill:#3A3A39;}
	.st38{fill:#3C3B3A;}
	.st39{fill:#3D3C3B;}
	.st40{fill:#3E3D3D;}
	.st41{fill:#3F3E3E;}
	.st42{fill:#403F3F;}
	.st43{fill:#414040;}
	.st44{fill:#424141;}
	.st45{fill:#434242;}
	.st46{fill:#444443;}
	.st47{fill:#454544;}
	.st48{fill:#464645;}
	.st49{fill:#474746;}
	.st50{fill:#484847;}
	.st51{fill:#494948;}
	.st52{fill:#4A4A49;}
	.st53{fill:#4B4B4A;}
	.st54{fill:#4C4C4B;}
	.st55{fill:#4D4D4C;}
	.st56{fill:#4E4E4D;}
	.st57{fill:#4F4F4E;}
	.st58{fill:#50504F;}
	.st59{fill:#515150;}
	.st60{fill:#525251;}
	.st61{fill:#535352;}
	.st62{fill:#545453;}
	.st63{fill:#555554;}
	.st64{fill:#565655;}
	.st65{fill:#575756;}
	.st66{fill:#585757;}
	.st67{fill:#595858;}
	.st68{fill:#5A5959;}
	.st69{fill:#5B5A5A;}
	.st70{fill:#5B5B5A;}
	.st71{fill:#5C5C5B;}
	.st72{fill:#5D5D5C;}
	.st73{fill:#5E5E5D;}
	.st74{fill:#5F5F5E;}
	.st75{fill:#60605F;}
	.st76{fill:#616160;}
	.st77{fill:#626161;}
	.st78{fill:#636262;}
	.st79{fill:#646363;}
	.st80{fill:#646464;}
	.st81{fill:#656564;}
	.st82{fill:#666665;}
	.st83{fill:#676766;}
	.st84{fill:#686867;}
	.st85{fill:#696968;}
	.st86{fill:#6A6A69;}
	.st87{fill:#6B6A6A;}
	.st88{fill:#6C6B6B;}
	.st89{fill:#6D6C6C;}
	.st90{fill:#6D6D6D;}
	.st91{fill:#6E6E6D;}
	.st92{fill:#6F6F6E;}
	.st93{fill:#70706F;}
	.st94{fill:#717170;}
	.st95{fill:#727271;}
	.st96{fill:#737372;}
	.st97{fill:#747473;}
	.st98{fill:#757474;}
	.st99{fill:#767575;}
	.st100{fill:#777676;}
	.st101{fill:#777777;}
	.st102{fill:#787878;}
	.st103{fill:#797978;}
	.st104{fill:#7A7A79;}
	.st105{fill:#7B7B7A;}
	.st106{fill:#7C7C7B;}
	.st107{fill:#7D7D7C;}
	.st108{fill:#7E7D7D;}
	.st109{fill:#7F7E7E;}
	.st110{fill:#807F7F;}
	.st111{fill:#808080;}
	.st112{fill:#818180;}
	.st113{fill:#828281;}
	.st114{fill:#838382;}
	.st115{fill:#848483;}
	.st116{fill:#858484;}
	.st117{fill:#868585;}
	.st118{fill:#868686;}
	.st119{fill:#878787;}
	.st120{fill:#888887;}
	.st121{fill:#898988;}
	.st122{fill:#8A8A89;}
	.st123{fill:#8B8A8A;}
	.st124{fill:#8B8B8B;}
	.st125{fill:#8C8C8C;}
	.st126{fill:#8D8D8C;}
	.st127{fill:#8E8E8D;}
	.st128{fill:#8F8E8E;}
	.st129{fill:#8F8F8F;}
	.st130{fill:#909090;}
	.st131{fill:#919190;}
	.st132{fill:#929291;}
	.st133{fill:#939292;}
	.st134{fill:#939393;}
	.st135{fill:#949494;}
	.st136{fill:#959594;}
	.st137{fill:#969695;}
	.st138{fill:#979696;}
	.st139{fill:#979797;}
	.st140{fill:#989898;}
	.st141{fill:#999998;}
	.st142{fill:#9A9A99;}
	.st143{fill:#9B9A9A;}
	.st144{fill:#9B9B9B;}
	.st145{fill:#9C9C9C;}
	.st146{fill:#9D9D9C;}
	.st147{fill:#9E9E9D;}
	.st148{fill:#9F9E9E;}
	.st149{fill:#9F9F9F;}
	.st150{fill:#A0A0A0;}
	.st151{fill:#A1A1A0;}
	.st152{fill:#A2A2A1;}
	.st153{fill:#A3A2A2;}
	.st154{fill:#A3A3A3;}
	.st155{fill:#A4A4A4;}
	.st156{fill:#A5A5A5;}
	.st157{fill:#A6A6A5;}
	.st158{fill:#A7A7A6;}
	.st159{fill:#A8A7A7;}
	.st160{fill:#A8A8A8;}
	.st161{fill:#A9A9A9;}
	.st162{fill:#AAAAA9;}
	.st163{fill:#ABABAA;}
	.st164{fill:#ACABAB;}
	.st165{fill:#ACACAC;}
	.st166{fill:#ADADAD;}
	.st167{fill:#AEAEAD;}
	.st168{fill:#AFAFAE;}
	.st169{fill:#AFAFAF;}
	.st170{fill:#B0B0B0;}
	.st171{fill:#B1B1B1;}
	.st172{fill:#B2B2B1;}
	.st173{fill:#B3B2B2;}
	.st174{fill:#B3B3B3;}
	.st175{fill:#B4B4B4;}
	.st176{fill:#B5B5B4;}
	.st177{fill:#B6B5B5;}
	.st178{fill:#B6B6B6;}
	.st179{fill:#B7B7B7;}
	.st180{fill:#B8B8B7;}
	.st181{fill:#B9B8B8;}
	.st182{fill:#B9B9B9;}
	.st183{fill:#BABABA;}
	.st184{fill:#BBBBBA;}
	.st185{fill:#BCBBBB;}
	.st186{fill:#BCBCBC;}
	.st187{fill:#BDBDBD;}
	.st188{fill:#BEBEBD;}
	.st189{fill:#BFBEBE;}
	.st190{fill:#BFBFBF;}
	.st191{fill:#C0C0C0;}
	.st192{fill:#C1C1C0;}
	.st193{fill:#C2C1C1;}
	.st194{fill:#C2C2C2;}
	.st195{fill:#C3C3C3;}
	.st196{fill:#C4C4C3;}
	.st197{fill:#C4C4C4;}
	.st198{fill:#C5C5C5;}
	.st199{fill:#C6C6C6;}
	.st200{fill:#C7C7C6;}
	.st201{fill:#C7C7C7;}
	.st202{fill:#C8C8C8;}
	.st203{fill:#C9C9C8;}
	.st204{fill:#CAC9C9;}
	.st205{fill:#CACACA;}
	.st206{fill:#CBCBCB;}
	.st207{fill:#CCCCCB;}
	.st208{fill:#CDCCCC;}
	.st209{fill:#CDCDCD;}
	.st210{fill:#CECECE;}
	.st211{fill:#CFCFCE;}
	.st212{fill:#D0CFCF;}
	.st213{fill:#D0D0D0;}
	.st214{opacity:0.995;fill:#D0D0D0;}
	.st215{opacity:0.99;fill:#D1D1D0;}
	.st216{opacity:0.9851;fill:#D1D1D1;}
	.st217{opacity:0.9801;fill:#D1D1D1;}
	.st218{opacity:0.9751;fill:#D1D1D1;}
	.st219{opacity:0.9701;fill:#D2D2D1;}
	.st220{opacity:0.9652;fill:#D2D2D2;}
	.st221{opacity:0.9602;fill:#D2D2D2;}
	.st222{opacity:0.9552;fill:#D2D2D2;}
	.st223{opacity:0.9502;fill:#D3D3D2;}
	.st224{opacity:0.9453;fill:#D3D3D3;}
	.st225{opacity:0.9403;fill:#D3D3D3;}
	.st226{opacity:0.9353;fill:#D3D3D3;}
	.st227{opacity:0.9303;fill:#D4D4D3;}
	.st228{opacity:0.9254;fill:#D4D4D4;}
	.st229{opacity:0.9204;fill:#D4D4D4;}
	.st230{opacity:0.9154;fill:#D4D4D4;}
	.st231{opacity:0.9104;fill:#D5D5D4;}
	.st232{opacity:0.9055;fill:#D5D5D5;}
	.st233{opacity:0.9005;fill:#D5D5D5;}
	.st234{opacity:0.8955;fill:#D5D5D5;}
	.st235{opacity:0.8905;fill:#D6D6D5;}
	.st236{opacity:0.8856;fill:#D6D6D6;}
	.st237{opacity:0.8806;fill:#D6D6D6;}
	.st238{opacity:0.8756;fill:#D6D6D6;}
	.st239{opacity:0.8706;fill:#D7D7D6;}
	.st240{opacity:0.8657;fill:#D7D7D7;}
	.st241{opacity:0.8607;fill:#D7D7D7;}
	.st242{opacity:0.8557;fill:#D7D7D7;}
	.st243{opacity:0.8507;fill:#D8D8D7;}
	.st244{opacity:0.8458;fill:#D8D8D8;}
	.st245{opacity:0.8408;fill:#D8D8D8;}
	.st246{opacity:0.8358;fill:#D8D8D8;}
	.st247{opacity:0.8308;fill:#D9D9D8;}
	.st248{opacity:0.8259;fill:#D9D9D9;}
	.st249{opacity:0.8209;fill:#D9D9D9;}
	.st250{opacity:0.8159;fill:#D9D9D9;}
	.st251{opacity:0.8109;fill:#DAD9D9;}
	.st252{opacity:0.806;fill:#DADADA;}
	.st253{opacity:0.801;fill:#DADADA;}
	.st254{opacity:0.796;fill:#DADADA;}
	.st255{opacity:0.791;fill:#DBDADA;}
	.st256{opacity:0.7861;fill:#DBDBDB;}
	.st257{opacity:0.7811;fill:#DBDBDB;}
	.st258{opacity:0.7761;fill:#DBDBDB;}
	.st259{opacity:0.7711;fill:#DBDBDB;}
	.st260{opacity:0.7662;fill:#DCDCDB;}
	.st261{opacity:0.7612;fill:#DCDCDC;}
	.st262{opacity:0.7562;fill:#DCDCDC;}
	.st263{opacity:0.7512;fill:#DCDCDC;}
	.st264{opacity:0.7463;fill:#DDDDDC;}
	.st265{opacity:0.7413;fill:#DDDDDD;}
	.st266{opacity:0.7363;fill:#DDDDDD;}
	.st267{opacity:0.7313;fill:#DDDDDD;}
	.st268{opacity:0.7264;fill:#DEDDDD;}
	.st269{opacity:0.7214;fill:#DEDEDE;}
	.st270{opacity:0.7164;fill:#DEDEDE;}
	.st271{opacity:0.7114;fill:#DEDEDE;}
	.st272{opacity:0.7065;fill:#DEDEDE;}
	.st273{opacity:0.7015;fill:#DFDFDF;}
	.st274{opacity:0.6965;fill:#DFDFDF;}
	.st275{opacity:0.6915;fill:#DFDFDF;}
	.st276{opacity:0.6866;fill:#DFDFDF;}
	.st277{opacity:0.6816;fill:#E0E0DF;}
	.st278{opacity:0.6766;fill:#E0E0E0;}
	.st279{opacity:0.6716;fill:#E0E0E0;}
	.st280{opacity:0.6667;fill:#E0E0E0;}
	.st281{opacity:0.6617;fill:#E1E0E0;}
	.st282{opacity:0.6567;fill:#E1E1E1;}
	.st283{opacity:0.6517;fill:#E1E1E1;}
	.st284{opacity:0.6468;fill:#E1E1E1;}
	.st285{opacity:0.6418;fill:#E1E1E1;}
	.st286{opacity:0.6368;fill:#E2E2E1;}
	.st287{opacity:0.6318;fill:#E2E2E2;}
	.st288{opacity:0.6269;fill:#E2E2E2;}
	.st289{opacity:0.6219;fill:#E2E2E2;}
	.st290{opacity:0.6169;fill:#E3E3E2;}
	.st291{opacity:0.6119;fill:#E3E3E3;}
	.st292{opacity:0.607;fill:#E3E3E3;}
	.st293{opacity:0.602;fill:#E3E3E3;}
	.st294{opacity:0.597;fill:#E4E3E3;}
	.st295{opacity:0.592;fill:#E4E4E4;}
	.st296{opacity:0.5871;fill:#E4E4E4;}
	.st297{opacity:0.5821;fill:#E4E4E4;}
	.st298{opacity:0.5771;fill:#E4E4E4;}
	.st299{opacity:0.5721;fill:#E5E5E4;}
	.st300{opacity:0.5672;fill:#E5E5E5;}
	.st301{opacity:0.5622;fill:#E5E5E5;}
	.st302{opacity:0.5572;fill:#E5E5E5;}
	.st303{opacity:0.5522;fill:#E6E6E5;}
	.st304{opacity:0.5473;fill:#E6E6E6;}
	.st305{opacity:0.5423;fill:#E6E6E6;}
	.st306{opacity:0.5373;fill:#E6E6E6;}
	.st307{opacity:0.5323;fill:#E7E6E6;}
	.st308{opacity:0.5274;fill:#E7E7E7;}
	.st309{opacity:0.5224;fill:#E7E7E7;}
	.st310{opacity:0.5174;fill:#E7E7E7;}
	.st311{opacity:0.5124;fill:#E7E7E7;}
	.st312{opacity:0.5075;fill:#E8E8E8;}
	.st313{opacity:0.5025;fill:#E8E8E8;}
	.st314{opacity:0.4975;fill:#E8E8E8;}
	.st315{opacity:0.4925;fill:#E8E8E8;}
	.st316{opacity:0.4876;fill:#E9E9E8;}
	.st317{opacity:0.4826;fill:#E9E9E9;}
	.st318{opacity:0.4776;fill:#E9E9E9;}
	.st319{opacity:0.4726;fill:#E9E9E9;}
	.st320{opacity:0.4677;fill:#EAE9E9;}
	.st321{opacity:0.4627;fill:#EAEAEA;}
	.st322{opacity:0.4577;fill:#EAEAEA;}
	.st323{opacity:0.4527;fill:#EAEAEA;}
	.st324{opacity:0.4478;fill:#EAEAEA;}
	.st325{opacity:0.4428;fill:#EBEBEB;}
	.st326{opacity:0.4378;fill:#EBEBEB;}
	.st327{opacity:0.4328;fill:#EBEBEB;}
	.st328{opacity:0.4279;fill:#EBEBEB;}
	.st329{opacity:0.4229;fill:#ECECEB;}
	.st330{opacity:0.4179;fill:#ECECEC;}
	.st331{opacity:0.4129;fill:#ECECEC;}
	.st332{opacity:0.408;fill:#ECECEC;}
	.st333{opacity:0.403;fill:#EDECEC;}
	.st334{opacity:0.398;fill:#EDEDED;}
	.st335{opacity:0.393;fill:#EDEDED;}
	.st336{opacity:0.3881;fill:#EDEDED;}
	.st337{opacity:0.3831;fill:#EDEDED;}
	.st338{opacity:0.3781;fill:#EEEEEE;}
	.st339{opacity:0.3731;fill:#EEEEEE;}
	.st340{opacity:0.3682;fill:#EEEEEE;}
	.st341{opacity:0.3632;fill:#EEEEEE;}
	.st342{opacity:0.3582;fill:#EFEFEE;}
	.st343{opacity:0.3532;fill:#EFEFEF;}
	.st344{opacity:0.3483;fill:#EFEFEF;}
	.st345{opacity:0.3433;fill:#EFEFEF;}
	.st346{opacity:0.3383;fill:#F0EFEF;}
	.st347{opacity:0.3333;fill:#F0F0F0;}
	.st348{opacity:0.3284;fill:#F0F0F0;}
	.st349{opacity:0.3234;fill:#F0F0F0;}
	.st350{opacity:0.3184;fill:#F0F0F0;}
	.st351{opacity:0.3134;fill:#F1F1F1;}
	.st352{opacity:0.3085;fill:#F1F1F1;}
	.st353{opacity:0.3035;fill:#F1F1F1;}
	.st354{opacity:0.2985;fill:#F1F1F1;}
	.st355{opacity:0.2935;fill:#F2F2F2;}
	.st356{opacity:0.2886;fill:#F2F2F2;}
	.st357{opacity:0.2836;fill:#F2F2F2;}
	.st358{opacity:0.2786;fill:#F2F2F2;}
	.st359{opacity:0.2736;fill:#F3F2F2;}
	.st360{opacity:0.2687;fill:#F3F3F3;}
	.st361{opacity:0.2637;fill:#F3F3F3;}
	.st362{opacity:0.2587;fill:#F3F3F3;}
	.st363{opacity:0.2537;fill:#F3F3F3;}
	.st364{opacity:0.2488;fill:#F4F4F4;}
	.st365{opacity:0.2438;fill:#F4F4F4;}
	.st366{opacity:0.2388;fill:#F4F4F4;}
	.st367{opacity:0.2338;fill:#F4F4F4;}
	.st368{opacity:0.2289;fill:#F5F5F5;}
	.st369{opacity:0.2239;fill:#F5F5F5;}
	.st370{opacity:0.2189;fill:#F5F5F5;}
	.st371{opacity:0.2139;fill:#F5F5F5;}
	.st372{opacity:0.209;fill:#F6F5F5;}
	.st373{opacity:0.204;fill:#F6F6F6;}
	.st374{opacity:0.199;fill:#F6F6F6;}
	.st375{opacity:0.194;fill:#F6F6F6;}
	.st376{opacity:0.1891;fill:#F6F6F6;}
	.st377{opacity:0.1841;fill:#F7F7F7;}
	.st378{opacity:0.1791;fill:#F7F7F7;}
	.st379{opacity:0.1741;fill:#F7F7F7;}
	.st380{opacity:0.1692;fill:#F7F7F7;}
	.st381{opacity:0.1642;fill:#F8F8F8;}
	.st382{opacity:0.1592;fill:#F8F8F8;}
	.st383{opacity:0.1542;fill:#F8F8F8;}
	.st384{opacity:0.1493;fill:#F8F8F8;}
	.st385{opacity:0.1443;fill:#F8F8F8;}
	.st386{opacity:0.1393;fill:#F9F9F9;}
	.st387{opacity:0.1343;fill:#F9F9F9;}
	.st388{opacity:0.1294;fill:#F9F9F9;}
	.st389{opacity:0.1244;fill:#F9F9F9;}
	.st390{opacity:0.1194;fill:#FAFAFA;}
	.st391{opacity:0.1144;fill:#FAFAFA;}
	.st392{opacity:0.1095;fill:#FAFAFA;}
	.st393{opacity:0.1045;fill:#FAFAFA;}
	.st394{opacity:0.0995;fill:#FBFBFB;}
	.st395{opacity:0.0945;fill:#FBFBFB;}
	.st396{opacity:0.0896;fill:#FBFBFB;}
	.st397{opacity:0.0846;fill:#FBFBFB;}
	.st398{opacity:0.0796;fill:#FBFBFB;}
	.st399{opacity:0.0746;fill:#FCFCFC;}
	.st400{opacity:0.0697;fill:#FCFCFC;}
	.st401{opacity:0.0647;fill:#FCFCFC;}
	.st402{opacity:0.0597;fill:#FCFCFC;}
	.st403{opacity:0.0547;fill:#FDFDFD;}
	.st404{opacity:0.0498;fill:#FDFDFD;}
	.st405{opacity:0.0448;fill:#FDFDFD;}
	.st406{opacity:0.0398;fill:#FDFDFD;}
	.st407{opacity:0.0348;fill:#FDFDFD;}
	.st408{opacity:0.0299;fill:#FEFEFE;}
	.st409{opacity:0.0249;fill:#FEFEFE;}
	.st410{opacity:0.0199;fill:#FEFEFE;}
	.st411{opacity:0.0149;fill:#FEFEFE;}
	.st412{opacity:0.01;fill:#FFFFFF;}
	.st413{opacity:0.005;fill:#FFFFFF;}
	.st414{opacity:0;fill:#FFFFFF;}
	.st415{fill:#4D4D4D;}
	.st416{fill:#F39023;}
	.st417{fill:#F28F21;}
	.st418{fill:#A5A9AA;}
	.st419{fill:#3A3A38;}
	.st420{opacity:0.6;}
	.st421{clip-path:url(#SVGID_6_);fill:#020203;}
	.st422{opacity:0.45;}
	.st423{clip-path:url(#SVGID_8_);fill:#020203;}
	.st424{opacity:0.8;}
	.st425{clip-path:url(#SVGID_10_);fill:#020203;}
	.st426{clip-path:url(#SVGID_12_);fill:#020203;}
	.st427{clip-path:url(#SVGID_14_);fill:#020203;}
</style>
<rect x="0.5" y="0.5" class="st1" width="187.391" height="137.518"/>
<g>
	<path class="st415" d="M33.387,122.337c-1.033,0-2.066-0.028-3.085-0.098c-1.075-0.072-2.143-0.222-3.197-0.447v-18.274
		c0.947-0.173,1.902-0.294,2.862-0.363c1.033-0.084,1.996-0.126,2.89-0.126c1.109-0.01,2.216,0.079,3.308,0.265
		c0.911,0.135,1.791,0.433,2.597,0.879c0.702,0.391,1.289,0.959,1.703,1.647c0.405,0.684,0.614,1.522,0.614,2.513
		c0,1.508-0.726,2.694-2.178,3.56c1.201,0.447,2.01,1.075,2.443,1.843c0.442,0.808,0.668,1.717,0.656,2.638
		c0,1.982-0.726,3.462-2.164,4.453C38.37,121.848,36.235,122.337,33.387,122.337z M31.237,110.652h2.066
		c1.312,0,2.234-0.168,2.806-0.503c0.558-0.335,0.838-0.879,0.838-1.619c0-0.768-0.293-1.298-0.866-1.605
		c-0.586-0.307-1.438-0.461-2.555-0.461c-0.363,0-0.754,0-1.173,0.014c-0.419,0.014-0.782,0.028-1.117,0.07L31.237,110.652z
		 M31.237,113.891v4.872c0.307,0.042,0.642,0.07,1.005,0.084c0.363,0.014,0.768,0.028,1.201,0.028c1.27,0,2.289-0.181,3.071-0.544
		c0.782-0.363,1.173-1.033,1.173-2.01c0-0.866-0.321-1.494-0.977-1.857c-0.656-0.377-1.591-0.558-2.806-0.558L31.237,113.891z"/>
	<path class="st415" d="M48.045,103.658c0,0.74-0.237,1.326-0.726,1.759c-0.974,0.856-2.432,0.856-3.406,0
		c-0.475-0.433-0.726-1.005-0.726-1.759c0-0.74,0.237-1.326,0.726-1.759c0.467-0.42,1.075-0.649,1.703-0.642
		c0.629-0.011,1.238,0.219,1.703,0.642C47.807,102.332,48.045,102.919,48.045,103.658z M47.654,122.1h-4.048v-14.309h4.048V122.1z"
		/>
	<path class="st415" d="M49.832,104.231l4.048-0.656v4.216h4.872v3.378H53.88v5.026c0,0.852,0.154,1.536,0.447,2.038
		S55.234,119,56.141,119c0.45-0.002,0.898-0.044,1.34-0.126c0.432-0.077,0.857-0.189,1.27-0.335l0.572,3.155
		c-0.531,0.213-1.077,0.386-1.633,0.517c-0.724,0.158-1.464,0.233-2.206,0.223c-1.103,0-2.024-0.154-2.75-0.447
		c-0.681-0.259-1.283-0.692-1.745-1.256c-0.45-0.567-0.761-1.232-0.907-1.94c-0.179-0.83-0.268-1.677-0.265-2.527L49.832,104.231
		L49.832,104.231z"/>
	<path class="st415" d="M59.324,114.952c-0.007-0.995,0.163-1.983,0.503-2.918c0.639-1.805,2.007-3.258,3.769-4.006
		c0.979-0.417,2.035-0.621,3.099-0.6c0.704-0.007,1.406,0.064,2.094,0.209c0.631,0.138,1.248,0.334,1.843,0.586l-0.838,3.239
		c-0.411-0.15-0.831-0.276-1.256-0.377c-0.499-0.117-1.01-0.173-1.522-0.168c-1.201,0-2.094,0.377-2.68,1.117
		c-0.586,0.74-0.879,1.717-0.879,2.932c0,1.284,0.279,2.289,0.824,2.987c0.558,0.712,1.522,1.061,2.89,1.061
		c0.529-0.001,1.057-0.048,1.577-0.14c0.532-0.081,1.052-0.226,1.55-0.433l0.572,3.322c-0.573,0.23-1.166,0.403-1.773,0.517
		c-0.773,0.15-1.558,0.225-2.345,0.223c-1.312,0-2.429-0.195-3.378-0.586c-0.886-0.35-1.682-0.894-2.331-1.591
		c-0.615-0.681-1.068-1.493-1.326-2.373C59.455,116.974,59.323,115.965,59.324,114.952z"/>
	<path class="st415" d="M84.815,114.924c0.01,1.048-0.155,2.091-0.489,3.085c-0.295,0.887-0.775,1.701-1.41,2.387
		c-0.622,0.664-1.379,1.187-2.22,1.536c-1.853,0.726-3.912,0.726-5.765,0c-0.841-0.348-1.597-0.872-2.22-1.536
		c-0.635-0.691-1.125-1.503-1.438-2.387c-0.355-0.989-0.53-2.034-0.517-3.085c-0.012-1.048,0.168-2.088,0.53-3.071
		c0.32-0.879,0.819-1.683,1.466-2.359c0.631-0.657,1.391-1.175,2.234-1.522c0.894-0.369,1.853-0.554,2.82-0.544
		c0.976-0.011,1.945,0.174,2.848,0.544c0.84,0.343,1.597,0.862,2.22,1.522c0.635,0.68,1.124,1.483,1.438,2.359
		C84.652,112.841,84.822,113.879,84.815,114.924z M80.683,114.924c0-1.256-0.251-2.234-0.754-2.946s-1.215-1.075-2.136-1.075
		s-1.647,0.363-2.15,1.075s-0.768,1.703-0.768,2.946c0,1.256,0.251,2.248,0.768,2.973c0.503,0.74,1.228,1.103,2.15,1.103
		s1.633-0.363,2.136-1.103C80.432,117.158,80.683,116.167,80.683,114.924z"/>
	<path class="st415" d="M90.874,103.658c0,0.74-0.237,1.326-0.726,1.759c-0.974,0.856-2.432,0.856-3.406,0
		c-0.475-0.433-0.726-1.005-0.726-1.759c0-0.74,0.237-1.326,0.726-1.759c0.467-0.42,1.075-0.649,1.703-0.642
		c0.629-0.011,1.238,0.219,1.703,0.642C90.636,102.332,90.874,102.919,90.874,103.658z M90.497,122.1h-4.048v-14.309h4.048V122.1z"
		/>
	<path class="st415" d="M92.8,108.279c0.877-0.241,1.767-0.427,2.666-0.558c1.132-0.175,2.275-0.264,3.42-0.265
		c1.215,0,2.22,0.154,3.029,0.475c0.743,0.272,1.403,0.734,1.913,1.34c0.485,0.605,0.828,1.311,1.005,2.066
		c0.204,0.874,0.302,1.769,0.293,2.666v8.083h-4.048v-7.594c0-1.312-0.168-2.234-0.517-2.778s-0.991-0.81-1.926-0.81
		c-0.293,0-0.6,0.014-0.921,0.042c-0.321,0.028-0.614,0.056-0.866,0.098v11.042H92.8V108.279L92.8,108.279z"/>
	<path class="st416" d="M116.197,122.476c-3.071,0-5.407-0.852-7.008-2.555c-1.605-1.703-2.406-4.123-2.401-7.259
		c-0.022-1.426,0.229-2.843,0.74-4.174c0.446-1.162,1.13-2.218,2.01-3.099c0.866-0.848,1.904-1.5,3.043-1.913
		c1.231-0.445,2.531-0.667,3.839-0.656c0.73-0.008,1.459,0.053,2.178,0.181c0.581,0.096,1.155,0.231,1.717,0.405
		c0.421,0.126,0.832,0.285,1.228,0.475c0.321,0.168,0.558,0.293,0.712,0.377l-1.228,3.42c-0.645-0.333-1.323-0.595-2.024-0.782
		c-0.855-0.229-1.739-0.338-2.624-0.321c-0.651,0.001-1.297,0.11-1.913,0.321c-0.624,0.223-1.191,0.581-1.661,1.047
		c-0.51,0.532-0.905,1.164-1.159,1.857c-0.293,0.768-0.433,1.689-0.433,2.778c-0.003,0.818,0.09,1.633,0.279,2.429
		c0.172,0.703,0.486,1.363,0.921,1.94c0.446,0.561,1.021,1.006,1.675,1.298c0.684,0.321,1.522,0.475,2.499,0.475
		c0.556,0.002,1.111-0.035,1.661-0.112c0.443-0.059,0.881-0.147,1.312-0.265c0.343-0.086,0.679-0.198,1.005-0.335
		c0.293-0.126,0.558-0.251,0.782-0.349l1.173,3.406c-0.6,0.363-1.438,0.684-2.527,0.977
		C118.752,122.351,117.476,122.496,116.197,122.476z"/>
	<path class="st416" d="M128.872,107.414c1.201,0,2.192,0.14,2.987,0.405c0.727,0.221,1.386,0.625,1.913,1.173
		c0.486,0.521,0.836,1.154,1.019,1.843c0.203,0.789,0.302,1.601,0.293,2.415v8.432c-0.586,0.126-1.382,0.279-2.415,0.447
		c-1.243,0.188-2.498,0.276-3.755,0.265c-0.844,0.008-1.687-0.076-2.513-0.251c-0.691-0.142-1.349-0.412-1.94-0.796
		c-0.539-0.366-0.972-0.866-1.256-1.452c-0.293-0.6-0.433-1.326-0.433-2.206c-0.023-0.739,0.151-1.471,0.503-2.122
		c0.319-0.57,0.781-1.046,1.34-1.382c0.593-0.363,1.245-0.618,1.926-0.754c0.743-0.158,1.501-0.237,2.261-0.237
		c0.466-0.001,0.932,0.022,1.396,0.07c0.336,0.026,0.668,0.087,0.991,0.181v-0.377c0-0.684-0.209-1.242-0.628-1.661
		c-0.419-0.419-1.145-0.628-2.178-0.628c-0.682,0.002-1.363,0.053-2.038,0.154c-0.595,0.079-1.179,0.219-1.745,0.419l-0.517-3.267
		c0.237-0.07,0.53-0.154,0.879-0.237s0.74-0.154,1.159-0.223c0.419-0.07,0.852-0.112,1.312-0.168
		C127.923,107.442,128.398,107.414,128.872,107.414z M129.194,119.266c0.405,0,0.782-0.014,1.145-0.028
		c0.29-0.006,0.58-0.034,0.866-0.084v-3.071c-0.245-0.05-0.491-0.087-0.74-0.112c-0.296-0.038-0.595-0.056-0.893-0.056
		c-0.359,0.001-0.718,0.024-1.075,0.07c-0.307,0.031-0.606,0.121-0.879,0.265c-0.242,0.117-0.449,0.295-0.6,0.517
		c-0.15,0.243-0.228,0.524-0.223,0.81c0,0.628,0.209,1.075,0.642,1.312C127.867,119.154,128.454,119.266,129.194,119.266
		L129.194,119.266z"/>
	<path class="st416" d="M141.381,119.196c0.74,0,1.27-0.07,1.577-0.223c0.307-0.14,0.461-0.433,0.461-0.838
		c0-0.321-0.195-0.614-0.6-0.852c-0.583-0.33-1.195-0.606-1.829-0.824c-0.59-0.214-1.168-0.461-1.731-0.74
		c-0.484-0.228-0.928-0.535-1.312-0.907c-0.366-0.359-0.652-0.792-0.838-1.27c-0.209-0.567-0.309-1.169-0.293-1.773
		c0-1.34,0.503-2.401,1.494-3.183c0.991-0.782,2.359-1.173,4.104-1.173c0.839,0,1.675,0.079,2.499,0.237
		c0.646,0.112,1.282,0.28,1.899,0.503l-0.712,3.155c-0.503-0.174-1.016-0.319-1.536-0.433c-0.61-0.134-1.232-0.199-1.857-0.195
		c-1.27,0-1.899,0.349-1.899,1.061c-0.003,0.149,0.025,0.296,0.084,0.433c0.074,0.147,0.185,0.271,0.321,0.363
		c0.212,0.144,0.437,0.27,0.67,0.377c0.349,0.17,0.708,0.319,1.075,0.447c0.757,0.274,1.494,0.6,2.206,0.977
		c0.509,0.268,0.971,0.617,1.368,1.033c0.323,0.354,0.566,0.773,0.712,1.228c0.148,0.512,0.219,1.044,0.209,1.577
		c0,1.41-0.53,2.485-1.591,3.197c-1.061,0.726-2.555,1.089-4.495,1.089c-1.065,0.02-2.129-0.088-3.169-0.321
		c-0.596-0.147-1.184-0.329-1.759-0.544l0.684-3.295c0.689,0.271,1.399,0.485,2.122,0.642
		C139.945,119.111,140.661,119.195,141.381,119.196z"/>
	<path class="st416" d="M148.961,122.1v-20.451l4.048-0.656v6.854c0.344-0.109,0.693-0.197,1.047-0.265
		c0.409-0.082,0.825-0.124,1.242-0.126c1.159,0,2.122,0.154,2.89,0.475c0.717,0.284,1.351,0.745,1.843,1.34
		c0.471,0.61,0.804,1.315,0.977,2.066c0.199,0.874,0.293,1.77,0.279,2.666v8.083h-4.048v-7.594c0-1.312-0.168-2.234-0.503-2.778
		s-0.963-0.81-1.857-0.81c-0.342-0.004-0.684,0.029-1.019,0.098c-0.287,0.055-0.572,0.125-0.852,0.209v10.875h-4.048L148.961,122.1
		L148.961,122.1z"/>
	<path class="st416" d="M123.275,98.979c13.053-9.158,21.582-24.318,21.582-41.476s-8.529-32.332-21.582-41.49h38.069v82.966
		H123.275z"/>
	<path class="st416" d="M43.576,57.49c0,17.157,8.53,32.317,21.582,41.476H27.048V16.014h38.111
		C52.106,25.171,43.576,40.332,43.576,57.49z"/>
	<circle class="st416" cx="94.196" cy="57.469" r="41.448"/>
	<path class="st1" d="M113.636,59.192l-0.023-0.043l-0.004-0.007c-0.014-0.043-0.024-0.088-0.04-0.135l-0.002-0.004L113.565,59
		l-0.002-0.004l-0.002-0.004l-0.002-0.004l-0.002-0.004l-0.004-0.007c-0.487-1.627-1.451-3.07-2.768-4.142l-0.002-0.004
		c-0.039-0.03-0.08-0.063-0.119-0.093l-0.054-0.04l-0.039-0.03l-0.017-0.014l-0.037-0.026l-0.017-0.014l-0.037-0.026l-0.017-0.014
		l-0.039-0.03l-0.02-0.012l-0.039-0.03l-0.02-0.012l-0.042-0.028l-0.02-0.012l-0.025-0.037l-0.022-0.016l-0.042-0.028l-0.022-0.016
		l-0.042-0.028l-0.022-0.016l-0.042-0.028l-0.022-0.016l-0.045-0.031l-0.022-0.016l-0.048-0.029l-0.022-0.016l-0.048-0.029
		l-0.022-0.016l-0.048-0.029l-0.022-0.016l-0.048-0.029l-0.026-0.014l-0.048-0.029L109.601,54l-0.052-0.028l-0.026-0.014
		l-0.054-0.031l-0.026-0.014l-0.054-0.031l-0.026-0.014l-0.054-0.031l-0.028-0.017l-0.054-0.031l-0.028-0.017l-0.057-0.029
		l-0.028-0.017l-0.057-0.029l-0.039-0.021l-0.002-0.004c-0.028-0.017-0.057-0.029-0.085-0.046c-1.185-0.609-2.465-1.013-3.785-1.196
		c0.37-0.398,0.709-0.824,1.014-1.273l0.049-0.072l0.004-0.002l0.022-0.035l0.029-0.048l0.016-0.022l0.029-0.048l0.016-0.022
		l0.029-0.048l0.016-0.022l0.029-0.048l0.016-0.022l0.029-0.048l0.016-0.022l0.026-0.046l0.016-0.022l0.026-0.046l0.012-0.02
		l0.026-0.046l0.012-0.02l0.026-0.046l0.012-0.02l0.022-0.044l0.012-0.02l0.022-0.044l0.012-0.02l0.022-0.044l0.012-0.02
		l0.024-0.041l0.012-0.02l0.024-0.041l0.012-0.02l0.021-0.039l0.012-0.02l0.021-0.039l0.009-0.018l0.021-0.039l0.009-0.018
		l0.021-0.039l0.009-0.018l0.021-0.039l0.009-0.018l0.017-0.037l0.009-0.018l0.017-0.037l0.009-0.018l0.017-0.037l0.009-0.018
		l0.019-0.042l0.026-0.056c0.019-0.042,0.034-0.083,0.052-0.126l0.004-0.002c0.568-1.4,0.701-2.938,0.382-4.415l-0.002-0.004
		l-0.004-0.007l-0.002-0.004L107.494,45l-0.002-0.004l-0.002-0.004l-0.002-0.004l-0.002-0.004c-0.009-0.042-0.017-0.083-0.029-0.123
		v-0.008l-0.002-0.004l-0.002-0.004l-0.002-0.004l0.002,0.004l-0.017-0.032c-0.013-0.058-0.025-0.115-0.043-0.175
		c-0.013-0.058-0.031-0.117-0.047-0.173l-0.021-0.039l-0.004-0.007c-0.012-0.04-0.024-0.079-0.036-0.119l-0.002-0.004l-0.002-0.004
		l-0.002-0.004l-0.002-0.004l-0.002-0.004l-0.002-0.004l-0.002-0.004c-0.432-1.448-1.29-2.732-2.463-3.685l-0.002-0.004
		c-0.034-0.028-0.071-0.054-0.104-0.082l-0.046-0.035l-0.037-0.026l-0.017-0.014l-0.032-0.024l-0.017-0.014l-0.032-0.024
		l-0.017-0.014l-0.035-0.022l-0.017-0.014l-0.037-0.026l-0.017-0.014l-0.037-0.026l-0.017-0.014l-0.037-0.026l-0.02-0.012
		l-0.037-0.026l-0.02-0.012l-0.037-0.026l-0.02-0.012l-0.041-0.024l-0.02-0.012l-0.041-0.024l-0.02-0.012l-0.041-0.024l-0.02-0.012
		l-0.041-0.024l-0.02-0.012l-0.043-0.028l-0.02-0.012l-0.043-0.028l-0.02-0.012l-0.046-0.026l-0.02-0.012l-0.046-0.026l-0.022-0.016
		l-0.046-0.026l-0.022-0.016l-0.046-0.026l-0.022-0.016l-0.048-0.029l-0.026-0.014l-0.049-0.031l-0.026-0.014l-0.052-0.028
		l-0.026-0.014l-0.052-0.028l-0.037-0.017l-0.002-0.004l-0.077-0.042c-2.263-1.176-5.139-1.531-8.032-0.788l-0.753,0.193
		l-1.904-7.413l-4.411,1.131l1.897,7.383l-3.529,0.91l-1.899-7.36l-4.411,1.131l1.897,7.383l-9.097,2.341l1.21,4.704l3.666-0.941
		c1.213-0.313,2.45,0.417,2.763,1.63l0.001,0.004l0,0l5.088,19.798c0.207,0.81-0.28,1.634-1.089,1.844l-3.212,0.826l0.189,5.595
		l9.087-2.335l1.922,7.37l4.409-1.135l-1.899-7.387l3.529-0.905l1.899,7.387l4.409-1.135l-1.906-7.416
		c0.747-0.195,1.39-0.361,1.834-0.476c3.26-0.839,5.897-2.75,7.493-5.134l0.054-0.08l0.004-0.002l0.026-0.037l0.035-0.056
		l0.017-0.028l0.035-0.056l0.017-0.028l0.031-0.054l0.017-0.028l0.031-0.054l0.014-0.026l0.031-0.054l0.014-0.026l0.031-0.054
		l0.014-0.026l0.028-0.052l0.014-0.026l0.028-0.052l0.014-0.026l0.029-0.048l0.014-0.026l0.029-0.048l0.014-0.026l0.026-0.046
		l0.014-0.026l0.026-0.046l0.014-0.026l0.026-0.046l0.01-0.024l0.026-0.046l0.01-0.024l0.022-0.044l0.012-0.02l0.022-0.044
		l0.012-0.02l0.022-0.044l0.012-0.02l0.022-0.044l0.012-0.02l0.022-0.044l0.012-0.02l0.022-0.044l0.012-0.02l0.019-0.042l0.012-0.02
		l0.019-0.042l0.009-0.018l0.02-0.048l0.028-0.061c0.02-0.048,0.042-0.092,0.059-0.138l0.002-0.005
		c0.638-1.575,0.788-3.305,0.431-4.966l-0.002-0.004l-0.002-0.004l-0.002-0.004l-0.002-0.004l-0.002-0.004l-0.002-0.004
		l-0.002-0.004l-0.002-0.004c-0.01-0.045-0.021-0.09-0.031-0.135v-0.009l-0.002-0.004l-0.002-0.004l-0.002-0.004l-0.002-0.004
		l-0.002-0.004l-0.002-0.004l-0.002-0.004l-0.002-0.004l-0.002-0.004l-0.002-0.004l-0.002-0.004l-0.002-0.004l-0.002-0.004
		l-0.008-0.014c-0.016-0.065-0.029-0.132-0.049-0.194C113.646,59.313,113.639,59.253,113.636,59.192z M87.718,45.948
		c0.753-0.193,3.864-0.975,4.89-1.241c1.631-0.418,3.239-0.255,4.494,0.349l0.042,0.019l0,0l0.018,0.009l0.026,0.014l0.013,0.007
		l0.026,0.014l0.013,0.007l0.026,0.014l0.013,0.007l0.026,0.014l0.013,0.007l0.026,0.014l0.013,0.007l0.026,0.014l0.013,0.007
		l0.026,0.014l0.013,0.007l0.026,0.014l0.013,0.007l0.026,0.014l0.013,0.007l0.022,0.016l0.013,0.007l0.022,0.016l0.013,0.007
		l0.022,0.016l0.013,0.007l0.02,0.012l0.013,0.007l0.02,0.012l0.013,0.007l0.02,0.012l0.013,0.007l0.02,0.012l0.013,0.007
		l0.02,0.012l0.009,0.009l0.02,0.012l0.007,0.005l0.02,0.012l0.007,0.005l0.02,0.012l0.007,0.005l0.02,0.012l0.007,0.005
		l0.017,0.014l0.007,0.005l0.02,0.012l0.028,0.017c0.02,0.012,0.039,0.03,0.059,0.042l0,0c0.642,0.485,1.115,1.161,1.348,1.931l0,0
		l0.006,0.011c0.006,0.02,0.014,0.043,0.02,0.063l0.002,0.004l0.012,0.021c0.008,0.032,0.018,0.059,0.026,0.092
		c0.009,0.033,0.015,0.067,0.018,0.101l0.012,0.021l0.002,0.004c0.003,0.022,0.009,0.044,0.016,0.065l0.006,0.011l0,0
		c0.165,0.787,0.077,1.607-0.251,2.341l0,0l-0.029,0.066l-0.015,0.031l-0.012,0.02l-0.003,0.011l-0.009,0.018l-0.003,0.011
		l-0.012,0.02l-0.003,0.011l-0.012,0.02l-0.003,0.011l-0.012,0.02l-0.003,0.011l-0.012,0.02l-0.003,0.011l-0.012,0.02l-0.003,0.011
		l-0.012,0.02l-0.007,0.013l-0.012,0.02L99.05,50.64l-0.012,0.02l-0.007,0.013l-0.012,0.02l-0.007,0.013l-0.016,0.022l-0.007,0.013
		l-0.016,0.022l-0.007,0.013l-0.016,0.022l-0.007,0.013l-0.016,0.022l-0.007,0.013l-0.016,0.022L98.9,50.882l-0.016,0.022
		l-0.007,0.013l-0.016,0.022l-0.007,0.013l-0.016,0.022l-0.007,0.013l-0.019,0.024l-0.007,0.013l-0.019,0.024l-0.007,0.013
		l-0.019,0.024l-0.007,0.013l-0.019,0.024l-0.014,0.017l0,0l-0.026,0.037c-0.811,1.137-2.141,2.055-3.772,2.472
		c-1.028,0.263-4.132,1.077-4.884,1.27L87.718,45.948z M104.96,61.125l0.012,0.021l0.002,0.004c0.004,0.025,0.01,0.045,0.015,0.07
		l0,0l0.002,0.004l0,0l0.002,0.004l0.002,0.004l0.002,0.004l0,0c0.174,0.868,0.049,1.77-0.355,2.558l0,0l-0.04,0.072l-0.019,0.033
		l-0.014,0.026l-0.007,0.013l-0.012,0.02l-0.007,0.013l-0.012,0.02l-0.007,0.013l-0.016,0.022l-0.007,0.013l-0.016,0.022
		l-0.007,0.013l-0.016,0.022l-0.007,0.013l-0.016,0.022l-0.007,0.013l-0.016,0.022l-0.007,0.013l-0.016,0.022l-0.007,0.013
		l-0.016,0.022l-0.007,0.013l-0.016,0.022l-0.007,0.013l-0.016,0.022l-0.007,0.013l-0.019,0.024l-0.007,0.013l-0.019,0.024
		l-0.007,0.013l-0.017,0.028l-0.007,0.013l-0.017,0.028l-0.007,0.013l-0.017,0.028l-0.01,0.015l-0.017,0.028l-0.01,0.015
		l-0.021,0.03l-0.01,0.015l-0.021,0.03l-0.01,0.015l-0.021,0.03l-0.01,0.015l-0.021,0.03l-0.01,0.015l-0.021,0.03l-0.018,0.019l0,0
		l-0.033,0.041c-0.985,1.258-2.574,2.293-4.504,2.788c-1.217,0.314-4.895,1.276-5.79,1.504l-2.504-9.742
		c0.893-0.232,4.581-1.158,5.798-1.472c1.93-0.495,3.825-0.355,5.29,0.271l0.048,0.02l0,0l0.024,0.01l0.035,0.014l0.016,0.005
		l0.031,0.015l0.016,0.005l0.031,0.015l0.016,0.005l0.031,0.015l0.013,0.007l0.031,0.015l0.013,0.007l0.031,0.015l0.013,0.007
		l0.031,0.015l0.013,0.007l0.026,0.014l0.013,0.007l0.026,0.014l0.013,0.007l0.026,0.014l0.013,0.007l0.026,0.014l0.013,0.007
		l0.026,0.014l0.013,0.007l0.026,0.014l0.013,0.007l0.026,0.014l0.013,0.007l0.026,0.014l0.013,0.007l0.026,0.014l0.013,0.007
		l0.022,0.016l0.013,0.007l0.022,0.016l0.013,0.007l0.022,0.016l0.013,0.007l0.022,0.016l0.013,0.007l0.022,0.016l0.013,0.007
		l0.02,0.012l0.013,0.007l0.022,0.016l0.03,0.021c0.022,0.016,0.048,0.029,0.07,0.045l0,0c0.733,0.497,1.276,1.226,1.543,2.071l0,0
		l0.008,0.014c0.008,0.023,0.014,0.043,0.022,0.066l0.002,0.004l0.012,0.021c0.008,0.032,0.016,0.065,0.027,0.101
		c0.018,0.008,0.021,0.048,0.015,0.097L104.96,61.125z"/>
</g>
</svg>
