<?xml version="1.0" encoding="utf-8"?>
<!-- Generator: Adobe Illustrator 23.0.2, SVG Export Plug-In . SVG Version: 6.00 Build 0)  -->
<svg version="1.1" id="Layer_1" xmlns="http://www.w3.org/2000/svg" xmlns:xlink="http://www.w3.org/1999/xlink" x="0px" y="0px"
	 viewBox="0 0 188.391 138.518" style="enable-background:new 0 0 188.391 138.518;" xml:space="preserve">
<style type="text/css">
	.st0{fill:#006DB6;}
	.st1{fill:#FFFFFF;}
	.st2{fill-rule:evenodd;clip-rule:evenodd;fill:#FFFFFF;}
	.st3{fill:#282F66;}
	.st4{fill:#201A1B;}
	.st5{fill:#EB5F2B;}
	.st6{fill:#E62C30;}
	.st7{fill:#F5991D;}
	.st8{fill:#EF7D00;}
	.st9{fill:url(#SVGID_1_);}
	.st10{opacity:0.65;fill:url(#SVGID_2_);}
	.st11{opacity:0.5;}
	.st12{clip-path:url(#SVGID_4_);}
	.st13{fill:#040403;}
	.st14{fill:#070707;}
	.st15{fill:#0B0B0B;}
	.st16{fill:#0F0F0F;}
	.st17{fill:#121212;}
	.st18{fill:#151515;}
	.st19{fill:#181818;}
	.st20{fill:#1B1B1A;}
	.st21{fill:#1D1D1D;}
	.st22{fill:#20201F;}
	.st23{fill:#222221;}
	.st24{fill:#242424;}
	.st25{fill:#272726;}
	.st26{fill:#292928;}
	.st27{fill:#2B2B2A;}
	.st28{fill:#2D2D2C;}
	.st29{fill:#2F2F2E;}
	.st30{fill:#313130;}
	.st31{fill:#333332;}
	.st32{fill:#353534;}
	.st33{fill:#363635;}
	.st34{fill:#373736;}
	.st35{fill:#383837;}
	.st36{fill:#393938;}
	.st37{fill:#3A3A39;}
	.st38{fill:#3C3B3A;}
	.st39{fill:#3D3C3B;}
	.st40{fill:#3E3D3D;}
	.st41{fill:#3F3E3E;}
	.st42{fill:#403F3F;}
	.st43{fill:#414040;}
	.st44{fill:#424141;}
	.st45{fill:#434242;}
	.st46{fill:#444443;}
	.st47{fill:#454544;}
	.st48{fill:#464645;}
	.st49{fill:#474746;}
	.st50{fill:#484847;}
	.st51{fill:#494948;}
	.st52{fill:#4A4A49;}
	.st53{fill:#4B4B4A;}
	.st54{fill:#4C4C4B;}
	.st55{fill:#4D4D4C;}
	.st56{fill:#4E4E4D;}
	.st57{fill:#4F4F4E;}
	.st58{fill:#50504F;}
	.st59{fill:#515150;}
	.st60{fill:#525251;}
	.st61{fill:#535352;}
	.st62{fill:#545453;}
	.st63{fill:#555554;}
	.st64{fill:#565655;}
	.st65{fill:#575756;}
	.st66{fill:#585757;}
	.st67{fill:#595858;}
	.st68{fill:#5A5959;}
	.st69{fill:#5B5A5A;}
	.st70{fill:#5B5B5A;}
	.st71{fill:#5C5C5B;}
	.st72{fill:#5D5D5C;}
	.st73{fill:#5E5E5D;}
	.st74{fill:#5F5F5E;}
	.st75{fill:#60605F;}
	.st76{fill:#616160;}
	.st77{fill:#626161;}
	.st78{fill:#636262;}
	.st79{fill:#646363;}
	.st80{fill:#646464;}
	.st81{fill:#656564;}
	.st82{fill:#666665;}
	.st83{fill:#676766;}
	.st84{fill:#686867;}
	.st85{fill:#696968;}
	.st86{fill:#6A6A69;}
	.st87{fill:#6B6A6A;}
	.st88{fill:#6C6B6B;}
	.st89{fill:#6D6C6C;}
	.st90{fill:#6D6D6D;}
	.st91{fill:#6E6E6D;}
	.st92{fill:#6F6F6E;}
	.st93{fill:#70706F;}
	.st94{fill:#717170;}
	.st95{fill:#727271;}
	.st96{fill:#737372;}
	.st97{fill:#747473;}
	.st98{fill:#757474;}
	.st99{fill:#767575;}
	.st100{fill:#777676;}
	.st101{fill:#777777;}
	.st102{fill:#787878;}
	.st103{fill:#797978;}
	.st104{fill:#7A7A79;}
	.st105{fill:#7B7B7A;}
	.st106{fill:#7C7C7B;}
	.st107{fill:#7D7D7C;}
	.st108{fill:#7E7D7D;}
	.st109{fill:#7F7E7E;}
	.st110{fill:#807F7F;}
	.st111{fill:#808080;}
	.st112{fill:#818180;}
	.st113{fill:#828281;}
	.st114{fill:#838382;}
	.st115{fill:#848483;}
	.st116{fill:#858484;}
	.st117{fill:#868585;}
	.st118{fill:#868686;}
	.st119{fill:#878787;}
	.st120{fill:#888887;}
	.st121{fill:#898988;}
	.st122{fill:#8A8A89;}
	.st123{fill:#8B8A8A;}
	.st124{fill:#8B8B8B;}
	.st125{fill:#8C8C8C;}
	.st126{fill:#8D8D8C;}
	.st127{fill:#8E8E8D;}
	.st128{fill:#8F8E8E;}
	.st129{fill:#8F8F8F;}
	.st130{fill:#909090;}
	.st131{fill:#919190;}
	.st132{fill:#929291;}
	.st133{fill:#939292;}
	.st134{fill:#939393;}
	.st135{fill:#949494;}
	.st136{fill:#959594;}
	.st137{fill:#969695;}
	.st138{fill:#979696;}
	.st139{fill:#979797;}
	.st140{fill:#989898;}
	.st141{fill:#999998;}
	.st142{fill:#9A9A99;}
	.st143{fill:#9B9A9A;}
	.st144{fill:#9B9B9B;}
	.st145{fill:#9C9C9C;}
	.st146{fill:#9D9D9C;}
	.st147{fill:#9E9E9D;}
	.st148{fill:#9F9E9E;}
	.st149{fill:#9F9F9F;}
	.st150{fill:#A0A0A0;}
	.st151{fill:#A1A1A0;}
	.st152{fill:#A2A2A1;}
	.st153{fill:#A3A2A2;}
	.st154{fill:#A3A3A3;}
	.st155{fill:#A4A4A4;}
	.st156{fill:#A5A5A5;}
	.st157{fill:#A6A6A5;}
	.st158{fill:#A7A7A6;}
	.st159{fill:#A8A7A7;}
	.st160{fill:#A8A8A8;}
	.st161{fill:#A9A9A9;}
	.st162{fill:#AAAAA9;}
	.st163{fill:#ABABAA;}
	.st164{fill:#ACABAB;}
	.st165{fill:#ACACAC;}
	.st166{fill:#ADADAD;}
	.st167{fill:#AEAEAD;}
	.st168{fill:#AFAFAE;}
	.st169{fill:#AFAFAF;}
	.st170{fill:#B0B0B0;}
	.st171{fill:#B1B1B1;}
	.st172{fill:#B2B2B1;}
	.st173{fill:#B3B2B2;}
	.st174{fill:#B3B3B3;}
	.st175{fill:#B4B4B4;}
	.st176{fill:#B5B5B4;}
	.st177{fill:#B6B5B5;}
	.st178{fill:#B6B6B6;}
	.st179{fill:#B7B7B7;}
	.st180{fill:#B8B8B7;}
	.st181{fill:#B9B8B8;}
	.st182{fill:#B9B9B9;}
	.st183{fill:#BABABA;}
	.st184{fill:#BBBBBA;}
	.st185{fill:#BCBBBB;}
	.st186{fill:#BCBCBC;}
	.st187{fill:#BDBDBD;}
	.st188{fill:#BEBEBD;}
	.st189{fill:#BFBEBE;}
	.st190{fill:#BFBFBF;}
	.st191{fill:#C0C0C0;}
	.st192{fill:#C1C1C0;}
	.st193{fill:#C2C1C1;}
	.st194{fill:#C2C2C2;}
	.st195{fill:#C3C3C3;}
	.st196{fill:#C4C4C3;}
	.st197{fill:#C4C4C4;}
	.st198{fill:#C5C5C5;}
	.st199{fill:#C6C6C6;}
	.st200{fill:#C7C7C6;}
	.st201{fill:#C7C7C7;}
	.st202{fill:#C8C8C8;}
	.st203{fill:#C9C9C8;}
	.st204{fill:#CAC9C9;}
	.st205{fill:#CACACA;}
	.st206{fill:#CBCBCB;}
	.st207{fill:#CCCCCB;}
	.st208{fill:#CDCCCC;}
	.st209{fill:#CDCDCD;}
	.st210{fill:#CECECE;}
	.st211{fill:#CFCFCE;}
	.st212{fill:#D0CFCF;}
	.st213{fill:#D0D0D0;}
	.st214{opacity:0.995;fill:#D0D0D0;}
	.st215{opacity:0.99;fill:#D1D1D0;}
	.st216{opacity:0.9851;fill:#D1D1D1;}
	.st217{opacity:0.9801;fill:#D1D1D1;}
	.st218{opacity:0.9751;fill:#D1D1D1;}
	.st219{opacity:0.9701;fill:#D2D2D1;}
	.st220{opacity:0.9652;fill:#D2D2D2;}
	.st221{opacity:0.9602;fill:#D2D2D2;}
	.st222{opacity:0.9552;fill:#D2D2D2;}
	.st223{opacity:0.9502;fill:#D3D3D2;}
	.st224{opacity:0.9453;fill:#D3D3D3;}
	.st225{opacity:0.9403;fill:#D3D3D3;}
	.st226{opacity:0.9353;fill:#D3D3D3;}
	.st227{opacity:0.9303;fill:#D4D4D3;}
	.st228{opacity:0.9254;fill:#D4D4D4;}
	.st229{opacity:0.9204;fill:#D4D4D4;}
	.st230{opacity:0.9154;fill:#D4D4D4;}
	.st231{opacity:0.9104;fill:#D5D5D4;}
	.st232{opacity:0.9055;fill:#D5D5D5;}
	.st233{opacity:0.9005;fill:#D5D5D5;}
	.st234{opacity:0.8955;fill:#D5D5D5;}
	.st235{opacity:0.8905;fill:#D6D6D5;}
	.st236{opacity:0.8856;fill:#D6D6D6;}
	.st237{opacity:0.8806;fill:#D6D6D6;}
	.st238{opacity:0.8756;fill:#D6D6D6;}
	.st239{opacity:0.8706;fill:#D7D7D6;}
	.st240{opacity:0.8657;fill:#D7D7D7;}
	.st241{opacity:0.8607;fill:#D7D7D7;}
	.st242{opacity:0.8557;fill:#D7D7D7;}
	.st243{opacity:0.8507;fill:#D8D8D7;}
	.st244{opacity:0.8458;fill:#D8D8D8;}
	.st245{opacity:0.8408;fill:#D8D8D8;}
	.st246{opacity:0.8358;fill:#D8D8D8;}
	.st247{opacity:0.8308;fill:#D9D9D8;}
	.st248{opacity:0.8259;fill:#D9D9D9;}
	.st249{opacity:0.8209;fill:#D9D9D9;}
	.st250{opacity:0.8159;fill:#D9D9D9;}
	.st251{opacity:0.8109;fill:#DAD9D9;}
	.st252{opacity:0.806;fill:#DADADA;}
	.st253{opacity:0.801;fill:#DADADA;}
	.st254{opacity:0.796;fill:#DADADA;}
	.st255{opacity:0.791;fill:#DBDADA;}
	.st256{opacity:0.7861;fill:#DBDBDB;}
	.st257{opacity:0.7811;fill:#DBDBDB;}
	.st258{opacity:0.7761;fill:#DBDBDB;}
	.st259{opacity:0.7711;fill:#DBDBDB;}
	.st260{opacity:0.7662;fill:#DCDCDB;}
	.st261{opacity:0.7612;fill:#DCDCDC;}
	.st262{opacity:0.7562;fill:#DCDCDC;}
	.st263{opacity:0.7512;fill:#DCDCDC;}
	.st264{opacity:0.7463;fill:#DDDDDC;}
	.st265{opacity:0.7413;fill:#DDDDDD;}
	.st266{opacity:0.7363;fill:#DDDDDD;}
	.st267{opacity:0.7313;fill:#DDDDDD;}
	.st268{opacity:0.7264;fill:#DEDDDD;}
	.st269{opacity:0.7214;fill:#DEDEDE;}
	.st270{opacity:0.7164;fill:#DEDEDE;}
	.st271{opacity:0.7114;fill:#DEDEDE;}
	.st272{opacity:0.7065;fill:#DEDEDE;}
	.st273{opacity:0.7015;fill:#DFDFDF;}
	.st274{opacity:0.6965;fill:#DFDFDF;}
	.st275{opacity:0.6915;fill:#DFDFDF;}
	.st276{opacity:0.6866;fill:#DFDFDF;}
	.st277{opacity:0.6816;fill:#E0E0DF;}
	.st278{opacity:0.6766;fill:#E0E0E0;}
	.st279{opacity:0.6716;fill:#E0E0E0;}
	.st280{opacity:0.6667;fill:#E0E0E0;}
	.st281{opacity:0.6617;fill:#E1E0E0;}
	.st282{opacity:0.6567;fill:#E1E1E1;}
	.st283{opacity:0.6517;fill:#E1E1E1;}
	.st284{opacity:0.6468;fill:#E1E1E1;}
	.st285{opacity:0.6418;fill:#E1E1E1;}
	.st286{opacity:0.6368;fill:#E2E2E1;}
	.st287{opacity:0.6318;fill:#E2E2E2;}
	.st288{opacity:0.6269;fill:#E2E2E2;}
	.st289{opacity:0.6219;fill:#E2E2E2;}
	.st290{opacity:0.6169;fill:#E3E3E2;}
	.st291{opacity:0.6119;fill:#E3E3E3;}
	.st292{opacity:0.607;fill:#E3E3E3;}
	.st293{opacity:0.602;fill:#E3E3E3;}
	.st294{opacity:0.597;fill:#E4E3E3;}
	.st295{opacity:0.592;fill:#E4E4E4;}
	.st296{opacity:0.5871;fill:#E4E4E4;}
	.st297{opacity:0.5821;fill:#E4E4E4;}
	.st298{opacity:0.5771;fill:#E4E4E4;}
	.st299{opacity:0.5721;fill:#E5E5E4;}
	.st300{opacity:0.5672;fill:#E5E5E5;}
	.st301{opacity:0.5622;fill:#E5E5E5;}
	.st302{opacity:0.5572;fill:#E5E5E5;}
	.st303{opacity:0.5522;fill:#E6E6E5;}
	.st304{opacity:0.5473;fill:#E6E6E6;}
	.st305{opacity:0.5423;fill:#E6E6E6;}
	.st306{opacity:0.5373;fill:#E6E6E6;}
	.st307{opacity:0.5323;fill:#E7E6E6;}
	.st308{opacity:0.5274;fill:#E7E7E7;}
	.st309{opacity:0.5224;fill:#E7E7E7;}
	.st310{opacity:0.5174;fill:#E7E7E7;}
	.st311{opacity:0.5124;fill:#E7E7E7;}
	.st312{opacity:0.5075;fill:#E8E8E8;}
	.st313{opacity:0.5025;fill:#E8E8E8;}
	.st314{opacity:0.4975;fill:#E8E8E8;}
	.st315{opacity:0.4925;fill:#E8E8E8;}
	.st316{opacity:0.4876;fill:#E9E9E8;}
	.st317{opacity:0.4826;fill:#E9E9E9;}
	.st318{opacity:0.4776;fill:#E9E9E9;}
	.st319{opacity:0.4726;fill:#E9E9E9;}
	.st320{opacity:0.4677;fill:#EAE9E9;}
	.st321{opacity:0.4627;fill:#EAEAEA;}
	.st322{opacity:0.4577;fill:#EAEAEA;}
	.st323{opacity:0.4527;fill:#EAEAEA;}
	.st324{opacity:0.4478;fill:#EAEAEA;}
	.st325{opacity:0.4428;fill:#EBEBEB;}
	.st326{opacity:0.4378;fill:#EBEBEB;}
	.st327{opacity:0.4328;fill:#EBEBEB;}
	.st328{opacity:0.4279;fill:#EBEBEB;}
	.st329{opacity:0.4229;fill:#ECECEB;}
	.st330{opacity:0.4179;fill:#ECECEC;}
	.st331{opacity:0.4129;fill:#ECECEC;}
	.st332{opacity:0.408;fill:#ECECEC;}
	.st333{opacity:0.403;fill:#EDECEC;}
	.st334{opacity:0.398;fill:#EDEDED;}
	.st335{opacity:0.393;fill:#EDEDED;}
	.st336{opacity:0.3881;fill:#EDEDED;}
	.st337{opacity:0.3831;fill:#EDEDED;}
	.st338{opacity:0.3781;fill:#EEEEEE;}
	.st339{opacity:0.3731;fill:#EEEEEE;}
	.st340{opacity:0.3682;fill:#EEEEEE;}
	.st341{opacity:0.3632;fill:#EEEEEE;}
	.st342{opacity:0.3582;fill:#EFEFEE;}
	.st343{opacity:0.3532;fill:#EFEFEF;}
	.st344{opacity:0.3483;fill:#EFEFEF;}
	.st345{opacity:0.3433;fill:#EFEFEF;}
	.st346{opacity:0.3383;fill:#F0EFEF;}
	.st347{opacity:0.3333;fill:#F0F0F0;}
	.st348{opacity:0.3284;fill:#F0F0F0;}
	.st349{opacity:0.3234;fill:#F0F0F0;}
	.st350{opacity:0.3184;fill:#F0F0F0;}
	.st351{opacity:0.3134;fill:#F1F1F1;}
	.st352{opacity:0.3085;fill:#F1F1F1;}
	.st353{opacity:0.3035;fill:#F1F1F1;}
	.st354{opacity:0.2985;fill:#F1F1F1;}
	.st355{opacity:0.2935;fill:#F2F2F2;}
	.st356{opacity:0.2886;fill:#F2F2F2;}
	.st357{opacity:0.2836;fill:#F2F2F2;}
	.st358{opacity:0.2786;fill:#F2F2F2;}
	.st359{opacity:0.2736;fill:#F3F2F2;}
	.st360{opacity:0.2687;fill:#F3F3F3;}
	.st361{opacity:0.2637;fill:#F3F3F3;}
	.st362{opacity:0.2587;fill:#F3F3F3;}
	.st363{opacity:0.2537;fill:#F3F3F3;}
	.st364{opacity:0.2488;fill:#F4F4F4;}
	.st365{opacity:0.2438;fill:#F4F4F4;}
	.st366{opacity:0.2388;fill:#F4F4F4;}
	.st367{opacity:0.2338;fill:#F4F4F4;}
	.st368{opacity:0.2289;fill:#F5F5F5;}
	.st369{opacity:0.2239;fill:#F5F5F5;}
	.st370{opacity:0.2189;fill:#F5F5F5;}
	.st371{opacity:0.2139;fill:#F5F5F5;}
	.st372{opacity:0.209;fill:#F6F5F5;}
	.st373{opacity:0.204;fill:#F6F6F6;}
	.st374{opacity:0.199;fill:#F6F6F6;}
	.st375{opacity:0.194;fill:#F6F6F6;}
	.st376{opacity:0.1891;fill:#F6F6F6;}
	.st377{opacity:0.1841;fill:#F7F7F7;}
	.st378{opacity:0.1791;fill:#F7F7F7;}
	.st379{opacity:0.1741;fill:#F7F7F7;}
	.st380{opacity:0.1692;fill:#F7F7F7;}
	.st381{opacity:0.1642;fill:#F8F8F8;}
	.st382{opacity:0.1592;fill:#F8F8F8;}
	.st383{opacity:0.1542;fill:#F8F8F8;}
	.st384{opacity:0.1493;fill:#F8F8F8;}
	.st385{opacity:0.1443;fill:#F8F8F8;}
	.st386{opacity:0.1393;fill:#F9F9F9;}
	.st387{opacity:0.1343;fill:#F9F9F9;}
	.st388{opacity:0.1294;fill:#F9F9F9;}
	.st389{opacity:0.1244;fill:#F9F9F9;}
	.st390{opacity:0.1194;fill:#FAFAFA;}
	.st391{opacity:0.1144;fill:#FAFAFA;}
	.st392{opacity:0.1095;fill:#FAFAFA;}
	.st393{opacity:0.1045;fill:#FAFAFA;}
	.st394{opacity:0.0995;fill:#FBFBFB;}
	.st395{opacity:0.0945;fill:#FBFBFB;}
	.st396{opacity:0.0896;fill:#FBFBFB;}
	.st397{opacity:0.0846;fill:#FBFBFB;}
	.st398{opacity:0.0796;fill:#FBFBFB;}
	.st399{opacity:0.0746;fill:#FCFCFC;}
	.st400{opacity:0.0697;fill:#FCFCFC;}
	.st401{opacity:0.0647;fill:#FCFCFC;}
	.st402{opacity:0.0597;fill:#FCFCFC;}
	.st403{opacity:0.0547;fill:#FDFDFD;}
	.st404{opacity:0.0498;fill:#FDFDFD;}
	.st405{opacity:0.0448;fill:#FDFDFD;}
	.st406{opacity:0.0398;fill:#FDFDFD;}
	.st407{opacity:0.0348;fill:#FDFDFD;}
	.st408{opacity:0.0299;fill:#FEFEFE;}
	.st409{opacity:0.0249;fill:#FEFEFE;}
	.st410{opacity:0.0199;fill:#FEFEFE;}
	.st411{opacity:0.0149;fill:#FEFEFE;}
	.st412{opacity:0.01;fill:#FFFFFF;}
	.st413{opacity:0.005;fill:#FFFFFF;}
	.st414{opacity:0;fill:#FFFFFF;}
	.st415{fill:#4D4D4D;}
	.st416{fill:#F39023;}
	.st417{fill:#F28F21;}
	.st418{fill:#A5A9AA;}
	.st419{fill:#3A3A38;}
	.st420{opacity:0.6;}
	.st421{clip-path:url(#SVGID_6_);fill:#020203;}
	.st422{opacity:0.45;}
	.st423{clip-path:url(#SVGID_8_);fill:#020203;}
	.st424{opacity:0.8;}
	.st425{clip-path:url(#SVGID_10_);fill:#020203;}
	.st426{clip-path:url(#SVGID_12_);fill:#020203;}
	.st427{clip-path:url(#SVGID_14_);fill:#020203;}
</style>
<rect x="0.5" y="0.5" class="st1" width="187.391" height="137.518"/>
<g transform="translate(-289.60744,-341.50536)">
	<g transform="matrix(0.61129216,0,0,0.61129216,170.80346,315.53734)">
		<path class="st417" d="M271.494,162.383c-3.645,14.622-18.455,23.521-33.079,19.874c-14.618-3.645-23.517-18.456-19.869-33.077
			c3.644-14.624,18.453-23.523,33.073-19.878C266.242,132.948,275.14,147.76,271.494,162.383z"/>
		<path class="st1" d="M257.05,151.892c0.543-3.632-2.222-5.584-6.003-6.887l1.227-4.92l-2.995-0.746l-1.194,4.79
			c-0.787-0.196-1.596-0.381-2.399-0.565l1.203-4.822l-2.993-0.746l-1.227,4.918c-0.652-0.148-1.291-0.295-1.912-0.45l0.003-0.015
			l-4.13-1.031l-0.797,3.199c0,0,2.222,0.509,2.175,0.541c1.213,0.303,1.432,1.105,1.395,1.742l-1.397,5.605
			c0.084,0.021,0.192,0.052,0.311,0.1c-0.1-0.025-0.206-0.052-0.316-0.078l-1.958,7.851c-0.148,0.368-0.525,0.921-1.372,0.711
			c0.03,0.044-2.177-0.543-2.177-0.543l-1.487,3.428l3.897,0.972c0.725,0.182,1.436,0.372,2.135,0.551l-1.239,4.976l2.991,0.746
			l1.227-4.923c0.817,0.222,1.61,0.426,2.387,0.619l-1.223,4.9l2.995,0.746l1.239-4.967c5.107,0.966,8.947,0.577,10.563-4.042
			c1.302-3.719-0.065-5.864-2.752-7.263C255.183,155.837,256.656,154.55,257.05,151.892L257.05,151.892z M250.207,161.486
			c-0.925,3.719-7.187,1.708-9.217,1.204l1.644-6.592C244.665,156.605,251.174,157.608,250.207,161.486z M251.134,151.838
			c-0.844,3.383-6.056,1.664-7.746,1.243l1.491-5.979C246.569,147.523,252.013,148.309,251.134,151.838z"/>
		<g>
			<path class="st415" d="M297.71,145.003c2.213,0,4.126,0.397,5.733,1.175c1.615,0.786,2.947,1.846,4.016,3.178
				c1.054,1.339,1.839,2.904,2.346,4.698c0.503,1.799,0.756,3.732,0.756,5.803c0,3.18-0.583,6.184-1.759,9.016
				c-1.176,2.836-2.772,5.296-4.802,7.394c-2.028,2.096-4.423,3.748-7.185,4.968c-2.758,1.221-5.756,1.832-8.975,1.832
				c-0.416,0-1.148-0.012-2.182-0.033c-1.034-0.021-2.222-0.128-3.553-0.308c-1.339-0.187-2.755-0.463-4.25-0.833
				c-1.494-0.363-2.914-0.873-4.25-1.519l11.951-50.218l10.704-1.659l-4.279,17.821c0.916-0.413,1.839-0.733,2.76-0.966
				C295.663,145.123,296.653,145.003,297.71,145.003L297.71,145.003z M288.731,174.576c1.612,0,3.131-0.397,4.558-1.175
				c1.431-0.78,2.666-1.832,3.701-3.143c1.035-1.317,1.853-2.8,2.451-4.457c0.597-1.657,0.899-3.386,0.899-5.185
				c0-2.21-0.369-3.934-1.105-5.18c-0.736-1.241-2.098-1.865-4.076-1.865c-0.648,0-1.483,0.124-2.519,0.345
				c-1.039,0.235-1.969,0.722-2.802,1.454l-4.556,18.925c0.275,0.049,0.518,0.095,0.725,0.138c0.203,0.047,0.427,0.08,0.651,0.103
				c0.236,0.026,0.507,0.04,0.833,0.04C287.817,174.575,288.225,174.576,288.731,174.576L288.731,174.576z"/>
			<path class="st415" d="M321.663,182.102h-10.224l8.634-36.333h10.294L321.663,182.102z M326.639,141.342
				c-1.427,0-2.721-0.425-3.869-1.276c-1.157-0.846-1.731-2.149-1.731-3.904c0-0.966,0.196-1.871,0.585-2.726
				c0.395-0.853,0.911-1.587,1.557-2.212c0.646-0.619,1.394-1.114,2.243-1.487c0.855-0.367,1.764-0.55,2.733-0.55
				c1.426,0,2.713,0.425,3.866,1.276c1.148,0.856,1.725,2.158,1.725,3.904c0,0.969-0.195,1.878-0.588,2.731
				c-0.39,0.853-0.906,1.587-1.552,2.212c-0.641,0.62-1.395,1.113-2.243,1.482C328.51,141.166,327.604,141.342,326.639,141.342
				L326.639,141.342z"/>
			<path class="st415" d="M339.326,136.719l10.709-1.659l-2.63,10.71h11.469l-2.071,8.425h-11.4l-3.036,12.709
				c-0.28,1.059-0.438,2.049-0.483,2.968c-0.05,0.924,0.067,1.717,0.343,2.385c0.275,0.67,0.769,1.186,1.485,1.551
				c0.713,0.371,1.734,0.558,3.073,0.558c1.103,0,2.178-0.105,3.216-0.313c1.033-0.205,2.079-0.49,3.139-0.862l0.763,7.878
				c-1.382,0.507-2.878,0.943-4.49,1.309c-1.615,0.372-3.526,0.551-5.735,0.551c-3.176,0-5.639-0.472-7.393-1.411
				c-1.752-0.946-2.99-2.238-3.732-3.874c-0.731-1.63-1.058-3.509-0.966-5.626c0.095-2.122,0.415-4.353,0.966-6.702L339.326,136.719
				z"/>
			<path class="st415" d="M358.423,167.598c0-3.129,0.507-6.081,1.519-8.843c1.011-2.765,2.467-5.183,4.356-7.259
				c1.882-2.065,4.176-3.701,6.876-4.902c2.687-1.194,5.695-1.796,9.01-1.796c2.075,0,3.929,0.196,5.559,0.589
				c1.638,0.397,3.119,0.909,4.459,1.552l-3.526,8.018c-0.921-0.374-1.877-0.703-2.866-1.001c-0.989-0.305-2.197-0.451-3.626-0.451
				c-3.413,0-6.11,1.176-8.118,3.521c-2,2.346-3.007,5.505-3.007,9.467c0,2.348,0.507,4.247,1.523,5.699
				c1.012,1.453,2.88,2.175,5.594,2.175c1.339,0,2.631-0.14,3.869-0.413c1.247-0.276,2.348-0.624,3.318-1.035l0.763,8.219
				c-1.293,0.502-2.719,0.954-4.284,1.351c-1.568,0.383-3.434,0.582-5.598,0.582c-2.857,0-5.275-0.418-7.253-1.241
				c-1.979-0.836-3.614-1.946-4.902-3.351c-1.295-1.409-2.224-3.054-2.799-4.943C358.716,171.648,358.423,169.666,358.423,167.598
				L358.423,167.598z"/>
			<path class="st415" d="M403.84,183.068c-2.44,0-4.56-0.372-6.358-1.108c-1.793-0.736-3.278-1.769-4.452-3.108
				c-1.176-1.332-2.056-2.911-2.659-4.73c-0.603-1.818-0.893-3.832-0.893-6.039c0-2.768,0.444-5.535,1.343-8.294
				c0.894-2.765,2.22-5.25,3.976-7.458c1.742-2.212,3.89-4.02,6.42-5.43c2.527-1.401,5.434-2.105,8.699-2.105
				c2.396,0,4.504,0.373,6.327,1.109c1.814,0.734,3.309,1.776,4.49,3.108c1.169,1.339,2.056,2.911,2.654,4.733
				c0.601,1.815,0.898,3.834,0.898,6.042c0,2.759-0.438,5.526-1.308,8.294c-0.871,2.754-2.163,5.245-3.869,7.458
				c-1.702,2.208-3.831,4.016-6.389,5.42C410.164,182.364,407.203,183.068,403.84,183.068L403.84,183.068z M408.95,153.504
				c-1.516,0-2.856,0.44-4.003,1.309c-1.151,0.879-2.119,1.985-2.898,3.318c-0.788,1.339-1.372,2.799-1.767,4.387
				c-0.392,1.591-0.583,3.094-0.583,4.523c0,2.306,0.372,4.101,1.103,5.393c0.741,1.285,2.073,1.932,4.008,1.932
				c1.521,0,2.854-0.437,4.008-1.315c1.145-0.873,2.113-1.979,2.898-3.315c0.783-1.332,1.372-2.797,1.767-4.387
				c0.386-1.586,0.583-3.098,0.583-4.524c0-2.3-0.37-4.099-1.108-5.39C412.221,154.15,410.884,153.504,408.95,153.504z"/>
			<path class="st415" d="M435.428,182.102h-10.233l8.634-36.333h10.299L435.428,182.102z M440.396,141.342
				c-1.426,0-2.719-0.425-3.866-1.276c-1.151-0.846-1.73-2.149-1.73-3.904c0-0.966,0.199-1.871,0.589-2.726
				c0.39-0.853,0.909-1.587,1.556-2.212c0.642-0.619,1.397-1.114,2.245-1.487c0.85-0.367,1.759-0.55,2.724-0.55
				c1.43,0,2.721,0.425,3.871,1.276c1.151,0.856,1.731,2.158,1.731,3.904c0,0.969-0.206,1.878-0.593,2.731
				c-0.386,0.853-0.906,1.587-1.55,2.212c-0.648,0.62-1.394,1.113-2.243,1.482C442.274,141.166,441.366,141.342,440.396,141.342
				L440.396,141.342z"/>
			<path class="st415" d="M451.493,147.425c0.776-0.227,1.643-0.5,2.585-0.797c0.946-0.297,2.003-0.573,3.183-0.822
				c1.168-0.257,2.486-0.465,3.935-0.626c1.449-0.165,3.1-0.245,4.935-0.245c5.392,0,9.109,1.57,11.162,4.701
				c2.05,3.131,2.405,7.416,1.075,12.848l-4.703,19.618h-10.292l4.558-19.205c0.278-1.199,0.496-2.358,0.658-3.491
				c0.163-1.122,0.154-2.112-0.037-2.968c-0.182-0.846-0.61-1.539-1.274-2.075c-0.675-0.528-1.694-0.793-3.077-0.793
				c-1.333,0-2.689,0.143-4.074,0.42l-6.702,28.112H443.13C443.13,182.101,451.493,147.425,451.493,147.425z"/>
		</g>
	</g>
</g>
</svg>
