<?xml version="1.0" encoding="utf-8"?>
<!-- Generator: Adobe Illustrator 23.0.2, SVG Export Plug-In . SVG Version: 6.00 Build 0)  -->
<svg version="1.1" id="Layer_1" xmlns="http://www.w3.org/2000/svg" xmlns:xlink="http://www.w3.org/1999/xlink" x="0px" y="0px"
	 viewBox="0 0 188.391 138.518" style="enable-background:new 0 0 188.391 138.518;" xml:space="preserve">
<style type="text/css">
	.st0{fill:#006DB6;}
	.st1{fill:#FFFFFF;}
	.st2{fill-rule:evenodd;clip-rule:evenodd;fill:#FFFFFF;}
	.st3{fill:#282F66;}
	.st4{fill:#201A1B;}
	.st5{fill:#EB5F2B;}
	.st6{fill:#E62C30;}
	.st7{fill:#F5991D;}
	.st8{fill:#EF7D00;}
	.st9{fill:url(#SVGID_1_);}
	.st10{opacity:0.65;fill:url(#SVGID_2_);}
	.st11{opacity:0.5;}
	.st12{clip-path:url(#SVGID_4_);}
	.st13{fill:#040403;}
	.st14{fill:#070707;}
	.st15{fill:#0B0B0B;}
	.st16{fill:#0F0F0F;}
	.st17{fill:#121212;}
	.st18{fill:#151515;}
	.st19{fill:#181818;}
	.st20{fill:#1B1B1A;}
	.st21{fill:#1D1D1D;}
	.st22{fill:#20201F;}
	.st23{fill:#222221;}
	.st24{fill:#242424;}
	.st25{fill:#272726;}
	.st26{fill:#292928;}
	.st27{fill:#2B2B2A;}
	.st28{fill:#2D2D2C;}
	.st29{fill:#2F2F2E;}
	.st30{fill:#313130;}
	.st31{fill:#333332;}
	.st32{fill:#353534;}
	.st33{fill:#363635;}
	.st34{fill:#373736;}
	.st35{fill:#383837;}
	.st36{fill:#393938;}
	.st37{fill:#3A3A39;}
	.st38{fill:#3C3B3A;}
	.st39{fill:#3D3C3B;}
	.st40{fill:#3E3D3D;}
	.st41{fill:#3F3E3E;}
	.st42{fill:#403F3F;}
	.st43{fill:#414040;}
	.st44{fill:#424141;}
	.st45{fill:#434242;}
	.st46{fill:#444443;}
	.st47{fill:#454544;}
	.st48{fill:#464645;}
	.st49{fill:#474746;}
	.st50{fill:#484847;}
	.st51{fill:#494948;}
	.st52{fill:#4A4A49;}
	.st53{fill:#4B4B4A;}
	.st54{fill:#4C4C4B;}
	.st55{fill:#4D4D4C;}
	.st56{fill:#4E4E4D;}
	.st57{fill:#4F4F4E;}
	.st58{fill:#50504F;}
	.st59{fill:#515150;}
	.st60{fill:#525251;}
	.st61{fill:#535352;}
	.st62{fill:#545453;}
	.st63{fill:#555554;}
	.st64{fill:#565655;}
	.st65{fill:#575756;}
	.st66{fill:#585757;}
	.st67{fill:#595858;}
	.st68{fill:#5A5959;}
	.st69{fill:#5B5A5A;}
	.st70{fill:#5B5B5A;}
	.st71{fill:#5C5C5B;}
	.st72{fill:#5D5D5C;}
	.st73{fill:#5E5E5D;}
	.st74{fill:#5F5F5E;}
	.st75{fill:#60605F;}
	.st76{fill:#616160;}
	.st77{fill:#626161;}
	.st78{fill:#636262;}
	.st79{fill:#646363;}
	.st80{fill:#646464;}
	.st81{fill:#656564;}
	.st82{fill:#666665;}
	.st83{fill:#676766;}
	.st84{fill:#686867;}
	.st85{fill:#696968;}
	.st86{fill:#6A6A69;}
	.st87{fill:#6B6A6A;}
	.st88{fill:#6C6B6B;}
	.st89{fill:#6D6C6C;}
	.st90{fill:#6D6D6D;}
	.st91{fill:#6E6E6D;}
	.st92{fill:#6F6F6E;}
	.st93{fill:#70706F;}
	.st94{fill:#717170;}
	.st95{fill:#727271;}
	.st96{fill:#737372;}
	.st97{fill:#747473;}
	.st98{fill:#757474;}
	.st99{fill:#767575;}
	.st100{fill:#777676;}
	.st101{fill:#777777;}
	.st102{fill:#787878;}
	.st103{fill:#797978;}
	.st104{fill:#7A7A79;}
	.st105{fill:#7B7B7A;}
	.st106{fill:#7C7C7B;}
	.st107{fill:#7D7D7C;}
	.st108{fill:#7E7D7D;}
	.st109{fill:#7F7E7E;}
	.st110{fill:#807F7F;}
	.st111{fill:#808080;}
	.st112{fill:#818180;}
	.st113{fill:#828281;}
	.st114{fill:#838382;}
	.st115{fill:#848483;}
	.st116{fill:#858484;}
	.st117{fill:#868585;}
	.st118{fill:#868686;}
	.st119{fill:#878787;}
	.st120{fill:#888887;}
	.st121{fill:#898988;}
	.st122{fill:#8A8A89;}
	.st123{fill:#8B8A8A;}
	.st124{fill:#8B8B8B;}
	.st125{fill:#8C8C8C;}
	.st126{fill:#8D8D8C;}
	.st127{fill:#8E8E8D;}
	.st128{fill:#8F8E8E;}
	.st129{fill:#8F8F8F;}
	.st130{fill:#909090;}
	.st131{fill:#919190;}
	.st132{fill:#929291;}
	.st133{fill:#939292;}
	.st134{fill:#939393;}
	.st135{fill:#949494;}
	.st136{fill:#959594;}
	.st137{fill:#969695;}
	.st138{fill:#979696;}
	.st139{fill:#979797;}
	.st140{fill:#989898;}
	.st141{fill:#999998;}
	.st142{fill:#9A9A99;}
	.st143{fill:#9B9A9A;}
	.st144{fill:#9B9B9B;}
	.st145{fill:#9C9C9C;}
	.st146{fill:#9D9D9C;}
	.st147{fill:#9E9E9D;}
	.st148{fill:#9F9E9E;}
	.st149{fill:#9F9F9F;}
	.st150{fill:#A0A0A0;}
	.st151{fill:#A1A1A0;}
	.st152{fill:#A2A2A1;}
	.st153{fill:#A3A2A2;}
	.st154{fill:#A3A3A3;}
	.st155{fill:#A4A4A4;}
	.st156{fill:#A5A5A5;}
	.st157{fill:#A6A6A5;}
	.st158{fill:#A7A7A6;}
	.st159{fill:#A8A7A7;}
	.st160{fill:#A8A8A8;}
	.st161{fill:#A9A9A9;}
	.st162{fill:#AAAAA9;}
	.st163{fill:#ABABAA;}
	.st164{fill:#ACABAB;}
	.st165{fill:#ACACAC;}
	.st166{fill:#ADADAD;}
	.st167{fill:#AEAEAD;}
	.st168{fill:#AFAFAE;}
	.st169{fill:#AFAFAF;}
	.st170{fill:#B0B0B0;}
	.st171{fill:#B1B1B1;}
	.st172{fill:#B2B2B1;}
	.st173{fill:#B3B2B2;}
	.st174{fill:#B3B3B3;}
	.st175{fill:#B4B4B4;}
	.st176{fill:#B5B5B4;}
	.st177{fill:#B6B5B5;}
	.st178{fill:#B6B6B6;}
	.st179{fill:#B7B7B7;}
	.st180{fill:#B8B8B7;}
	.st181{fill:#B9B8B8;}
	.st182{fill:#B9B9B9;}
	.st183{fill:#BABABA;}
	.st184{fill:#BBBBBA;}
	.st185{fill:#BCBBBB;}
	.st186{fill:#BCBCBC;}
	.st187{fill:#BDBDBD;}
	.st188{fill:#BEBEBD;}
	.st189{fill:#BFBEBE;}
	.st190{fill:#BFBFBF;}
	.st191{fill:#C0C0C0;}
	.st192{fill:#C1C1C0;}
	.st193{fill:#C2C1C1;}
	.st194{fill:#C2C2C2;}
	.st195{fill:#C3C3C3;}
	.st196{fill:#C4C4C3;}
	.st197{fill:#C4C4C4;}
	.st198{fill:#C5C5C5;}
	.st199{fill:#C6C6C6;}
	.st200{fill:#C7C7C6;}
	.st201{fill:#C7C7C7;}
	.st202{fill:#C8C8C8;}
	.st203{fill:#C9C9C8;}
	.st204{fill:#CAC9C9;}
	.st205{fill:#CACACA;}
	.st206{fill:#CBCBCB;}
	.st207{fill:#CCCCCB;}
	.st208{fill:#CDCCCC;}
	.st209{fill:#CDCDCD;}
	.st210{fill:#CECECE;}
	.st211{fill:#CFCFCE;}
	.st212{fill:#D0CFCF;}
	.st213{fill:#D0D0D0;}
	.st214{opacity:0.995;fill:#D0D0D0;}
	.st215{opacity:0.99;fill:#D1D1D0;}
	.st216{opacity:0.9851;fill:#D1D1D1;}
	.st217{opacity:0.9801;fill:#D1D1D1;}
	.st218{opacity:0.9751;fill:#D1D1D1;}
	.st219{opacity:0.9701;fill:#D2D2D1;}
	.st220{opacity:0.9652;fill:#D2D2D2;}
	.st221{opacity:0.9602;fill:#D2D2D2;}
	.st222{opacity:0.9552;fill:#D2D2D2;}
	.st223{opacity:0.9502;fill:#D3D3D2;}
	.st224{opacity:0.9453;fill:#D3D3D3;}
	.st225{opacity:0.9403;fill:#D3D3D3;}
	.st226{opacity:0.9353;fill:#D3D3D3;}
	.st227{opacity:0.9303;fill:#D4D4D3;}
	.st228{opacity:0.9254;fill:#D4D4D4;}
	.st229{opacity:0.9204;fill:#D4D4D4;}
	.st230{opacity:0.9154;fill:#D4D4D4;}
	.st231{opacity:0.9104;fill:#D5D5D4;}
	.st232{opacity:0.9055;fill:#D5D5D5;}
	.st233{opacity:0.9005;fill:#D5D5D5;}
	.st234{opacity:0.8955;fill:#D5D5D5;}
	.st235{opacity:0.8905;fill:#D6D6D5;}
	.st236{opacity:0.8856;fill:#D6D6D6;}
	.st237{opacity:0.8806;fill:#D6D6D6;}
	.st238{opacity:0.8756;fill:#D6D6D6;}
	.st239{opacity:0.8706;fill:#D7D7D6;}
	.st240{opacity:0.8657;fill:#D7D7D7;}
	.st241{opacity:0.8607;fill:#D7D7D7;}
	.st242{opacity:0.8557;fill:#D7D7D7;}
	.st243{opacity:0.8507;fill:#D8D8D7;}
	.st244{opacity:0.8458;fill:#D8D8D8;}
	.st245{opacity:0.8408;fill:#D8D8D8;}
	.st246{opacity:0.8358;fill:#D8D8D8;}
	.st247{opacity:0.8308;fill:#D9D9D8;}
	.st248{opacity:0.8259;fill:#D9D9D9;}
	.st249{opacity:0.8209;fill:#D9D9D9;}
	.st250{opacity:0.8159;fill:#D9D9D9;}
	.st251{opacity:0.8109;fill:#DAD9D9;}
	.st252{opacity:0.806;fill:#DADADA;}
	.st253{opacity:0.801;fill:#DADADA;}
	.st254{opacity:0.796;fill:#DADADA;}
	.st255{opacity:0.791;fill:#DBDADA;}
	.st256{opacity:0.7861;fill:#DBDBDB;}
	.st257{opacity:0.7811;fill:#DBDBDB;}
	.st258{opacity:0.7761;fill:#DBDBDB;}
	.st259{opacity:0.7711;fill:#DBDBDB;}
	.st260{opacity:0.7662;fill:#DCDCDB;}
	.st261{opacity:0.7612;fill:#DCDCDC;}
	.st262{opacity:0.7562;fill:#DCDCDC;}
	.st263{opacity:0.7512;fill:#DCDCDC;}
	.st264{opacity:0.7463;fill:#DDDDDC;}
	.st265{opacity:0.7413;fill:#DDDDDD;}
	.st266{opacity:0.7363;fill:#DDDDDD;}
	.st267{opacity:0.7313;fill:#DDDDDD;}
	.st268{opacity:0.7264;fill:#DEDDDD;}
	.st269{opacity:0.7214;fill:#DEDEDE;}
	.st270{opacity:0.7164;fill:#DEDEDE;}
	.st271{opacity:0.7114;fill:#DEDEDE;}
	.st272{opacity:0.7065;fill:#DEDEDE;}
	.st273{opacity:0.7015;fill:#DFDFDF;}
	.st274{opacity:0.6965;fill:#DFDFDF;}
	.st275{opacity:0.6915;fill:#DFDFDF;}
	.st276{opacity:0.6866;fill:#DFDFDF;}
	.st277{opacity:0.6816;fill:#E0E0DF;}
	.st278{opacity:0.6766;fill:#E0E0E0;}
	.st279{opacity:0.6716;fill:#E0E0E0;}
	.st280{opacity:0.6667;fill:#E0E0E0;}
	.st281{opacity:0.6617;fill:#E1E0E0;}
	.st282{opacity:0.6567;fill:#E1E1E1;}
	.st283{opacity:0.6517;fill:#E1E1E1;}
	.st284{opacity:0.6468;fill:#E1E1E1;}
	.st285{opacity:0.6418;fill:#E1E1E1;}
	.st286{opacity:0.6368;fill:#E2E2E1;}
	.st287{opacity:0.6318;fill:#E2E2E2;}
	.st288{opacity:0.6269;fill:#E2E2E2;}
	.st289{opacity:0.6219;fill:#E2E2E2;}
	.st290{opacity:0.6169;fill:#E3E3E2;}
	.st291{opacity:0.6119;fill:#E3E3E3;}
	.st292{opacity:0.607;fill:#E3E3E3;}
	.st293{opacity:0.602;fill:#E3E3E3;}
	.st294{opacity:0.597;fill:#E4E3E3;}
	.st295{opacity:0.592;fill:#E4E4E4;}
	.st296{opacity:0.5871;fill:#E4E4E4;}
	.st297{opacity:0.5821;fill:#E4E4E4;}
	.st298{opacity:0.5771;fill:#E4E4E4;}
	.st299{opacity:0.5721;fill:#E5E5E4;}
	.st300{opacity:0.5672;fill:#E5E5E5;}
	.st301{opacity:0.5622;fill:#E5E5E5;}
	.st302{opacity:0.5572;fill:#E5E5E5;}
	.st303{opacity:0.5522;fill:#E6E6E5;}
	.st304{opacity:0.5473;fill:#E6E6E6;}
	.st305{opacity:0.5423;fill:#E6E6E6;}
	.st306{opacity:0.5373;fill:#E6E6E6;}
	.st307{opacity:0.5323;fill:#E7E6E6;}
	.st308{opacity:0.5274;fill:#E7E7E7;}
	.st309{opacity:0.5224;fill:#E7E7E7;}
	.st310{opacity:0.5174;fill:#E7E7E7;}
	.st311{opacity:0.5124;fill:#E7E7E7;}
	.st312{opacity:0.5075;fill:#E8E8E8;}
	.st313{opacity:0.5025;fill:#E8E8E8;}
	.st314{opacity:0.4975;fill:#E8E8E8;}
	.st315{opacity:0.4925;fill:#E8E8E8;}
	.st316{opacity:0.4876;fill:#E9E9E8;}
	.st317{opacity:0.4826;fill:#E9E9E9;}
	.st318{opacity:0.4776;fill:#E9E9E9;}
	.st319{opacity:0.4726;fill:#E9E9E9;}
	.st320{opacity:0.4677;fill:#EAE9E9;}
	.st321{opacity:0.4627;fill:#EAEAEA;}
	.st322{opacity:0.4577;fill:#EAEAEA;}
	.st323{opacity:0.4527;fill:#EAEAEA;}
	.st324{opacity:0.4478;fill:#EAEAEA;}
	.st325{opacity:0.4428;fill:#EBEBEB;}
	.st326{opacity:0.4378;fill:#EBEBEB;}
	.st327{opacity:0.4328;fill:#EBEBEB;}
	.st328{opacity:0.4279;fill:#EBEBEB;}
	.st329{opacity:0.4229;fill:#ECECEB;}
	.st330{opacity:0.4179;fill:#ECECEC;}
	.st331{opacity:0.4129;fill:#ECECEC;}
	.st332{opacity:0.408;fill:#ECECEC;}
	.st333{opacity:0.403;fill:#EDECEC;}
	.st334{opacity:0.398;fill:#EDEDED;}
	.st335{opacity:0.393;fill:#EDEDED;}
	.st336{opacity:0.3881;fill:#EDEDED;}
	.st337{opacity:0.3831;fill:#EDEDED;}
	.st338{opacity:0.3781;fill:#EEEEEE;}
	.st339{opacity:0.3731;fill:#EEEEEE;}
	.st340{opacity:0.3682;fill:#EEEEEE;}
	.st341{opacity:0.3632;fill:#EEEEEE;}
	.st342{opacity:0.3582;fill:#EFEFEE;}
	.st343{opacity:0.3532;fill:#EFEFEF;}
	.st344{opacity:0.3483;fill:#EFEFEF;}
	.st345{opacity:0.3433;fill:#EFEFEF;}
	.st346{opacity:0.3383;fill:#F0EFEF;}
	.st347{opacity:0.3333;fill:#F0F0F0;}
	.st348{opacity:0.3284;fill:#F0F0F0;}
	.st349{opacity:0.3234;fill:#F0F0F0;}
	.st350{opacity:0.3184;fill:#F0F0F0;}
	.st351{opacity:0.3134;fill:#F1F1F1;}
	.st352{opacity:0.3085;fill:#F1F1F1;}
	.st353{opacity:0.3035;fill:#F1F1F1;}
	.st354{opacity:0.2985;fill:#F1F1F1;}
	.st355{opacity:0.2935;fill:#F2F2F2;}
	.st356{opacity:0.2886;fill:#F2F2F2;}
	.st357{opacity:0.2836;fill:#F2F2F2;}
	.st358{opacity:0.2786;fill:#F2F2F2;}
	.st359{opacity:0.2736;fill:#F3F2F2;}
	.st360{opacity:0.2687;fill:#F3F3F3;}
	.st361{opacity:0.2637;fill:#F3F3F3;}
	.st362{opacity:0.2587;fill:#F3F3F3;}
	.st363{opacity:0.2537;fill:#F3F3F3;}
	.st364{opacity:0.2488;fill:#F4F4F4;}
	.st365{opacity:0.2438;fill:#F4F4F4;}
	.st366{opacity:0.2388;fill:#F4F4F4;}
	.st367{opacity:0.2338;fill:#F4F4F4;}
	.st368{opacity:0.2289;fill:#F5F5F5;}
	.st369{opacity:0.2239;fill:#F5F5F5;}
	.st370{opacity:0.2189;fill:#F5F5F5;}
	.st371{opacity:0.2139;fill:#F5F5F5;}
	.st372{opacity:0.209;fill:#F6F5F5;}
	.st373{opacity:0.204;fill:#F6F6F6;}
	.st374{opacity:0.199;fill:#F6F6F6;}
	.st375{opacity:0.194;fill:#F6F6F6;}
	.st376{opacity:0.1891;fill:#F6F6F6;}
	.st377{opacity:0.1841;fill:#F7F7F7;}
	.st378{opacity:0.1791;fill:#F7F7F7;}
	.st379{opacity:0.1741;fill:#F7F7F7;}
	.st380{opacity:0.1692;fill:#F7F7F7;}
	.st381{opacity:0.1642;fill:#F8F8F8;}
	.st382{opacity:0.1592;fill:#F8F8F8;}
	.st383{opacity:0.1542;fill:#F8F8F8;}
	.st384{opacity:0.1493;fill:#F8F8F8;}
	.st385{opacity:0.1443;fill:#F8F8F8;}
	.st386{opacity:0.1393;fill:#F9F9F9;}
	.st387{opacity:0.1343;fill:#F9F9F9;}
	.st388{opacity:0.1294;fill:#F9F9F9;}
	.st389{opacity:0.1244;fill:#F9F9F9;}
	.st390{opacity:0.1194;fill:#FAFAFA;}
	.st391{opacity:0.1144;fill:#FAFAFA;}
	.st392{opacity:0.1095;fill:#FAFAFA;}
	.st393{opacity:0.1045;fill:#FAFAFA;}
	.st394{opacity:0.0995;fill:#FBFBFB;}
	.st395{opacity:0.0945;fill:#FBFBFB;}
	.st396{opacity:0.0896;fill:#FBFBFB;}
	.st397{opacity:0.0846;fill:#FBFBFB;}
	.st398{opacity:0.0796;fill:#FBFBFB;}
	.st399{opacity:0.0746;fill:#FCFCFC;}
	.st400{opacity:0.0697;fill:#FCFCFC;}
	.st401{opacity:0.0647;fill:#FCFCFC;}
	.st402{opacity:0.0597;fill:#FCFCFC;}
	.st403{opacity:0.0547;fill:#FDFDFD;}
	.st404{opacity:0.0498;fill:#FDFDFD;}
	.st405{opacity:0.0448;fill:#FDFDFD;}
	.st406{opacity:0.0398;fill:#FDFDFD;}
	.st407{opacity:0.0348;fill:#FDFDFD;}
	.st408{opacity:0.0299;fill:#FEFEFE;}
	.st409{opacity:0.0249;fill:#FEFEFE;}
	.st410{opacity:0.0199;fill:#FEFEFE;}
	.st411{opacity:0.0149;fill:#FEFEFE;}
	.st412{opacity:0.01;fill:#FFFFFF;}
	.st413{opacity:0.005;fill:#FFFFFF;}
	.st414{opacity:0;fill:#FFFFFF;}
	.st415{fill:#4D4D4D;}
	.st416{fill:#F39023;}
	.st417{fill:#F28F21;}
	.st418{fill:#A5A9AA;}
	.st419{fill:#3A3A38;}
	.st420{opacity:0.6;}
	.st421{clip-path:url(#SVGID_6_);fill:#020203;}
	.st422{opacity:0.45;}
	.st423{clip-path:url(#SVGID_8_);fill:#020203;}
	.st424{opacity:0.8;}
	.st425{clip-path:url(#SVGID_10_);fill:#020203;}
	.st426{clip-path:url(#SVGID_12_);fill:#020203;}
	.st427{clip-path:url(#SVGID_14_);fill:#020203;}
</style>
<rect x="0.5" y="0.5" class="st1" width="187.391" height="137.518"/>
<g>
	<path class="st418" d="M38.542,47.452c-12.044,0-21.807,9.763-21.807,21.807c0,12.043,9.763,21.807,21.807,21.807
		c12.045,0,21.807-9.763,21.807-21.807C60.35,57.215,50.587,47.452,38.542,47.452 M38.883,69.98l-2.258,7.657L48.74,77.64
		c0.415,0,0.714,0.396,0.6,0.794l-1.042,3.638c-0.102,0.356-0.427,0.602-0.799,0.602L28.964,82.67l3.133-10.587l-3.468,1.074
		l0.743-2.517l3.47-1.075l4.401-14.872c0.102-0.356,0.427-0.601,0.798-0.601l4.694,0.001c0.414,0.001,0.713,0.397,0.599,0.796
		L39.63,67.457l3.467-1.074l-0.742,2.518L38.883,69.98z"/>
	<path class="st418" d="M72.965,54.075h-1.35c-0.251,0-0.428,0.14-0.463,0.407l-3.498,27.778c-0.033,0.266,0.056,0.408,0.336,0.408
		h1.35c0.278,0,0.434-0.124,0.464-0.408l3.541-27.778C73.386,54.189,73.23,54.075,72.965,54.075"/>
	<path class="st418" d="M80.056,62.081h-1.349c-0.253,0-0.434,0.13-0.464,0.409l-2.53,19.77c-0.032,0.272,0.126,0.408,0.379,0.408
		h1.35c0.252,0,0.429-0.125,0.463-0.408l2.487-19.77C80.428,62.219,80.337,62.081,80.056,62.081"/>
	<path class="st418" d="M139.315,61.754c-1.883,0-3.514,0.538-4.89,1.614c-1.377,1.076-2.292,2.485-2.74,4.228
		c-0.366,1.416-0.689,3.429-0.844,4.78c-0.211,1.831-0.379,3.335-0.379,4.779c0.027,1.771,0.589,3.186,1.687,4.248
		c1.096,1.062,2.598,1.592,4.51,1.592c1.855,0,3.47-0.53,4.849-1.592c1.375-1.062,2.29-2.478,2.739-4.248
		c0.309-1.171,0.591-2.764,0.844-4.779c0.253-2.098,0.38-3.704,0.38-4.82c0-1.743-0.555-3.145-1.665-4.208
		C142.695,62.285,141.199,61.754,139.315,61.754 M143.13,70.456c-0.126,1.007-0.203,1.647-0.231,1.92
		c-0.254,2.043-0.479,3.499-0.675,4.371c-0.309,1.306-0.956,2.355-1.939,3.145c-0.984,0.791-2.123,1.185-3.415,1.185
		c-1.293,0-2.326-0.389-3.098-1.166c-0.774-0.775-1.159-1.803-1.159-3.083c0-0.68,0.063-1.524,0.19-2.532
		c0.126-1.008,0.203-1.648,0.231-1.92c0.253-1.961,0.478-3.417,0.676-4.371c0.309-1.307,0.954-2.355,1.938-3.145
		c0.984-0.79,2.123-1.185,3.415-1.185c1.292,0,2.326,0.388,3.098,1.164c0.772,0.776,1.159,1.804,1.159,3.085
		C143.32,68.604,143.256,69.447,143.13,70.456"/>
	<path class="st418" d="M153.198,62.081h-1.349c-0.253,0-0.426,0.141-0.464,0.409l-2.53,19.77c-0.037,0.284,0.127,0.408,0.38,0.408
		h1.35c0.252,0,0.433-0.137,0.463-0.408l2.487-19.77C153.57,62.22,153.46,62.081,153.198,62.081"/>
	<path class="st418" d="M170.265,63.246c-0.926-0.967-2.234-1.45-3.921-1.45c-1.096,0-2.108,0.211-3.035,0.633
		c-0.927,0.422-1.715,1.056-2.36,1.9c-0.113,0.109-0.169,0.081-0.169-0.083l0.21-1.755c0.03-0.249-0.078-0.407-0.337-0.41h-1.349
		c-0.253,0-0.434,0.142-0.464,0.41l-2.487,19.77c-0.033,0.258,0.055,0.407,0.337,0.407h1.349c0.254,0,0.434-0.141,0.463-0.407
		l1.814-14.175c0.309-1.334,0.927-2.396,1.855-3.188c0.927-0.789,2.038-1.183,3.33-1.183c1.209,0,2.165,0.374,2.867,1.123
		c0.703,0.749,1.055,1.763,1.055,3.043c0,0.382-0.015,0.68-0.042,0.898l-1.728,13.481c-0.01,0.124-0.008,0.204,0.061,0.285
		c0.071,0.081,0.177,0.123,0.318,0.123h1.349c0.253,0,0.431-0.136,0.463-0.407l1.729-13.807c0.056-0.544,0.085-0.953,0.085-1.225
		C171.656,65.54,171.191,64.212,170.265,63.246"/>
	<path class="st418" d="M80.94,54.085c-0.813-0.426-1.816-0.113-2.242,0.7c-0.426,0.813-0.111,1.817,0.701,2.243
		c0.813,0.426,1.815,0.112,2.242-0.701C82.068,55.514,81.754,54.51,80.94,54.085"/>
	<path class="st418" d="M154.163,54.085c-0.813-0.426-1.817-0.113-2.242,0.7c-0.426,0.813-0.112,1.817,0.7,2.243
		c0.813,0.426,1.816,0.112,2.242-0.701C155.29,55.514,154.977,54.51,154.163,54.085"/>
	<path class="st418" d="M121.692,61.754c-1.883,0-3.513,0.539-4.89,1.615c-1.378,1.075-2.291,2.485-2.74,4.227
		c-0.366,1.416-0.717,3.681-0.844,4.779c-0.183,1.591-0.378,3.336-0.378,4.779c0.027,1.771,0.589,3.187,1.686,4.249
		c1.096,1.062,2.6,1.593,4.511,1.593c1.854,0,3.471-0.53,4.848-1.593c1.377-1.062,2.29-2.478,2.739-4.249
		c0.037-0.141,0.075-0.291,0.111-0.446c0.028-0.118-0.063-0.232-0.184-0.232h-1.676c-0.098,0-0.224,0.056-0.256,0.193
		c-0.009,0.032-0.018,0.078-0.018,0.078c-0.309,1.307-0.956,2.355-1.939,3.145c-0.984,0.791-2.123,1.185-3.415,1.185
		c-1.292,0-2.326-0.389-3.098-1.166c-0.773-0.775-1.158-1.803-1.158-3.083c0-0.681,0.064-1.524,0.189-2.532
		c0.105-0.839,0.203-1.648,0.231-1.92c0.253-1.96,0.478-3.417,0.676-4.371c0.308-1.307,0.954-2.355,1.938-3.145
		s2.122-1.185,3.415-1.185s2.326,0.388,3.099,1.164c0.772,0.775,1.159,1.804,1.159,3.085v0.032
		c-0.001,0.175,0.139,0.318,0.314,0.318h1.579c0.134,0,0.244-0.106,0.248-0.24c0.005-0.169,0.008-0.329,0.008-0.479
		c0-1.743-0.554-3.145-1.665-4.207C125.071,62.285,123.575,61.754,121.692,61.754"/>
	<path class="st418" d="M108.077,63.347c-1.109-1.062-2.606-1.593-4.49-1.593c-1.883,0-3.514,0.538-4.891,1.613
		c-1.377,1.076-2.291,2.485-2.739,4.227c-0.367,1.416-0.554,2.703-0.844,4.779c-0.284,2.045-0.379,3.337-0.379,4.779
		c0.027,1.77,0.59,3.186,1.687,4.248c1.096,1.061,2.599,1.592,4.51,1.592c1.855,0,3.471-0.531,4.849-1.592
		c1.376-1.062,2.29-2.478,2.739-4.248c0.037-0.142,0.075-0.292,0.111-0.448c0.028-0.117-0.063-0.231-0.184-0.231h-1.676
		c-0.097,0-0.224,0.056-0.256,0.193c-0.008,0.032-0.018,0.078-0.018,0.078c-0.309,1.307-0.955,2.355-1.939,3.145
		c-0.984,0.791-2.123,1.185-3.415,1.185c-1.293,0-2.326-0.39-3.099-1.166c-0.774-0.775-1.158-1.803-1.158-3.083
		c0-0.606,0.052-1.348,0.152-2.212l12.178-3.77c0.242-0.068,0.361-0.213,0.395-0.494c0.073-0.63,0.119-1.699,0.132-2.797
		C109.742,65.966,109.189,64.41,108.077,63.347 M107.599,69.043c-0.005,0.12-0.084,0.22-0.198,0.255l-10.099,3.119
		c0.001-0.013,0.004-0.03,0.004-0.042c0.253-1.96,0.478-3.417,0.676-4.371c0.308-1.307,0.953-2.355,1.937-3.145
		c0.984-0.789,2.123-1.185,3.415-1.185c1.292,0,2.326,0.388,3.098,1.164C107.666,66.081,107.673,67.383,107.599,69.043"/>
	<path class="st418" d="M90.131,80.487c0.243-0.114,0.52,0.054,0.486,0.32l-0.172,1.365c-0.022,0.177-0.139,0.333-0.307,0.395
		c-1.21,0.446-2.871,0.659-4.237,0.061c-1.546-0.708-1.943-2.236-1.722-4.137l1.784-14.49l0.253-2.082l0.591-4.616
		c0.032-0.268,0.196-0.409,0.463-0.409h1.306c0.311,0,0.37,0.179,0.337,0.409l-0.801,6.543l4.24-0.003
		c0.239,0,0.352,0.147,0.338,0.409l-0.117,0.94c-0.018,0.149-0.043,0.232-0.128,0.314c-0.084,0.082-0.224,0.095-0.336,0.095
		l-4.207,0.003l-1.476,11.886c-0.153,1.272-0.323,2.427,0.331,3.055C87.614,81.287,89.266,80.893,90.131,80.487"/>
</g>
</svg>
