<?xml version="1.0" encoding="utf-8"?>
<!-- Generator: Adobe Illustrator 23.0.2, SVG Export Plug-In . SVG Version: 6.00 Build 0)  -->
<svg version="1.1" id="Layer_1" xmlns="http://www.w3.org/2000/svg" xmlns:xlink="http://www.w3.org/1999/xlink" x="0px" y="0px"
	 viewBox="0 0 188.391 138.518" style="enable-background:new 0 0 188.391 138.518;" xml:space="preserve">
<style type="text/css">
	.st0{fill:#006DB6;}
	.st1{fill:#FFFFFF;}
	.st2{fill-rule:evenodd;clip-rule:evenodd;fill:#FFFFFF;}
	.st3{fill:#282F66;}
	.st4{fill:#201A1B;}
	.st5{fill:#EB5F2B;}
	.st6{fill:#E62C30;}
	.st7{fill:#F5991D;}
	.st8{fill:#EF7D00;}
	.st9{fill:url(#SVGID_1_);}
	.st10{opacity:0.65;fill:url(#SVGID_2_);}
	.st11{opacity:0.5;}
	.st12{clip-path:url(#SVGID_4_);}
	.st13{fill:#040403;}
	.st14{fill:#070707;}
	.st15{fill:#0B0B0B;}
	.st16{fill:#0F0F0F;}
	.st17{fill:#121212;}
	.st18{fill:#151515;}
	.st19{fill:#181818;}
	.st20{fill:#1B1B1A;}
	.st21{fill:#1D1D1D;}
	.st22{fill:#20201F;}
	.st23{fill:#222221;}
	.st24{fill:#242424;}
	.st25{fill:#272726;}
	.st26{fill:#292928;}
	.st27{fill:#2B2B2A;}
	.st28{fill:#2D2D2C;}
	.st29{fill:#2F2F2E;}
	.st30{fill:#313130;}
	.st31{fill:#333332;}
	.st32{fill:#353534;}
	.st33{fill:#363635;}
	.st34{fill:#373736;}
	.st35{fill:#383837;}
	.st36{fill:#393938;}
	.st37{fill:#3A3A39;}
	.st38{fill:#3C3B3A;}
	.st39{fill:#3D3C3B;}
	.st40{fill:#3E3D3D;}
	.st41{fill:#3F3E3E;}
	.st42{fill:#403F3F;}
	.st43{fill:#414040;}
	.st44{fill:#424141;}
	.st45{fill:#434242;}
	.st46{fill:#444443;}
	.st47{fill:#454544;}
	.st48{fill:#464645;}
	.st49{fill:#474746;}
	.st50{fill:#484847;}
	.st51{fill:#494948;}
	.st52{fill:#4A4A49;}
	.st53{fill:#4B4B4A;}
	.st54{fill:#4C4C4B;}
	.st55{fill:#4D4D4C;}
	.st56{fill:#4E4E4D;}
	.st57{fill:#4F4F4E;}
	.st58{fill:#50504F;}
	.st59{fill:#515150;}
	.st60{fill:#525251;}
	.st61{fill:#535352;}
	.st62{fill:#545453;}
	.st63{fill:#555554;}
	.st64{fill:#565655;}
	.st65{fill:#575756;}
	.st66{fill:#585757;}
	.st67{fill:#595858;}
	.st68{fill:#5A5959;}
	.st69{fill:#5B5A5A;}
	.st70{fill:#5B5B5A;}
	.st71{fill:#5C5C5B;}
	.st72{fill:#5D5D5C;}
	.st73{fill:#5E5E5D;}
	.st74{fill:#5F5F5E;}
	.st75{fill:#60605F;}
	.st76{fill:#616160;}
	.st77{fill:#626161;}
	.st78{fill:#636262;}
	.st79{fill:#646363;}
	.st80{fill:#646464;}
	.st81{fill:#656564;}
	.st82{fill:#666665;}
	.st83{fill:#676766;}
	.st84{fill:#686867;}
	.st85{fill:#696968;}
	.st86{fill:#6A6A69;}
	.st87{fill:#6B6A6A;}
	.st88{fill:#6C6B6B;}
	.st89{fill:#6D6C6C;}
	.st90{fill:#6D6D6D;}
	.st91{fill:#6E6E6D;}
	.st92{fill:#6F6F6E;}
	.st93{fill:#70706F;}
	.st94{fill:#717170;}
	.st95{fill:#727271;}
	.st96{fill:#737372;}
	.st97{fill:#747473;}
	.st98{fill:#757474;}
	.st99{fill:#767575;}
	.st100{fill:#777676;}
	.st101{fill:#777777;}
	.st102{fill:#787878;}
	.st103{fill:#797978;}
	.st104{fill:#7A7A79;}
	.st105{fill:#7B7B7A;}
	.st106{fill:#7C7C7B;}
	.st107{fill:#7D7D7C;}
	.st108{fill:#7E7D7D;}
	.st109{fill:#7F7E7E;}
	.st110{fill:#807F7F;}
	.st111{fill:#808080;}
	.st112{fill:#818180;}
	.st113{fill:#828281;}
	.st114{fill:#838382;}
	.st115{fill:#848483;}
	.st116{fill:#858484;}
	.st117{fill:#868585;}
	.st118{fill:#868686;}
	.st119{fill:#878787;}
	.st120{fill:#888887;}
	.st121{fill:#898988;}
	.st122{fill:#8A8A89;}
	.st123{fill:#8B8A8A;}
	.st124{fill:#8B8B8B;}
	.st125{fill:#8C8C8C;}
	.st126{fill:#8D8D8C;}
	.st127{fill:#8E8E8D;}
	.st128{fill:#8F8E8E;}
	.st129{fill:#8F8F8F;}
	.st130{fill:#909090;}
	.st131{fill:#919190;}
	.st132{fill:#929291;}
	.st133{fill:#939292;}
	.st134{fill:#939393;}
	.st135{fill:#949494;}
	.st136{fill:#959594;}
	.st137{fill:#969695;}
	.st138{fill:#979696;}
	.st139{fill:#979797;}
	.st140{fill:#989898;}
	.st141{fill:#999998;}
	.st142{fill:#9A9A99;}
	.st143{fill:#9B9A9A;}
	.st144{fill:#9B9B9B;}
	.st145{fill:#9C9C9C;}
	.st146{fill:#9D9D9C;}
	.st147{fill:#9E9E9D;}
	.st148{fill:#9F9E9E;}
	.st149{fill:#9F9F9F;}
	.st150{fill:#A0A0A0;}
	.st151{fill:#A1A1A0;}
	.st152{fill:#A2A2A1;}
	.st153{fill:#A3A2A2;}
	.st154{fill:#A3A3A3;}
	.st155{fill:#A4A4A4;}
	.st156{fill:#A5A5A5;}
	.st157{fill:#A6A6A5;}
	.st158{fill:#A7A7A6;}
	.st159{fill:#A8A7A7;}
	.st160{fill:#A8A8A8;}
	.st161{fill:#A9A9A9;}
	.st162{fill:#AAAAA9;}
	.st163{fill:#ABABAA;}
	.st164{fill:#ACABAB;}
	.st165{fill:#ACACAC;}
	.st166{fill:#ADADAD;}
	.st167{fill:#AEAEAD;}
	.st168{fill:#AFAFAE;}
	.st169{fill:#AFAFAF;}
	.st170{fill:#B0B0B0;}
	.st171{fill:#B1B1B1;}
	.st172{fill:#B2B2B1;}
	.st173{fill:#B3B2B2;}
	.st174{fill:#B3B3B3;}
	.st175{fill:#B4B4B4;}
	.st176{fill:#B5B5B4;}
	.st177{fill:#B6B5B5;}
	.st178{fill:#B6B6B6;}
	.st179{fill:#B7B7B7;}
	.st180{fill:#B8B8B7;}
	.st181{fill:#B9B8B8;}
	.st182{fill:#B9B9B9;}
	.st183{fill:#BABABA;}
	.st184{fill:#BBBBBA;}
	.st185{fill:#BCBBBB;}
	.st186{fill:#BCBCBC;}
	.st187{fill:#BDBDBD;}
	.st188{fill:#BEBEBD;}
	.st189{fill:#BFBEBE;}
	.st190{fill:#BFBFBF;}
	.st191{fill:#C0C0C0;}
	.st192{fill:#C1C1C0;}
	.st193{fill:#C2C1C1;}
	.st194{fill:#C2C2C2;}
	.st195{fill:#C3C3C3;}
	.st196{fill:#C4C4C3;}
	.st197{fill:#C4C4C4;}
	.st198{fill:#C5C5C5;}
	.st199{fill:#C6C6C6;}
	.st200{fill:#C7C7C6;}
	.st201{fill:#C7C7C7;}
	.st202{fill:#C8C8C8;}
	.st203{fill:#C9C9C8;}
	.st204{fill:#CAC9C9;}
	.st205{fill:#CACACA;}
	.st206{fill:#CBCBCB;}
	.st207{fill:#CCCCCB;}
	.st208{fill:#CDCCCC;}
	.st209{fill:#CDCDCD;}
	.st210{fill:#CECECE;}
	.st211{fill:#CFCFCE;}
	.st212{fill:#D0CFCF;}
	.st213{fill:#D0D0D0;}
	.st214{opacity:0.995;fill:#D0D0D0;}
	.st215{opacity:0.99;fill:#D1D1D0;}
	.st216{opacity:0.9851;fill:#D1D1D1;}
	.st217{opacity:0.9801;fill:#D1D1D1;}
	.st218{opacity:0.9751;fill:#D1D1D1;}
	.st219{opacity:0.9701;fill:#D2D2D1;}
	.st220{opacity:0.9652;fill:#D2D2D2;}
	.st221{opacity:0.9602;fill:#D2D2D2;}
	.st222{opacity:0.9552;fill:#D2D2D2;}
	.st223{opacity:0.9502;fill:#D3D3D2;}
	.st224{opacity:0.9453;fill:#D3D3D3;}
	.st225{opacity:0.9403;fill:#D3D3D3;}
	.st226{opacity:0.9353;fill:#D3D3D3;}
	.st227{opacity:0.9303;fill:#D4D4D3;}
	.st228{opacity:0.9254;fill:#D4D4D4;}
	.st229{opacity:0.9204;fill:#D4D4D4;}
	.st230{opacity:0.9154;fill:#D4D4D4;}
	.st231{opacity:0.9104;fill:#D5D5D4;}
	.st232{opacity:0.9055;fill:#D5D5D5;}
	.st233{opacity:0.9005;fill:#D5D5D5;}
	.st234{opacity:0.8955;fill:#D5D5D5;}
	.st235{opacity:0.8905;fill:#D6D6D5;}
	.st236{opacity:0.8856;fill:#D6D6D6;}
	.st237{opacity:0.8806;fill:#D6D6D6;}
	.st238{opacity:0.8756;fill:#D6D6D6;}
	.st239{opacity:0.8706;fill:#D7D7D6;}
	.st240{opacity:0.8657;fill:#D7D7D7;}
	.st241{opacity:0.8607;fill:#D7D7D7;}
	.st242{opacity:0.8557;fill:#D7D7D7;}
	.st243{opacity:0.8507;fill:#D8D8D7;}
	.st244{opacity:0.8458;fill:#D8D8D8;}
	.st245{opacity:0.8408;fill:#D8D8D8;}
	.st246{opacity:0.8358;fill:#D8D8D8;}
	.st247{opacity:0.8308;fill:#D9D9D8;}
	.st248{opacity:0.8259;fill:#D9D9D9;}
	.st249{opacity:0.8209;fill:#D9D9D9;}
	.st250{opacity:0.8159;fill:#D9D9D9;}
	.st251{opacity:0.8109;fill:#DAD9D9;}
	.st252{opacity:0.806;fill:#DADADA;}
	.st253{opacity:0.801;fill:#DADADA;}
	.st254{opacity:0.796;fill:#DADADA;}
	.st255{opacity:0.791;fill:#DBDADA;}
	.st256{opacity:0.7861;fill:#DBDBDB;}
	.st257{opacity:0.7811;fill:#DBDBDB;}
	.st258{opacity:0.7761;fill:#DBDBDB;}
	.st259{opacity:0.7711;fill:#DBDBDB;}
	.st260{opacity:0.7662;fill:#DCDCDB;}
	.st261{opacity:0.7612;fill:#DCDCDC;}
	.st262{opacity:0.7562;fill:#DCDCDC;}
	.st263{opacity:0.7512;fill:#DCDCDC;}
	.st264{opacity:0.7463;fill:#DDDDDC;}
	.st265{opacity:0.7413;fill:#DDDDDD;}
	.st266{opacity:0.7363;fill:#DDDDDD;}
	.st267{opacity:0.7313;fill:#DDDDDD;}
	.st268{opacity:0.7264;fill:#DEDDDD;}
	.st269{opacity:0.7214;fill:#DEDEDE;}
	.st270{opacity:0.7164;fill:#DEDEDE;}
	.st271{opacity:0.7114;fill:#DEDEDE;}
	.st272{opacity:0.7065;fill:#DEDEDE;}
	.st273{opacity:0.7015;fill:#DFDFDF;}
	.st274{opacity:0.6965;fill:#DFDFDF;}
	.st275{opacity:0.6915;fill:#DFDFDF;}
	.st276{opacity:0.6866;fill:#DFDFDF;}
	.st277{opacity:0.6816;fill:#E0E0DF;}
	.st278{opacity:0.6766;fill:#E0E0E0;}
	.st279{opacity:0.6716;fill:#E0E0E0;}
	.st280{opacity:0.6667;fill:#E0E0E0;}
	.st281{opacity:0.6617;fill:#E1E0E0;}
	.st282{opacity:0.6567;fill:#E1E1E1;}
	.st283{opacity:0.6517;fill:#E1E1E1;}
	.st284{opacity:0.6468;fill:#E1E1E1;}
	.st285{opacity:0.6418;fill:#E1E1E1;}
	.st286{opacity:0.6368;fill:#E2E2E1;}
	.st287{opacity:0.6318;fill:#E2E2E2;}
	.st288{opacity:0.6269;fill:#E2E2E2;}
	.st289{opacity:0.6219;fill:#E2E2E2;}
	.st290{opacity:0.6169;fill:#E3E3E2;}
	.st291{opacity:0.6119;fill:#E3E3E3;}
	.st292{opacity:0.607;fill:#E3E3E3;}
	.st293{opacity:0.602;fill:#E3E3E3;}
	.st294{opacity:0.597;fill:#E4E3E3;}
	.st295{opacity:0.592;fill:#E4E4E4;}
	.st296{opacity:0.5871;fill:#E4E4E4;}
	.st297{opacity:0.5821;fill:#E4E4E4;}
	.st298{opacity:0.5771;fill:#E4E4E4;}
	.st299{opacity:0.5721;fill:#E5E5E4;}
	.st300{opacity:0.5672;fill:#E5E5E5;}
	.st301{opacity:0.5622;fill:#E5E5E5;}
	.st302{opacity:0.5572;fill:#E5E5E5;}
	.st303{opacity:0.5522;fill:#E6E6E5;}
	.st304{opacity:0.5473;fill:#E6E6E6;}
	.st305{opacity:0.5423;fill:#E6E6E6;}
	.st306{opacity:0.5373;fill:#E6E6E6;}
	.st307{opacity:0.5323;fill:#E7E6E6;}
	.st308{opacity:0.5274;fill:#E7E7E7;}
	.st309{opacity:0.5224;fill:#E7E7E7;}
	.st310{opacity:0.5174;fill:#E7E7E7;}
	.st311{opacity:0.5124;fill:#E7E7E7;}
	.st312{opacity:0.5075;fill:#E8E8E8;}
	.st313{opacity:0.5025;fill:#E8E8E8;}
	.st314{opacity:0.4975;fill:#E8E8E8;}
	.st315{opacity:0.4925;fill:#E8E8E8;}
	.st316{opacity:0.4876;fill:#E9E9E8;}
	.st317{opacity:0.4826;fill:#E9E9E9;}
	.st318{opacity:0.4776;fill:#E9E9E9;}
	.st319{opacity:0.4726;fill:#E9E9E9;}
	.st320{opacity:0.4677;fill:#EAE9E9;}
	.st321{opacity:0.4627;fill:#EAEAEA;}
	.st322{opacity:0.4577;fill:#EAEAEA;}
	.st323{opacity:0.4527;fill:#EAEAEA;}
	.st324{opacity:0.4478;fill:#EAEAEA;}
	.st325{opacity:0.4428;fill:#EBEBEB;}
	.st326{opacity:0.4378;fill:#EBEBEB;}
	.st327{opacity:0.4328;fill:#EBEBEB;}
	.st328{opacity:0.4279;fill:#EBEBEB;}
	.st329{opacity:0.4229;fill:#ECECEB;}
	.st330{opacity:0.4179;fill:#ECECEC;}
	.st331{opacity:0.4129;fill:#ECECEC;}
	.st332{opacity:0.408;fill:#ECECEC;}
	.st333{opacity:0.403;fill:#EDECEC;}
	.st334{opacity:0.398;fill:#EDEDED;}
	.st335{opacity:0.393;fill:#EDEDED;}
	.st336{opacity:0.3881;fill:#EDEDED;}
	.st337{opacity:0.3831;fill:#EDEDED;}
	.st338{opacity:0.3781;fill:#EEEEEE;}
	.st339{opacity:0.3731;fill:#EEEEEE;}
	.st340{opacity:0.3682;fill:#EEEEEE;}
	.st341{opacity:0.3632;fill:#EEEEEE;}
	.st342{opacity:0.3582;fill:#EFEFEE;}
	.st343{opacity:0.3532;fill:#EFEFEF;}
	.st344{opacity:0.3483;fill:#EFEFEF;}
	.st345{opacity:0.3433;fill:#EFEFEF;}
	.st346{opacity:0.3383;fill:#F0EFEF;}
	.st347{opacity:0.3333;fill:#F0F0F0;}
	.st348{opacity:0.3284;fill:#F0F0F0;}
	.st349{opacity:0.3234;fill:#F0F0F0;}
	.st350{opacity:0.3184;fill:#F0F0F0;}
	.st351{opacity:0.3134;fill:#F1F1F1;}
	.st352{opacity:0.3085;fill:#F1F1F1;}
	.st353{opacity:0.3035;fill:#F1F1F1;}
	.st354{opacity:0.2985;fill:#F1F1F1;}
	.st355{opacity:0.2935;fill:#F2F2F2;}
	.st356{opacity:0.2886;fill:#F2F2F2;}
	.st357{opacity:0.2836;fill:#F2F2F2;}
	.st358{opacity:0.2786;fill:#F2F2F2;}
	.st359{opacity:0.2736;fill:#F3F2F2;}
	.st360{opacity:0.2687;fill:#F3F3F3;}
	.st361{opacity:0.2637;fill:#F3F3F3;}
	.st362{opacity:0.2587;fill:#F3F3F3;}
	.st363{opacity:0.2537;fill:#F3F3F3;}
	.st364{opacity:0.2488;fill:#F4F4F4;}
	.st365{opacity:0.2438;fill:#F4F4F4;}
	.st366{opacity:0.2388;fill:#F4F4F4;}
	.st367{opacity:0.2338;fill:#F4F4F4;}
	.st368{opacity:0.2289;fill:#F5F5F5;}
	.st369{opacity:0.2239;fill:#F5F5F5;}
	.st370{opacity:0.2189;fill:#F5F5F5;}
	.st371{opacity:0.2139;fill:#F5F5F5;}
	.st372{opacity:0.209;fill:#F6F5F5;}
	.st373{opacity:0.204;fill:#F6F6F6;}
	.st374{opacity:0.199;fill:#F6F6F6;}
	.st375{opacity:0.194;fill:#F6F6F6;}
	.st376{opacity:0.1891;fill:#F6F6F6;}
	.st377{opacity:0.1841;fill:#F7F7F7;}
	.st378{opacity:0.1791;fill:#F7F7F7;}
	.st379{opacity:0.1741;fill:#F7F7F7;}
	.st380{opacity:0.1692;fill:#F7F7F7;}
	.st381{opacity:0.1642;fill:#F8F8F8;}
	.st382{opacity:0.1592;fill:#F8F8F8;}
	.st383{opacity:0.1542;fill:#F8F8F8;}
	.st384{opacity:0.1493;fill:#F8F8F8;}
	.st385{opacity:0.1443;fill:#F8F8F8;}
	.st386{opacity:0.1393;fill:#F9F9F9;}
	.st387{opacity:0.1343;fill:#F9F9F9;}
	.st388{opacity:0.1294;fill:#F9F9F9;}
	.st389{opacity:0.1244;fill:#F9F9F9;}
	.st390{opacity:0.1194;fill:#FAFAFA;}
	.st391{opacity:0.1144;fill:#FAFAFA;}
	.st392{opacity:0.1095;fill:#FAFAFA;}
	.st393{opacity:0.1045;fill:#FAFAFA;}
	.st394{opacity:0.0995;fill:#FBFBFB;}
	.st395{opacity:0.0945;fill:#FBFBFB;}
	.st396{opacity:0.0896;fill:#FBFBFB;}
	.st397{opacity:0.0846;fill:#FBFBFB;}
	.st398{opacity:0.0796;fill:#FBFBFB;}
	.st399{opacity:0.0746;fill:#FCFCFC;}
	.st400{opacity:0.0697;fill:#FCFCFC;}
	.st401{opacity:0.0647;fill:#FCFCFC;}
	.st402{opacity:0.0597;fill:#FCFCFC;}
	.st403{opacity:0.0547;fill:#FDFDFD;}
	.st404{opacity:0.0498;fill:#FDFDFD;}
	.st405{opacity:0.0448;fill:#FDFDFD;}
	.st406{opacity:0.0398;fill:#FDFDFD;}
	.st407{opacity:0.0348;fill:#FDFDFD;}
	.st408{opacity:0.0299;fill:#FEFEFE;}
	.st409{opacity:0.0249;fill:#FEFEFE;}
	.st410{opacity:0.0199;fill:#FEFEFE;}
	.st411{opacity:0.0149;fill:#FEFEFE;}
	.st412{opacity:0.01;fill:#FFFFFF;}
	.st413{opacity:0.005;fill:#FFFFFF;}
	.st414{opacity:0;fill:#FFFFFF;}
	.st415{fill:#4D4D4D;}
	.st416{fill:#F39023;}
	.st417{fill:#F28F21;}
	.st418{fill:#A5A9AA;}
	.st419{fill:#3A3A38;}
	.st420{opacity:0.6;}
	.st421{clip-path:url(#SVGID_6_);fill:#020203;}
	.st422{opacity:0.45;}
	.st423{clip-path:url(#SVGID_8_);fill:#020203;}
	.st424{opacity:0.8;}
	.st425{clip-path:url(#SVGID_10_);fill:#020203;}
	.st426{clip-path:url(#SVGID_12_);fill:#020203;}
	.st427{clip-path:url(#SVGID_14_);fill:#020203;}
</style>
<rect x="0.5" y="0.5" class="st1" width="187.391" height="137.518"/>
<g id="Layer_2">
	<g id="Layer_1-2">
		<path class="st4" d="M57.421,113.729v-5.955c0.135-1.947-1.334-3.634-3.281-3.769c-0.15-0.01-0.301-0.011-0.451-0.002
			c-1.336-0.088-2.614,0.559-3.335,1.687c-0.657-1.095-1.861-1.742-3.136-1.687c-1.111-0.056-2.168,0.48-2.779,1.409v-1.171h-2.064
			v9.488h2.084v-5.221c-0.166-1.217,0.685-2.338,1.902-2.504c0.139-0.019,0.28-0.025,0.421-0.017c1.37,0,2.064,0.893,2.064,2.501
			v5.28h2.084v-5.26c-0.16-1.223,0.701-2.344,1.924-2.505c0.132-0.017,0.266-0.023,0.399-0.016c1.409,0,2.084,0.893,2.084,2.501
			v5.28L57.421,113.729z M88.259,104.241h-3.394v-2.878H82.78v2.878h-1.886v1.886h1.925v4.367c0,2.203,0.854,3.514,3.295,3.514
			c0.912,0.003,1.807-0.252,2.581-0.734l-0.596-1.767c-0.554,0.33-1.182,0.515-1.826,0.536c-0.993,0-1.37-0.635-1.37-1.588v-4.327
			h3.375L88.259,104.241z M105.866,104.002c-1.025-0.03-1.985,0.503-2.501,1.39v-1.151h-2.045v9.488h2.064v-5.32
			c0-1.568,0.675-2.442,1.985-2.442c0.442-0.006,0.88,0.075,1.29,0.238l0.635-1.985c-0.471-0.169-0.968-0.256-1.469-0.258
			L105.866,104.002z M79.247,104.995c-1.169-0.695-2.512-1.039-3.871-0.993c-2.402,0-3.97,1.151-3.97,3.037
			c0,1.548,1.151,2.501,3.275,2.799l0.993,0.139c1.131,0.159,1.667,0.457,1.667,0.993c0,0.734-0.754,1.151-2.164,1.151
			c-1.134,0.033-2.245-0.317-3.156-0.993l-0.993,1.608c1.203,0.84,2.643,1.271,4.109,1.231c2.739,0,4.327-1.29,4.327-3.097
			c0-1.806-1.251-2.541-3.315-2.839l-0.993-0.139c-0.893-0.119-1.608-0.298-1.608-0.933s0.675-1.112,1.806-1.112
			c1.046,0.012,2.071,0.292,2.978,0.814L79.247,104.995z M134.54,104.002c-1.025-0.03-1.985,0.503-2.501,1.39v-1.151h-2.045v9.488
			h2.064v-5.32c0-1.568,0.675-2.442,1.985-2.442c0.442-0.006,0.88,0.075,1.29,0.238l0.635-1.985
			c-0.471-0.169-0.968-0.256-1.469-0.258L134.54,104.002z M107.94,108.965c-0.097,2.646,1.968,4.87,4.614,4.967
			c0.149,0.006,0.299,0.004,0.448-0.004c1.24,0.063,2.458-0.341,3.414-1.131l-0.993-1.667c-0.714,0.544-1.584,0.844-2.481,0.854
			c-1.677-0.136-2.927-1.605-2.791-3.283c0.12-1.489,1.302-2.671,2.791-2.791c0.897,0.01,1.768,0.309,2.481,0.854l0.993-1.667
			c-0.957-0.791-2.175-1.195-3.414-1.131c-2.643-0.15-4.908,1.872-5.057,4.515c-0.008,0.149-0.01,0.298-0.004,0.448V108.965z
			 M127.274,108.965v-4.724h-2.064v1.151c-0.711-0.915-1.819-1.432-2.978-1.39c-2.741,0-4.963,2.222-4.963,4.963
			c0,2.741,2.222,4.963,4.963,4.963c1.158,0.043,2.266-0.474,2.978-1.39v1.151h2.064V108.965z M119.592,108.965
			c0.093-1.581,1.451-2.788,3.032-2.695c1.581,0.093,2.788,1.451,2.695,3.032c-0.089,1.51-1.336,2.692-2.849,2.7
			c-1.573,0.02-2.864-1.239-2.884-2.812C119.585,109.115,119.587,109.04,119.592,108.965z M94.68,104.002
			c-2.741,0.038-4.931,2.291-4.893,5.032c0.038,2.741,2.291,4.931,5.032,4.893l0,0c1.428,0.073,2.832-0.387,3.94-1.29l-0.993-1.528
			c-0.784,0.629-1.755,0.978-2.759,0.993c-1.419,0.122-2.677-0.907-2.839-2.322h7.047c0-0.258,0-0.516,0-0.794
			c0-2.978-1.846-4.963-4.506-4.963L94.68,104.002z M94.68,105.848c1.299-0.028,2.374,1.003,2.402,2.302c0,0,0,0.001,0,0.001H92.12
			c0.075-1.325,1.194-2.348,2.521-2.303H94.68z M146.4,108.985v-8.555h-1.985v4.963c-0.711-0.915-1.819-1.432-2.978-1.39
			c-2.741,0-4.963,2.222-4.963,4.963c0,2.741,2.222,4.963,4.963,4.963c1.158,0.043,2.266-0.474,2.978-1.39v1.151h1.985V108.985z
			 M149.844,112.349c0.129-0.002,0.257,0.022,0.377,0.069c0.114,0.047,0.218,0.114,0.308,0.199c0.087,0.086,0.158,0.187,0.208,0.298
			c0.102,0.234,0.102,0.5,0,0.734c-0.051,0.111-0.121,0.212-0.208,0.298c-0.089,0.085-0.194,0.152-0.308,0.199
			c-0.119,0.052-0.247,0.079-0.377,0.079c-0.384-0.003-0.732-0.227-0.893-0.576c-0.1-0.235-0.1-0.5,0-0.734
			c0.051-0.111,0.121-0.212,0.208-0.298c0.089-0.085,0.194-0.152,0.308-0.199c0.129-0.051,0.268-0.075,0.407-0.069H149.844z
			 M149.844,114.027c0.099,0.001,0.197-0.02,0.288-0.06c0.085-0.038,0.163-0.092,0.228-0.159c0.257-0.281,0.257-0.712,0-0.993
			c-0.065-0.067-0.143-0.121-0.228-0.159c-0.091-0.04-0.189-0.06-0.288-0.06c-0.099,0.001-0.197,0.021-0.288,0.06
			c-0.089,0.037-0.17,0.091-0.238,0.159c-0.257,0.281-0.257,0.712,0,0.993c0.068,0.068,0.149,0.122,0.238,0.159
			c0.1,0.043,0.209,0.064,0.318,0.06L149.844,114.027z M149.904,112.846c0.093-0.004,0.184,0.024,0.258,0.079
			c0.062,0.051,0.095,0.129,0.089,0.208c0.003,0.067-0.022,0.131-0.069,0.179c-0.058,0.052-0.131,0.084-0.208,0.089l0.288,0.328
			h-0.228l-0.268-0.328h-0.089v0.328h-0.189v-0.873L149.904,112.846z M149.685,113.014v0.238h0.218c0.039,0.012,0.08,0.012,0.119,0
			c0.014-0.028,0.014-0.061,0-0.089c0.014-0.028,0.014-0.061,0-0.089c-0.039-0.012-0.08-0.012-0.119,0L149.685,113.014z
			 M138.768,108.985c0.093-1.581,1.451-2.788,3.032-2.695c1.581,0.093,2.788,1.451,2.695,3.032c-0.089,1.51-1.336,2.692-2.848,2.7
			c-1.573,0.02-2.864-1.239-2.884-2.812C138.761,109.135,138.763,109.06,138.768,108.985z M69.063,108.985v-4.744h-2.064v1.151
			c-0.711-0.915-1.819-1.432-2.978-1.39c-2.741,0-4.963,2.222-4.963,4.963c0,2.741,2.222,4.963,4.963,4.963
			c1.158,0.043,2.266-0.474,2.978-1.39v1.151h2.064L69.063,108.985z M61.381,108.985c0.093-1.581,1.451-2.788,3.032-2.695
			c1.581,0.093,2.788,1.451,2.695,3.032c-0.089,1.51-1.336,2.692-2.849,2.7c-1.573,0.031-2.873-1.219-2.904-2.792
			c-0.002-0.082,0-0.163,0.006-0.245H61.381z"/>
		<g id="_Group_">
			<rect x="78.562" y="31.936" class="st5" width="31.264" height="56.186"/>
			<path id="_Path_" class="st6" d="M80.547,60.034c-0.012-10.966,5.021-21.328,13.647-28.098
				c-15.515-12.193-37.978-9.5-50.171,6.015s-9.5,37.978,6.015,50.171c12.957,10.183,31.199,10.183,44.156,0
				C85.571,81.354,80.538,70.996,80.547,60.034z"/>
			<path class="st7" d="M152.008,60.034c0,19.733-15.998,35.73-35.731,35.73c-8.009,0-15.786-2.691-22.083-7.642
				c15.515-12.193,18.208-34.656,6.015-50.171c-1.758-2.237-3.778-4.257-6.015-6.015c15.513-12.196,37.976-9.508,50.172,6.006
				c4.95,6.296,7.641,14.073,7.642,22.083V60.034z"/>
			<path class="st7" d="M148.594,82.167v-1.151h0.466v-0.238h-1.181v0.238h0.506v1.151L148.594,82.167z M150.886,82.167v-1.39
				h-0.357l-0.417,0.993l-0.417-0.993h-0.318v1.39h0.258v-1.042l0.387,0.903h0.268l0.387-0.903v1.052L150.886,82.167z"/>
		</g>
	</g>
</g>
</svg>
