<?xml version="1.0" encoding="utf-8"?>
<!-- Generator: Adobe Illustrator 23.0.2, SVG Export Plug-In . SVG Version: 6.00 Build 0)  -->
<svg version="1.1" id="Capa_1" xmlns="http://www.w3.org/2000/svg" xmlns:xlink="http://www.w3.org/1999/xlink" x="0px" y="0px"
	 viewBox="0 0 42.657 42.657" style="enable-background:new 0 0 42.657 42.657;" xml:space="preserve">
<style type="text/css">
	.st0{fill:#FFFFFF;}
	.st1{fill:#343434;}
	.st2{fill:none;stroke:#FFFFFF;stroke-width:1.6;stroke-linecap:round;stroke-miterlimit:10;}
	.st3{fill:none;stroke:#FFFFFF;stroke-width:1.6;stroke-miterlimit:10;}
	.st4{fill:#00ABFF;}
</style>
<path class="st0" d="M33.934,8.723c-3.367-3.367-7.844-5.221-12.606-5.221c-4.762,0-9.238,1.854-12.606,5.221
	c-3.367,3.367-5.221,7.844-5.221,12.606c0,4.762,1.854,9.239,5.221,12.606c3.368,3.367,7.844,5.221,12.606,5.221
	c4.762,0,9.238-1.854,12.606-5.221c3.367-3.367,5.221-7.844,5.221-12.606C39.155,16.567,37.301,12.09,33.934,8.723z M32.815,32.815
	c-3.068,3.068-7.148,4.758-11.487,4.758c-4.339,0-8.419-1.69-11.487-4.758c-3.068-3.069-4.759-7.148-4.759-11.487
	s1.69-8.418,4.759-11.487c3.068-3.068,7.147-4.758,11.487-4.758c4.339,0,8.418,1.69,11.487,4.758
	c3.068,3.068,4.758,7.148,4.758,11.487S35.883,29.747,32.815,32.815z M33.379,14.796c-2.403-4.424-7.02-7.172-12.051-7.172
	c-0.436,0-0.791,0.355-0.791,0.791c0,0.436,0.354,0.791,0.791,0.791c4.449,0,8.534,2.431,10.66,6.345
	c0.138,0.255,0.405,0.414,0.696,0.414c0.131,0,0.262-0.033,0.377-0.096c0.186-0.101,0.321-0.268,0.381-0.471
	C33.503,15.195,33.48,14.981,33.379,14.796z M18.122,23.051h-2.697v2.697h2.697V23.051z M28.529,15.342H14.129
	c-0.937,0-1.698,0.762-1.698,1.698v9.932c0,0.937,0.762,1.698,1.698,1.698h14.399c0.937,0,1.698-0.762,1.698-1.698v-9.932
	C30.227,16.103,29.465,15.342,28.529,15.342z M28.627,26.972c0,0.054-0.044,0.099-0.099,0.099H14.129
	c-0.056,0-0.099-0.043-0.099-0.099v-6.338h14.597V26.972z M28.627,19.034H14.03v-1.994c0-0.055,0.043-0.098,0.099-0.098h14.399
	c0.055,0,0.099,0.044,0.099,0.098V19.034z"/>
</svg>
