<?xml version="1.0" encoding="utf-8"?>
<!-- Generator: Adobe Illustrator 23.0.2, SVG Export Plug-In . SVG Version: 6.00 Build 0)  -->
<svg version="1.1" id="Capa_1" xmlns="http://www.w3.org/2000/svg" xmlns:xlink="http://www.w3.org/1999/xlink" x="0px" y="0px"
	 viewBox="0 0 42.657 42.657" style="enable-background:new 0 0 42.657 42.657;" xml:space="preserve">
<style type="text/css">
	.st0{fill:#FFFFFF;}
	.st1{fill:#343434;}
	.st2{fill:none;stroke:#FFFFFF;stroke-width:1.6;stroke-linecap:round;stroke-miterlimit:10;}
	.st3{fill:none;stroke:#FFFFFF;stroke-width:1.6;stroke-miterlimit:10;}
	.st4{fill:#00ABFF;}
</style>
<path class="st0" d="M33.934,8.723c-3.367-3.367-7.843-5.221-12.606-5.221c-4.762,0-9.238,1.854-12.606,5.221
	c-3.367,3.367-5.221,7.844-5.221,12.606s1.854,9.239,5.221,12.606c3.368,3.367,7.844,5.221,12.606,5.221
	c4.762,0,9.238-1.854,12.606-5.221c3.367-3.367,5.221-7.844,5.221-12.606C39.156,16.567,37.301,12.09,33.934,8.723z M32.815,32.815
	c-3.068,3.068-7.148,4.758-11.487,4.758c-4.339,0-8.419-1.69-11.487-4.758c-3.068-3.069-4.758-7.148-4.758-11.487
	s1.69-8.418,4.758-11.487c3.068-3.068,7.147-4.758,11.487-4.758c4.339,0,8.418,1.69,11.487,4.758s4.758,7.148,4.758,11.487
	S35.884,29.747,32.815,32.815z M14.081,17.619h14.496c0.401,0,0.725-0.324,0.725-0.725c0-0.318-0.205-0.588-0.49-0.686l-7.189-3.235
	c-0.189-0.085-0.405-0.085-0.594,0l-7.245,3.26c-0.312,0.14-0.483,0.479-0.411,0.813C13.444,17.381,13.739,17.619,14.081,17.619z
	 M14.395,25.725c-0.441,0-0.8,0.358-0.8,0.8s0.358,0.8,0.8,0.8h13.867c0.441,0,0.8-0.358,0.8-0.8s-0.358-0.8-0.8-0.8H26.97v-5.721
	h0.928c0.441,0,0.8-0.358,0.8-0.8s-0.358-0.8-0.8-0.8H14.76c-0.441,0-0.8,0.358-0.8,0.8s0.358,0.8,0.8,0.8h0.928v5.721H14.395z
	 M23.742,20.004h1.628v5.721h-1.628V20.004z M20.515,20.004h1.628v5.721h-1.628V20.004z M17.287,20.004h1.628v5.721h-1.628V20.004z
	 M33.379,14.796c-2.403-4.424-7.02-7.172-12.051-7.172c-0.436,0-0.791,0.355-0.791,0.791c0,0.436,0.354,0.791,0.791,0.791
	c4.449,0,8.534,2.431,10.66,6.345c0.138,0.255,0.405,0.414,0.696,0.414c0.131,0,0.262-0.033,0.377-0.096
	c0.186-0.101,0.321-0.268,0.381-0.471C33.503,15.195,33.48,14.981,33.379,14.796z M29.575,28.019H13.082c-0.441,0-0.8,0.358-0.8,0.8
	s0.358,0.8,0.8,0.8h16.493c0.441,0,0.8-0.358,0.8-0.8S30.017,28.019,29.575,28.019z"/>
</svg>
