<svg xmlns="http://www.w3.org/2000/svg" width="16.906" height="9.554" viewBox="0 0 16.906 9.554">
  <g id="sync" transform="translate(8.453 4.777)">
    <path id="sync-2" data-name="sync" d="M12.509.421,12.255.167a.566.566,0,0,0-.8,0L7.121,4.5,8.174,5.555l4.334-4.334a.566.566,0,0,0,0-.8Zm3.17-.255L8.171,7.673,5.447,4.956a.566.566,0,0,0-.8,0l-.253.253a.566.566,0,0,0,0,.8L7.772,9.388a.566.566,0,0,0,.8,0l8.167-8.166a.566.566,0,0,0,0-.8L16.478.164a.566.566,0,0,0-.8,0ZM.165,6.013,3.541,9.388a.566.566,0,0,0,.8,0l.253-.253a.566.566,0,0,0,0-.8L1.224,4.957a.566.566,0,0,0-.8,0l-.258.256a.566.566,0,0,0,0,.8Z" transform="translate(-8.453 -4.777)" fill="#00abff"/>
  </g>
</svg>
