<?xml version="1.0" encoding="utf-8"?>
<!-- Generator: Adobe Illustrator 22.0.1, SVG Export Plug-In . SVG Version: 6.00 Build 0)  -->
<svg version="1.1" id="Capa_1" xmlns="http://www.w3.org/2000/svg" xmlns:xlink="http://www.w3.org/1999/xlink" x="0px" y="0px"
	 viewBox="0 0 210 208.333" enable-background="new 0 0 210 208.333" xml:space="preserve">
<g>
	<defs>
		<rect id="SVGID_20_" x="-642.287" y="430.014" width="1497.83" height="918.456"/>
	</defs>
	<clipPath id="SVGID_2_">
		<use xlink:href="#SVGID_20_"  overflow="visible"/>
	</clipPath>
</g>
<path fill="#343434" d="M175.707,32.875c-18.69-18.691-43.542-28.985-69.976-28.985S54.447,14.183,35.756,32.874
	C17.065,51.566,6.771,76.417,6.771,102.85c0,26.433,10.294,51.284,28.985,69.976c18.69,18.691,43.542,28.985,69.976,28.985
	s51.285-10.294,69.976-28.985c18.691-18.691,28.985-43.542,28.985-69.976S194.399,51.566,175.707,32.875z"/>
<g>
	<path fill="#FFFFFF" d="M147.439,97.754l-58.83-35.938l-0.137-0.078c-1.985-1.076-4.325-1.029-6.264,0.124
		c-1.938,1.154-3.096,3.19-3.096,5.446v71.712c0,2.256,1.157,4.292,3.096,5.446c0.988,0.587,2.107,0.898,3.239,0.898
		c1.045,0,2.091-0.268,3.02-0.771l58.946-35.794c1.999-1.119,3.24-3.238,3.24-5.529C150.654,100.987,149.422,98.877,147.439,97.754z
		 M142.377,103.266l-55.922,33.962V69.104L142.377,103.266z"/>
	<path fill="#FFFFFF" d="M105.732,39.259c-2.024,0-3.671,1.647-3.671,3.671s1.646,3.672,3.671,3.672
		c20.645,0,39.597,11.28,49.461,29.439c0.644,1.184,1.88,1.919,3.229,1.919c0.608,0,1.214-0.154,1.75-0.445
		c0.862-0.468,1.49-1.244,1.769-2.185c0.278-0.94,0.174-1.933-0.294-2.794C150.494,52.01,129.07,39.259,105.732,39.259z"/>
	<path fill="#FFFFFF" d="M164.219,44.362c-15.622-15.623-36.394-24.227-58.487-24.227S62.867,28.74,47.244,44.362
		C31.621,59.985,23.018,80.756,23.018,102.85c0,22.094,8.604,42.865,24.227,58.487c15.622,15.623,36.394,24.227,58.487,24.227
		s42.865-8.604,58.487-24.227c15.623-15.622,24.227-36.394,24.227-58.487C188.446,80.756,179.842,59.985,164.219,44.362z
		 M181.103,102.85c0,20.132-7.84,39.06-22.075,53.295c-14.236,14.236-33.163,22.076-53.296,22.076s-39.06-7.84-53.296-22.076
		C38.2,141.91,30.361,122.982,30.361,102.85c0-20.132,7.84-39.06,22.075-53.295c14.236-14.236,33.163-22.076,53.296-22.076
		s39.06,7.84,53.296,22.076C173.263,63.79,181.103,82.717,181.103,102.85z"/>
</g>
</svg>
