<?xml version="1.0" encoding="utf-8"?>
<!-- Generator: Adobe Illustrator 23.0.3, SVG Export Plug-In . SVG Version: 6.00 Build 0)  -->
<svg version="1.1" xmlns="http://www.w3.org/2000/svg" xmlns:xlink="http://www.w3.org/1999/xlink" x="0px" y="0px" width="140px"
	 height="100px" viewBox="0 0 140 100" enable-background="new 0 0 140 100" xml:space="preserve">
<g id="Capa_1">
	<text transform="matrix(1 0 0 1 39.6196 89.1608)" fill="#00ABFF" font-family="'OpenSans-Semibold'" font-size="10px">Select image</text>
</g>
<g id="BitTube_x5F_Grey">
</g>
<g id="object">
	<rect x="8.827" y="4.379" fill="#F6F6F6" width="122.347" height="69.526"/>
	<g>
		<path fill="#FFFFFF" stroke="#E6E6E6" stroke-miterlimit="10" d="M98.484,59.768H41.516c-1.657,0-3-1.343-3-3V20.295
			c0-1.657,1.343-3,3-3h56.967c1.657,0,3,1.343,3,3v36.472C101.484,58.425,100.14,59.768,98.484,59.768z"/>
		<g>
			<path fill="none" stroke="#373737" stroke-width="2" stroke-linecap="round" stroke-miterlimit="10" d="M56.113,38.608
				c3.864,0,7.008-3.145,7.008-7.011c0-3.866-3.144-7.011-7.008-7.011c-3.865,0-7.01,3.145-7.01,7.011
				C49.103,35.463,52.248,38.608,56.113,38.608z"/>
			<path fill="none" stroke="#373737" stroke-width="2" stroke-linecap="round" stroke-miterlimit="10" d="M65.664,52.476v-2.945
				c0-3.77-3.068-6.838-6.838-6.838h-5.382c-3.771,0-6.838,3.067-6.838,6.838v2.945"/>
		</g>
		
			<line fill="none" stroke="#373737" stroke-width="2" stroke-linecap="round" stroke-miterlimit="10" x1="74.271" y1="28.18" x2="94.187" y2="28.18"/>
		
			<line fill="none" stroke="#373737" stroke-width="2" stroke-linecap="round" stroke-miterlimit="10" x1="80.293" y1="37.199" x2="94.187" y2="37.199"/>
		
			<line fill="none" stroke="#373737" stroke-width="2" stroke-linecap="round" stroke-miterlimit="10" x1="80.293" y1="43.247" x2="94.187" y2="43.247"/>
		
			<line fill="none" stroke="#373737" stroke-width="2" stroke-linecap="round" stroke-miterlimit="10" x1="77.531" y1="48.665" x2="94.187" y2="48.665"/>
	</g>
</g>
<g id="OBJECTS">
</g>
</svg>
