<svg xmlns="http://www.w3.org/2000/svg" width="32" height="32" viewBox="0 0 32 32">
  <g id="wallet" transform="translate(-5162 3172)">
    <path id="Trazado_1459" data-name="Trazado 1459" d="M13.316,7.632l.658.657.88-.88-.789-.79a1.058,1.058,0,0,0-1.5,0L9.549,9.638H11.31Zm2.035,2.006,1.614-1.615L18.58,9.638h1.761L17.769,7.067a1.135,1.135,0,0,0-1.607,0L13.59,9.638Zm7.986,4.725h-.066v-2.35a1.347,1.347,0,0,0-1.346-1.346H8.832a1.347,1.347,0,0,0-1.346,1.346V22.406a1.347,1.347,0,0,0,1.346,1.346H21.926a1.347,1.347,0,0,0,1.346-1.346V19.932h.066a1.178,1.178,0,0,0,1.176-1.176V15.539A1.177,1.177,0,0,0,23.338,14.363Zm-1.5,8.221H8.7V11.932H21.834v2.431H18.693a1.177,1.177,0,0,0-1.175,1.176v3.216a1.178,1.178,0,0,0,1.175,1.176h3.141Zm1.478-3.928-4.6.014V15.591h4.6Zm4-13.969A16,16,0,1,0,4.687,27.313,16,16,0,1,0,27.313,4.687Zm-1,21.622A14.579,14.579,0,1,1,5.691,5.69,14.579,14.579,0,1,1,26.309,26.309Z" transform="translate(5162 -3172)" fill="#fff"/>
  </g>
</svg>
