<?xml version="1.0" encoding="UTF-8"?>
<svg width="20px" height="20px" viewBox="0 0 20 20" version="1.1" xmlns="http://www.w3.org/2000/svg" xmlns:xlink="http://www.w3.org/1999/xlink">
    <!-- Generator: sketchtool 50.2 (55047) - http://www.bohemiancoding.com/sketch -->
    <title>F1102181-E16C-41D4-A3D7-BD1CF5C29BA9</title>
    <desc>Created with sketchtool.</desc>
    <defs></defs>
    <g id="Page-1" stroke="none" stroke-width="1" fill="none" fill-rule="evenodd">
        <g id="extension-2-3" transform="translate(-717.000000, -290.000000)">
            <g id="Group-6" transform="translate(693.000000, 276.000000)">
                <g id="ic_extension-alart" transform="translate(24.000000, 14.000000)">
                    <rect id="Rectangle-24" x="0" y="0" width="20" height="20"></rect>
                    <path d="M9.88458824,11.8010588 C9.69188139,11.8010588 9.52900067,11.7368242 9.39594118,11.6083529 C9.26288169,11.4798817 9.17800018,11.2963541 9.14129412,11.0577647 L8.42552941,6.77694118 C8.4163529,6.72188208 8.41176471,6.64847105 8.41176471,6.55670588 C8.41176471,6.14376264 8.55170448,5.82029529 8.83158824,5.58629412 C9.11147199,5.35229295 9.46246848,5.23529412 9.88458824,5.23529412 C10.3158845,5.23529412 10.6691751,5.35458704 10.9444706,5.59317647 C11.2197661,5.8317659 11.3574118,6.15752735 11.3574118,6.57047059 C11.3574118,6.66223575 11.3528236,6.73564678 11.3436471,6.79070588 L10.6141176,11.0577647 C10.5865881,11.2963541 10.5062948,11.4798817 10.3732353,11.6083529 C10.2401758,11.7368242 10.0772951,11.8010588 9.88458824,11.8010588 Z M9.88458824,15.0908235 C9.49917454,15.0908235 9.18029538,14.9623542 8.92794118,14.7054118 C8.67558697,14.4484693 8.54941176,14.1318842 8.54941176,13.7556471 C8.54941176,13.3794099 8.67558697,13.0628248 8.92794118,12.8058824 C9.18029538,12.5489399 9.49917454,12.4204706 9.88458824,12.4204706 C10.2608254,12.4204706 10.5751164,12.5489399 10.8274706,12.8058824 C11.0798248,13.0628248 11.206,13.3794099 11.206,13.7556471 C11.206,14.1318842 11.0798248,14.4484693 10.8274706,14.7054118 C10.5751164,14.9623542 10.2608254,15.0908235 9.88458824,15.0908235 Z" id="!" fill="#868E96"></path>
                    <path d="M10,19.5 C4.75329488,19.5 0.5,15.2467051 0.5,10 C0.5,4.75329488 4.75329488,0.5 10,0.5 C15.2467051,0.5 19.5,4.75329488 19.5,10 C19.5,15.2467051 15.2467051,19.5 10,19.5 Z M10,18.5 C14.6944204,18.5 18.5,14.6944204 18.5,10 C18.5,5.30557963 14.6944204,1.5 10,1.5 C5.30557963,1.5 1.5,5.30557963 1.5,10 C1.5,14.6944204 5.30557963,18.5 10,18.5 Z" id="Oval-8" fill="#868E96" fill-rule="nonzero"></path>
                </g>
            </g>
        </g>
    </g>
</svg>