<?xml version="1.0" standalone="no"?>
<!DOCTYPE svg PUBLIC "-//W3C//DTD SVG 20010904//EN"
 "http://www.w3.org/TR/2001/REC-SVG-20010904/DTD/svg10.dtd">
<svg version="1.0" xmlns="http://www.w3.org/2000/svg"
 width="220.000000pt" height="205.000000pt" viewBox="0 0 220.000000 205.000000"
 preserveAspectRatio="xMidYMid meet">
<metadata>
Created by potrace 1.16, written by Peter Selinger 2001-2019
</metadata>
<g transform="translate(0.000000,205.000000) scale(0.100000,-0.100000)"
fill="#000000" stroke="none">
<path d="M945 1902 c-371 -337 -589 -594 -709 -837 -75 -152 -88 -195 -94
-309 -8 -170 33 -283 142 -391 217 -217 583 -182 750 72 82 124 73 148 -58
148 -95 0 -134 -18 -181 -83 -29 -40 -54 -50 -62 -25 -7 20 79 105 127 126 30
14 66 20 113 20 72 0 74 3 15 36 -121 66 -344 66 -475 -2 -44 -23 -48 -34 -18
-53 21 -14 40 -16 104 -10 75 6 166 29 185 47 18 17 -89 8 -144 -11 -30 -10
-59 -15 -64 -10 -34 34 149 82 239 63 53 -12 54 -32 3 -65 -74 -45 -239 -74
-346 -59 -29 4 -55 4 -58 0 -2 -4 11 -19 29 -33 40 -31 115 -35 174 -11 45 19
73 19 73 0 0 -9 -21 -21 -60 -32 -33 -10 -60 -21 -60 -25 0 -11 66 -26 148
-34 51 -5 72 -11 72 -20 0 -10 -16 -14 -63 -14 -129 0 -265 57 -343 143 -60
67 -56 110 8 76 34 -18 32 -1 -5 40 -65 72 -98 183 -77 260 13 48 24 51 63 14
l30 -28 -7 25 c-5 14 -10 50 -13 80 -9 102 60 270 115 278 18 3 22 -2 22 -22
0 -40 17 -39 31 1 31 99 106 194 200 254 55 35 76 33 81 -7 3 -24 10 -19 106
80 101 103 152 181 152 232 0 25 27 51 39 38 4 -5 14 -31 21 -57 20 -74 78
-154 174 -241 82 -74 87 -77 84 -50 -5 43 20 41 91 -7 76 -51 144 -134 173
-211 22 -61 35 -72 40 -35 2 16 10 22 28 22 21 0 31 -12 65 -79 39 -77 40 -81
40 -182 0 -104 5 -121 25 -84 27 50 60 10 60 -72 0 -80 -35 -161 -98 -231 -27
-29 -19 -34 23 -15 82 37 22 -76 -75 -141 -74 -49 -189 -83 -269 -79 -34 2
-61 8 -61 13 -1 6 39 15 88 21 146 19 163 32 72 55 -50 13 -79 33 -66 46 4 4
26 1 49 -6 23 -8 71 -16 106 -18 58 -4 65 -3 92 23 16 15 29 31 29 34 0 3 -26
3 -57 -1 -70 -8 -199 4 -269 25 -60 19 -119 56 -119 76 0 19 75 32 142 25 57
-7 146 -38 151 -53 6 -18 -29 -22 -61 -6 -36 19 -157 32 -157 17 0 -29 242
-66 285 -43 38 20 30 35 -32 63 -145 63 -326 62 -454 -4 -57 -28 -54 -35 15
-36 97 -1 187 -47 222 -116 15 -27 12 -47 -6 -47 -6 0 -22 18 -36 40 -35 53
-110 90 -178 89 -70 -2 -107 -11 -119 -30 -16 -25 39 -123 108 -192 252 -255
679 -162 811 176 20 52 24 78 24 177 0 133 -17 198 -91 343 -123 242 -309 466
-656 789 -169 156 -196 178 -225 178 -28 0 -54 -19 -173 -128z"/>
<path d="M1101 1723 c-19 -42 -69 -104 -124 -155 l-51 -46 36 -40 c46 -51 70
-115 66 -178 -3 -46 -5 -49 -28 -46 -13 1 -37 14 -52 28 -34 33 -73 123 -60
136 15 15 27 4 56 -57 15 -30 32 -55 37 -55 28 0 -18 127 -60 165 l-23 20 -35
-39 c-29 -31 -34 -43 -29 -67 13 -65 117 -192 182 -221 29 -13 32 -38 5 -38
-23 0 -106 62 -149 110 -46 54 -80 125 -87 185 -4 30 -10 55 -14 55 -25 0
-172 -162 -160 -175 9 -8 144 -54 148 -50 2 3 -2 13 -11 22 -23 28 -51 100
-44 112 14 22 27 10 57 -55 25 -52 56 -91 148 -183 77 -76 126 -135 146 -173
16 -31 32 -53 35 -48 3 4 2 102 -1 216 -7 221 -17 275 -70 360 -18 29 -19 35
-5 40 21 8 33 -1 56 -44 10 -20 20 -30 20 -22 1 8 2 49 3 90 2 68 4 75 22 75
19 0 20 -7 20 -93 0 -86 1 -92 15 -72 41 58 59 75 69 64 8 -7 2 -27 -20 -67
-42 -79 -59 -192 -58 -402 l0 -170 30 58 c19 37 73 103 152 186 115 119 139
151 166 224 6 16 17 27 24 24 17 -6 12 -52 -13 -98 -11 -22 -20 -41 -20 -43 0
-4 128 39 135 46 4 4 -2 22 -14 41 -24 39 -125 137 -140 137 -6 0 -11 -19 -11
-42 0 -54 -45 -151 -96 -208 -47 -52 -116 -100 -143 -100 -34 0 -24 17 33 55
78 52 156 161 156 218 -1 31 -53 92 -73 84 -23 -9 -65 -79 -76 -129 -6 -23 -8
-44 -6 -47 10 -9 34 22 54 69 22 50 51 67 51 30 0 -50 -86 -160 -125 -160 -51
0 -15 170 53 242 l25 27 -71 75 c-39 41 -80 93 -92 116 -11 22 -22 40 -24 40
-1 0 -8 -12 -15 -27z"/>
<path d="M587 1245 c-7 -18 -6 -19 63 -38 116 -34 250 -147 328 -278 39 -65
45 -89 22 -89 -5 0 -29 19 -53 43 -30 31 -87 65 -197 119 -127 62 -164 85
-203 126 -26 28 -47 58 -47 67 0 25 -26 17 -39 -11 -10 -23 -9 -30 10 -50 12
-13 37 -34 55 -46 19 -13 34 -29 34 -35 0 -23 -32 -14 -76 22 -25 21 -45 31
-49 25 -4 -6 -9 -34 -12 -63 -5 -47 -3 -55 22 -79 34 -34 129 -66 222 -74 78
-7 99 -15 88 -34 -13 -21 -218 12 -284 46 -33 17 -36 12 -17 -25 13 -24 28
-34 74 -48 61 -18 224 -24 300 -10 37 6 42 5 42 -12 0 -17 -10 -20 -67 -27
-170 -18 -323 11 -406 78 -43 34 -64 28 -48 -14 10 -28 51 -50 124 -69 27 -6
46 -16 44 -23 -5 -15 -84 -9 -119 8 -15 8 -29 12 -31 9 -6 -5 10 -38 40 -80
l23 -31 67 34 c46 22 100 39 166 50 91 15 103 15 192 -1 53 -9 116 -27 140
-40 25 -12 45 -18 45 -13 0 17 -105 120 -160 158 -101 68 -240 120 -362 135
-32 4 -48 11 -48 21 0 19 60 18 142 -2 189 -47 345 -138 439 -257 l42 -52 -7
55 c-19 144 -63 238 -159 338 -82 84 -143 126 -233 158 -75 28 -100 30 -107 9z"/>
<path d="M1540 1238 c-137 -52 -274 -175 -335 -303 -34 -70 -70 -221 -55 -230
3 -2 20 13 36 34 51 67 136 131 239 181 148 72 345 116 345 76 0 -10 -17 -16
-52 -21 -172 -22 -345 -102 -455 -212 -40 -40 -73 -77 -73 -83 0 -6 22 1 49
14 27 14 89 33 139 42 82 15 98 15 188 1 71 -12 118 -26 166 -50 l67 -35 20
22 c20 21 51 75 51 88 0 4 -15 1 -32 -6 -49 -20 -115 -29 -123 -17 -7 12 19
25 81 41 55 13 94 45 94 76 0 13 -2 24 -4 24 -3 0 -25 -13 -48 -29 -97 -65
-138 -76 -305 -76 -109 0 -156 4 -164 13 -25 24 4 31 84 20 59 -9 101 -8 169
1 98 13 141 30 159 62 14 28 6 34 -28 20 -48 -19 -135 -39 -206 -46 -64 -7
-69 -6 -65 11 3 16 16 20 73 26 124 12 224 49 246 90 11 20 7 123 -5 135 -3 3
-24 -11 -46 -31 -36 -32 -80 -48 -80 -28 0 4 25 29 55 55 45 40 54 53 49 70
-14 48 -26 49 -48 6 -30 -61 -102 -112 -261 -189 -101 -48 -152 -79 -182 -110
-38 -39 -63 -46 -63 -16 0 26 103 167 161 219 55 50 181 127 207 127 29 0 61
20 56 35 -8 20 -38 18 -104 -7z"/>
<path d="M583 1175 c-3 -10 -2 -25 4 -34 23 -38 323 -188 304 -153 -28 53
-171 161 -238 181 -15 5 -36 12 -45 16 -12 5 -20 1 -25 -10z"/>
<path d="M1585 1172 c-74 -31 -136 -73 -196 -135 -32 -33 -57 -62 -55 -64 7
-8 272 126 293 149 27 29 33 62 13 64 -8 1 -33 -5 -55 -14z"/>
<path d="M1104 434 c-59 -180 -202 -309 -387 -350 -69 -15 -77 -19 -77 -41 l0
-23 475 0 475 0 0 23 c0 22 -8 26 -75 40 -176 39 -311 151 -371 307 -22 57
-32 68 -40 44z"/>
</g>
</svg>
